<svg width="17" height="28" viewBox="0 0 17 28" fill="none" xmlns="http://www.w3.org/2000/svg">
<path d="M8.52965 27.4437C9.44942 27.4437 10.195 26.6781 10.195 25.7336C10.195 24.7891 9.44942 24.0234 8.52965 24.0234C7.60988 24.0234 6.86426 24.7891 6.86426 25.7336C6.86426 26.6781 7.60988 27.4437 8.52965 27.4437Z" fill="url(#paint0_radial_266_124)"/>
<path d="M10.5756 20.0156H6.55519C5.90689 20.0156 5.38135 20.5553 5.38135 21.221V25.2892C5.38135 25.9549 5.90689 26.4945 6.55519 26.4945H10.5756C11.2239 26.4945 11.7494 25.9549 11.7494 25.2892V21.221C11.7494 20.5553 11.2239 20.0156 10.5756 20.0156Z" fill="url(#paint1_linear_266_124)"/>
<path d="M10.5756 20.0156H6.55519C5.90689 20.0156 5.38135 20.5553 5.38135 21.221V25.2892C5.38135 25.9549 5.90689 26.4945 6.55519 26.4945H10.5756C11.2239 26.4945 11.7494 25.9549 11.7494 25.2892V21.221C11.7494 20.5553 11.2239 20.0156 10.5756 20.0156Z" fill="url(#paint2_linear_266_124)"/>
<path d="M10.5756 20.0156H6.55519C5.90689 20.0156 5.38135 20.5553 5.38135 21.221V25.2892C5.38135 25.9549 5.90689 26.4945 6.55519 26.4945H10.5756C11.2239 26.4945 11.7494 25.9549 11.7494 25.2892V21.221C11.7494 20.5553 11.2239 20.0156 10.5756 20.0156Z" fill="url(#paint3_radial_266_124)"/>
<path d="M10.5756 20.0156H6.55519C5.90689 20.0156 5.38135 20.5553 5.38135 21.221V25.2892C5.38135 25.9549 5.90689 26.4945 6.55519 26.4945H10.5756C11.2239 26.4945 11.7494 25.9549 11.7494 25.2892V21.221C11.7494 20.5553 11.2239 20.0156 10.5756 20.0156Z" fill="url(#paint4_linear_266_124)"/>
<path d="M8.43489 20.7831C8.45264 20.7831 8.46963 20.7832 8.48569 20.7832C9.00707 20.7808 10.208 20.7601 10.6893 20.6702C11.2058 20.5738 11.2725 20.3094 11.3642 19.8942C11.9299 17.3356 12.8785 16.3519 13.513 15.6937C13.6109 15.5923 13.7013 15.4986 13.7816 15.4079C14.057 15.0976 14.2955 14.8243 14.4775 14.6133C15.8474 13.1204 16.6869 11.1086 16.6869 8.89541C16.6869 4.28948 13.0507 0.555664 8.56533 0.555664C4.08003 0.555664 0.443848 4.28948 0.443848 8.89541C0.443848 11.0816 1.26305 13.0713 2.60343 14.5586C2.79056 14.7759 3.04658 15.07 3.34652 15.4079C3.39863 15.4667 3.45507 15.5269 3.51499 15.5896C3.54738 15.6234 3.58072 15.6582 3.61509 15.6937C4.24962 16.3519 5.19818 17.3356 5.76388 19.8942C5.85572 20.3094 5.9224 20.5738 6.43889 20.6702C6.91913 20.7599 7.89117 20.7804 8.38305 20.7829C8.39911 20.7829 8.41648 20.7831 8.43489 20.7831Z" fill="url(#paint5_radial_266_124)"/>
<path d="M8.43489 20.7831C8.45264 20.7831 8.46963 20.7832 8.48569 20.7832C9.00707 20.7808 10.208 20.7601 10.6893 20.6702C11.2058 20.5738 11.2725 20.3094 11.3642 19.8942C11.9299 17.3356 12.8785 16.3519 13.513 15.6937C13.6109 15.5923 13.7013 15.4986 13.7816 15.4079C14.057 15.0976 14.2955 14.8243 14.4775 14.6133C15.8474 13.1204 16.6869 11.1086 16.6869 8.89541C16.6869 4.28948 13.0507 0.555664 8.56533 0.555664C4.08003 0.555664 0.443848 4.28948 0.443848 8.89541C0.443848 11.0816 1.26305 13.0713 2.60343 14.5586C2.79056 14.7759 3.04658 15.07 3.34652 15.4079C3.39863 15.4667 3.45507 15.5269 3.51499 15.5896C3.54738 15.6234 3.58072 15.6582 3.61509 15.6937C4.24962 16.3519 5.19818 17.3356 5.76388 19.8942C5.85572 20.3094 5.9224 20.5738 6.43889 20.6702C6.91913 20.7599 7.89117 20.7804 8.38305 20.7829C8.39911 20.7829 8.41648 20.7831 8.43489 20.7831Z" fill="url(#paint6_radial_266_124)"/>
<path d="M10.0272 8.54949C11.7533 8.54949 13.1526 7.11263 13.1526 5.34017C13.1526 3.56772 11.7533 2.13086 10.0272 2.13086C8.30112 2.13086 6.90186 3.56772 6.90186 5.34017C6.90186 7.11263 8.30112 8.54949 10.0272 8.54949Z" fill="url(#paint7_linear_266_124)"/>
<path d="M8.16406 20.781C8.13109 18.6864 7.96854 17.3071 7.7211 16.347C7.4359 15.2404 7.03698 14.6889 6.61487 14.2516L6.60961 14.2461L6.60407 14.2408C6.06344 13.7155 5.72716 12.9734 5.72716 12.1498C5.72716 10.5604 6.98195 9.27192 8.52973 9.27192C10.0775 9.27192 11.3323 10.5604 11.3323 12.1498C11.3323 12.9734 10.9959 13.7155 10.4554 14.2408L10.4499 14.2461L10.4445 14.2516C10.0301 14.6811 9.62572 15.1963 9.33715 16.2938C9.08735 17.2432 8.92395 18.6274 8.89146 20.7789C9.17469 20.7742 9.51341 20.7653 9.83119 20.7495C9.86472 18.659 10.0245 17.3785 10.2437 16.5452C10.4811 15.6423 10.7864 15.2679 11.1065 14.9357C11.8233 14.2362 12.2714 13.2463 12.2714 12.1498C12.2714 10.0278 10.5962 8.30762 8.52973 8.30762C6.4633 8.30762 4.78809 10.0278 4.78809 12.1498C4.78809 13.2463 5.23602 14.2361 5.95291 14.9356C6.26562 15.2604 6.5742 15.6662 6.81329 16.5937C7.03172 17.441 7.19024 18.7191 7.22433 20.7501C7.54953 20.7685 7.89248 20.7773 8.16406 20.781Z" fill="#FFAD55"/>
<path d="M9.47881 20.5619C9.47881 15.9611 10.1654 15.2273 10.9018 14.4642C11.5322 13.8518 11.9256 12.9846 11.9256 12.0231C11.9256 10.1674 10.4606 8.66309 8.65346 8.66309C6.8463 8.66309 5.38135 10.1674 5.38135 12.0231C5.38135 12.9846 5.77473 13.8518 6.40513 14.4642C7.14155 15.2273 7.82444 16.5481 7.82444 20.5619" stroke="url(#paint8_linear_266_124)" stroke-width="0.123141"/>
<path d="M11.1233 21.9245L5.7973 22.7814C5.52308 22.8256 5.33561 23.0896 5.37858 23.3712C5.42154 23.6528 5.67867 23.8453 5.9529 23.8012L11.2789 22.9442C11.5532 22.9001 11.7406 22.6361 11.6977 22.3545C11.6547 22.0729 11.3976 21.8804 11.1233 21.9245Z" fill="#7E6693"/>
<path d="M11.1233 24.2097L5.7973 25.0666C5.52308 25.1107 5.33561 25.3748 5.37858 25.6563C5.42154 25.9379 5.67867 26.1304 5.9529 26.0863L11.2789 25.2294C11.5532 25.1853 11.7406 24.9212 11.6977 24.6396C11.6547 24.3581 11.3976 24.1656 11.1233 24.2097Z" fill="#7E6693"/>
<path d="M11.8092 23.9575L5.11218 25.035C4.82991 25.0804 4.63693 25.3522 4.68116 25.642L4.68116 25.642C4.72539 25.9319 4.99007 26.1301 5.27235 26.0846L11.9693 25.0071C12.2516 24.9617 12.4446 24.6899 12.4004 24.4001L12.4004 24.4001C12.3561 24.1102 12.0914 23.912 11.8092 23.9575Z" fill="url(#paint9_linear_266_124)"/>
<path d="M11.8092 23.9575L5.11218 25.035C4.82991 25.0804 4.63693 25.3522 4.68116 25.642L4.68116 25.642C4.72539 25.9319 4.99007 26.1301 5.27235 26.0846L11.9693 25.0071C12.2516 24.9617 12.4446 24.6899 12.4004 24.4001L12.4004 24.4001C12.3561 24.1102 12.0914 23.912 11.8092 23.9575Z" fill="url(#paint10_linear_266_124)"/>
<path d="M11.8092 23.9575L5.11218 25.035C4.82991 25.0804 4.63693 25.3522 4.68116 25.642L4.68116 25.642C4.72539 25.9319 4.99007 26.1301 5.27235 26.0846L11.9693 25.0071C12.2516 24.9617 12.4446 24.6899 12.4004 24.4001L12.4004 24.4001C12.3561 24.1102 12.0914 23.912 11.8092 23.9575Z" fill="url(#paint11_linear_266_124)"/>
<path d="M11.8092 23.9575L5.11218 25.035C4.82991 25.0804 4.63693 25.3522 4.68116 25.642L4.68116 25.642C4.72539 25.9319 4.99007 26.1301 5.27235 26.0846L11.9693 25.0071C12.2516 24.9617 12.4446 24.6899 12.4004 24.4001L12.4004 24.4001C12.3561 24.1102 12.0914 23.912 11.8092 23.9575Z" fill="url(#paint12_radial_266_124)"/>
<path d="M11.8092 21.6655L5.11218 22.743C4.82991 22.7884 4.63693 23.0602 4.68116 23.35L4.68116 23.35C4.72539 23.6399 4.99007 23.8381 5.27235 23.7926L11.9693 22.7151C12.2516 22.6697 12.4446 22.3979 12.4004 22.1081L12.4004 22.1081C12.3561 21.8182 12.0914 21.62 11.8092 21.6655Z" fill="url(#paint13_linear_266_124)"/>
<path d="M11.8092 21.6655L5.11218 22.743C4.82991 22.7884 4.63693 23.0602 4.68116 23.35L4.68116 23.35C4.72539 23.6399 4.99007 23.8381 5.27235 23.7926L11.9693 22.7151C12.2516 22.6697 12.4446 22.3979 12.4004 22.1081L12.4004 22.1081C12.3561 21.8182 12.0914 21.62 11.8092 21.6655Z" fill="url(#paint14_linear_266_124)"/>
<path d="M11.8092 21.6655L5.11218 22.743C4.82991 22.7884 4.63693 23.0602 4.68116 23.35L4.68116 23.35C4.72539 23.6399 4.99007 23.8381 5.27235 23.7926L11.9693 22.7151C12.2516 22.6697 12.4446 22.3979 12.4004 22.1081L12.4004 22.1081C12.3561 21.8182 12.0914 21.62 11.8092 21.6655Z" fill="url(#paint15_linear_266_124)"/>
<path d="M11.8092 21.6655L5.11218 22.743C4.82991 22.7884 4.63693 23.0602 4.68116 23.35L4.68116 23.35C4.72539 23.6399 4.99007 23.8381 5.27235 23.7926L11.9693 22.7151C12.2516 22.6697 12.4446 22.3979 12.4004 22.1081L12.4004 22.1081C12.3561 21.8182 12.0914 21.62 11.8092 21.6655Z" fill="url(#paint16_radial_266_124)"/>
<defs>
<radialGradient id="paint0_radial_266_124" cx="0" cy="0" r="1" gradientUnits="userSpaceOnUse" gradientTransform="translate(8.96979 26.7054) rotate(96.4818) scale(0.90985 2.05366)">
<stop offset="0.267752" stop-color="#AC90C6"/>
<stop offset="1" stop-color="#8E6AAA"/>
</radialGradient>
<linearGradient id="paint1_linear_266_124" x1="11.7495" y1="23.5157" x2="5.38135" y2="23.5157" gradientUnits="userSpaceOnUse">
<stop stop-color="#CDC2D1"/>
<stop offset="1" stop-color="#947C8D"/>
</linearGradient>
<linearGradient id="paint2_linear_266_124" x1="5.06695" y1="24.0084" x2="6.62233" y2="24.0084" gradientUnits="userSpaceOnUse">
<stop stop-color="#8A7B88"/>
<stop offset="1" stop-color="#8A7B88" stop-opacity="0"/>
</linearGradient>
<radialGradient id="paint3_radial_266_124" cx="0" cy="0" r="1" gradientUnits="userSpaceOnUse" gradientTransform="translate(9.87857 20.4674) rotate(88.6718) scale(0.795412 3.44873)">
<stop offset="0.228769" stop-color="#EDE2EB"/>
<stop offset="1" stop-color="#C8BCCB" stop-opacity="0"/>
</radialGradient>
<linearGradient id="paint4_linear_266_124" x1="10.0265" y1="26.4945" x2="10.0265" y2="25.2741" gradientUnits="userSpaceOnUse">
<stop stop-color="#7E5F9E"/>
<stop offset="1" stop-color="#7E5F9E" stop-opacity="0"/>
</linearGradient>
<radialGradient id="paint5_radial_266_124" cx="0" cy="0" r="1" gradientUnits="userSpaceOnUse" gradientTransform="translate(11.9926 6.46933) rotate(137.31) scale(9.42221 7.78878)">
<stop offset="0.286168" stop-color="#FFEC87"/>
<stop offset="1" stop-color="#FFCD4B"/>
</radialGradient>
<radialGradient id="paint6_radial_266_124" cx="0" cy="0" r="1" gradientUnits="userSpaceOnUse" gradientTransform="translate(12.873 11.5922) rotate(-146.913) scale(13.8001 13.4206)">
<stop offset="0.622387" stop-color="#FFB239" stop-opacity="0"/>
<stop offset="1" stop-color="#FFB239"/>
</radialGradient>
<linearGradient id="paint7_linear_266_124" x1="8.93422" y1="6.37612" x2="12.2112" y2="3.88943" gradientUnits="userSpaceOnUse">
<stop stop-color="white" stop-opacity="0"/>
<stop offset="0.594121" stop-color="white"/>
</linearGradient>
<linearGradient id="paint8_linear_266_124" x1="12.1464" y1="9.23984" x2="8.21244" y2="18.367" gradientUnits="userSpaceOnUse">
<stop stop-color="#FFBF5C"/>
<stop offset="1" stop-color="#FFBF5C" stop-opacity="0"/>
</linearGradient>
<linearGradient id="paint9_linear_266_124" x1="8.36856" y1="24.5201" x2="8.63089" y2="25.6622" gradientUnits="userSpaceOnUse">
<stop stop-color="#B1969A"/>
<stop offset="1" stop-color="#DAD2E2"/>
</linearGradient>
<linearGradient id="paint10_linear_266_124" x1="9.42506" y1="25.394" x2="9.30141" y2="24.6417" gradientUnits="userSpaceOnUse">
<stop stop-color="#8A68A9"/>
<stop offset="1" stop-color="#DEC2E3" stop-opacity="0"/>
</linearGradient>
<linearGradient id="paint11_linear_266_124" x1="4.60102" y1="25.7255" x2="7.17106" y2="25.1956" gradientUnits="userSpaceOnUse">
<stop stop-color="#958387"/>
<stop offset="1" stop-color="#958387" stop-opacity="0"/>
</linearGradient>
<radialGradient id="paint12_radial_266_124" cx="0" cy="0" r="1" gradientUnits="userSpaceOnUse" gradientTransform="translate(11.0537 24.4462) rotate(81.6377) scale(0.807145 4.65777)">
<stop offset="0.126697" stop-color="#FCF0FC"/>
<stop offset="1" stop-color="#E5C9E3" stop-opacity="0"/>
</radialGradient>
<linearGradient id="paint13_linear_266_124" x1="8.36856" y1="22.2281" x2="8.63089" y2="23.3703" gradientUnits="userSpaceOnUse">
<stop stop-color="#B1969A"/>
<stop offset="1" stop-color="#DAD2E2"/>
</linearGradient>
<linearGradient id="paint14_linear_266_124" x1="9.42506" y1="23.102" x2="9.30141" y2="22.3497" gradientUnits="userSpaceOnUse">
<stop stop-color="#8A68A9"/>
<stop offset="1" stop-color="#DEC2E3" stop-opacity="0"/>
</linearGradient>
<linearGradient id="paint15_linear_266_124" x1="4.60102" y1="23.4335" x2="7.17106" y2="22.9036" gradientUnits="userSpaceOnUse">
<stop stop-color="#958387"/>
<stop offset="1" stop-color="#958387" stop-opacity="0"/>
</linearGradient>
<radialGradient id="paint16_radial_266_124" cx="0" cy="0" r="1" gradientUnits="userSpaceOnUse" gradientTransform="translate(11.0537 22.1542) rotate(81.6377) scale(0.807145 4.65777)">
<stop offset="0.126697" stop-color="#FCF0FC"/>
<stop offset="1" stop-color="#E5C9E3" stop-opacity="0"/>
</radialGradient>
</defs>
</svg>
