<svg width="294" height="253" viewBox="0 0 294 253" fill="none" xmlns="http://www.w3.org/2000/svg">
<path d="M50.7148 5.76414C55.445 3.44005 67.8661 -1.44183 88.1245 0.410645C121.899 5.31019 147.79 9.21624 156.718 10.6589L135.001 23.7367C140.071 28.8143 144.452 34.5778 147.997 40.8759L152.016 36.2586L265.508 135.5C275.66 144.377 276.175 159.995 266.63 169.523C261.314 174.828 254.037 177.055 247.075 176.124C251.857 185.505 250.412 197.336 242.517 205.3C235.339 212.539 224.794 214.544 215.751 211.139C215.563 217.268 213.15 223.356 208.464 228.083C200.175 236.443 187.394 237.823 177.625 231.949C176.699 236.746 174.392 241.338 170.682 245.089C161.167 254.707 145.815 255.274 135.617 246.384L43.1716 165.791C36.9132 160.335 33.9304 152.519 34.3939 144.826C13.6244 130.58 0 106.674 0 79.5861C0 45.9128 21.0528 17.1574 50.7148 5.76414Z" fill="url(#paint0_linear_202_205)"/>
<path d="M50.7148 5.76414C55.445 3.44005 67.8661 -1.44183 88.1245 0.410645C121.899 5.31019 147.79 9.21624 156.718 10.6589L135.001 23.7367C140.071 28.8143 144.452 34.5778 147.997 40.8759L152.016 36.2586L265.508 135.5C275.66 144.377 276.175 159.995 266.63 169.523C261.314 174.828 254.037 177.055 247.075 176.124C251.857 185.505 250.412 197.336 242.517 205.3C235.339 212.539 224.794 214.544 215.751 211.139C215.563 217.268 213.15 223.356 208.464 228.083C200.175 236.443 187.394 237.823 177.625 231.949C176.699 236.746 174.392 241.338 170.682 245.089C161.167 254.707 145.815 255.274 135.617 246.384L43.1716 165.791C36.9132 160.335 33.9304 152.519 34.3939 144.826C13.6244 130.58 0 106.674 0 79.5861C0 45.9128 21.0528 17.1574 50.7148 5.76414Z" fill="url(#paint1_radial_202_205)"/>
<path d="M50.7148 5.76414C55.445 3.44005 67.8661 -1.44183 88.1245 0.410645C121.899 5.31019 147.79 9.21624 156.718 10.6589L135.001 23.7367C140.071 28.8143 144.452 34.5778 147.997 40.8759L152.016 36.2586L265.508 135.5C275.66 144.377 276.175 159.995 266.63 169.523C261.314 174.828 254.037 177.055 247.075 176.124C251.857 185.505 250.412 197.336 242.517 205.3C235.339 212.539 224.794 214.544 215.751 211.139C215.563 217.268 213.15 223.356 208.464 228.083C200.175 236.443 187.394 237.823 177.625 231.949C176.699 236.746 174.392 241.338 170.682 245.089C161.167 254.707 145.815 255.274 135.617 246.384L43.1716 165.791C36.9132 160.335 33.9304 152.519 34.3939 144.826C13.6244 130.58 0 106.674 0 79.5861C0 45.9128 21.0528 17.1574 50.7148 5.76414Z" fill="url(#paint2_radial_202_205)"/>
<path d="M50.7148 5.76414C55.445 3.44005 67.8661 -1.44183 88.1245 0.410645C121.899 5.31019 147.79 9.21624 156.718 10.6589L135.001 23.7367C140.071 28.8143 144.452 34.5778 147.997 40.8759L152.016 36.2586L265.508 135.5C275.66 144.377 276.175 159.995 266.63 169.523C261.314 174.828 254.037 177.055 247.075 176.124C251.857 185.505 250.412 197.336 242.517 205.3C235.339 212.539 224.794 214.544 215.751 211.139C215.563 217.268 213.15 223.356 208.464 228.083C200.175 236.443 187.394 237.823 177.625 231.949C176.699 236.746 174.392 241.338 170.682 245.089C161.167 254.707 145.815 255.274 135.617 246.384L43.1716 165.791C36.9132 160.335 33.9304 152.519 34.3939 144.826C13.6244 130.58 0 106.674 0 79.5861C0 45.9128 21.0528 17.1574 50.7148 5.76414Z" fill="url(#paint3_radial_202_205)"/>
<path d="M50.7148 5.76414C55.445 3.44005 67.8661 -1.44183 88.1245 0.410645C121.899 5.31019 147.79 9.21624 156.718 10.6589L135.001 23.7367C140.071 28.8143 144.452 34.5778 147.997 40.8759L152.016 36.2586L265.508 135.5C275.66 144.377 276.175 159.995 266.63 169.523C261.314 174.828 254.037 177.055 247.075 176.124C251.857 185.505 250.412 197.336 242.517 205.3C235.339 212.539 224.794 214.544 215.751 211.139C215.563 217.268 213.15 223.356 208.464 228.083C200.175 236.443 187.394 237.823 177.625 231.949C176.699 236.746 174.392 241.338 170.682 245.089C161.167 254.707 145.815 255.274 135.617 246.384L43.1716 165.791C36.9132 160.335 33.9304 152.519 34.3939 144.826C13.6244 130.58 0 106.674 0 79.5861C0 45.9128 21.0528 17.1574 50.7148 5.76414Z" fill="url(#paint4_radial_202_205)"/>
<path d="M50.7148 5.76414C55.445 3.44005 67.8661 -1.44183 88.1245 0.410645C121.899 5.31019 147.79 9.21624 156.718 10.6589L135.001 23.7367C140.071 28.8143 144.452 34.5778 147.997 40.8759L152.016 36.2586L265.508 135.5C275.66 144.377 276.175 159.995 266.63 169.523C261.314 174.828 254.037 177.055 247.075 176.124C251.857 185.505 250.412 197.336 242.517 205.3C235.339 212.539 224.794 214.544 215.751 211.139C215.563 217.268 213.15 223.356 208.464 228.083C200.175 236.443 187.394 237.823 177.625 231.949C176.699 236.746 174.392 241.338 170.682 245.089C161.167 254.707 145.815 255.274 135.617 246.384L43.1716 165.791C36.9132 160.335 33.9304 152.519 34.3939 144.826C13.6244 130.58 0 106.674 0 79.5861C0 45.9128 21.0528 17.1574 50.7148 5.76414Z" fill="url(#paint5_radial_202_205)"/>
<path d="M50.7148 5.76414C55.445 3.44005 67.8661 -1.44183 88.1245 0.410645C121.899 5.31019 147.79 9.21624 156.718 10.6589L135.001 23.7367C140.071 28.8143 144.452 34.5778 147.997 40.8759L152.016 36.2586L265.508 135.5C275.66 144.377 276.175 159.995 266.63 169.523C261.314 174.828 254.037 177.055 247.075 176.124C251.857 185.505 250.412 197.336 242.517 205.3C235.339 212.539 224.794 214.544 215.751 211.139C215.563 217.268 213.15 223.356 208.464 228.083C200.175 236.443 187.394 237.823 177.625 231.949C176.699 236.746 174.392 241.338 170.682 245.089C161.167 254.707 145.815 255.274 135.617 246.384L43.1716 165.791C36.9132 160.335 33.9304 152.519 34.3939 144.826C13.6244 130.58 0 106.674 0 79.5861C0 45.9128 21.0528 17.1574 50.7148 5.76414Z" fill="url(#paint6_radial_202_205)"/>
<path fill-rule="evenodd" clip-rule="evenodd" d="M28.4347 128.912C20.9623 136.499 20.4565 148.514 27.2649 156.703C32.4537 162.943 40.4912 165.717 47.8322 164.318C44.1508 171.887 45.4683 181.264 51.7559 187.529C57.5187 193.271 66.1425 195.345 73.4557 193.005C72.1936 199.237 75.1509 206.315 80.2132 211.378C85.2084 216.373 93.0456 217.63 99.2752 215.65C98.4965 221.314 100.186 227.456 103.936 231.965C110.942 240.391 124.563 242.491 133.215 235.271L147.245 220.766C154.393 213.752 153.822 200.261 147.245 192.709C142.777 187.578 136.439 185.315 130.423 186.182C134.482 179.086 132.869 169.581 127.806 163.785C122.68 157.92 115.702 155.66 109.512 156.985C112.737 149.309 111.156 139.882 104.955 133.792C98.3952 127.351 88.3609 126.409 80.6089 130.656C81.8172 124.514 80.26 117.915 75.8587 112.86C67.855 103.67 53.722 103.237 45.1703 111.919L28.4347 128.912Z" fill="#FFB21A"/>
<path d="M136.733 208.344L161.942 230.881" stroke="url(#paint7_linear_202_205)" stroke-width="15.6786" stroke-linecap="round"/>
<path d="M117.552 22.9746C111.2 24.7718 105.034 26.7867 99.2172 29.0372L99.2402 29.0902C92.8079 32.1423 88.375 38.5814 88.375 46.0311C88.375 56.4281 97.0097 64.8569 107.663 64.8569C110.257 64.8569 112.731 64.3572 114.99 63.451C116.812 62.8835 118.752 62.2699 120.768 61.6323L120.8 61.6229C122.47 61.0951 124.288 60.5087 126.19 59.8972C162.757 48.1257 144.584 43.9876 117.552 22.9746Z" fill="#D77A15"/>
<path d="M168.887 67.9531L258.386 147.652" stroke="url(#paint8_linear_202_205)" stroke-width="15.6786" stroke-linecap="round"/>
<path d="M211.023 163.521L236.232 186.06" stroke="url(#paint9_linear_202_205)" stroke-width="15.6786" stroke-linecap="round"/>
<path d="M177.012 190.375L202.221 212.913" stroke="url(#paint10_linear_202_205)" stroke-width="15.6786" stroke-linecap="round"/>
<path d="M15.1036 160.349C7.55403 151.269 8.11491 137.946 16.4007 129.533L34.9583 110.69C44.441 101.063 60.1126 101.544 68.9877 111.735C77.0516 120.993 76.5056 134.933 67.7424 143.533L48.9154 163.033C39.3258 172.444 23.6942 170.68 15.1036 160.349Z" fill="url(#paint11_linear_202_205)"/>
<path d="M15.1036 160.349C7.55403 151.269 8.11491 137.946 16.4007 129.533L34.9583 110.69C44.441 101.063 60.1126 101.544 68.9877 111.735C77.0516 120.993 76.5056 134.933 67.7424 143.533L48.9154 163.033C39.3258 172.444 23.6942 170.68 15.1036 160.349Z" fill="url(#paint12_linear_202_205)"/>
<path d="M15.1036 160.349C7.55403 151.269 8.11491 137.946 16.4007 129.533L34.9583 110.69C44.441 101.063 60.1126 101.544 68.9877 111.735C77.0516 120.993 76.5056 134.933 67.7424 143.533L48.9154 163.033C39.3258 172.444 23.6942 170.68 15.1036 160.349Z" fill="url(#paint13_radial_202_205)"/>
<path d="M15.1036 160.349C7.55403 151.269 8.11491 137.946 16.4007 129.533L34.9583 110.69C44.441 101.063 60.1126 101.544 68.9877 111.735C77.0516 120.993 76.5056 134.933 67.7424 143.533L48.9154 163.033C39.3258 172.444 23.6942 170.68 15.1036 160.349Z" fill="url(#paint14_radial_202_205)"/>
<path d="M42.2616 194.526C33.5251 185.82 33.4419 171.698 42.0752 162.89L68.9154 135.506C77.6549 126.59 92.3434 126.192 101.252 134.939C110.193 143.717 110.471 158.755 101.641 167.644L74.6226 195.537C65.8695 204.347 51.059 203.293 42.2616 194.526Z" fill="url(#paint15_linear_202_205)"/>
<path d="M42.2616 194.526C33.5251 185.82 33.4419 171.698 42.0752 162.89L68.9154 135.506C77.6549 126.59 92.3434 126.192 101.252 134.939C110.193 143.717 110.471 158.755 101.641 167.644L74.6226 195.537C65.8695 204.347 51.059 203.293 42.2616 194.526Z" fill="url(#paint16_linear_202_205)"/>
<path d="M42.2616 194.526C33.5251 185.82 33.4419 171.698 42.0752 162.89L68.9154 135.506C77.6549 126.59 92.3434 126.192 101.252 134.939C110.193 143.717 110.471 158.755 101.641 167.644L74.6226 195.537C65.8695 204.347 51.059 203.293 42.2616 194.526Z" fill="url(#paint17_radial_202_205)"/>
<path d="M42.2616 194.526C33.5251 185.82 33.4419 171.698 42.0752 162.89L68.9154 135.506C77.6549 126.59 92.3434 126.192 101.252 134.939C110.193 143.717 110.471 158.755 101.641 167.644L74.6226 195.537C65.8695 204.347 51.059 203.293 42.2616 194.526Z" fill="url(#paint18_radial_202_205)"/>
<path d="M100.119 243.804C93.2913 235.593 92.6255 222.499 100.119 214.891L118.075 198.894C126.651 190.186 140.117 191.057 148.143 200.274C155.436 208.647 156.068 223.608 148.143 231.386L132.586 247.47C122.993 255.475 107.888 253.147 100.119 243.804Z" fill="url(#paint19_linear_202_205)"/>
<path d="M100.119 243.804C93.2913 235.593 92.6255 222.499 100.119 214.891L118.075 198.894C126.651 190.186 140.117 191.057 148.143 200.274C155.436 208.647 156.068 223.608 148.143 231.386L132.586 247.47C122.993 255.475 107.888 253.147 100.119 243.804Z" fill="url(#paint20_linear_202_205)"/>
<path d="M100.119 243.804C93.2913 235.593 92.6255 222.499 100.119 214.891L118.075 198.894C126.651 190.186 140.117 191.057 148.143 200.274C155.436 208.647 156.068 223.608 148.143 231.386L132.586 247.47C122.993 255.475 107.888 253.147 100.119 243.804Z" fill="url(#paint21_radial_202_205)"/>
<path d="M100.119 243.804C93.2913 235.593 92.6255 222.499 100.119 214.891L118.075 198.894C126.651 190.186 140.117 191.057 148.143 200.274C155.436 208.647 156.068 223.608 148.143 231.386L132.586 247.47C122.993 255.475 107.888 253.147 100.119 243.804Z" fill="url(#paint22_radial_202_205)"/>
<path d="M73.8165 220.979C65.91 213.073 62.634 200.731 70.5405 192.824L97.2669 165.611C105.174 157.704 118.149 158.546 126.59 168.206C133.174 175.741 134.496 188.931 126.59 196.838L102.448 220.979C96.0523 228.347 81.7229 228.886 73.8165 220.979Z" fill="url(#paint23_linear_202_205)"/>
<path d="M73.8165 220.979C65.91 213.073 62.634 200.731 70.5405 192.824L97.2669 165.611C105.174 157.704 118.149 158.546 126.59 168.206C133.174 175.741 134.496 188.931 126.59 196.838L102.448 220.979C96.0523 228.347 81.7229 228.886 73.8165 220.979Z" fill="url(#paint24_linear_202_205)"/>
<path d="M73.8165 220.979C65.91 213.073 62.634 200.731 70.5405 192.824L97.2669 165.611C105.174 157.704 118.149 158.546 126.59 168.206C133.174 175.741 134.496 188.931 126.59 196.838L102.448 220.979C96.0523 228.347 81.7229 228.886 73.8165 220.979Z" fill="url(#paint25_radial_202_205)"/>
<path d="M73.8165 220.979C65.91 213.073 62.634 200.731 70.5405 192.824L97.2669 165.611C105.174 157.704 118.149 158.546 126.59 168.206C133.174 175.741 134.496 188.931 126.59 196.838L102.448 220.979C96.0523 228.347 81.7229 228.886 73.8165 220.979Z" fill="url(#paint26_radial_202_205)"/>
<path d="M106.258 22.136L106.283 22.1977C98.981 25.7472 93.9492 33.2359 93.9492 41.8999C93.9492 53.992 103.751 63.7942 115.844 63.7942C118.788 63.7942 121.596 63.213 124.161 62.1594C126.229 61.4989 128.431 60.786 130.72 60.0449L130.756 60.0324C140.725 56.8026 155.409 51.7144 163.418 50.1204C165.901 49.626 168.354 50.5448 170.26 52.214L265.308 135.425C282.51 120.312 294 99.7274 294 75.8656C294 34.2304 261.031 0.478516 218.021 0.478516C188.529 1.93662 141.682 8.09328 106.258 22.136Z" fill="#FBB439"/>
<path d="M106.258 22.136L106.283 22.1977C98.981 25.7472 93.9492 33.2359 93.9492 41.8999C93.9492 53.992 103.751 63.7942 115.844 63.7942C118.788 63.7942 121.596 63.213 124.161 62.1594C126.229 61.4989 128.431 60.786 130.72 60.0449L130.756 60.0324C140.725 56.8026 155.409 51.7144 163.418 50.1204C165.901 49.626 168.354 50.5448 170.26 52.214L265.308 135.425C282.51 120.312 294 99.7274 294 75.8656C294 34.2304 261.031 0.478516 218.021 0.478516C188.529 1.93662 141.682 8.09328 106.258 22.136Z" fill="url(#paint27_radial_202_205)"/>
<path d="M106.258 22.136L106.283 22.1977C98.981 25.7472 93.9492 33.2359 93.9492 41.8999C93.9492 53.992 103.751 63.7942 115.844 63.7942C118.788 63.7942 121.596 63.213 124.161 62.1594C126.229 61.4989 128.431 60.786 130.72 60.0449L130.756 60.0324C140.725 56.8026 155.409 51.7144 163.418 50.1204C165.901 49.626 168.354 50.5448 170.26 52.214L265.308 135.425C282.51 120.312 294 99.7274 294 75.8656C294 34.2304 261.031 0.478516 218.021 0.478516C188.529 1.93662 141.682 8.09328 106.258 22.136Z" fill="url(#paint28_radial_202_205)"/>
<path d="M106.258 22.136L106.283 22.1977C98.981 25.7472 93.9492 33.2359 93.9492 41.8999C93.9492 53.992 103.751 63.7942 115.844 63.7942C118.788 63.7942 121.596 63.213 124.161 62.1594C126.229 61.4989 128.431 60.786 130.72 60.0449L130.756 60.0324C140.725 56.8026 155.409 51.7144 163.418 50.1204C165.901 49.626 168.354 50.5448 170.26 52.214L265.308 135.425C282.51 120.312 294 99.7274 294 75.8656C294 34.2304 261.031 0.478516 218.021 0.478516C188.529 1.93662 141.682 8.09328 106.258 22.136Z" fill="url(#paint29_radial_202_205)"/>
<path d="M106.258 22.136L106.283 22.1977C98.981 25.7472 93.9492 33.2359 93.9492 41.8999C93.9492 53.992 103.751 63.7942 115.844 63.7942C118.788 63.7942 121.596 63.213 124.161 62.1594C126.229 61.4989 128.431 60.786 130.72 60.0449L130.756 60.0324C140.725 56.8026 155.409 51.7144 163.418 50.1204C165.901 49.626 168.354 50.5448 170.26 52.214L265.308 135.425C282.51 120.312 294 99.7274 294 75.8656C294 34.2304 261.031 0.478516 218.021 0.478516C188.529 1.93662 141.682 8.09328 106.258 22.136Z" fill="url(#paint30_radial_202_205)"/>
<path d="M175.327 37.5187C161.689 40.8564 145.081 45.9482 132.944 49.941C125.805 52.2897 118.022 48.3125 115.945 41.0892C114.132 34.7815 117.326 28.1012 123.523 25.9373C139.095 20.4991 158.087 15.5663 171.667 12.7995C178.184 11.4718 184.264 15.9138 185.436 22.461C186.661 29.304 182.08 35.8661 175.327 37.5187Z" fill="#FFE746"/>
<defs>
<linearGradient id="paint0_linear_202_205" x1="215.594" y1="84.805" x2="145.694" y2="187.369" gradientUnits="userSpaceOnUse">
<stop stop-color="#FFD741"/>
<stop offset="1" stop-color="#FFBE37"/>
</linearGradient>
<radialGradient id="paint1_radial_202_205" cx="0" cy="0" r="1" gradientUnits="userSpaceOnUse" gradientTransform="translate(188.157 47.5684) rotate(122.645) scale(49.6531 69.0434)">
<stop stop-color="#FFDC38"/>
<stop offset="1" stop-color="#FFDC38" stop-opacity="0"/>
</radialGradient>
<radialGradient id="paint2_radial_202_205" cx="0" cy="0" r="1" gradientUnits="userSpaceOnUse" gradientTransform="translate(255.444 190.635) rotate(-136.375) scale(28.8792 23.0457)">
<stop stop-color="#FFCB41"/>
<stop offset="1" stop-color="#FFCB41" stop-opacity="0"/>
</radialGradient>
<radialGradient id="paint3_radial_202_205" cx="0" cy="0" r="1" gradientUnits="userSpaceOnUse" gradientTransform="translate(262.303 178.223) rotate(-138.778) scale(49.0717 13.4054)">
<stop stop-color="#F48E5A"/>
<stop offset="1" stop-color="#F48E5A" stop-opacity="0"/>
</radialGradient>
<radialGradient id="paint4_radial_202_205" cx="0" cy="0" r="1" gradientUnits="userSpaceOnUse" gradientTransform="translate(235.193 220.686) rotate(-134.193) scale(65.6012 17.9209)">
<stop stop-color="#F48E5A"/>
<stop offset="1" stop-color="#F48E5A" stop-opacity="0"/>
</radialGradient>
<radialGradient id="paint5_radial_202_205" cx="0" cy="0" r="1" gradientUnits="userSpaceOnUse" gradientTransform="translate(189.463 239.958) rotate(-133.968) scale(51.283 16.261)">
<stop stop-color="#F48E5A"/>
<stop offset="1" stop-color="#F48E5A" stop-opacity="0"/>
</radialGradient>
<radialGradient id="paint6_radial_202_205" cx="0" cy="0" r="1" gradientUnits="userSpaceOnUse" gradientTransform="translate(153.859 260.536) rotate(-139.295) scale(58.5993 17.1766)">
<stop stop-color="#F48E5A"/>
<stop offset="1" stop-color="#F48E5A" stop-opacity="0"/>
</radialGradient>
<linearGradient id="paint7_linear_202_205" x1="161.942" y1="230.881" x2="123.995" y2="193.645" gradientUnits="userSpaceOnUse">
<stop stop-color="#FFCD43"/>
<stop offset="1" stop-color="#FFCD43" stop-opacity="0"/>
</linearGradient>
<linearGradient id="paint8_linear_202_205" x1="258.386" y1="147.652" x2="163.662" y2="65.34" gradientUnits="userSpaceOnUse">
<stop stop-color="#FFE647"/>
<stop offset="1" stop-color="#FFE647" stop-opacity="0"/>
</linearGradient>
<linearGradient id="paint9_linear_202_205" x1="236.232" y1="186.06" x2="198.284" y2="148.823" gradientUnits="userSpaceOnUse">
<stop stop-color="#FFD941"/>
<stop offset="1" stop-color="#FFD941" stop-opacity="0"/>
</linearGradient>
<linearGradient id="paint10_linear_202_205" x1="202.221" y1="212.913" x2="164.273" y2="175.677" gradientUnits="userSpaceOnUse">
<stop stop-color="#FFD63F"/>
<stop offset="1" stop-color="#FFD63F" stop-opacity="0"/>
</linearGradient>
<linearGradient id="paint11_linear_202_205" x1="59.79" y1="117.472" x2="14.3875" y2="161.241" gradientUnits="userSpaceOnUse">
<stop stop-color="#FFBC41"/>
<stop offset="1" stop-color="#E69429"/>
</linearGradient>
<linearGradient id="paint12_linear_202_205" x1="55.707" y1="159.446" x2="45.5812" y2="148.666" gradientUnits="userSpaceOnUse">
<stop stop-color="#E08407"/>
<stop offset="1" stop-color="#E08407" stop-opacity="0"/>
</linearGradient>
<radialGradient id="paint13_radial_202_205" cx="0" cy="0" r="1" gradientUnits="userSpaceOnUse" gradientTransform="translate(34.639 176.594) rotate(-88.8767) scale(33.3233 30.1337)">
<stop stop-color="#DA725B"/>
<stop offset="1" stop-color="#DA725B" stop-opacity="0"/>
</radialGradient>
<radialGradient id="paint14_radial_202_205" cx="0" cy="0" r="1" gradientUnits="userSpaceOnUse" gradientTransform="translate(68.4458 109.96) rotate(136.229) scale(26.9138 26.0288)">
<stop stop-color="#FFE43E"/>
<stop offset="1" stop-color="#FFE43E" stop-opacity="0"/>
</radialGradient>
<linearGradient id="paint15_linear_202_205" x1="91.4738" y1="143.896" x2="40.774" y2="192.763" gradientUnits="userSpaceOnUse">
<stop stop-color="#FFBC41"/>
<stop offset="1" stop-color="#E69429"/>
</linearGradient>
<linearGradient id="paint16_linear_202_205" x1="86.9155" y1="190.766" x2="75.6081" y2="178.732" gradientUnits="userSpaceOnUse">
<stop stop-color="#E08407"/>
<stop offset="1" stop-color="#E08407" stop-opacity="0"/>
</linearGradient>
<radialGradient id="paint17_radial_202_205" cx="0" cy="0" r="1" gradientUnits="userSpaceOnUse" gradientTransform="translate(58.4845 208.272) rotate(-83.0945) scale(43.4676 51.3674)">
<stop stop-color="#E8766E"/>
<stop offset="1" stop-color="#E8766E" stop-opacity="0"/>
</radialGradient>
<radialGradient id="paint18_radial_202_205" cx="0" cy="0" r="1" gradientUnits="userSpaceOnUse" gradientTransform="translate(97.6804 138.698) rotate(136.026) scale(25.347 24.5137)">
<stop stop-color="#FFE43E"/>
<stop offset="1" stop-color="#FFE43E" stop-opacity="0"/>
</radialGradient>
<linearGradient id="paint19_linear_202_205" x1="140.28" y1="205.3" x2="98.9837" y2="245.164" gradientUnits="userSpaceOnUse">
<stop stop-color="#FFBC41"/>
<stop offset="1" stop-color="#E69429"/>
</linearGradient>
<linearGradient id="paint20_linear_202_205" x1="105.516" y1="211.216" x2="120.203" y2="220.708" gradientUnits="userSpaceOnUse">
<stop offset="0.155618" stop-color="#E08407"/>
<stop offset="1" stop-color="#E08407" stop-opacity="0"/>
</linearGradient>
<radialGradient id="paint21_radial_202_205" cx="0" cy="0" r="1" gradientUnits="userSpaceOnUse" gradientTransform="translate(113.03 260.538) rotate(-84.1036) scale(38.1547 45.1569)">
<stop stop-color="#E8766E"/>
<stop offset="1" stop-color="#E8766E" stop-opacity="0"/>
</radialGradient>
<radialGradient id="paint22_radial_202_205" cx="0" cy="0" r="1" gradientUnits="userSpaceOnUse" gradientTransform="translate(145.343 201.066) rotate(136.071) scale(20.6611 19.9807)">
<stop stop-color="#FFE43E"/>
<stop offset="1" stop-color="#FFE43E" stop-opacity="0"/>
</radialGradient>
<linearGradient id="paint23_linear_202_205" x1="116.871" y1="174.177" x2="70.7495" y2="218.715" gradientUnits="userSpaceOnUse">
<stop stop-color="#FFBC41"/>
<stop offset="1" stop-color="#E69429"/>
</linearGradient>
<linearGradient id="paint24_linear_202_205" x1="115.645" y1="219.386" x2="106.027" y2="209.081" gradientUnits="userSpaceOnUse">
<stop stop-color="#E08407"/>
<stop offset="1" stop-color="#E08407" stop-opacity="0"/>
</linearGradient>
<radialGradient id="paint25_radial_202_205" cx="0" cy="0" r="1" gradientUnits="userSpaceOnUse" gradientTransform="translate(86.8072 232.737) rotate(-83.0818) scale(39.541 46.8117)">
<stop stop-color="#E8766E"/>
<stop offset="1" stop-color="#E8766E" stop-opacity="0"/>
</radialGradient>
<radialGradient id="paint26_radial_202_205" cx="0" cy="0" r="1" gradientUnits="userSpaceOnUse" gradientTransform="translate(122.528 169.45) rotate(136.08) scale(23.0789 22.3187)">
<stop stop-color="#FFE43E"/>
<stop offset="1" stop-color="#FFE43E" stop-opacity="0"/>
</radialGradient>
<radialGradient id="paint27_radial_202_205" cx="0" cy="0" r="1" gradientUnits="userSpaceOnUse" gradientTransform="translate(179.948 116.814) rotate(-33.6901) scale(126.772 199.244)">
<stop offset="0.360862" stop-color="#FFE949" stop-opacity="0"/>
<stop offset="1" stop-color="#FFE949"/>
</radialGradient>
<radialGradient id="paint28_radial_202_205" cx="0" cy="0" r="1" gradientUnits="userSpaceOnUse" gradientTransform="translate(93.9492 50.3388) rotate(-21.4027) scale(45.164 72.5237)">
<stop stop-color="#EE9226"/>
<stop offset="1" stop-color="#EE9226" stop-opacity="0"/>
</radialGradient>
<radialGradient id="paint29_radial_202_205" cx="0" cy="0" r="1" gradientUnits="userSpaceOnUse" gradientTransform="translate(175.004 119.011) rotate(-38.5505) scale(89.9166 85.808)">
<stop stop-color="#F7A91E"/>
<stop offset="1" stop-color="#F7A91E" stop-opacity="0"/>
</radialGradient>
<radialGradient id="paint30_radial_202_205" cx="0" cy="0" r="1" gradientUnits="userSpaceOnUse" gradientTransform="translate(190.936 100.333) rotate(-35.9316) scale(120.769 188.954)">
<stop offset="0.660528" stop-color="#FFEA49" stop-opacity="0"/>
<stop offset="1" stop-color="#FFEA49"/>
</radialGradient>
</defs>
</svg>
