<svg width="66" height="60" viewBox="0 0 66 60" fill="none" xmlns="http://www.w3.org/2000/svg">
<path d="M32.7489 18.3217C32.3427 19.8991 30.9634 21.0758 29.3331 21.891C24.7117 23.4901 21.0611 25.0281 18.0405 26.5214C15.3664 27.8433 15.3922 32.0209 18.075 33.3251C21.2096 34.8489 25.145 36.3105 29.5159 38.0431C30.6912 38.509 32.352 39.8252 32.7653 41.4431C34.0393 46.4287 35.7726 51.7065 37.6813 56.5789C39.1629 60.361 42.8259 60.3582 44.3148 56.5789C46.2476 51.6727 47.7159 46.3732 49.3731 41.3311C49.7697 39.7742 50.9441 38.5431 52.4583 38.0068C56.5508 36.5569 60.4958 34.9209 63.7113 33.5046C66.7143 32.182 66.7763 27.8879 63.811 26.483C60.6442 24.9829 56.7053 23.2458 52.4385 21.6953C50.9369 21.1497 49.7816 19.998 49.2477 18.3634C47.4494 12.8552 46.3098 8.18531 44.3992 3.33566C42.9102 -0.443745 39.0015 -0.32743 37.5125 3.45198C35.6091 8.28373 34.2803 13.0931 32.7489 18.3217Z" fill="url(#paint0_linear_202_326)"/>
<path d="M32.7489 18.3275C32.3427 19.9049 30.9634 21.0817 29.3331 21.8968C24.7117 23.4959 21.0611 25.034 18.0405 26.5273C15.3664 27.8492 15.3922 32.0267 18.075 33.331C21.2096 34.8548 25.145 36.3163 29.5159 38.0489C30.6912 38.5149 32.352 39.8311 32.7653 41.449C34.0393 46.4346 35.7726 51.7124 37.6813 56.5847C39.1629 60.3669 42.8259 60.364 44.3148 56.5847C46.2476 51.6785 47.7159 46.379 49.3731 41.337C49.7697 39.7801 50.9441 38.549 52.4583 38.0127C56.5508 36.5628 60.4958 34.9268 63.7113 33.5105C66.7143 32.1879 66.7763 27.8937 63.811 26.4889C60.6442 24.9887 56.7053 23.2516 52.4385 21.7012C50.9369 21.1556 49.7816 20.0039 49.2477 18.3692C47.4494 12.8611 46.3098 8.19117 44.3992 3.34152C42.9102 -0.437885 39.0015 -0.32157 37.5125 3.45784C35.6091 8.28959 34.2803 13.099 32.7489 18.3275Z" fill="url(#paint1_linear_202_326)"/>
<path d="M13.5542 5.71717C13.4235 6.22488 12.9796 6.60362 12.4549 6.86597C10.9674 7.38062 9.79243 7.87572 8.82023 8.35633C7.95954 8.78179 7.96786 10.1263 8.83133 10.5461C9.8402 11.0366 11.1069 11.507 12.5137 12.0647C12.8919 12.2146 13.4265 12.6382 13.5595 13.159C13.9696 14.7636 14.5275 16.4623 15.1418 18.0306C15.6187 19.2479 16.7976 19.2469 17.2768 18.0306C17.8989 16.4515 18.3715 14.7458 18.9049 13.1229C19.0326 12.6218 19.4104 12.2256 19.8979 12.053C21.215 11.5864 22.4847 11.0598 23.5198 10.6039C24.4863 10.1782 24.5061 8.79614 23.5518 8.34399C22.5326 7.86113 21.2648 7.30199 19.8914 6.803C19.408 6.62736 19.0362 6.25673 18.8645 5.73061C18.2857 3.95776 17.9189 2.45472 17.304 0.893811C16.8247 -0.322612 15.5667 -0.285167 15.0875 0.931256C14.4748 2.4864 14.0471 4.03432 13.5542 5.71717Z" fill="url(#paint2_linear_202_326)"/>
<path d="M13.5542 5.71717C13.4235 6.22488 12.9796 6.60362 12.4549 6.86597C10.9674 7.38062 9.79243 7.87572 8.82023 8.35633C7.95954 8.78179 7.96786 10.1263 8.83133 10.5461C9.8402 11.0366 11.1069 11.507 12.5137 12.0647C12.8919 12.2146 13.4265 12.6382 13.5595 13.159C13.9696 14.7636 14.5275 16.4623 15.1418 18.0306C15.6187 19.2479 16.7976 19.2469 17.2768 18.0306C17.8989 16.4515 18.3715 14.7458 18.9049 13.1229C19.0326 12.6218 19.4104 12.2256 19.8979 12.053C21.215 11.5864 22.4847 11.0598 23.5198 10.6039C24.4863 10.1782 24.5061 8.79614 23.5518 8.34399C22.5326 7.86113 21.2648 7.30199 19.8914 6.803C19.408 6.62736 19.0362 6.25673 18.8645 5.73061C18.2857 3.95776 17.9189 2.45472 17.304 0.893811C16.8247 -0.322612 15.5667 -0.285167 15.0875 0.931256C14.4748 2.4864 14.0471 4.03432 13.5542 5.71717Z" fill="url(#paint3_linear_202_326)"/>
<path d="M7.49519 39.6834C7.31288 40.3913 6.6939 40.9195 5.96221 41.2854C3.88797 42.003 2.24957 42.6933 0.893876 43.3635C-0.306291 43.9568 -0.294707 45.8317 0.909345 46.4171C2.31619 47.1011 4.08251 47.7571 6.04421 48.5346C6.57165 48.7436 7.31705 49.3345 7.5026 50.0605C8.07441 52.2981 8.85236 54.6671 9.70897 56.8537C10.374 58.5513 12.018 58.5501 12.6862 56.8537C13.5536 54.6518 14.2127 52.2733 14.9564 50.0102C15.1344 49.3116 15.6614 48.7591 16.3411 48.5184C18.1779 47.8677 19.9485 47.1333 21.3917 46.4976C22.7393 45.9041 22.7672 43.9768 21.4362 43.3464C20.0152 42.673 18.2472 41.8934 16.3323 41.1974C15.6582 40.9526 15.1397 40.4356 14.9002 39.702C14.093 37.2298 13.5815 35.134 12.724 32.9574C12.0558 31.2611 10.3015 31.3133 9.63327 33.0096C8.77895 35.1781 8.1825 37.3366 7.49519 39.6834Z" fill="url(#paint4_radial_202_326)"/>
<defs>
<linearGradient id="paint0_linear_202_326" x1="57.3169" y1="18.7157" x2="30.9164" y2="46.5076" gradientUnits="userSpaceOnUse">
<stop stop-color="#FFCF5A"/>
<stop offset="1" stop-color="#FEA254"/>
</linearGradient>
<linearGradient id="paint1_linear_202_326" x1="30.2045" y1="61.6699" x2="44.5959" y2="31.3131" gradientUnits="userSpaceOnUse">
<stop stop-color="#FF886D"/>
<stop offset="1" stop-color="#FF886D" stop-opacity="0"/>
</linearGradient>
<linearGradient id="paint2_linear_202_326" x1="21.4617" y1="5.84395" x2="12.9644" y2="14.789" gradientUnits="userSpaceOnUse">
<stop stop-color="#FFDA72"/>
<stop offset="1" stop-color="#F7A967"/>
</linearGradient>
<linearGradient id="paint3_linear_202_326" x1="16.2177" y1="20.4091" x2="16.2177" y2="10.5772" gradientUnits="userSpaceOnUse">
<stop stop-color="#FDA071"/>
<stop offset="1" stop-color="#FDA071" stop-opacity="0"/>
</linearGradient>
<radialGradient id="paint4_radial_202_326" cx="0" cy="0" r="1" gradientUnits="userSpaceOnUse" gradientTransform="translate(18.9062 36.1115) rotate(127.221) scale(16.8656 16.424)">
<stop offset="0.364601" stop-color="#FFBC64"/>
<stop offset="1" stop-color="#FF8F6B"/>
</radialGradient>
</defs>
</svg>
