<svg width="54" height="48" viewBox="0 0 54 48" fill="none" xmlns="http://www.w3.org/2000/svg">
<path d="M26.4562 14.8028C26.1281 16.0771 25.0139 17.0277 23.6968 17.6862C19.9635 18.978 17.0144 20.2205 14.5742 21.4268C12.414 22.4947 12.4349 25.8695 14.6021 26.9231C17.1344 28.1541 20.3136 29.3348 23.8445 30.7345C24.794 31.1109 26.1356 32.1741 26.4695 33.4812C27.4987 37.5087 28.8989 41.7723 30.4408 45.7084C31.6377 48.7637 34.5968 48.7614 35.7997 45.7084C37.361 41.7449 38.5471 37.4638 39.8859 33.3907C40.2063 32.1329 41.155 31.1384 42.3783 30.7052C45.6843 29.5339 48.8712 28.2123 51.4689 27.0681C53.8948 25.9997 53.9448 22.5307 51.5493 21.3958C48.9911 20.1839 45.8091 18.7807 42.3623 17.5281C41.1492 17.0874 40.2159 16.157 39.7846 14.8365C38.3319 10.3868 37.4113 6.61427 35.8678 2.69654C34.665 -0.356601 31.5074 -0.262637 30.3045 2.79051C28.7668 6.69377 27.6934 10.579 26.4562 14.8028Z" fill="url(#paint0_linear_202_250)"/>
<path d="M26.4558 14.8048C26.1276 16.079 25.0134 17.0296 23.6963 17.6882C19.963 18.98 17.0139 20.2225 14.5738 21.4288C12.4135 22.4967 12.4344 25.8715 14.6016 26.9251C17.1339 28.1561 20.3131 29.3368 23.844 30.7364C24.7935 31.1128 26.1352 32.1761 26.469 33.4831C27.4982 37.5106 28.8984 41.7742 30.4403 45.7103C31.6372 48.7657 34.5963 48.7634 35.7992 45.7103C37.3605 41.7469 38.5466 37.4658 39.8854 33.3926C40.2058 32.1349 41.1545 31.1404 42.3778 30.7071C45.6838 29.5359 48.8707 28.2142 51.4684 27.0701C53.8943 26.0016 53.9444 22.5327 51.5489 21.3978C48.9907 20.1859 45.8086 18.7826 42.3618 17.5301C41.1487 17.0893 40.2155 16.1589 39.7841 14.8384C38.3314 10.3887 37.4108 6.61622 35.8673 2.6985C34.6645 -0.354648 31.5069 -0.260684 30.304 2.79246C28.7663 6.69573 27.6929 10.5809 26.4558 14.8048Z" fill="url(#paint1_linear_202_250)"/>
<path d="M10.9495 4.61854C10.8439 5.02869 10.4854 5.33465 10.0615 5.54659C8.85982 5.96234 7.91065 6.3623 7.12527 6.75055C6.42997 7.09425 6.43669 8.18044 7.13424 8.51953C7.94924 8.91576 8.97252 9.29577 10.109 9.74628C10.4145 9.86741 10.8464 10.2096 10.9539 10.6303C11.2851 11.9266 11.7358 13.2988 12.232 14.5658C12.6173 15.5491 13.5697 15.5484 13.9568 14.5658C14.4593 13.2902 14.8411 11.9122 15.272 10.6012C15.3752 10.1964 15.6804 9.87631 16.0742 9.73683C17.1382 9.35989 18.1639 8.9345 19.0002 8.56623C19.7809 8.22234 19.7969 7.10584 19.026 6.74058C18.2026 6.35051 17.1785 5.89882 16.069 5.49571C15.6785 5.35383 15.3781 5.05441 15.2394 4.6294C14.7718 3.19723 14.4755 1.98301 13.9787 0.722053C13.5916 -0.260618 12.5753 -0.230368 12.1882 0.752303C11.6933 2.0086 11.3477 3.25907 10.9495 4.61854Z" fill="url(#paint2_linear_202_250)"/>
<path d="M10.9495 4.61854C10.8439 5.02869 10.4854 5.33465 10.0615 5.54659C8.85982 5.96234 7.91065 6.3623 7.12527 6.75055C6.42997 7.09425 6.43669 8.18044 7.13424 8.51953C7.94924 8.91576 8.97252 9.29577 10.109 9.74628C10.4145 9.86741 10.8464 10.2096 10.9539 10.6303C11.2851 11.9266 11.7358 13.2988 12.232 14.5658C12.6173 15.5491 13.5697 15.5484 13.9568 14.5658C14.4593 13.2902 14.8411 11.9122 15.272 10.6012C15.3752 10.1964 15.6804 9.87631 16.0742 9.73683C17.1382 9.35989 18.1639 8.9345 19.0002 8.56623C19.7809 8.22234 19.7969 7.10584 19.026 6.74058C18.2026 6.35051 17.1785 5.89882 16.069 5.49571C15.6785 5.35383 15.3781 5.05441 15.2394 4.6294C14.7718 3.19723 14.4755 1.98301 13.9787 0.722053C13.5916 -0.260618 12.5753 -0.230368 12.1882 0.752303C11.6933 2.0086 11.3477 3.25907 10.9495 4.61854Z" fill="url(#paint3_linear_202_250)"/>
<path d="M6.05489 32.0557C5.90761 32.6276 5.40758 33.0543 4.8165 33.3498C3.14084 33.9296 1.81728 34.4872 0.722106 35.0286C-0.247433 35.5079 -0.238075 37.0225 0.734603 37.4954C1.8711 38.048 3.298 38.5779 4.88273 39.206C5.30882 39.3748 5.91098 39.8522 6.06088 40.4387C6.5228 42.2463 7.15126 44.1601 7.84326 45.9265C8.38047 47.2978 9.70856 47.2969 10.2484 45.9265C10.9491 44.1477 11.4815 42.2263 12.0824 40.3981C12.2262 39.8337 12.6519 39.3874 13.2009 39.1929C14.6847 38.6672 16.1151 38.074 17.281 37.5605C18.3697 37.081 18.3922 35.5241 17.317 35.0148C16.169 34.4708 14.7408 33.841 13.1938 33.2788C12.6493 33.081 12.2304 32.6634 12.0369 32.0707C11.3848 30.0736 10.9717 28.3805 10.2789 26.6222C9.73909 25.2518 8.32196 25.294 7.78211 26.6643C7.09196 28.4161 6.61012 30.1599 6.05489 32.0557Z" fill="url(#paint4_radial_202_250)"/>
<defs>
<linearGradient id="paint0_linear_202_250" x1="46.3032" y1="15.1211" x2="24.9759" y2="37.5724" gradientUnits="userSpaceOnUse">
<stop stop-color="#FFCF5A"/>
<stop offset="1" stop-color="#FEA254"/>
</linearGradient>
<linearGradient id="paint1_linear_202_250" x1="24.4003" y1="49.8183" x2="36.0262" y2="25.295" gradientUnits="userSpaceOnUse">
<stop stop-color="#FF886D"/>
<stop offset="1" stop-color="#FF886D" stop-opacity="0"/>
</linearGradient>
<linearGradient id="paint2_linear_202_250" x1="17.3375" y1="4.72096" x2="10.4731" y2="11.9471" gradientUnits="userSpaceOnUse">
<stop stop-color="#FFDA72"/>
<stop offset="1" stop-color="#F7A967"/>
</linearGradient>
<linearGradient id="paint3_linear_202_250" x1="13.1012" y1="16.4872" x2="13.1012" y2="8.54464" gradientUnits="userSpaceOnUse">
<stop stop-color="#FDA071"/>
<stop offset="1" stop-color="#FDA071" stop-opacity="0"/>
</linearGradient>
<radialGradient id="paint4_radial_202_250" cx="0" cy="0" r="1" gradientUnits="userSpaceOnUse" gradientTransform="translate(15.2731 29.1702) rotate(127.221) scale(13.6247 13.2679)">
<stop offset="0.364601" stop-color="#FFBC64"/>
<stop offset="1" stop-color="#FF8F6B"/>
</radialGradient>
</defs>
</svg>
