<svg width="77" height="77" viewBox="0 0 77 77" fill="none" xmlns="http://www.w3.org/2000/svg">
<path d="M38.5 77C64.1716 77 77 59.763 77 38.5C77 17.237 64.1716 0 38.5 0C12.8282 0 0 17.237 0 38.5C0 59.763 12.8282 77 38.5 77Z" fill="url(#paint0_radial_202_310)"/>
<path d="M38.5 77C64.1716 77 77 59.763 77 38.5C77 17.237 64.1716 0 38.5 0C12.8282 0 0 17.237 0 38.5C0 59.763 12.8282 77 38.5 77Z" fill="url(#paint1_radial_202_310)"/>
<path d="M38.5 77C64.1716 77 77 59.763 77 38.5C77 17.237 64.1716 0 38.5 0C12.8282 0 0 17.237 0 38.5C0 59.763 12.8282 77 38.5 77Z" fill="url(#paint2_radial_202_310)"/>
<path d="M38.5 77C64.1716 77 77 59.763 77 38.5C77 17.237 64.1716 0 38.5 0C12.8282 0 0 17.237 0 38.5C0 59.763 12.8282 77 38.5 77Z" fill="url(#paint3_radial_202_310)" fill-opacity="0.6"/>
<path d="M38.5 77C64.1716 77 77 59.763 77 38.5C77 17.237 64.1716 0 38.5 0C12.8282 0 0 17.237 0 38.5C0 59.763 12.8282 77 38.5 77Z" fill="url(#paint4_radial_202_310)"/>
<path d="M38.5 77C64.1716 77 77 59.763 77 38.5C77 17.237 64.1716 0 38.5 0C12.8282 0 0 17.237 0 38.5C0 59.763 12.8282 77 38.5 77Z" fill="url(#paint5_radial_202_310)"/>
<path d="M38.5 77C64.1716 77 77 59.763 77 38.5C77 17.237 64.1716 0 38.5 0C12.8282 0 0 17.237 0 38.5C0 59.763 12.8282 77 38.5 77Z" fill="url(#paint6_radial_202_310)"/>
<path d="M38.5 77C64.1716 77 77 59.763 77 38.5C77 17.237 64.1716 0 38.5 0C12.8282 0 0 17.237 0 38.5C0 59.763 12.8282 77 38.5 77Z" fill="url(#paint7_radial_202_310)"/>
<path d="M19.2984 44.2599C26.3967 44.2599 32.151 38.5056 32.151 31.4073C32.151 24.309 26.3967 18.5547 19.2984 18.5547C12.2001 18.5547 6.4458 24.309 6.4458 31.4073C6.4458 38.5056 12.2001 44.2599 19.2984 44.2599Z" fill="url(#paint8_radial_202_310)"/>
<path d="M47.4257 44.5194C53.8724 44.5194 59.0985 39.2933 59.0985 32.8466C59.0985 26.3999 53.8724 21.1738 47.4257 21.1738C40.979 21.1738 35.7529 26.3999 35.7529 32.8466C35.7529 39.2933 40.979 44.5194 47.4257 44.5194Z" fill="url(#paint9_radial_202_310)"/>
<path d="M23.1538 39.1209C29.5422 39.1209 34.7212 33.9422 34.7212 27.5537C34.7212 21.1652 29.5422 15.9863 23.1538 15.9863C16.7653 15.9863 11.5864 21.1652 11.5864 27.5537C11.5864 33.9422 16.7653 39.1209 23.1538 39.1209Z" fill="white"/>
<path d="M53.8178 39.3318C60.2643 39.3318 65.4905 34.1059 65.4905 27.6591C65.4905 21.2124 60.2643 15.9863 53.8178 15.9863C47.371 15.9863 42.145 21.2124 42.145 27.6591C42.145 34.1059 47.371 39.3318 53.8178 39.3318Z" fill="white"/>
<path d="M24.7521 35.7532C29.3089 35.7532 33.0028 32.0594 33.0028 27.5026C33.0028 22.9458 29.3089 19.252 24.7521 19.252C20.1954 19.252 16.5015 22.9458 16.5015 27.5026C16.5015 32.0594 20.1954 35.7532 24.7521 35.7532Z" fill="url(#paint10_linear_202_310)"/>
<path d="M52.2541 35.7532C56.8109 35.7532 60.5047 32.0594 60.5047 27.5026C60.5047 22.9458 56.8109 19.252 52.2541 19.252C47.6972 19.252 44.0034 22.9458 44.0034 27.5026C44.0034 32.0594 47.6972 35.7532 52.2541 35.7532Z" fill="url(#paint11_linear_202_310)"/>
<path fill-rule="evenodd" clip-rule="evenodd" d="M23.1023 44.5542C24.3173 43.6428 26.0412 43.8889 26.9526 45.1042C27.8032 46.2384 31.6601 49.5046 38.5035 49.5046C45.3466 49.5046 49.2035 46.2384 50.0544 45.1042C50.9655 43.8889 52.6894 43.6428 53.9047 44.5542C55.1197 45.4654 55.3659 47.1892 54.4547 48.4045C52.5552 50.9369 47.0613 55.005 38.5035 55.005C29.9454 55.005 24.4515 50.9369 22.5522 48.4045C21.6408 47.1892 21.887 45.4654 23.1023 44.5542Z" fill="url(#paint12_radial_202_310)"/>
<defs>
<radialGradient id="paint0_radial_202_310" cx="0" cy="0" r="1" gradientUnits="userSpaceOnUse" gradientTransform="translate(64.6301 19.2515) rotate(132.839) scale(103.142)">
<stop stop-color="#FFF478"/>
<stop offset="0.474827" stop-color="#FFB02E"/>
<stop offset="1" stop-color="#F70A8D"/>
</radialGradient>
<radialGradient id="paint1_radial_202_310" cx="0" cy="0" r="1" gradientUnits="userSpaceOnUse" gradientTransform="translate(64.6301 19.2515) rotate(131.878) scale(107.117)">
<stop stop-color="#FFF478"/>
<stop offset="0.474827" stop-color="#FFB02E"/>
<stop offset="1" stop-color="#F70A8D"/>
</radialGradient>
<radialGradient id="paint2_radial_202_310" cx="0" cy="0" r="1" gradientUnits="userSpaceOnUse" gradientTransform="translate(38.503 28.8773) rotate(101.31) scale(49.082 62.8647)">
<stop offset="0.787821" stop-color="#F59639" stop-opacity="0"/>
<stop offset="0.972509" stop-color="#FF7DCE"/>
</radialGradient>
<radialGradient id="paint3_radial_202_310" cx="0" cy="0" r="1" gradientUnits="userSpaceOnUse" gradientTransform="translate(44.0035 33.0026) rotate(135) scale(112.792)">
<stop offset="0.314853" stop-opacity="0"/>
<stop offset="1"/>
</radialGradient>
<radialGradient id="paint4_radial_202_310" cx="0" cy="0" r="1" gradientUnits="userSpaceOnUse" gradientTransform="translate(38.503 41.2532) rotate(77.692) scale(77.4101)">
<stop offset="0.507903" stop-color="#7D6133" stop-opacity="0"/>
<stop offset="1" stop-color="#715B32"/>
</radialGradient>
<radialGradient id="paint5_radial_202_310" cx="0" cy="0" r="1" gradientUnits="userSpaceOnUse" gradientTransform="translate(39.8781 39.8781) rotate(55.7131) scale(36.615 26.5405)">
<stop stop-color="#FFB849"/>
<stop offset="1" stop-color="#FFB847" stop-opacity="0"/>
</radialGradient>
<radialGradient id="paint6_radial_202_310" cx="0" cy="0" r="1" gradientUnits="userSpaceOnUse" gradientTransform="translate(50.879 44.0035) rotate(9.86581) scale(32.1022)">
<stop stop-color="#FFA64B"/>
<stop offset="0.900412" stop-color="#FFAE46" stop-opacity="0"/>
</radialGradient>
<radialGradient id="paint7_radial_202_310" cx="0" cy="0" r="1" gradientUnits="userSpaceOnUse" gradientTransform="translate(42.6283 35.7528) rotate(43.9708) scale(162.408)">
<stop offset="0.185425" stop-opacity="0"/>
<stop offset="1" stop-opacity="0.4"/>
</radialGradient>
<radialGradient id="paint8_radial_202_310" cx="0" cy="0" r="1" gradientUnits="userSpaceOnUse" gradientTransform="translate(29.2947 21.4108) rotate(135) scale(25.0429 12.9614)">
<stop stop-color="#392108"/>
<stop offset="1" stop-color="#C87928" stop-opacity="0"/>
</radialGradient>
<radialGradient id="paint9_radial_202_310" cx="0" cy="0" r="1" gradientUnits="userSpaceOnUse" gradientTransform="translate(56.5044 23.7676) rotate(135) scale(21.0933 11.9075)">
<stop stop-color="#392108"/>
<stop offset="1" stop-color="#C87928" stop-opacity="0"/>
</radialGradient>
<linearGradient id="paint10_linear_202_310" x1="39.8783" y1="16.5017" x2="37.1281" y2="35.7532" gradientUnits="userSpaceOnUse">
<stop stop-color="#553B3E"/>
<stop offset="1" stop-color="#3D2432"/>
</linearGradient>
<linearGradient id="paint11_linear_202_310" x1="39.8781" y1="16.5017" x2="37.1279" y2="35.7532" gradientUnits="userSpaceOnUse">
<stop stop-color="#553B3E"/>
<stop offset="1" stop-color="#3D2432"/>
</linearGradient>
<radialGradient id="paint12_radial_202_310" cx="0" cy="0" r="1" gradientUnits="userSpaceOnUse" gradientTransform="translate(38.5035 41.2539) rotate(90) scale(15.1262 23.1528)">
<stop offset="0.34763" stop-color="#241A1A"/>
<stop offset="0.628228" stop-color="#57444A"/>
<stop offset="1" stop-color="#502A56"/>
</radialGradient>
</defs>
</svg>
