<svg width="172" height="26" viewBox="0 0 172 26" fill="none" xmlns="http://www.w3.org/2000/svg">
<path d="M2.67451 20.6115C1.98529 20.6115 1.45114 20.3875 1.07206 19.9395C0.710219 19.4743 0.529297 18.6386 0.529297 17.4324C0.529297 16.7604 0.606835 15.9506 0.761911 15.0029C0.916987 14.0552 1.13237 13.0472 1.40806 11.9789C1.70098 10.8934 2.02836 9.80787 2.39021 8.72234C2.76928 7.63681 3.1742 6.62882 3.60497 5.69836C4.13912 4.56114 4.66465 3.68238 5.18157 3.06207C5.69849 2.42454 6.24126 1.97654 6.80987 1.71808C7.37848 1.45962 7.97294 1.33039 8.59324 1.33039C9.5237 1.33039 10.3852 1.64916 11.1778 2.28669C11.9705 2.92423 12.6855 4.01837 13.3231 5.56913C13.7366 6.6202 14.1243 7.79189 14.4861 9.08419C14.848 10.3765 15.1237 11.7032 15.3132 13.0645C15.52 14.4257 15.6234 15.7438 15.6234 17.0189C15.6234 18.2595 15.3907 19.1727 14.9255 19.7586C14.4603 20.3272 13.8141 20.6115 12.9871 20.6115C12.2289 20.6115 11.6345 20.353 11.2037 19.8361C10.7902 19.302 10.5231 18.4232 10.4025 17.1998C10.3335 16.4244 10.2991 15.6318 10.2991 14.822C10.2991 13.9949 10.3335 13.2023 10.4025 12.4442L11.3071 14.4085C10.7729 14.598 10.1009 14.7186 9.29109 14.7703C8.49848 14.8048 7.66279 14.7875 6.78402 14.7186C5.92249 14.6325 5.12127 14.4688 4.38035 14.2275L6.11203 12.4959C6.12926 13.3229 6.08618 14.1414 5.9828 14.9512C5.87942 15.7438 5.7588 16.4675 5.62096 17.1223C5.50034 17.8804 5.31942 18.518 5.07819 19.0349C4.85419 19.5518 4.54404 19.9481 4.14773 20.2238C3.76866 20.4823 3.27759 20.6115 2.67451 20.6115ZM8.43817 11.3328C9.31693 11.3328 9.9717 11.1777 10.4025 10.8676C10.8332 10.5402 11.0486 10.0836 11.0486 9.49772C11.0486 9.15311 10.9797 8.74819 10.8418 8.28296C10.7212 7.81773 10.5489 7.36974 10.3249 6.93897C10.1009 6.49097 9.82524 6.12051 9.49785 5.82759C9.1877 5.53467 8.8517 5.38821 8.48986 5.38821C8.11079 5.38821 7.76617 5.54329 7.45602 5.85344C7.14587 6.14636 6.87018 6.52543 6.62895 6.99066C6.40495 7.43866 6.22403 7.9125 6.08618 8.41219C5.94834 8.89465 5.87942 9.32542 5.87942 9.70449C5.87942 10.2042 6.0948 10.6005 6.52557 10.8934C6.97356 11.1863 7.6111 11.3328 8.43817 11.3328Z" fill="black"/>
<path d="M24.0707 20.7149C21.6412 20.7149 19.8579 20.0946 18.7206 18.854C17.5834 17.6134 17.0148 15.8903 17.0148 13.6848C17.0148 11.9789 17.3508 10.4713 18.0228 9.16172C18.712 7.83496 19.6942 6.80112 20.9692 6.06021C22.2443 5.30206 23.7692 4.92298 25.544 4.92298C27.1637 4.92298 28.3956 5.20729 29.2399 5.7759C30.1015 6.34451 30.5322 7.10266 30.5322 8.05035C30.5322 8.67065 30.3255 9.16173 29.9119 9.52357C29.5156 9.86818 28.9384 10.0405 28.1803 10.0405C27.8356 10.0405 27.491 10.006 27.1464 9.9371C26.8018 9.86818 26.4486 9.79926 26.0867 9.73034C25.7249 9.66141 25.32 9.62695 24.872 9.62695C23.752 9.62695 22.9077 9.91126 22.3391 10.4799C21.7877 11.0485 21.512 11.8669 21.512 12.9352C21.512 13.9518 21.7877 14.6928 22.3391 15.158C22.8904 15.6232 23.64 15.8558 24.5877 15.8558C25.0357 15.8558 25.4578 15.8041 25.8541 15.7008C26.2677 15.5974 26.664 15.5026 27.043 15.4165C27.4221 15.3131 27.8012 15.2614 28.1803 15.2614C28.7489 15.2614 29.2141 15.4251 29.5759 15.7524C29.9378 16.0798 30.1187 16.5451 30.1187 17.1481C30.1187 17.8201 29.8947 18.4232 29.4467 18.9574C28.9987 19.4915 28.3267 19.9223 27.4307 20.2497C26.5347 20.5598 25.4147 20.7149 24.0707 20.7149Z" fill="black"/>
<path d="M36.1826 4.87129H35.7691C35.7174 4.11314 35.7432 3.39807 35.8466 2.72607C35.95 2.03685 36.174 1.48547 36.5186 1.07193C36.8805 0.641165 37.3888 0.425781 38.0435 0.425781C38.6811 0.425781 39.1463 0.598088 39.4392 0.942702C39.7321 1.28731 39.8786 1.76977 39.8786 2.39008C39.8786 3.38945 39.6718 4.25099 39.2583 4.97467L38.8964 4.92298C39.6891 4.5956 40.5851 4.43191 41.5844 4.43191C42.377 4.43191 43.0146 4.60422 43.497 4.94883C43.9795 5.27621 44.2207 5.84482 44.2207 6.65466C44.2207 7.43004 43.9364 8.01589 43.3678 8.41219C42.8164 8.79127 42.1272 8.9808 41.3001 8.9808C40.8866 8.9808 40.4472 8.96357 39.982 8.92911C39.5168 8.87742 39.0688 8.79988 38.638 8.6965L38.9481 8.25712C39.1204 8.86019 39.2928 9.5408 39.4651 10.2989C39.6374 11.0571 39.7924 11.8497 39.9303 12.6768C40.0681 13.4866 40.1715 14.2792 40.2404 15.0546C40.3266 15.83 40.3697 16.5192 40.3697 17.1223C40.3697 18.225 40.1543 19.0952 39.7235 19.7327C39.31 20.3703 38.6811 20.689 37.8368 20.689C37.2337 20.689 36.7512 20.5426 36.3894 20.2497C36.0275 19.9567 35.7519 19.5777 35.5623 19.1124C35.3728 18.63 35.2435 18.1044 35.1746 17.5358C35.1057 16.9672 35.0712 16.4072 35.0712 15.8558C35.0712 15.1666 35.1143 14.3912 35.2005 13.5297C35.2866 12.6509 35.3986 11.7549 35.5365 10.8417C35.6915 9.91126 35.8725 9.01526 36.0792 8.15373L36.4928 8.67065C35.7519 9.11865 34.8214 9.34265 33.7014 9.34265C32.8571 9.34265 32.1937 9.16172 31.7113 8.79988C31.246 8.43804 31.0134 7.86943 31.0134 7.09405C31.0134 6.2842 31.2719 5.6639 31.7888 5.23314C32.3057 4.78514 33.0036 4.56114 33.8823 4.56114C34.3303 4.56114 34.7525 4.5956 35.1488 4.66452C35.5451 4.71621 35.8897 4.78514 36.1826 4.87129Z" fill="black"/>
<path d="M48.4611 0.606704C49.2882 0.606704 49.8826 0.822087 50.2444 1.25285C50.6063 1.68362 50.7872 2.17469 50.7872 2.72607C50.7872 3.4153 50.5632 3.94945 50.1152 4.32853C49.6672 4.7076 49.0383 4.89714 48.2285 4.89714C47.4359 4.89714 46.8414 4.69037 46.4451 4.27683C46.066 3.8633 45.8765 3.37222 45.8765 2.80361C45.8765 2.07992 46.1091 1.53716 46.5743 1.17531C47.0568 0.796241 47.6857 0.606704 48.4611 0.606704ZM48.642 6.37036C49.314 6.37036 49.8395 6.88728 50.2186 7.92112C50.5977 8.95496 50.7872 10.6005 50.7872 12.8577C50.7872 15.6318 50.546 17.6306 50.0635 18.854C49.5983 20.0773 48.8832 20.689 47.9183 20.689C47.1774 20.689 46.626 20.241 46.2642 19.345C45.9196 18.4318 45.7472 16.8466 45.7472 14.5894C45.7472 11.8152 46.0143 9.75618 46.5485 8.41219C47.0999 7.05097 47.7977 6.37036 48.642 6.37036Z" fill="black"/>
<path d="M54.5906 4.17345C55.3832 4.17345 55.9691 4.43191 56.3481 4.94883C56.7444 5.46575 57.0632 6.25836 57.3044 7.32666C57.4767 8.11927 57.7008 9.05834 57.9764 10.1439C58.2694 11.2294 58.5881 12.358 58.9327 13.5297C59.2774 14.6841 59.6134 15.7697 59.9407 16.7863H60.0441C60.3543 15.8041 60.6386 14.7703 60.897 13.6848C61.1727 12.582 61.4053 11.5137 61.5949 10.4799C61.8016 9.44603 61.9481 8.55004 62.0343 7.79189C62.1376 6.65466 62.3444 5.84482 62.6546 5.36237C62.9819 4.86268 63.4902 4.61283 64.1795 4.61283C64.9376 4.61283 65.5321 4.87991 65.9628 5.41406C66.3936 5.94821 66.609 6.77528 66.609 7.89527C66.609 8.73957 66.5228 9.63557 66.3505 10.5833C66.1782 11.5137 65.9456 12.4442 65.6527 13.3746C65.377 14.2878 65.0582 15.1321 64.6964 15.9075C64.2484 16.8724 63.7746 17.7081 63.2749 18.4146C62.7924 19.121 62.241 19.6638 61.6207 20.0429C61.0177 20.422 60.3112 20.6115 59.5014 20.6115C58.6054 20.6115 57.8214 20.3272 57.1494 19.7586C56.4774 19.1727 55.7881 18.2423 55.0817 16.9672C54.5303 15.9334 54.0565 14.8565 53.6602 13.7365C53.2811 12.5992 52.9795 11.4879 52.7556 10.4023C52.5488 9.3168 52.4454 8.32604 52.4454 7.43004C52.4454 6.34451 52.6091 5.53467 52.9365 5.00052C53.2811 4.44914 53.8325 4.17345 54.5906 4.17345Z" fill="black"/>
<path d="M70.9753 0.606704C71.8024 0.606704 72.3969 0.822087 72.7587 1.25285C73.1206 1.68362 73.3015 2.17469 73.3015 2.72607C73.3015 3.4153 73.0775 3.94945 72.6295 4.32853C72.1815 4.7076 71.5526 4.89714 70.7427 4.89714C69.9501 4.89714 69.3557 4.69037 68.9594 4.27683C68.5803 3.8633 68.3908 3.37222 68.3908 2.80361C68.3908 2.07992 68.6234 1.53716 69.0886 1.17531C69.5711 0.796241 70.2 0.606704 70.9753 0.606704ZM71.1563 6.37036C71.8283 6.37036 72.3538 6.88728 72.7329 7.92112C73.112 8.95496 73.3015 10.6005 73.3015 12.8577C73.3015 15.6318 73.0603 17.6306 72.5778 18.854C72.1126 20.0773 71.3975 20.689 70.4326 20.689C69.6917 20.689 69.1403 20.241 68.7784 19.345C68.4338 18.4318 68.2615 16.8466 68.2615 14.5894C68.2615 11.8152 68.5286 9.75618 69.0628 8.41219C69.6141 7.05097 70.312 6.37036 71.1563 6.37036Z" fill="black"/>
<path d="M79.9996 4.87129H79.5861C79.5344 4.11314 79.5603 3.39807 79.6636 2.72607C79.767 2.03685 79.991 1.48547 80.3356 1.07193C80.6975 0.641165 81.2058 0.425781 81.8605 0.425781C82.4981 0.425781 82.9633 0.598088 83.2562 0.942702C83.5492 1.28731 83.6956 1.76977 83.6956 2.39008C83.6956 3.38945 83.4888 4.25099 83.0753 4.97467L82.7135 4.92298C83.5061 4.5956 84.4021 4.43191 85.4015 4.43191C86.1941 4.43191 86.8316 4.60422 87.3141 4.94883C87.7965 5.27621 88.0377 5.84482 88.0377 6.65466C88.0377 7.43004 87.7534 8.01589 87.1848 8.41219C86.6334 8.79127 85.9442 8.9808 85.1171 8.9808C84.7036 8.9808 84.2642 8.96357 83.799 8.92911C83.3338 8.87742 82.8858 8.79988 82.455 8.6965L82.7652 8.25712C82.9375 8.86019 83.1098 9.5408 83.2821 10.2989C83.4544 11.0571 83.6095 11.8497 83.7473 12.6768C83.8852 13.4866 83.9885 14.2792 84.0575 15.0546C84.1436 15.83 84.1867 16.5192 84.1867 17.1223C84.1867 18.225 83.9713 19.0952 83.5405 19.7327C83.127 20.3703 82.4981 20.689 81.6538 20.689C81.0507 20.689 80.5683 20.5426 80.2064 20.2497C79.8446 19.9567 79.5689 19.5777 79.3793 19.1124C79.1898 18.63 79.0606 18.1044 78.9916 17.5358C78.9227 16.9672 78.8883 16.4072 78.8883 15.8558C78.8883 15.1666 78.9313 14.3912 79.0175 13.5297C79.1036 12.6509 79.2156 11.7549 79.3535 10.8417C79.5086 9.91126 79.6895 9.01526 79.8963 8.15373L80.3098 8.67065C79.5689 9.11865 78.6384 9.34265 77.5184 9.34265C76.6741 9.34265 76.0107 9.16172 75.5283 8.79988C75.0631 8.43804 74.8304 7.86943 74.8304 7.09405C74.8304 6.2842 75.0889 5.6639 75.6058 5.23314C76.1227 4.78514 76.8206 4.56114 77.6993 4.56114C78.1473 4.56114 78.5695 4.5956 78.9658 4.66452C79.3621 4.71621 79.7067 4.78514 79.9996 4.87129Z" fill="black"/>
<path d="M92.6399 25.5739C91.5372 25.5739 90.9858 24.9536 90.9858 23.713C90.9858 23.1444 91.1667 22.4724 91.5286 21.697C91.8904 20.9389 92.4073 20.1463 93.0793 19.3192C93.7685 18.4749 94.5784 17.6564 95.5088 16.8638L95.483 17.1481C93.3119 15.1321 91.6664 13.3229 90.5464 11.7205C89.4436 10.1008 88.8923 8.61896 88.8923 7.27497C88.8923 6.48236 89.099 5.86205 89.5126 5.41406C89.9261 4.96606 90.4775 4.74206 91.1667 4.74206C92.3556 4.74206 93.4584 5.51744 94.475 7.0682C95.5089 8.61896 96.4135 10.9537 97.1888 14.0725H97.2922C97.8091 10.7814 98.4639 8.3605 99.2565 6.80974C100.049 5.24175 100.997 4.45776 102.1 4.45776C102.685 4.45776 103.125 4.65591 103.418 5.05221C103.728 5.43129 103.883 5.97405 103.883 6.68051C103.883 7.21466 103.78 7.88666 103.573 8.6965C103.366 9.48911 103.073 10.3851 102.694 11.3845C102.332 12.3666 101.901 13.3919 101.402 14.4602C100.902 15.5285 100.351 16.5881 99.7476 17.6392C98.2141 20.3961 96.8873 22.4035 95.7673 23.6613C94.6473 24.9364 93.6049 25.5739 92.6399 25.5739Z" fill="black"/>
<path d="M109.573 21.025C108.453 21.025 107.583 20.9389 106.963 20.7666C106.343 20.6115 105.912 20.3875 105.671 20.0946C105.447 19.7844 105.326 19.4312 105.309 19.0349C105.291 18.4318 105.567 17.9235 106.136 17.51C106.704 17.0792 107.747 16.8121 109.263 16.7088L108.643 17.4324C108.471 16.6398 108.341 15.718 108.255 14.6669C108.186 13.6158 108.16 12.5217 108.178 11.3845C108.195 10.2473 108.247 9.16173 108.333 8.12789C108.419 7.09405 108.557 6.21528 108.746 5.4916L111.357 5.46575C110.995 5.62082 110.53 5.75867 109.961 5.87928C109.392 5.98267 108.815 6.03436 108.229 6.03436C107.092 6.03436 106.248 5.87928 105.696 5.56913C105.162 5.25898 104.895 4.8196 104.895 4.25099C104.895 3.37222 105.369 2.683 106.317 2.18331C107.264 1.68362 108.72 1.43378 110.685 1.43378C113.063 1.43378 115.061 1.81285 116.681 2.571C118.318 3.31192 119.558 4.35437 120.403 5.69836C121.247 7.02512 121.669 8.57588 121.669 10.3506C121.669 11.9014 121.385 13.3315 120.816 14.6411C120.248 15.9334 119.429 17.062 118.361 18.0269C117.293 18.9746 116.018 19.7155 114.536 20.2497C113.054 20.7666 111.4 21.025 109.573 21.025ZM113.399 15.9592C113.933 15.9592 114.475 15.7697 115.027 15.3906C115.578 14.9943 116.035 14.4257 116.397 13.6848C116.776 12.9266 116.965 12.0048 116.965 10.9193C116.965 10.0922 116.845 9.36849 116.603 8.74819C116.379 8.11065 116.078 7.5765 115.699 7.14574C115.337 6.71497 114.941 6.38759 114.51 6.16359C114.079 5.93959 113.648 5.82759 113.218 5.82759C112.907 5.82759 112.658 5.9999 112.468 6.34451C112.296 6.6719 112.175 7.19743 112.106 7.92112C112.037 8.62757 112.003 9.5408 112.003 10.6608C112.003 12.4183 112.098 13.7451 112.287 14.6411C112.477 15.5198 112.847 15.9592 113.399 15.9592Z" fill="black"/>
<path d="M125.342 21.6453C124.653 21.6453 124.119 21.4127 123.74 20.9475C123.378 20.4995 123.197 19.6724 123.197 18.4663C123.197 17.7598 123.274 16.9672 123.429 16.0884C123.584 15.2097 123.817 14.2792 124.127 13.2971C124.437 12.3149 124.816 11.3156 125.264 10.2989C125.712 9.26511 126.221 8.2485 126.789 7.24912C127.41 6.16359 128.004 5.28483 128.573 4.61283C129.141 3.9236 129.71 3.42392 130.279 3.11376C130.864 2.78638 131.502 2.62269 132.191 2.62269C133.139 2.62269 133.992 3.019 134.75 3.81161C135.508 4.58699 136.154 5.79313 136.688 7.43004C137.033 8.42942 137.326 9.48049 137.567 10.5833C137.808 11.686 137.989 12.806 138.11 13.9432C138.23 15.0805 138.291 16.2091 138.291 17.3291C138.291 18.673 138.058 19.6466 137.593 20.2497C137.128 20.8355 136.482 21.1284 135.655 21.1284C134.896 21.1284 134.302 20.87 133.871 20.353C133.458 19.8189 133.191 18.9401 133.07 17.7167C133.001 17.1137 132.967 16.4934 132.967 15.8558C132.967 15.2183 132.984 14.6152 133.018 14.0466L133.975 16.2177C133.44 16.4072 132.768 16.5278 131.959 16.5795C131.166 16.614 130.33 16.5968 129.451 16.5278C128.59 16.4417 127.789 16.278 127.048 16.0368L128.779 13.9949C128.745 14.7531 128.685 15.4854 128.599 16.1918C128.512 16.8983 128.409 17.5531 128.288 18.1561C128.151 18.897 127.961 19.5346 127.72 20.0687C127.496 20.5856 127.194 20.9733 126.815 21.2318C126.436 21.5075 125.945 21.6453 125.342 21.6453ZM130.899 13.142C131.898 13.142 132.631 12.918 133.096 12.47C133.561 12.022 133.794 11.2983 133.794 10.2989C133.794 9.79926 133.742 9.3168 133.639 8.85157C133.535 8.38635 133.389 7.96419 133.199 7.58512C133.01 7.18881 132.777 6.87866 132.501 6.65466C132.243 6.43067 131.95 6.31867 131.623 6.31867C131.209 6.31867 130.821 6.48236 130.459 6.80974C130.098 7.13712 129.779 7.55927 129.503 8.07619C129.227 8.57588 129.012 9.10142 128.857 9.6528C128.702 10.1869 128.624 10.6694 128.624 11.1002C128.624 11.7377 128.814 12.2374 129.193 12.5992C129.589 12.9611 130.158 13.142 130.899 13.142Z" fill="black"/>
<path d="M148.651 20.5081C146.893 20.5081 145.351 20.1377 144.024 19.3967C142.698 18.6558 141.664 17.6047 140.923 16.2435C140.182 14.8823 139.811 13.2712 139.811 11.4103C139.811 9.63557 140.182 8.09342 140.923 6.7839C141.681 5.47436 142.749 4.45776 144.128 3.73407C145.506 3.01038 147.117 2.64854 148.961 2.64854C150.753 2.64854 152.312 2.98453 153.639 3.65653C154.983 4.3113 156.017 5.24175 156.741 6.4479C157.464 7.63681 157.826 9.02388 157.826 10.6091C157.826 11.9531 157.611 13.2282 157.18 14.4343C156.749 15.6232 156.129 16.6743 155.319 17.5875C154.526 18.5007 153.562 19.2158 152.424 19.7327C151.304 20.2497 150.046 20.5081 148.651 20.5081ZM148.883 16.1143C150.176 16.1143 151.201 15.6491 151.959 14.7186C152.734 13.7709 153.122 12.5045 153.122 10.9193C153.122 9.69588 152.769 8.73957 152.062 8.05035C151.373 7.34389 150.426 6.99066 149.219 6.99066C148.358 6.99066 147.591 7.1802 146.919 7.55927C146.247 7.92112 145.722 8.45527 145.343 9.16172C144.981 9.85095 144.8 10.678 144.8 11.6429C144.8 13.0214 145.179 14.1155 145.937 14.9254C146.695 15.718 147.677 16.1143 148.883 16.1143Z" fill="black"/>
<path d="M166.913 4.25099C168.567 4.25099 169.756 4.51806 170.48 5.05221C171.221 5.56913 171.591 6.24113 171.591 7.0682C171.591 7.58512 171.419 8.00727 171.074 8.33465C170.747 8.6448 170.273 8.79988 169.653 8.79988C169.119 8.79988 168.55 8.72234 167.947 8.56727C167.344 8.39496 166.655 8.30881 165.879 8.30881C165.207 8.30881 164.699 8.44665 164.354 8.72234C164.01 8.9808 163.837 9.30819 163.837 9.70449C163.837 10.1008 163.992 10.4196 164.303 10.6608C164.63 10.8848 165.276 11.0485 166.241 11.1519C167.499 11.2897 168.55 11.5137 169.394 11.8239C170.239 12.1168 170.867 12.5734 171.281 13.1937C171.712 13.7968 171.927 14.6411 171.927 15.7266C171.927 17.3807 171.333 18.5955 170.144 19.3709C168.955 20.1463 167.301 20.534 165.181 20.534C163.803 20.534 162.7 20.4133 161.873 20.1721C161.046 19.9309 160.443 19.5863 160.064 19.1383C159.702 18.6903 159.521 18.1734 159.521 17.5875C159.521 17.0361 159.702 16.614 160.064 16.3211C160.426 16.0109 160.856 15.8558 161.356 15.8558C161.752 15.8558 162.175 15.9075 162.623 16.0109C163.071 16.0971 163.544 16.2004 164.044 16.3211C164.544 16.4244 165.061 16.4761 165.595 16.4761C166.904 16.4761 167.559 16.0798 167.559 15.2872C167.559 15.0115 167.49 14.7875 167.352 14.6152C167.215 14.4257 166.956 14.2706 166.577 14.15C166.215 14.0294 165.672 13.926 164.949 13.8398C163.863 13.7365 162.924 13.5555 162.132 13.2971C161.339 13.0214 160.727 12.5992 160.296 12.0306C159.866 11.4448 159.65 10.6522 159.65 9.6528C159.65 8.03312 160.279 6.7322 161.537 5.75005C162.795 4.75068 164.587 4.25099 166.913 4.25099Z" fill="black"/>
</svg>
