<svg width="188" height="233" viewBox="0 0 188 233" fill="none" xmlns="http://www.w3.org/2000/svg">
<mask id="path-1-outside-1_867_1720" maskUnits="userSpaceOnUse" x="0" y="0" width="188" height="233" fill="black">
<rect fill="white" width="188" height="233"/>
<path d="M99.5859 5.04746C101.568 5.7948 102.82 6.56054 104.618 7.41877C118.388 13.9905 129.049 23.8891 135.953 37.5388C142.105 49.7035 144.15 62.6155 142.467 76.2026C140.939 88.5794 135.529 99.2012 128.581 109.254C124.926 114.548 121.248 119.833 119.459 126.163C117.12 134.432 123.032 142.836 131.571 143.029C134.097 143.087 136.73 142.889 139.155 142.233C146.618 140.208 147.954 132.735 147.255 127.33C146.932 124.837 144.81 123.94 142.916 122.918C142.361 122.619 141.729 122.451 141.146 122.2C138.378 121.019 136.619 118.931 136.754 115.932C136.889 112.914 138.952 110.995 141.725 110.064C144.478 109.138 147.004 109.895 148.981 111.949C155.153 118.352 157.139 126.091 155.615 134.702C153.417 147.132 143.378 152.224 131.932 151.872C130.259 151.819 128.562 151.65 126.937 151.269C125.331 150.893 123.803 150.179 121.6 149.384C123.465 157.407 124.43 165.083 119.237 172.223C137.723 181.779 149.902 196.721 157.756 215.887C159.458 213.187 160.876 210.815 162.419 208.524C166.854 201.933 172.134 196.119 178.493 191.316C180.885 189.513 183.942 189.658 185.379 191.649C186.912 193.775 186.222 196.524 183.807 198.327C175.895 204.243 170.051 211.89 165.369 220.496C165.181 220.843 165.008 221.2 164.8 221.533L161.358 228.751C161.358 228.751 159.586 232.285 158.176 231.513C154.516 229.512 152.202 227.092 151.035 223.423C146.667 209.672 139.266 197.792 128.065 188.616C123.74 185.073 118.702 182.392 113.914 179.436C113.205 178.997 112.034 178.993 111.161 179.181C105.959 180.309 100.785 181.577 95.5875 182.734C93.7987 183.134 91.9713 183.395 90.1488 183.641C88.4419 183.872 87.7959 184.6 87.8249 186.476C87.9358 194.147 86.6195 201.485 83.0805 208.457C77.0584 220.313 63.3122 226.446 50.4195 222.917C39.383 219.894 31.4516 212.893 25.0197 203.819C24.6533 203.303 24.2579 202.801 23.877 202.295C23.7372 202.112 23.5973 201.929 23.2405 201.466C21.3939 204.59 19.6388 207.488 17.9513 210.429C14.9957 215.578 12.1124 220.761 9.14721 225.901C7.92737 228.018 5.49251 228.799 3.61694 227.801C1.24475 226.542 0.304541 224.112 1.55331 221.702C3.60728 217.748 5.78659 213.852 8.03824 210.009C11.7026 203.766 15.449 197.57 19.1953 191.369C21.6687 187.276 25.6223 187.372 27.8258 191.625C30.5548 196.89 33.9251 201.654 38.168 205.805C43.004 210.54 48.6065 213.785 55.3181 215.043C62.9699 216.48 71.9234 211.601 75.5878 204.021C78.447 198.1 79.2908 191.832 79.1268 185.357C79.0883 183.92 78.7459 182.802 77.1934 182.136C70.3999 179.229 66.4462 173.949 64.9756 166.809C63.9294 161.722 63.1483 156.577 62.1551 151.476C61.1378 146.259 61.1136 146.11 55.7954 145.348C50.6798 144.61 45.6848 145.546 41.1622 148.019C35.6898 151.013 33.7803 157.084 36.1284 163.13C36.6154 164.379 37.0735 165.815 37.9992 166.678C39.1323 167.73 40.6655 168.612 42.165 168.935C43.8429 169.297 45.68 168.993 47.4446 168.901C51.6828 168.684 52.97 171.071 53.8475 173.79C54.5466 175.965 52.4928 179.374 50.217 180.743C46.8564 182.763 43.6789 181.736 40.6076 180.27C31.0803 175.714 25.5211 165.618 26.6494 155.184C27.4545 147.73 33.4043 140.907 40.6704 138.612C45.4003 137.118 50.1543 136.37 55.0867 136.568C55.6122 136.587 56.1474 136.428 56.8851 136.327C52.9893 131.308 48.1389 127.716 43.2306 124.225C32.9753 116.94 24.0313 108.483 18.4624 96.9592C16.1722 92.2293 14.5281 87.3162 13.2986 82.1572C12.0209 76.786 11.394 71.4052 11.5628 66.0051C12.2523 44.4336 21.3843 27.1725 38.6309 14.1737C46.138 8.51325 54.6046 4.94051 63.6883 2.98779C71.1569 1.38222 80.9631 0.288946 88.5859 1.54736C88.5859 1.54736 92.5859 2.04746 94.5859 3.04746C95.0247 3.168 99.5859 5.04746 99.5859 5.04746ZM76.6292 10.4563C73.0468 10.8324 69.045 10.8324 65.2505 11.7292C55.8244 13.9519 47.2083 17.9972 39.8844 24.5014C29.6001 33.6382 23.2165 45.0218 21.0227 58.5462C19.9186 65.3494 20.1934 72.2586 21.6398 79.1003C23.877 89.6884 28.4382 99.1337 36.2008 106.602C41.8565 112.046 48.3462 116.626 54.5129 121.535C60.4386 126.255 65.6121 131.602 68.3459 138.805C68.9727 140.449 69.5367 140.584 70.8386 139.972C76.3978 137.364 81.9522 134.746 87.5162 132.137C95.2355 128.521 102.969 124.934 110.664 121.269C111.354 120.941 111.957 120.223 112.357 119.543C115.37 114.413 118.07 109.076 121.354 104.124C127.405 94.992 132.477 85.5949 133.697 74.4283C135.191 60.7207 132.53 48.0449 124.999 36.4974C113.702 19.1785 97.246 11.3001 76.6292 10.4708V10.4563ZM71.962 155.989C80.1152 152.055 87.7091 148.357 95.3319 144.726C99.2759 142.85 103.186 140.854 107.28 139.369C110.211 138.304 110.645 136.515 110.303 133.873C110.1 132.315 109.541 131.867 108.123 132.552C104.84 134.138 101.571 135.763 98.2586 137.296C89.8209 141.202 81.3591 145.049 72.9263 148.974C72.2802 149.273 71.3641 149.982 71.3641 150.507C71.3545 152.219 71.7065 153.935 71.962 155.989ZM76.2821 170.526C77.3524 169.962 78.2396 169.451 79.1653 169.017C89.0109 164.393 98.8902 159.837 108.697 155.141C113.388 152.894 113.331 152.778 112.231 147.677C112.217 147.604 112.135 147.551 111.971 147.339C111.532 147.469 110.997 147.561 110.52 147.783C99.5218 152.952 88.5384 158.164 77.5261 163.308C73.1867 165.333 73.042 165.671 75.6939 169.793C75.8192 169.986 75.9783 170.16 76.2676 170.526H76.2821ZM89.4545 174.277C89.5365 174.47 89.6184 174.663 89.7004 174.856C95.1053 173.824 100.607 173.13 105.891 171.659C109.85 170.555 112.574 167.614 113.697 162.903C105.346 166.823 97.4004 170.55 89.4545 174.277ZM99.2277 147.937C99.059 147.759 98.6539 147.334 98.2441 146.905C97.8488 147.291 97.1208 147.662 97.1111 148.058C97.0581 149.697 96.4842 150.589 94.7147 150.642C94.3338 150.652 93.9723 151.389 93.6011 151.794C94.0784 152.064 94.5412 152.542 95.033 152.566C97.5933 152.701 99.1168 151.144 99.2277 147.932V147.937Z"/>
</mask>
<path d="M99.5859 5.04746C101.568 5.7948 102.82 6.56054 104.618 7.41877C118.388 13.9905 129.049 23.8891 135.953 37.5388C142.105 49.7035 144.15 62.6155 142.467 76.2026C140.939 88.5794 135.529 99.2012 128.581 109.254C124.926 114.548 121.248 119.833 119.459 126.163C117.12 134.432 123.032 142.836 131.571 143.029C134.097 143.087 136.73 142.889 139.155 142.233C146.618 140.208 147.954 132.735 147.255 127.33C146.932 124.837 144.81 123.94 142.916 122.918C142.361 122.619 141.729 122.451 141.146 122.2C138.378 121.019 136.619 118.931 136.754 115.932C136.889 112.914 138.952 110.995 141.725 110.064C144.478 109.138 147.004 109.895 148.981 111.949C155.153 118.352 157.139 126.091 155.615 134.702C153.417 147.132 143.378 152.224 131.932 151.872C130.259 151.819 128.562 151.65 126.937 151.269C125.331 150.893 123.803 150.179 121.6 149.384C123.465 157.407 124.43 165.083 119.237 172.223C137.723 181.779 149.902 196.721 157.756 215.887C159.458 213.187 160.876 210.815 162.419 208.524C166.854 201.933 172.134 196.119 178.493 191.316C180.885 189.513 183.942 189.658 185.379 191.649C186.912 193.775 186.222 196.524 183.807 198.327C175.895 204.243 170.051 211.89 165.369 220.496C165.181 220.843 165.008 221.2 164.8 221.533L161.358 228.751C161.358 228.751 159.586 232.285 158.176 231.513C154.516 229.512 152.202 227.092 151.035 223.423C146.667 209.672 139.266 197.792 128.065 188.616C123.74 185.073 118.702 182.392 113.914 179.436C113.205 178.997 112.034 178.993 111.161 179.181C105.959 180.309 100.785 181.577 95.5875 182.734C93.7987 183.134 91.9713 183.395 90.1488 183.641C88.4419 183.872 87.7959 184.6 87.8249 186.476C87.9358 194.147 86.6195 201.485 83.0805 208.457C77.0584 220.313 63.3122 226.446 50.4195 222.917C39.383 219.894 31.4516 212.893 25.0197 203.819C24.6533 203.303 24.2579 202.801 23.877 202.295C23.7372 202.112 23.5973 201.929 23.2405 201.466C21.3939 204.59 19.6388 207.488 17.9513 210.429C14.9957 215.578 12.1124 220.761 9.14721 225.901C7.92737 228.018 5.49251 228.799 3.61694 227.801C1.24475 226.542 0.304541 224.112 1.55331 221.702C3.60728 217.748 5.78659 213.852 8.03824 210.009C11.7026 203.766 15.449 197.57 19.1953 191.369C21.6687 187.276 25.6223 187.372 27.8258 191.625C30.5548 196.89 33.9251 201.654 38.168 205.805C43.004 210.54 48.6065 213.785 55.3181 215.043C62.9699 216.48 71.9234 211.601 75.5878 204.021C78.447 198.1 79.2908 191.832 79.1268 185.357C79.0883 183.92 78.7459 182.802 77.1934 182.136C70.3999 179.229 66.4462 173.949 64.9756 166.809C63.9294 161.722 63.1483 156.577 62.1551 151.476C61.1378 146.259 61.1136 146.11 55.7954 145.348C50.6798 144.61 45.6848 145.546 41.1622 148.019C35.6898 151.013 33.7803 157.084 36.1284 163.13C36.6154 164.379 37.0735 165.815 37.9992 166.678C39.1323 167.73 40.6655 168.612 42.165 168.935C43.8429 169.297 45.68 168.993 47.4446 168.901C51.6828 168.684 52.97 171.071 53.8475 173.79C54.5466 175.965 52.4928 179.374 50.217 180.743C46.8564 182.763 43.6789 181.736 40.6076 180.27C31.0803 175.714 25.5211 165.618 26.6494 155.184C27.4545 147.73 33.4043 140.907 40.6704 138.612C45.4003 137.118 50.1543 136.37 55.0867 136.568C55.6122 136.587 56.1474 136.428 56.8851 136.327C52.9893 131.308 48.1389 127.716 43.2306 124.225C32.9753 116.94 24.0313 108.483 18.4624 96.9592C16.1722 92.2293 14.5281 87.3162 13.2986 82.1572C12.0209 76.786 11.394 71.4052 11.5628 66.0051C12.2523 44.4336 21.3843 27.1725 38.6309 14.1737C46.138 8.51325 54.6046 4.94051 63.6883 2.98779C71.1569 1.38222 80.9631 0.288946 88.5859 1.54736C88.5859 1.54736 92.5859 2.04746 94.5859 3.04746C95.0247 3.168 99.5859 5.04746 99.5859 5.04746ZM76.6292 10.4563C73.0468 10.8324 69.045 10.8324 65.2505 11.7292C55.8244 13.9519 47.2083 17.9972 39.8844 24.5014C29.6001 33.6382 23.2165 45.0218 21.0227 58.5462C19.9186 65.3494 20.1934 72.2586 21.6398 79.1003C23.877 89.6884 28.4382 99.1337 36.2008 106.602C41.8565 112.046 48.3462 116.626 54.5129 121.535C60.4386 126.255 65.6121 131.602 68.3459 138.805C68.9727 140.449 69.5367 140.584 70.8386 139.972C76.3978 137.364 81.9522 134.746 87.5162 132.137C95.2355 128.521 102.969 124.934 110.664 121.269C111.354 120.941 111.957 120.223 112.357 119.543C115.37 114.413 118.07 109.076 121.354 104.124C127.405 94.992 132.477 85.5949 133.697 74.4283C135.191 60.7207 132.53 48.0449 124.999 36.4974C113.702 19.1785 97.246 11.3001 76.6292 10.4708V10.4563ZM71.962 155.989C80.1152 152.055 87.7091 148.357 95.3319 144.726C99.2759 142.85 103.186 140.854 107.28 139.369C110.211 138.304 110.645 136.515 110.303 133.873C110.1 132.315 109.541 131.867 108.123 132.552C104.84 134.138 101.571 135.763 98.2586 137.296C89.8209 141.202 81.3591 145.049 72.9263 148.974C72.2802 149.273 71.3641 149.982 71.3641 150.507C71.3545 152.219 71.7065 153.935 71.962 155.989ZM76.2821 170.526C77.3524 169.962 78.2396 169.451 79.1653 169.017C89.0109 164.393 98.8902 159.837 108.697 155.141C113.388 152.894 113.331 152.778 112.231 147.677C112.217 147.604 112.135 147.551 111.971 147.339C111.532 147.469 110.997 147.561 110.52 147.783C99.5218 152.952 88.5384 158.164 77.5261 163.308C73.1867 165.333 73.042 165.671 75.6939 169.793C75.8192 169.986 75.9783 170.16 76.2676 170.526H76.2821ZM89.4545 174.277C89.5365 174.47 89.6184 174.663 89.7004 174.856C95.1053 173.824 100.607 173.13 105.891 171.659C109.85 170.555 112.574 167.614 113.697 162.903C105.346 166.823 97.4004 170.55 89.4545 174.277ZM99.2277 147.937C99.059 147.759 98.6539 147.334 98.2441 146.905C97.8488 147.291 97.1208 147.662 97.1111 148.058C97.0581 149.697 96.4842 150.589 94.7147 150.642C94.3338 150.652 93.9723 151.389 93.6011 151.794C94.0784 152.064 94.5412 152.542 95.033 152.566C97.5933 152.701 99.1168 151.144 99.2277 147.932V147.937Z" fill="black"/>
<path d="M99.5859 5.04746C101.568 5.7948 102.82 6.56054 104.618 7.41877C118.388 13.9905 129.049 23.8891 135.953 37.5388C142.105 49.7035 144.15 62.6155 142.467 76.2026C140.939 88.5794 135.529 99.2012 128.581 109.254C124.926 114.548 121.248 119.833 119.459 126.163C117.12 134.432 123.032 142.836 131.571 143.029C134.097 143.087 136.73 142.889 139.155 142.233C146.618 140.208 147.954 132.735 147.255 127.33C146.932 124.837 144.81 123.94 142.916 122.918C142.361 122.619 141.729 122.451 141.146 122.2C138.378 121.019 136.619 118.931 136.754 115.932C136.889 112.914 138.952 110.995 141.725 110.064C144.478 109.138 147.004 109.895 148.981 111.949C155.153 118.352 157.139 126.091 155.615 134.702C153.417 147.132 143.378 152.224 131.932 151.872C130.259 151.819 128.562 151.65 126.937 151.269C125.331 150.893 123.803 150.179 121.6 149.384C123.465 157.407 124.43 165.083 119.237 172.223C137.723 181.779 149.902 196.721 157.756 215.887C159.458 213.187 160.876 210.815 162.419 208.524C166.854 201.933 172.134 196.119 178.493 191.316C180.885 189.513 183.942 189.658 185.379 191.649C186.912 193.775 186.222 196.524 183.807 198.327C175.895 204.243 170.051 211.89 165.369 220.496C165.181 220.843 165.008 221.2 164.8 221.533L161.358 228.751C161.358 228.751 159.586 232.285 158.176 231.513C154.516 229.512 152.202 227.092 151.035 223.423C146.667 209.672 139.266 197.792 128.065 188.616C123.74 185.073 118.702 182.392 113.914 179.436C113.205 178.997 112.034 178.993 111.161 179.181C105.959 180.309 100.785 181.577 95.5875 182.734C93.7987 183.134 91.9713 183.395 90.1488 183.641C88.4419 183.872 87.7959 184.6 87.8249 186.476C87.9358 194.147 86.6195 201.485 83.0805 208.457C77.0584 220.313 63.3122 226.446 50.4195 222.917C39.383 219.894 31.4516 212.893 25.0197 203.819C24.6533 203.303 24.2579 202.801 23.877 202.295C23.7372 202.112 23.5973 201.929 23.2405 201.466C21.3939 204.59 19.6388 207.488 17.9513 210.429C14.9957 215.578 12.1124 220.761 9.14721 225.901C7.92737 228.018 5.49251 228.799 3.61694 227.801C1.24475 226.542 0.304541 224.112 1.55331 221.702C3.60728 217.748 5.78659 213.852 8.03824 210.009C11.7026 203.766 15.449 197.57 19.1953 191.369C21.6687 187.276 25.6223 187.372 27.8258 191.625C30.5548 196.89 33.9251 201.654 38.168 205.805C43.004 210.54 48.6065 213.785 55.3181 215.043C62.9699 216.48 71.9234 211.601 75.5878 204.021C78.447 198.1 79.2908 191.832 79.1268 185.357C79.0883 183.92 78.7459 182.802 77.1934 182.136C70.3999 179.229 66.4462 173.949 64.9756 166.809C63.9294 161.722 63.1483 156.577 62.1551 151.476C61.1378 146.259 61.1136 146.11 55.7954 145.348C50.6798 144.61 45.6848 145.546 41.1622 148.019C35.6898 151.013 33.7803 157.084 36.1284 163.13C36.6154 164.379 37.0735 165.815 37.9992 166.678C39.1323 167.73 40.6655 168.612 42.165 168.935C43.8429 169.297 45.68 168.993 47.4446 168.901C51.6828 168.684 52.97 171.071 53.8475 173.79C54.5466 175.965 52.4928 179.374 50.217 180.743C46.8564 182.763 43.6789 181.736 40.6076 180.27C31.0803 175.714 25.5211 165.618 26.6494 155.184C27.4545 147.73 33.4043 140.907 40.6704 138.612C45.4003 137.118 50.1543 136.37 55.0867 136.568C55.6122 136.587 56.1474 136.428 56.8851 136.327C52.9893 131.308 48.1389 127.716 43.2306 124.225C32.9753 116.94 24.0313 108.483 18.4624 96.9592C16.1722 92.2293 14.5281 87.3162 13.2986 82.1572C12.0209 76.786 11.394 71.4052 11.5628 66.0051C12.2523 44.4336 21.3843 27.1725 38.6309 14.1737C46.138 8.51325 54.6046 4.94051 63.6883 2.98779C71.1569 1.38222 80.9631 0.288946 88.5859 1.54736C88.5859 1.54736 92.5859 2.04746 94.5859 3.04746C95.0247 3.168 99.5859 5.04746 99.5859 5.04746ZM76.6292 10.4563C73.0468 10.8324 69.045 10.8324 65.2505 11.7292C55.8244 13.9519 47.2083 17.9972 39.8844 24.5014C29.6001 33.6382 23.2165 45.0218 21.0227 58.5462C19.9186 65.3494 20.1934 72.2586 21.6398 79.1003C23.877 89.6884 28.4382 99.1337 36.2008 106.602C41.8565 112.046 48.3462 116.626 54.5129 121.535C60.4386 126.255 65.6121 131.602 68.3459 138.805C68.9727 140.449 69.5367 140.584 70.8386 139.972C76.3978 137.364 81.9522 134.746 87.5162 132.137C95.2355 128.521 102.969 124.934 110.664 121.269C111.354 120.941 111.957 120.223 112.357 119.543C115.37 114.413 118.07 109.076 121.354 104.124C127.405 94.992 132.477 85.5949 133.697 74.4283C135.191 60.7207 132.53 48.0449 124.999 36.4974C113.702 19.1785 97.246 11.3001 76.6292 10.4708V10.4563ZM71.962 155.989C80.1152 152.055 87.7091 148.357 95.3319 144.726C99.2759 142.85 103.186 140.854 107.28 139.369C110.211 138.304 110.645 136.515 110.303 133.873C110.1 132.315 109.541 131.867 108.123 132.552C104.84 134.138 101.571 135.763 98.2586 137.296C89.8209 141.202 81.3591 145.049 72.9263 148.974C72.2802 149.273 71.3641 149.982 71.3641 150.507C71.3545 152.219 71.7065 153.935 71.962 155.989ZM76.2821 170.526C77.3524 169.962 78.2396 169.451 79.1653 169.017C89.0109 164.393 98.8902 159.837 108.697 155.141C113.388 152.894 113.331 152.778 112.231 147.677C112.217 147.604 112.135 147.551 111.971 147.339C111.532 147.469 110.997 147.561 110.52 147.783C99.5218 152.952 88.5384 158.164 77.5261 163.308C73.1867 165.333 73.042 165.671 75.6939 169.793C75.8192 169.986 75.9783 170.16 76.2676 170.526H76.2821ZM89.4545 174.277C89.5365 174.47 89.6184 174.663 89.7004 174.856C95.1053 173.824 100.607 173.13 105.891 171.659C109.85 170.555 112.574 167.614 113.697 162.903C105.346 166.823 97.4004 170.55 89.4545 174.277ZM99.2277 147.937C99.059 147.759 98.6539 147.334 98.2441 146.905C97.8488 147.291 97.1208 147.662 97.1111 148.058C97.0581 149.697 96.4842 150.589 94.7147 150.642C94.3338 150.652 93.9723 151.389 93.6011 151.794C94.0784 152.064 94.5412 152.542 95.033 152.566C97.5933 152.701 99.1168 151.144 99.2277 147.932V147.937Z" stroke="black" stroke-width="2" mask="url(#path-1-outside-1_867_1720)"/>
<path d="M76.2835 9.01446C96.9003 9.84859 113.361 17.727 124.653 35.041C132.184 46.5886 134.846 59.2644 133.351 72.9719C132.136 84.1386 127.059 93.5357 121.008 102.668C117.729 107.619 115.029 112.952 112.011 118.087C111.611 118.767 111.003 119.485 110.319 119.813C102.624 123.477 94.8898 127.065 87.1705 130.681C81.6065 133.284 76.0521 135.902 70.4929 138.516C69.191 139.128 68.6221 138.993 68.0002 137.349C65.2664 130.146 60.0929 124.798 54.1673 120.078C48.0005 115.17 41.5108 110.589 35.8551 105.146C28.0973 97.6774 23.5313 88.232 21.2942 77.644C19.8477 70.8023 19.5729 63.893 20.677 57.0898C22.8708 43.5703 29.2592 32.1819 39.5387 23.0451C46.8626 16.5409 55.4739 12.4956 64.9048 10.2729C68.6993 9.38091 72.7011 9.37608 76.2835 9V9.01446Z" fill="#FCD34D"/>
</svg>
