<svg width="302" height="165" viewBox="0 0 302 165" fill="none" xmlns="http://www.w3.org/2000/svg">
<g filter="url(#filter0_dddi_294_10953)">
<path d="M196.773 15.3909C198.746 8.18623 206.186 3.94513 213.39 5.91812L288.129 26.3852C295.334 28.3582 299.575 35.7982 297.602 43.0028L277.135 117.741C275.162 124.946 267.722 129.187 260.517 127.214L185.778 106.747C178.574 104.774 174.333 97.334 176.306 90.1294L196.773 15.3909Z" fill="#FFF3EC" shape-rendering="crispEdges"/>
<path d="M197.18 15.5025C199.092 8.52301 206.299 4.41445 213.279 6.32578L288.017 26.7929C294.997 28.7042 299.105 35.9117 297.194 42.8912L276.727 117.63C274.816 124.609 267.608 128.718 260.629 126.806L185.89 106.339C178.911 104.428 174.802 97.2205 176.713 90.241L197.18 15.5025Z" stroke="#BE764F" stroke-width="0.845343" shape-rendering="crispEdges"/>
<path d="M213.25 26.8151C214.048 24.3559 216.688 23.0092 219.148 23.8072L271.065 40.6544C273.524 41.4525 274.871 44.0929 274.073 46.5521L252.64 112.602C251.842 115.061 249.201 116.408 246.742 115.61L194.825 98.7628C192.365 97.9648 191.019 95.3241 191.817 92.8648L213.25 26.8151Z" fill="url(#paint0_linear_294_10953)"/>
<path d="M213.25 26.8151C214.048 24.3559 216.688 23.0092 219.148 23.8072L271.065 40.6544C273.524 41.4525 274.871 44.0929 274.073 46.5521L252.64 112.602C251.842 115.061 249.201 116.408 246.742 115.61L194.825 98.7628C192.365 97.9648 191.019 95.3241 191.817 92.8648L213.25 26.8151Z" fill="url(#paint1_radial_294_10953)"/>
<path d="M220.452 31.9091C218.531 31.2857 216.468 32.3377 215.844 34.259L197.61 90.4512C196.987 92.3723 198.039 94.4353 199.96 95.0588L229.713 104.714C230.267 104.893 230.869 104.845 231.387 104.581L250.38 94.8948C250.898 94.6305 251.291 94.1709 251.47 93.6173L265.503 50.3732C266.126 48.4519 265.074 46.3891 263.153 45.7656L220.452 31.9091Z" fill="#CD7D52"/>
<path d="M221.814 31.1962C219.892 30.5728 217.83 31.6248 217.206 33.5461L198.972 89.7383C198.348 91.6594 199.4 93.7224 201.322 94.3459L231.075 104.001C231.628 104.18 232.231 104.133 232.749 103.868L251.742 94.1819C252.26 93.9176 252.652 93.458 252.832 92.9045L266.865 49.6603C267.488 47.739 266.436 45.6762 264.515 45.0527L221.814 31.1962Z" fill="url(#paint2_linear_294_10953)"/>
<path d="M254.982 63.06L218.978 51.3765C218.227 51.133 217.421 51.5439 217.178 52.2944C216.934 53.0449 217.345 53.8507 218.096 54.0942L254.1 65.7778C254.851 66.0213 255.657 65.6103 255.9 64.8599C256.144 64.1094 255.733 63.3036 254.982 63.06Z" fill="#9B96A2"/>
<path d="M252.266 71.4311L216.261 59.7476C215.511 59.5041 214.705 59.915 214.461 60.6655C214.218 61.416 214.629 62.2218 215.379 62.4653L251.384 74.1489C252.135 74.3924 252.94 73.9814 253.184 73.2309C253.427 72.4805 253.016 71.6747 252.266 71.4311Z" fill="#9B96A2"/>
<path d="M249.55 79.8012L213.545 68.1177C212.795 67.8742 211.989 68.2851 211.746 69.0356C211.502 69.7861 211.913 70.5919 212.663 70.8355L248.668 82.519C249.419 82.7625 250.225 82.3515 250.468 81.6011C250.712 80.8506 250.301 80.0448 249.55 79.8012Z" fill="#9B96A2"/>
<path d="M233.071 83.7063L210.829 76.4888C210.078 76.2453 209.272 76.6562 209.029 77.4067C208.785 78.1572 209.196 78.963 209.947 79.2065L232.189 86.4241C232.939 86.6676 233.745 86.2566 233.989 85.5061C234.232 84.7557 233.821 83.9499 233.071 83.7063Z" fill="#9B96A2"/>
<path d="M251.906 92.8664L251.896 92.8629C251.698 93.471 251.311 93.5056 250.968 93.4326L238.984 89.5438C237.479 89.0554 235.864 89.8796 235.375 91.3844L231.496 103.34C231.282 103.723 230.679 103.784 230.382 103.764L230.368 103.771L230.569 103.837C231.111 104.013 231.701 103.966 232.209 103.707L250.804 94.2228C251.312 93.9639 251.696 93.514 251.872 92.9721L251.906 92.8664Z" fill="#D0C1E0"/>
<path d="M252.866 92.7965L252.855 92.793C252.654 93.4144 252.258 93.4498 251.908 93.375L239.669 89.4032C238.132 88.9045 236.481 89.7461 235.983 91.2831L232.02 103.494C231.801 103.884 231.185 103.948 230.882 103.927L230.868 103.934L231.074 104.001C231.627 104.181 232.23 104.133 232.748 103.869L251.741 94.1822C252.259 93.9177 252.651 93.4583 252.831 92.9048L252.866 92.7965Z" fill="url(#paint3_linear_294_10953)"/>
<path d="M228.211 34.8104C228.46 34.0419 229.285 33.6211 230.054 33.8705L255.622 42.1675L253.223 49.5597C252.974 50.3282 252.149 50.749 251.38 50.4997L227.203 42.6542C226.435 42.4049 226.014 41.5797 226.263 40.8112L228.211 34.8104Z" fill="#CABFD5"/>
<path fill-rule="evenodd" clip-rule="evenodd" d="M246.028 29.2965C249.031 30.2711 250.697 33.4613 249.802 36.4709C249.779 36.5483 249.821 36.6312 249.897 36.6561L252.519 37.507C255.594 38.5045 257.277 41.8051 256.279 44.8791L254.865 49.2383C254.613 50.0128 253.782 50.437 253.007 50.1856L228.156 42.1215C227.382 41.8701 226.958 41.0385 227.209 40.2641L228.624 35.9048C229.621 32.8308 232.922 31.1475 235.996 32.145L238.574 32.9818C238.651 33.0067 238.734 32.9641 238.76 32.8879C239.803 29.9264 243.025 28.322 246.028 29.2965ZM243.424 37.3192C244.806 37.7674 246.288 37.0112 246.736 35.6303C247.184 34.2494 246.428 32.7668 245.047 32.3186C243.666 31.8705 242.184 32.6267 241.735 34.0076C241.287 35.3885 242.043 36.8711 243.424 37.3192Z" fill="url(#paint4_linear_294_10953)"/>
<path d="M227.614 70.1247C227.614 79.5801 235.279 87.2454 244.735 87.2454C254.19 87.2454 261.856 79.5801 261.856 70.1247C261.856 60.6691 254.19 53.0039 244.735 53.0039C235.279 53.0039 227.614 60.6691 227.614 70.1247Z" fill="#00A6ED"/>
<path d="M253.892 61.1055C254.837 62.7432 254.608 64.6458 253.38 65.3549C252.151 66.0641 250.389 65.3113 249.444 63.6736C248.498 62.0358 248.727 60.1333 249.956 59.4241C251.184 58.715 252.946 59.4677 253.892 61.1055Z" fill="white"/>
<path d="M225.902 70.1248C225.902 80.5258 234.334 88.9576 244.735 88.9576C248.665 88.9576 252.313 87.7542 255.332 85.6956C254.862 87.7739 255.435 90.0409 257.054 91.6591L262.501 97.1069C265.009 99.6141 269.074 99.6141 271.581 97.1069C274.088 94.5996 274.088 90.5344 271.581 88.0273L266.133 82.5795C264.528 80.9744 262.284 80.3967 260.22 80.8468C262.331 77.8038 263.568 74.1088 263.568 70.1248C263.568 59.7237 255.136 51.292 244.735 51.292C234.334 51.292 225.902 59.7237 225.902 70.1248ZM260.144 70.1248C260.144 78.6348 253.245 85.5335 244.735 85.5335C236.225 85.5335 229.326 78.6348 229.326 70.1248C229.326 61.6148 236.225 54.7161 244.735 54.7161C253.245 54.7161 260.144 61.6148 260.144 70.1248Z" fill="#533566"/>
</g>
<g filter="url(#filter1_dddi_294_10953)">
<rect width="104.541" height="104.541" rx="25.3603" transform="matrix(-0.964489 0.264125 0.264125 0.964489 100.982 7.41797)" fill="#FFE5E5" shape-rendering="crispEdges"/>
<rect x="-0.296024" y="0.5193" width="103.696" height="103.696" rx="24.9376" transform="matrix(-0.964489 0.264125 0.264125 0.964489 100.263 7.5146)" stroke="#B40003" stroke-width="0.845343" shape-rendering="crispEdges"/>
<path d="M38.0425 109.516L101.648 97.4338L89.566 33.8286L25.9607 45.9103L38.0425 109.516Z" fill="black"/>
</g>
<g filter="url(#filter2_dddi_294_10953)">
<rect x="95.6768" y="2.3457" width="115.812" height="115.812" rx="25.3603" fill="#FFFBF2" shape-rendering="crispEdges"/>
<rect x="96.0994" y="2.76837" width="114.967" height="114.967" rx="24.9376" stroke="url(#paint5_linear_294_10953)" stroke-width="0.845343" shape-rendering="crispEdges"/>
<path d="M115.939 97.6923H190.812V22.8195H115.939V97.6923Z" fill="black"/>
</g>
<path fill-rule="evenodd" clip-rule="evenodd" d="M176.053 104.524C173.716 103.871 171.286 105.226 170.613 107.575C170.27 108.77 169.023 109.461 167.828 109.118C166.633 108.776 165.942 107.529 166.285 106.334C167.635 101.627 172.512 98.8791 177.232 100.179C177.32 100.201 177.497 100.245 177.656 100.298C184.133 102.457 184.649 111.246 178.84 114.458C178.84 114.458 178.84 114.458 178.84 114.458L165.927 121.603C164.84 122.205 163.47 121.811 162.868 120.723C162.266 119.635 162.66 118.265 163.748 117.664L176.66 110.519C179.211 109.108 178.798 105.438 176.247 104.574L176.231 104.57C176.203 104.562 176.168 104.554 176.113 104.54C176.093 104.535 176.073 104.529 176.053 104.524Z" fill="#FFD340"/>
<path fill-rule="evenodd" clip-rule="evenodd" d="M176.053 104.524C173.716 103.871 171.286 105.226 170.613 107.575C170.27 108.77 169.023 109.461 167.828 109.118C166.633 108.776 165.942 107.529 166.285 106.334C167.635 101.627 172.512 98.8791 177.232 100.179C177.32 100.201 177.497 100.245 177.656 100.298C184.133 102.457 184.649 111.246 178.84 114.458C178.84 114.458 178.84 114.458 178.84 114.458L165.927 121.603C164.84 122.205 163.47 121.811 162.868 120.723C162.266 119.635 162.66 118.265 163.748 117.664L176.66 110.519C179.211 109.108 178.798 105.438 176.247 104.574L176.231 104.57C176.203 104.562 176.168 104.554 176.113 104.54C176.093 104.535 176.073 104.529 176.053 104.524Z" fill="url(#paint6_linear_294_10953)"/>
<path fill-rule="evenodd" clip-rule="evenodd" d="M176.053 104.524C173.716 103.871 171.286 105.226 170.613 107.575C170.27 108.77 169.023 109.461 167.828 109.118C166.633 108.776 165.942 107.529 166.285 106.334C167.635 101.627 172.512 98.8791 177.232 100.179C177.32 100.201 177.497 100.245 177.656 100.298C184.133 102.457 184.649 111.246 178.84 114.458C178.84 114.458 178.84 114.458 178.84 114.458L165.927 121.603C164.84 122.205 163.47 121.811 162.868 120.723C162.266 119.635 162.66 118.265 163.748 117.664L176.66 110.519C179.211 109.108 178.798 105.438 176.247 104.574L176.231 104.57C176.203 104.562 176.168 104.554 176.113 104.54C176.093 104.535 176.073 104.529 176.053 104.524Z" fill="url(#paint7_radial_294_10953)"/>
<path fill-rule="evenodd" clip-rule="evenodd" d="M128.645 100.179C133.365 98.8791 138.242 101.627 139.592 106.334C139.935 107.529 139.244 108.776 138.049 109.118C136.853 109.461 135.607 108.77 135.264 107.575C134.591 105.226 132.161 103.871 129.824 104.524C129.804 104.529 129.784 104.535 129.764 104.54C129.709 104.554 129.674 104.562 129.646 104.57L129.63 104.574C127.079 105.438 126.665 109.108 129.216 110.518L142.129 117.664C143.217 118.265 143.611 119.635 143.009 120.723C142.407 121.811 141.037 122.205 139.949 121.603L127.038 114.459C127.038 114.458 127.038 114.459 127.038 114.459C121.229 111.247 121.743 102.457 128.22 100.298C128.38 100.245 128.557 100.201 128.645 100.179Z" fill="#EAA73A"/>
<path fill-rule="evenodd" clip-rule="evenodd" d="M128.645 100.179C133.365 98.8791 138.242 101.627 139.592 106.334C139.935 107.529 139.244 108.776 138.049 109.118C136.853 109.461 135.607 108.77 135.264 107.575C134.591 105.226 132.161 103.871 129.824 104.524C129.804 104.529 129.784 104.535 129.764 104.54C129.709 104.554 129.674 104.562 129.646 104.57L129.63 104.574C127.079 105.438 126.665 109.108 129.216 110.518L142.129 117.664C143.217 118.265 143.611 119.635 143.009 120.723C142.407 121.811 141.037 122.205 139.949 121.603L127.038 114.459C127.038 114.458 127.038 114.459 127.038 114.459C121.229 111.247 121.743 102.457 128.22 100.298C128.38 100.245 128.557 100.201 128.645 100.179Z" fill="url(#paint8_linear_294_10953)"/>
<path d="M157.277 132.284V121.32H148.599V132.284C148.599 134.207 147.742 136.051 146.261 137.273L141.272 141.429H164.603L159.615 137.273C158.134 136.025 157.277 134.207 157.277 132.284Z" fill="url(#paint9_linear_294_10953)"/>
<path d="M157.277 132.284V121.32H148.599V132.284C148.599 134.207 147.742 136.051 146.261 137.273L141.272 141.429H164.603L159.615 137.273C158.134 136.025 157.277 134.207 157.277 132.284Z" fill="url(#paint10_radial_294_10953)"/>
<path d="M157.277 132.283V121.319H148.6V132.283C148.6 134.206 147.742 136.05 146.261 137.272L141.273 141.428H164.604L159.615 137.272C158.134 136.024 157.277 134.206 157.277 132.283Z" fill="url(#paint11_radial_294_10953)"/>
<path d="M152.938 129.763C142.936 129.763 134.83 121.657 134.83 111.655V93.8319C134.83 92.8187 135.661 91.9873 136.674 91.9873H169.228C170.242 91.9873 171.073 92.8187 171.073 93.8319V111.655C171.073 121.657 162.967 129.763 152.938 129.763Z" fill="#EA873A"/>
<path d="M152.938 129.763C142.936 129.763 134.83 121.657 134.83 111.655V93.8319C134.83 92.8187 135.661 91.9873 136.674 91.9873H169.228C170.242 91.9873 171.073 92.8187 171.073 93.8319V111.655C171.073 121.657 162.967 129.763 152.938 129.763Z" fill="url(#paint12_radial_294_10953)"/>
<path d="M152.938 129.763C142.936 129.763 134.83 121.657 134.83 111.655V93.8319C134.83 92.8187 135.661 91.9873 136.674 91.9873H169.228C170.242 91.9873 171.073 92.8187 171.073 93.8319V111.655C171.073 121.657 162.967 129.763 152.938 129.763Z" fill="url(#paint13_radial_294_10953)"/>
<path d="M152.938 129.763C142.936 129.763 134.83 121.657 134.83 111.655V93.8319C134.83 92.8187 135.661 91.9873 136.674 91.9873H169.228C170.242 91.9873 171.073 92.8187 171.073 93.8319V111.655C171.073 121.657 162.967 129.763 152.938 129.763Z" fill="url(#paint14_radial_294_10953)"/>
<path d="M170.918 141.43H134.961C133.064 141.43 131.453 142.755 131.09 144.599L127.115 163.02C126.933 163.877 127.582 164.683 128.466 164.683H177.44C178.323 164.683 178.972 163.877 178.791 163.02L174.816 144.599C174.426 142.755 172.815 141.43 170.918 141.43Z" fill="url(#paint15_linear_294_10953)"/>
<path d="M170.918 141.43H134.961C133.064 141.43 131.453 142.755 131.09 144.599L127.115 163.02C126.933 163.877 127.582 164.683 128.466 164.683H177.44C178.323 164.683 178.972 163.877 178.791 163.02L174.816 144.599C174.426 142.755 172.815 141.43 170.918 141.43Z" fill="url(#paint16_linear_294_10953)"/>
<path d="M170.918 141.43H134.961C133.064 141.43 131.453 142.755 131.09 144.599L127.115 163.02C126.933 163.877 127.582 164.683 128.466 164.683H177.44C178.323 164.683 178.972 163.877 178.791 163.02L174.816 144.599C174.426 142.755 172.815 141.43 170.918 141.43Z" fill="url(#paint17_linear_294_10953)"/>
<path d="M160.068 148.817H144.428C143.519 148.817 142.765 149.545 142.765 150.48V155.183C142.765 156.092 143.493 156.845 144.428 156.845H160.068C160.978 156.845 161.731 156.118 161.731 155.183V150.48C161.731 149.571 161.004 148.817 160.068 148.817Z" fill="#914556"/>
<path d="M160.76 148.342H145.119C144.21 148.342 143.457 149.069 143.457 150.005V154.707C143.457 155.616 144.184 156.37 145.119 156.37H160.76C161.669 156.37 162.423 155.642 162.423 154.707V150.005C162.423 149.095 161.695 148.342 160.76 148.342Z" fill="url(#paint18_linear_294_10953)"/>
<defs>
<filter id="filter0_dddi_294_10953" x="169.352" y="0.655018" width="135.203" height="135.203" filterUnits="userSpaceOnUse" color-interpolation-filters="sRGB">
<feFlood flood-opacity="0" result="BackgroundImageFix"/>
<feColorMatrix in="SourceAlpha" type="matrix" values="0 0 0 0 0 0 0 0 0 0 0 0 0 0 0 0 0 0 127 0" result="hardAlpha"/>
<feOffset dy="1.69069"/>
<feGaussianBlur stdDeviation="1.69069"/>
<feComposite in2="hardAlpha" operator="out"/>
<feColorMatrix type="matrix" values="0 0 0 0 0.0666667 0 0 0 0 0.0941176 0 0 0 0 0.109804 0 0 0 0.04 0"/>
<feBlend mode="normal" in2="BackgroundImageFix" result="effect1_dropShadow_294_10953"/>
<feColorMatrix in="SourceAlpha" type="matrix" values="0 0 0 0 0 0 0 0 0 0 0 0 0 0 0 0 0 0 127 0" result="hardAlpha"/>
<feMorphology radius="0.845343" operator="erode" in="SourceAlpha" result="effect2_dropShadow_294_10953"/>
<feOffset dy="0.845343"/>
<feGaussianBlur stdDeviation="0.845343"/>
<feComposite in2="hardAlpha" operator="out"/>
<feColorMatrix type="matrix" values="0 0 0 0 0.0666667 0 0 0 0 0.0941176 0 0 0 0 0.109804 0 0 0 0.08 0"/>
<feBlend mode="normal" in2="effect1_dropShadow_294_10953" result="effect2_dropShadow_294_10953"/>
<feColorMatrix in="SourceAlpha" type="matrix" values="0 0 0 0 0 0 0 0 0 0 0 0 0 0 0 0 0 0 127 0" result="hardAlpha"/>
<feMorphology radius="0.845343" operator="dilate" in="SourceAlpha" result="effect3_dropShadow_294_10953"/>
<feOffset/>
<feComposite in2="hardAlpha" operator="out"/>
<feColorMatrix type="matrix" values="0 0 0 0 0.0666667 0 0 0 0 0.0941176 0 0 0 0 0.109804 0 0 0 0.08 0"/>
<feBlend mode="normal" in2="effect2_dropShadow_294_10953" result="effect3_dropShadow_294_10953"/>
<feBlend mode="normal" in="SourceGraphic" in2="effect3_dropShadow_294_10953" result="shape"/>
<feColorMatrix in="SourceAlpha" type="matrix" values="0 0 0 0 0 0 0 0 0 0 0 0 0 0 0 0 0 0 127 0" result="hardAlpha"/>
<feOffset dy="3.38137"/>
<feGaussianBlur stdDeviation="1.69069"/>
<feComposite in2="hardAlpha" operator="arithmetic" k2="-1" k3="1"/>
<feColorMatrix type="matrix" values="0 0 0 0 0 0 0 0 0 0 0 0 0 0 0 0 0 0 0.16 0"/>
<feBlend mode="normal" in2="shape" result="effect4_innerShadow_294_10953"/>
</filter>
<filter id="filter1_dddi_294_10953" x="-3.22805" y="5.72728" width="135.203" height="135.203" filterUnits="userSpaceOnUse" color-interpolation-filters="sRGB">
<feFlood flood-opacity="0" result="BackgroundImageFix"/>
<feColorMatrix in="SourceAlpha" type="matrix" values="0 0 0 0 0 0 0 0 0 0 0 0 0 0 0 0 0 0 127 0" result="hardAlpha"/>
<feOffset dy="1.69069"/>
<feGaussianBlur stdDeviation="1.69069"/>
<feComposite in2="hardAlpha" operator="out"/>
<feColorMatrix type="matrix" values="0 0 0 0 0.427451 0 0 0 0 0.223529 0 0 0 0 0.894118 0 0 0 0.04 0"/>
<feBlend mode="normal" in2="BackgroundImageFix" result="effect1_dropShadow_294_10953"/>
<feColorMatrix in="SourceAlpha" type="matrix" values="0 0 0 0 0 0 0 0 0 0 0 0 0 0 0 0 0 0 127 0" result="hardAlpha"/>
<feMorphology radius="0.845343" operator="erode" in="SourceAlpha" result="effect2_dropShadow_294_10953"/>
<feOffset dy="0.845343"/>
<feGaussianBlur stdDeviation="0.845343"/>
<feComposite in2="hardAlpha" operator="out"/>
<feColorMatrix type="matrix" values="0 0 0 0 0.427451 0 0 0 0 0.223529 0 0 0 0 0.894118 0 0 0 0.08 0"/>
<feBlend mode="normal" in2="effect1_dropShadow_294_10953" result="effect2_dropShadow_294_10953"/>
<feColorMatrix in="SourceAlpha" type="matrix" values="0 0 0 0 0 0 0 0 0 0 0 0 0 0 0 0 0 0 127 0" result="hardAlpha"/>
<feMorphology radius="0.845343" operator="dilate" in="SourceAlpha" result="effect3_dropShadow_294_10953"/>
<feOffset/>
<feComposite in2="hardAlpha" operator="out"/>
<feColorMatrix type="matrix" values="0 0 0 0 0.427451 0 0 0 0 0.223529 0 0 0 0 0.894118 0 0 0 0.08 0"/>
<feBlend mode="normal" in2="effect2_dropShadow_294_10953" result="effect3_dropShadow_294_10953"/>
<feBlend mode="normal" in="SourceGraphic" in2="effect3_dropShadow_294_10953" result="shape"/>
<feColorMatrix in="SourceAlpha" type="matrix" values="0 0 0 0 0 0 0 0 0 0 0 0 0 0 0 0 0 0 127 0" result="hardAlpha"/>
<feOffset dy="3.38137"/>
<feGaussianBlur stdDeviation="1.69069"/>
<feComposite in2="hardAlpha" operator="arithmetic" k2="-1" k3="1"/>
<feColorMatrix type="matrix" values="0 0 0 0 0.427451 0 0 0 0 0.223529 0 0 0 0 0.894118 0 0 0 0.16 0"/>
<feBlend mode="normal" in2="shape" result="effect4_innerShadow_294_10953"/>
</filter>
<filter id="filter2_dddi_294_10953" x="92.2954" y="0.655018" width="122.575" height="122.574" filterUnits="userSpaceOnUse" color-interpolation-filters="sRGB">
<feFlood flood-opacity="0" result="BackgroundImageFix"/>
<feColorMatrix in="SourceAlpha" type="matrix" values="0 0 0 0 0 0 0 0 0 0 0 0 0 0 0 0 0 0 127 0" result="hardAlpha"/>
<feOffset dy="1.69069"/>
<feGaussianBlur stdDeviation="1.69069"/>
<feComposite in2="hardAlpha" operator="out"/>
<feColorMatrix type="matrix" values="0 0 0 0 0.0666667 0 0 0 0 0.0941176 0 0 0 0 0.109804 0 0 0 0.04 0"/>
<feBlend mode="normal" in2="BackgroundImageFix" result="effect1_dropShadow_294_10953"/>
<feColorMatrix in="SourceAlpha" type="matrix" values="0 0 0 0 0 0 0 0 0 0 0 0 0 0 0 0 0 0 127 0" result="hardAlpha"/>
<feMorphology radius="0.845343" operator="erode" in="SourceAlpha" result="effect2_dropShadow_294_10953"/>
<feOffset dy="0.845343"/>
<feGaussianBlur stdDeviation="0.845343"/>
<feComposite in2="hardAlpha" operator="out"/>
<feColorMatrix type="matrix" values="0 0 0 0 0.0666667 0 0 0 0 0.0941176 0 0 0 0 0.109804 0 0 0 0.08 0"/>
<feBlend mode="normal" in2="effect1_dropShadow_294_10953" result="effect2_dropShadow_294_10953"/>
<feColorMatrix in="SourceAlpha" type="matrix" values="0 0 0 0 0 0 0 0 0 0 0 0 0 0 0 0 0 0 127 0" result="hardAlpha"/>
<feMorphology radius="0.845343" operator="dilate" in="SourceAlpha" result="effect3_dropShadow_294_10953"/>
<feOffset/>
<feComposite in2="hardAlpha" operator="out"/>
<feColorMatrix type="matrix" values="0 0 0 0 0.0666667 0 0 0 0 0.0941176 0 0 0 0 0.109804 0 0 0 0.08 0"/>
<feBlend mode="normal" in2="effect2_dropShadow_294_10953" result="effect3_dropShadow_294_10953"/>
<feBlend mode="normal" in="SourceGraphic" in2="effect3_dropShadow_294_10953" result="shape"/>
<feColorMatrix in="SourceAlpha" type="matrix" values="0 0 0 0 0 0 0 0 0 0 0 0 0 0 0 0 0 0 127 0" result="hardAlpha"/>
<feOffset dy="3.38137"/>
<feGaussianBlur stdDeviation="1.69069"/>
<feComposite in2="hardAlpha" operator="arithmetic" k2="-1" k3="1"/>
<feColorMatrix type="matrix" values="0 0 0 0 0 0 0 0 0 0 0 0 0 0 0 0 0 0 0.16 0"/>
<feBlend mode="normal" in2="shape" result="effect4_innerShadow_294_10953"/>
</filter>
<linearGradient id="paint0_linear_294_10953" x1="245.106" y1="32.2308" x2="220.783" y2="107.186" gradientUnits="userSpaceOnUse">
<stop stop-color="#E8A874"/>
<stop offset="1" stop-color="#DB925D"/>
</linearGradient>
<radialGradient id="paint1_radial_294_10953" cx="0" cy="0" r="1" gradientUnits="userSpaceOnUse" gradientTransform="translate(242.175 38.2846) rotate(-72.0218) scale(7.31457 5.93545)">
<stop stop-color="#D79769"/>
<stop offset="1" stop-color="#D79769" stop-opacity="0"/>
</radialGradient>
<linearGradient id="paint2_linear_294_10953" x1="243.164" y1="38.1244" x2="222.672" y2="101.274" gradientUnits="userSpaceOnUse">
<stop stop-color="#EAE2F4"/>
<stop offset="1" stop-color="#E4DAEF"/>
</linearGradient>
<linearGradient id="paint3_linear_294_10953" x1="236.658" y1="89.9405" x2="240.778" y2="98.8709" gradientUnits="userSpaceOnUse">
<stop stop-color="#D6CDE1"/>
<stop offset="1" stop-color="#C6BAD2"/>
</linearGradient>
<linearGradient id="paint4_linear_294_10953" x1="251.993" y1="36.7594" x2="239.463" y2="46.3432" gradientUnits="userSpaceOnUse">
<stop stop-color="#948A94"/>
<stop offset="1" stop-color="#8D8291"/>
</linearGradient>
<linearGradient id="paint5_linear_294_10953" x1="153.583" y1="2.3457" x2="153.583" y2="118.158" gradientUnits="userSpaceOnUse">
<stop stop-color="#FFD881"/>
<stop offset="1" stop-color="#99824D"/>
</linearGradient>
<linearGradient id="paint6_linear_294_10953" x1="170.03" y1="117.799" x2="179.465" y2="109.287" gradientUnits="userSpaceOnUse">
<stop stop-color="#FEC551"/>
<stop offset="1" stop-color="#FEC551" stop-opacity="0"/>
</linearGradient>
<radialGradient id="paint7_radial_294_10953" cx="0" cy="0" r="1" gradientUnits="userSpaceOnUse" gradientTransform="translate(170.132 109.903) rotate(-21.5519) scale(13.1215 12.087)">
<stop offset="0.72717" stop-color="#FFEC6A" stop-opacity="0"/>
<stop offset="1" stop-color="#FFEC6A"/>
</radialGradient>
<linearGradient id="paint8_linear_294_10953" x1="137.11" y1="107.441" x2="130.649" y2="105.595" gradientUnits="userSpaceOnUse">
<stop stop-color="#D27840"/>
<stop offset="1" stop-color="#D27840" stop-opacity="0"/>
</linearGradient>
<linearGradient id="paint9_linear_294_10953" x1="156.304" y1="138.104" x2="143.151" y2="138.104" gradientUnits="userSpaceOnUse">
<stop stop-color="#FBC33A"/>
<stop offset="1" stop-color="#DB7B3C"/>
</linearGradient>
<radialGradient id="paint10_radial_294_10953" cx="0" cy="0" r="1" gradientUnits="userSpaceOnUse" gradientTransform="translate(157.035 131.375) rotate(90) scale(5.42999 4.95259)">
<stop offset="0.192585" stop-color="#FFE469"/>
<stop offset="1" stop-color="#FFE469" stop-opacity="0"/>
</radialGradient>
<radialGradient id="paint11_radial_294_10953" cx="0" cy="0" r="1" gradientUnits="userSpaceOnUse" gradientTransform="translate(162.639 139.642) rotate(149.162) scale(5.91045 8.9739)">
<stop stop-color="#FFD34D"/>
<stop offset="1" stop-color="#FFD34D" stop-opacity="0"/>
</radialGradient>
<radialGradient id="paint12_radial_294_10953" cx="0" cy="0" r="1" gradientUnits="userSpaceOnUse" gradientTransform="translate(159.552 94.9101) rotate(83.702) scale(32.2778 20.7264)">
<stop offset="0.120527" stop-color="#FFFA73"/>
<stop offset="1" stop-color="#FFFA73" stop-opacity="0"/>
</radialGradient>
<radialGradient id="paint13_radial_294_10953" cx="0" cy="0" r="1" gradientUnits="userSpaceOnUse" gradientTransform="translate(159.76 91.9873) rotate(90) scale(1.82992 20.4508)">
<stop stop-color="#FFF45B"/>
<stop offset="1" stop-color="#FFF45B" stop-opacity="0"/>
</radialGradient>
<radialGradient id="paint14_radial_294_10953" cx="0" cy="0" r="1" gradientUnits="userSpaceOnUse" gradientTransform="translate(161.663 99.132) rotate(121.572) scale(34.1157 32.7314)">
<stop offset="0.787409" stop-color="#C55D73" stop-opacity="0"/>
<stop offset="1" stop-color="#C55D73"/>
</radialGradient>
<linearGradient id="paint15_linear_294_10953" x1="127.083" y1="153.049" x2="178.811" y2="153.049" gradientUnits="userSpaceOnUse">
<stop stop-color="#9D5B6C"/>
<stop offset="1" stop-color="#955569"/>
</linearGradient>
<linearGradient id="paint16_linear_294_10953" x1="152.953" y1="165.692" x2="152.953" y2="161.467" gradientUnits="userSpaceOnUse">
<stop stop-color="#8C3A79"/>
<stop offset="1" stop-color="#8C3A79" stop-opacity="0"/>
</linearGradient>
<linearGradient id="paint17_linear_294_10953" x1="176.875" y1="155.698" x2="174.437" y2="156.267" gradientUnits="userSpaceOnUse">
<stop stop-color="#B0817C"/>
<stop offset="1" stop-color="#B0817C" stop-opacity="0"/>
</linearGradient>
<linearGradient id="paint18_linear_294_10953" x1="163.395" y1="152.356" x2="143.457" y2="152.356" gradientUnits="userSpaceOnUse">
<stop stop-color="#FFE767"/>
<stop offset="1" stop-color="#FEBB5B"/>
</linearGradient>
</defs>
</svg>
