<svg width="24" height="25" viewBox="0 0 24 25" fill="none" xmlns="http://www.w3.org/2000/svg">
<path d="M12 2.72461C10.0716 2.72461 8.18657 3.29644 6.58319 4.36778C4.97982 5.43912 3.73013 6.96187 2.99218 8.74345C2.25422 10.525 2.06114 12.4854 2.43735 14.3767C2.81355 16.2681 3.74215 18.0053 5.10571 19.3689C6.46928 20.7325 8.20656 21.6611 10.0979 22.0373C11.9892 22.4135 13.9496 22.2204 15.7312 21.4824C17.5127 20.7445 19.0355 19.4948 20.1068 17.8914C21.1782 16.288 21.75 14.403 21.75 12.4746C21.7473 9.88959 20.7192 7.41122 18.8913 5.58333C17.0634 3.75545 14.585 2.72734 12 2.72461ZM15.75 13.9746C15.75 14.1735 15.671 14.3643 15.5303 14.5049C15.3897 14.6456 15.1989 14.7246 15 14.7246C14.8011 14.7246 14.6103 14.6456 14.4697 14.5049C14.329 14.3643 14.25 14.1735 14.25 13.9746V11.2849L9.53063 16.0052C9.46095 16.0749 9.37822 16.1302 9.28718 16.1679C9.19613 16.2056 9.09855 16.225 9 16.225C8.90146 16.225 8.80388 16.2056 8.71283 16.1679C8.62179 16.1302 8.53906 16.0749 8.46938 16.0052C8.3997 15.9356 8.34442 15.8528 8.30671 15.7618C8.269 15.6707 8.24959 15.5732 8.24959 15.4746C8.24959 15.3761 8.269 15.2785 8.30671 15.1874C8.34442 15.0964 8.3997 15.0137 8.46938 14.944L13.1897 10.2246H10.5C10.3011 10.2246 10.1103 10.1456 9.96967 10.0049C9.82902 9.86429 9.75 9.67352 9.75 9.47461C9.75 9.2757 9.82902 9.08493 9.96967 8.94428C10.1103 8.80363 10.3011 8.72461 10.5 8.72461H15C15.1989 8.72461 15.3897 8.80363 15.5303 8.94428C15.671 9.08493 15.75 9.2757 15.75 9.47461V13.9746Z" fill="#FACC15"/>
</svg>
