<svg width="121" height="22" viewBox="0 0 121 22" fill="none" xmlns="http://www.w3.org/2000/svg">
<path d="M5.18067 20.0923C4.07667 20.0923 3.17267 19.9083 2.46867 19.5403C1.76467 19.1563 1.25267 18.5643 0.932668 17.7643C0.708668 17.2203 0.540668 16.5643 0.428668 15.7963C0.332668 15.0283 0.284668 14.1403 0.284668 13.1323C0.284668 11.5003 0.340668 10.1323 0.452668 9.02828C0.564668 7.90828 0.732668 6.98828 0.956668 6.26828C1.19667 5.53228 1.46867 4.93228 1.77267 4.46828C2.20467 3.78028 2.90867 3.23628 3.88467 2.83628C4.86067 2.43628 6.24467 2.23628 8.03667 2.23628C9.31667 2.23628 10.3407 2.40428 11.1087 2.74028C11.8767 3.07628 12.4367 3.52428 12.7887 4.08428C13.1407 4.64428 13.3167 5.27628 13.3167 5.98028C13.3167 7.05228 12.9887 7.93228 12.3327 8.62028C11.6767 9.30828 10.8207 9.85228 9.76467 10.2523V10.3483C10.9167 10.4763 11.8127 10.8523 12.4527 11.4763C13.1087 12.0843 13.4367 12.9563 13.4367 14.0923C13.4367 14.9723 13.1967 15.7803 12.7167 16.5163C12.2527 17.2363 11.6207 17.8683 10.8207 18.4123C10.0367 18.9403 9.15667 19.3563 8.18067 19.6603C7.20467 19.9483 6.20467 20.0923 5.18067 20.0923ZM6.26067 16.6603C6.91667 16.6603 7.50067 16.5563 8.01267 16.3483C8.52467 16.1243 8.92467 15.8363 9.21267 15.4843C9.50067 15.1163 9.64467 14.6923 9.64467 14.2123C9.64467 13.6843 9.39667 13.2443 8.90067 12.8923C8.40467 12.5243 7.63667 12.3403 6.59667 12.3403C5.86067 12.3403 5.26067 12.5243 4.79667 12.8923C4.34867 13.2443 4.12467 13.8123 4.12467 14.5963C4.12467 15.3323 4.30067 15.8603 4.65267 16.1803C5.00467 16.5003 5.54067 16.6603 6.26067 16.6603ZM6.33267 9.36428C7.26067 9.36428 8.02867 9.16428 8.63667 8.76428C9.26067 8.34828 9.57267 7.80428 9.57267 7.13228C9.57267 6.63628 9.35667 6.23628 8.92467 5.93228C8.50867 5.62828 7.90067 5.47628 7.10067 5.47628C6.28467 5.47628 5.61267 5.64428 5.08467 5.98028C4.55667 6.31628 4.29267 6.86028 4.29267 7.61228C4.29267 8.23628 4.47667 8.68428 4.84467 8.95628C5.21267 9.22828 5.70867 9.36428 6.33267 9.36428Z" fill="black"/>
<path d="M18.375 20.0203C17.783 20.0203 17.311 19.9003 16.959 19.6603C16.607 19.4043 16.327 18.9723 16.119 18.3643C15.879 17.6123 15.695 16.6283 15.567 15.4123C15.455 14.1963 15.399 12.7083 15.399 10.9483C15.399 9.87628 15.439 8.79628 15.519 7.70828C15.615 6.62028 15.735 5.62828 15.879 4.73228C16.023 3.82028 16.175 3.12428 16.335 2.64428C16.575 2.03628 16.839 1.61228 17.127 1.37228C17.415 1.11628 17.759 0.988281 18.159 0.988281C18.575 0.988281 18.919 1.11628 19.191 1.37228C19.463 1.62828 19.671 2.06028 19.815 2.66828C19.911 3.19628 19.991 3.84428 20.055 4.61228C20.135 5.36428 20.175 6.16428 20.175 7.01228C20.175 8.10028 20.119 9.24428 20.007 10.4443C19.895 11.6443 19.743 12.8283 19.551 13.9963C19.375 15.1483 19.159 16.2043 18.903 17.1643L17.607 17.0443C18.055 16.5963 18.551 16.2523 19.095 16.0123C19.639 15.7563 20.143 15.6283 20.607 15.6283C21.103 15.6283 21.479 15.7563 21.735 16.0123C22.007 16.2683 22.143 16.6523 22.143 17.1643C22.143 17.6443 21.959 18.1083 21.591 18.5563C21.223 18.9883 20.751 19.3403 20.175 19.6123C19.615 19.8843 19.015 20.0203 18.375 20.0203Z" fill="black"/>
<path d="M34.9279 19.8283C34.4159 19.8283 34.0159 19.6843 33.7279 19.3963C33.4559 19.0923 33.2719 18.7083 33.1759 18.2443C33.0799 17.7643 33.0319 17.2603 33.0319 16.7323L33.1519 16.6363C32.9599 17.3243 32.6239 17.9163 32.1439 18.4123C31.6799 18.9083 31.1359 19.2923 30.5119 19.5643C29.9039 19.8203 29.2959 19.9483 28.6879 19.9483C27.8239 19.9483 27.0559 19.7563 26.3839 19.3723C25.7279 18.9723 25.2079 18.3483 24.8239 17.5003C24.4719 16.7003 24.1919 15.6603 23.9839 14.3803C23.7919 13.1003 23.6959 11.7803 23.6959 10.4203C23.6959 9.73228 23.7199 9.10028 23.7679 8.52428C23.8319 7.93228 23.9279 7.44428 24.0559 7.06028C24.2159 6.56428 24.4639 6.20428 24.7999 5.98028C25.1359 5.74028 25.5519 5.62028 26.0479 5.62028C26.6239 5.62028 27.0799 5.82828 27.4159 6.24428C27.7519 6.64428 27.9519 7.21228 28.0159 7.94828C28.0799 8.46028 28.1199 9.07628 28.1359 9.79628C28.1679 10.5003 28.1999 11.2043 28.2319 11.9083C28.2639 12.6123 28.2959 13.2043 28.3279 13.6843C28.4239 14.5003 28.6319 15.1003 28.9519 15.4843C29.2879 15.8683 29.7039 16.0603 30.1999 16.0603C30.9039 16.0603 31.4399 15.7803 31.8079 15.2203C32.1759 14.6443 32.3599 13.8523 32.3599 12.8443C32.3599 12.3323 32.3279 11.7483 32.2639 11.0923C32.2159 10.4363 32.1599 9.79628 32.0959 9.17228C32.0479 8.54828 32.0239 8.03628 32.0239 7.63628C32.0239 6.75628 32.1839 6.12428 32.5039 5.74028C32.8239 5.35628 33.2719 5.16428 33.8479 5.16428C34.3279 5.16428 34.7359 5.28428 35.0719 5.52428C35.4239 5.74828 35.6879 6.06828 35.8639 6.48428C36.0879 6.96428 36.2799 7.61228 36.4399 8.42828C36.5999 9.24428 36.7279 10.1723 36.8239 11.2123C36.9199 12.2363 36.9679 13.3243 36.9679 14.4763C36.9679 16.2683 36.8159 17.6123 36.5119 18.5083C36.2239 19.3883 35.6959 19.8283 34.9279 19.8283Z" fill="black"/>
<path d="M41.9264 5.04428C42.5504 5.04428 42.9824 5.25228 43.2224 5.66828C43.4624 6.08428 43.5824 6.70028 43.5824 7.51628C43.5824 7.70828 43.5664 7.91628 43.5344 8.14028C43.5184 8.34828 43.4864 8.54028 43.4384 8.71628L43.3904 8.23628C43.7584 7.19628 44.3344 6.38828 45.1184 5.81228C45.9184 5.22028 46.7664 4.92428 47.6624 4.92428C48.6864 4.92428 49.5424 5.21228 50.2304 5.78828C50.9184 6.36428 51.4304 7.17228 51.7664 8.21228C52.1184 9.25228 52.2944 10.4843 52.2944 11.9083C52.2944 12.7243 52.2544 13.5243 52.1744 14.3083C52.1104 15.0923 52.0224 15.8123 51.9104 16.4683C51.7984 17.1083 51.6624 17.6363 51.5024 18.0523C51.2784 18.6123 50.9744 19.0363 50.5904 19.3243C50.2224 19.5963 49.7824 19.7323 49.2704 19.7323C48.7264 19.7323 48.3104 19.5483 48.0224 19.1803C47.7344 18.7963 47.5904 18.2763 47.5904 17.6203C47.5904 17.1083 47.6224 16.4923 47.6864 15.7723C47.7504 15.0363 47.8144 14.3003 47.8784 13.5643C47.9424 12.8123 47.9744 12.1563 47.9744 11.5963C47.9744 9.72428 47.3744 8.78828 46.1744 8.78828C45.5344 8.78828 44.9904 9.08428 44.5424 9.67628C44.1104 10.2523 43.8224 11.0763 43.6784 12.1483C43.6304 12.5643 43.5984 13.0843 43.5824 13.7083C43.5824 14.3163 43.5744 14.9243 43.5584 15.5323C43.5584 16.1243 43.5424 16.6283 43.5104 17.0443C43.4304 18.0843 43.2064 18.8283 42.8384 19.2763C42.4704 19.7243 41.9744 19.9483 41.3504 19.9483C40.5984 19.9483 40.0304 19.6763 39.6464 19.1323C39.2784 18.5723 39.0944 17.6363 39.0944 16.3243C39.0944 15.6523 39.1104 14.9003 39.1424 14.0683C39.1744 13.2363 39.2144 12.4043 39.2624 11.5723C39.3264 10.7243 39.3984 9.95628 39.4784 9.26828C39.6384 7.97228 39.9024 6.94828 40.2704 6.19628C40.6384 5.42828 41.1904 5.04428 41.9264 5.04428Z" fill="black"/>
<path d="M58.4785 5.52428H58.0945C58.0465 4.82028 58.0705 4.15628 58.1665 3.53228C58.2625 2.89228 58.4705 2.38028 58.7905 1.99628C59.1265 1.59628 59.5985 1.39628 60.2065 1.39628C60.7985 1.39628 61.2305 1.55628 61.5025 1.87628C61.7745 2.19628 61.9105 2.64428 61.9105 3.22028C61.9105 4.14828 61.7185 4.94828 61.3345 5.62028L60.9985 5.57228C61.7345 5.26828 62.5665 5.11628 63.4945 5.11628C64.2305 5.11628 64.8225 5.27628 65.2705 5.59628C65.7185 5.90028 65.9425 6.42828 65.9425 7.18028C65.9425 7.90028 65.6785 8.44428 65.1505 8.81228C64.6385 9.16428 63.9985 9.34028 63.2305 9.34028C62.8465 9.34028 62.4385 9.32428 62.0065 9.29228C61.5745 9.24428 61.1585 9.17228 60.7585 9.07628L61.0465 8.66828C61.2065 9.22828 61.3665 9.86028 61.5265 10.5643C61.6865 11.2683 61.8305 12.0043 61.9585 12.7723C62.0865 13.5243 62.1825 14.2603 62.2465 14.9803C62.3265 15.7003 62.3665 16.3403 62.3665 16.9003C62.3665 17.9243 62.1665 18.7323 61.7665 19.3243C61.3825 19.9163 60.7985 20.2123 60.0145 20.2123C59.4545 20.2123 59.0065 20.0763 58.6705 19.8043C58.3345 19.5323 58.0785 19.1803 57.9025 18.7483C57.7265 18.3003 57.6065 17.8123 57.5425 17.2843C57.4785 16.7563 57.4465 16.2363 57.4465 15.7243C57.4465 15.0843 57.4865 14.3643 57.5665 13.5643C57.6465 12.7483 57.7505 11.9163 57.8785 11.0683C58.0225 10.2043 58.1905 9.37228 58.3825 8.57228L58.7665 9.05228C58.0785 9.46828 57.2145 9.67628 56.1745 9.67628C55.3905 9.67628 54.7745 9.50828 54.3265 9.17228C53.8945 8.83628 53.6785 8.30828 53.6785 7.58828C53.6785 6.83628 53.9185 6.26028 54.3985 5.86028C54.8785 5.44428 55.5265 5.23628 56.3425 5.23628C56.7585 5.23628 57.1505 5.26828 57.5185 5.33228C57.8865 5.38028 58.2065 5.44428 58.4785 5.52428Z" fill="black"/>
<path d="M75.9087 20.5243C74.8687 20.5243 74.0607 20.4443 73.4847 20.2843C72.9087 20.1403 72.5087 19.9323 72.2847 19.6603C72.0767 19.3723 71.9647 19.0443 71.9487 18.6763C71.9327 18.1163 72.1887 17.6443 72.7167 17.2603C73.2447 16.8603 74.2127 16.6123 75.6207 16.5163L75.0447 17.1883C74.8847 16.4523 74.7647 15.5963 74.6847 14.6203C74.6207 13.6443 74.5967 12.6283 74.6127 11.5723C74.6287 10.5163 74.6767 9.50828 74.7567 8.54828C74.8367 7.58828 74.9647 6.77228 75.1407 6.10028L77.5647 6.07628C77.2287 6.22028 76.7967 6.34828 76.2687 6.46028C75.7407 6.55628 75.2047 6.60428 74.6607 6.60428C73.6047 6.60428 72.8207 6.46028 72.3087 6.17228C71.8127 5.88428 71.5647 5.47628 71.5647 4.94828C71.5647 4.13228 72.0047 3.49228 72.8847 3.02828C73.7647 2.56428 75.1167 2.33228 76.9407 2.33228C79.1487 2.33228 81.0047 2.68428 82.5087 3.38828C84.0287 4.07628 85.1807 5.04428 85.9647 6.29228C86.7487 7.52428 87.1407 8.96428 87.1407 10.6123C87.1407 12.0523 86.8767 13.3803 86.3487 14.5963C85.8207 15.7963 85.0607 16.8443 84.0687 17.7403C83.0767 18.6203 81.8927 19.3083 80.5167 19.8043C79.1407 20.2843 77.6047 20.5243 75.9087 20.5243ZM79.4607 15.8203C79.9567 15.8203 80.4607 15.6443 80.9727 15.2923C81.4847 14.9243 81.9087 14.3963 82.2447 13.7083C82.5967 13.0043 82.7727 12.1483 82.7727 11.1403C82.7727 10.3723 82.6607 9.70028 82.4367 9.12428C82.2287 8.53228 81.9487 8.03628 81.5967 7.63628C81.2607 7.23628 80.8927 6.93228 80.4927 6.72428C80.0927 6.51628 79.6927 6.41228 79.2927 6.41228C79.0047 6.41228 78.7727 6.57228 78.5967 6.89228C78.4367 7.19628 78.3247 7.68428 78.2607 8.35628C78.1967 9.01228 78.1647 9.86028 78.1647 10.9003C78.1647 12.5323 78.2527 13.7643 78.4287 14.5963C78.6047 15.4123 78.9487 15.8203 79.4607 15.8203Z" fill="black"/>
<path d="M90.5511 21.1003C89.9111 21.1003 89.4151 20.8843 89.0631 20.4523C88.7271 20.0363 88.5591 19.2683 88.5591 18.1483C88.5591 17.4923 88.6311 16.7563 88.7751 15.9403C88.9191 15.1243 89.1351 14.2603 89.4231 13.3483C89.7111 12.4363 90.0631 11.5083 90.4791 10.5643C90.8951 9.60428 91.3671 8.66028 91.8951 7.73228C92.4711 6.72428 93.0231 5.90828 93.5511 5.28428C94.0791 4.64428 94.6071 4.18028 95.1351 3.89228C95.6791 3.58828 96.2711 3.43628 96.9111 3.43628C97.7911 3.43628 98.5831 3.80428 99.2871 4.54028C99.9911 5.26028 100.591 6.38028 101.087 7.90028C101.407 8.82828 101.679 9.80428 101.903 10.8283C102.127 11.8523 102.295 12.8923 102.407 13.9483C102.519 15.0043 102.575 16.0523 102.575 17.0923C102.575 18.3403 102.359 19.2443 101.927 19.8043C101.495 20.3483 100.895 20.6203 100.127 20.6203C99.4231 20.6203 98.8711 20.3803 98.4711 19.9003C98.0871 19.4043 97.8391 18.5883 97.7271 17.4523C97.6631 16.8923 97.6311 16.3163 97.6311 15.7243C97.6311 15.1323 97.6471 14.5723 97.6791 14.0443L98.5671 16.0603C98.0711 16.2363 97.4471 16.3483 96.6951 16.3963C95.9591 16.4283 95.1831 16.4123 94.3671 16.3483C93.5671 16.2683 92.8231 16.1163 92.1351 15.8923L93.7431 13.9963C93.7111 14.7003 93.6551 15.3803 93.5751 16.0363C93.4951 16.6923 93.3991 17.3003 93.2871 17.8603C93.1591 18.5483 92.9831 19.1403 92.7591 19.6363C92.5511 20.1163 92.2711 20.4763 91.9191 20.7163C91.5671 20.9723 91.1111 21.1003 90.5511 21.1003ZM95.7111 13.2043C96.6391 13.2043 97.3191 12.9963 97.7511 12.5803C98.1831 12.1643 98.3991 11.4923 98.3991 10.5643C98.3991 10.1003 98.3511 9.65228 98.2551 9.22028C98.1591 8.78828 98.0231 8.39628 97.8471 8.04428C97.6711 7.67628 97.4551 7.38828 97.1991 7.18028C96.9591 6.97228 96.6871 6.86828 96.3831 6.86828C95.9991 6.86828 95.6391 7.02028 95.3031 7.32428C94.9671 7.62828 94.6711 8.02028 94.4151 8.50028C94.1591 8.96428 93.9591 9.45228 93.8151 9.96428C93.6711 10.4603 93.5991 10.9083 93.5991 11.3083C93.5991 11.9003 93.7751 12.3643 94.1271 12.7003C94.4951 13.0363 95.0231 13.2043 95.7111 13.2043Z" fill="black"/>
<path d="M112.195 20.0443C110.563 20.0443 109.131 19.7003 107.899 19.0123C106.667 18.3243 105.707 17.3483 105.019 16.0843C104.331 14.8203 103.987 13.3243 103.987 11.5963C103.987 9.94828 104.331 8.51628 105.019 7.30028C105.723 6.08428 106.715 5.14028 107.995 4.46828C109.275 3.79628 110.771 3.46028 112.483 3.46028C114.147 3.46028 115.595 3.77228 116.827 4.39628C118.075 5.00428 119.035 5.86828 119.707 6.98828C120.379 8.09228 120.715 9.38028 120.715 10.8523C120.715 12.1003 120.515 13.2843 120.115 14.4043C119.715 15.5083 119.139 16.4843 118.387 17.3323C117.651 18.1803 116.755 18.8443 115.699 19.3243C114.659 19.8043 113.491 20.0443 112.195 20.0443ZM112.411 15.9643C113.611 15.9643 114.563 15.5323 115.267 14.6683C115.987 13.7883 116.347 12.6123 116.347 11.1403C116.347 10.0043 116.019 9.11628 115.363 8.47628C114.723 7.82028 113.843 7.49228 112.723 7.49228C111.923 7.49228 111.211 7.66828 110.587 8.02028C109.963 8.35628 109.475 8.85228 109.123 9.50828C108.787 10.1483 108.619 10.9163 108.619 11.8123C108.619 13.0923 108.971 14.1083 109.675 14.8603C110.379 15.5963 111.291 15.9643 112.411 15.9643Z" fill="black"/>
</svg>
