<svg width="22" height="22" viewBox="0 0 22 22" fill="none" xmlns="http://www.w3.org/2000/svg">
<path d="M8.56483 6.10381C6.79683 8.08848 5.5835 10.9398 5.47083 11.2085L2.3335 9.86514L5.8435 6.35514C6.25083 5.94781 6.84016 5.76581 7.41216 5.87848L8.56483 6.10381ZM10.2808 15.3338C10.2808 15.3338 13.5222 13.9905 15.3855 12.1271C20.0655 7.44714 19.2855 3.78981 19.0342 2.96648C18.2108 2.70648 14.5535 1.93514 9.8735 6.61514C8.01016 8.47848 6.66683 11.7198 6.66683 11.7198L10.2808 15.3338ZM15.8968 13.4358C13.9122 15.2038 11.0608 16.4171 10.7922 16.5298L12.1355 19.6671L15.6455 16.1571C16.0528 15.7498 16.2348 15.1605 16.1222 14.5885L15.8968 13.4358ZM8.40016 16.2005C8.40016 16.9198 8.1055 17.5698 7.6375 18.0378C6.61483 19.0605 2.3335 19.6671 2.3335 19.6671C2.3335 19.6671 2.94016 15.3858 3.96283 14.3631C4.32579 13.9983 4.78898 13.7495 5.29359 13.6484C5.79821 13.5473 6.32149 13.5985 6.79698 13.7954C7.27247 13.9922 7.67873 14.326 7.96418 14.7542C8.24962 15.1824 8.40137 15.6858 8.40016 16.2005ZM11.8668 8.40048C11.8668 7.44714 12.6468 6.66714 13.6002 6.66714C14.5535 6.66714 15.3335 7.44714 15.3335 8.40048C15.3335 9.35381 14.5535 10.1338 13.6002 10.1338C12.6468 10.1338 11.8668 9.35381 11.8668 8.40048Z" fill="black"/>
</svg>
