<svg width="13" height="13" viewBox="0 0 13 13" fill="none" xmlns="http://www.w3.org/2000/svg">
<path d="M5.2913 3.8469C4.33585 4.91943 3.68016 6.46032 3.61927 6.60551L1.92383 5.87956L3.82066 3.98272C4.04079 3.7626 4.35927 3.66424 4.66838 3.72513L5.2913 3.8469ZM6.21864 8.83487C6.21864 8.83487 7.97028 8.10892 8.97725 7.10196C11.5064 4.57285 11.0848 2.59639 10.949 2.15146C10.5041 2.01095 8.52763 1.59411 5.99851 4.12323C4.99155 5.13019 4.2656 6.88184 4.2656 6.88184L6.21864 8.83487ZM9.25357 7.80918C8.18104 8.76462 6.64016 9.42032 6.49497 9.4812L7.22092 11.1766L9.11775 9.27981C9.33788 9.05968 9.43623 8.7412 9.37535 8.43209L9.25357 7.80918ZM5.20231 9.30323C5.20231 9.69196 5.04307 10.0432 4.79016 10.2961C4.2375 10.8488 1.92383 11.1766 1.92383 11.1766C1.92383 11.1766 2.25168 8.86297 2.80433 8.31032C3.00048 8.11315 3.25079 7.97871 3.52349 7.92408C3.79619 7.86945 4.07897 7.89709 4.33593 8.00348C4.59289 8.10988 4.81244 8.29024 4.9667 8.52166C5.12095 8.75307 5.20296 9.02511 5.20231 9.30323ZM7.07573 5.08804C7.07573 4.57285 7.49725 4.15133 8.01244 4.15133C8.52763 4.15133 8.94914 4.57285 8.94914 5.08804C8.94914 5.60323 8.52763 6.02475 8.01244 6.02475C7.49725 6.02475 7.07573 5.60323 7.07573 5.08804Z" fill="black"/>
</svg>
