<svg fill="none" viewBox="0 0 752 690" xmlns="http://www.w3.org/2000/svg" class="size-6" aria-label="farcaster"><g fill="currentColor"><path d="m129.778.555908h484.444v688.889092h-71.111v-315.556h-.697c-7.86-87.212-81.156-155.556-170.414-155.556s-162.554 68.344-170.414 155.556h-.697v315.556h-71.111z"></path><path d="m.889038 98.333 28.888962 97.778h24.444v395.556c-12.273 0-22.222 9.949-22.222 22.222v26.667h-4.444c-12.273 0-22.22298 9.949-22.22298 22.222v26.667h248.88898v-26.667c0-12.273-9.949-22.222-22.222-22.222h-4.444v-26.667c0-12.273-9.95-22.222-22.223-22.222h-26.666v-493.334z"></path><path d="m547.556 591.667c-12.273 0-22.223 9.949-22.223 22.222v26.667h-4.444c-12.273 0-22.222 9.949-22.222 22.222v26.667h248.889v-26.667c0-12.273-9.95-22.222-22.223-22.222h-4.444v-26.667c0-12.273-9.949-22.222-22.222-22.222v-395.556h24.444l28.889-97.778h-177.778v493.334z"></path></g></svg>