<svg width="12" height="12" viewBox="0 0 12 12" fill="none" xmlns="http://www.w3.org/2000/svg">
<path d="M11.5232 5.70141C11.4754 5.61737 11.4113 5.5437 11.3347 5.48471C11.258 5.42571 11.1704 5.38257 11.077 5.35781C10.7379 5.27052 10.3874 5.23543 10.0377 5.25375C10.2252 4.32328 10.0846 3.58734 9.94118 3.15094C9.884 2.97167 9.76212 2.82012 9.59928 2.72583C9.43645 2.63155 9.24433 2.60128 9.0604 2.64094C8.58341 2.74717 8.12986 2.93971 7.72212 3.20906C7.4235 2.59905 6.98872 2.0658 6.45133 1.65047C6.32111 1.5528 6.16271 1.5 5.99993 1.5C5.83714 1.5 5.67875 1.5528 5.54852 1.65047C5.01102 2.06568 4.57622 2.59896 4.27774 3.20906C3.87 2.93971 3.41645 2.74717 2.93946 2.64094C2.75552 2.60128 2.56341 2.63155 2.40057 2.72583C2.23774 2.82012 2.11585 2.97167 2.05868 3.15094C1.91805 3.58734 1.77743 4.32281 1.96212 5.25375C1.61243 5.23543 1.262 5.27052 0.922897 5.35781C0.829422 5.38257 0.741818 5.42571 0.665198 5.48471C0.588579 5.5437 0.524481 5.61737 0.476647 5.70141C0.426587 5.78749 0.394173 5.88269 0.381296 5.98144C0.368419 6.08019 0.375338 6.18051 0.401647 6.27656C0.560553 6.86578 1.04852 7.98656 2.52649 8.86969C4.00446 9.75281 5.3029 9.75 6.00227 9.75C6.70165 9.75 8.00243 9.75 9.47102 8.86969C10.949 7.98656 11.437 6.86578 11.5959 6.27656C11.6225 6.18067 11.6298 6.08043 11.6174 5.98168C11.6049 5.88293 11.5729 5.78766 11.5232 5.70141ZM2.77212 3.38156C2.77268 3.37924 2.7741 3.37721 2.77611 3.3759C2.77811 3.3746 2.78054 3.37411 2.7829 3.37453C3.21906 3.47306 3.63067 3.65917 3.99274 3.92156C3.82788 4.46089 3.74601 5.02215 3.74993 5.58609C3.74993 6.46453 3.92665 7.17984 4.17696 7.75547C3.82111 7.3993 3.5132 6.99827 3.26102 6.5625C2.41633 5.09156 2.59212 3.9375 2.77212 3.38156ZM2.91274 8.22609C1.66258 7.47984 1.25712 6.56484 1.12493 6.07969C1.46984 5.99477 1.82775 5.97616 2.17962 6.02484C2.29708 6.3395 2.44055 6.64384 2.60852 6.93469C3.02095 7.64575 3.56128 8.27444 4.20227 8.78906C3.74902 8.65875 3.31483 8.46947 2.91087 8.22609H2.91274ZM5.99993 8.925C5.56258 8.59969 4.49993 7.60172 4.49993 5.58609C4.49993 3.59531 5.54899 2.58937 5.99993 2.25C6.45087 2.59031 7.49993 3.59625 7.49993 5.58703C7.49993 7.60172 6.43727 8.59969 5.99993 8.925ZM8.00712 3.92156C8.36923 3.65933 8.78083 3.47339 9.21696 3.375C9.21931 3.37457 9.22174 3.37507 9.22375 3.37637C9.22575 3.37768 9.22718 3.3797 9.22774 3.38203C9.40774 3.9375 9.58352 5.09156 8.73883 6.5625C8.48688 6.99884 8.17896 7.40037 7.8229 7.75687C8.07321 7.18219 8.24993 6.46594 8.24993 5.5875C8.25399 5.02308 8.17212 4.46134 8.00712 3.92156ZM10.8749 6.08062C10.7451 6.56109 10.3406 7.47797 9.08946 8.22609C8.68547 8.46931 8.25129 8.65842 7.79805 8.78859C8.43904 8.27397 8.97937 7.64528 9.3918 6.93422C9.55978 6.64337 9.70324 6.33903 9.82071 6.02437C10.1725 5.97591 10.5302 5.99484 10.8749 6.08016V6.08062Z" fill="#6D39E4"/>
</svg>
