<svg width="28" height="25" viewBox="0 0 28 25" fill="none" xmlns="http://www.w3.org/2000/svg">
<g opacity="0.12">
<path d="M22.9405 4.15048C26.6207 7.18767 28.0651 12.0917 26.583 16.3184C24.864 21.2199 19.1548 24.6774 13.3515 24.6161C13.3002 24.6161 13.2625 24.6349 13.2356 24.6632C7.362 24.3045 2.30514 20.8543 0.793596 15.8016C-0.602045 11.1358 1.51564 5.45312 6.14972 2.70859C8.53945 1.29249 11.63 0.825362 14.4697 0.78514C17.649 0.740202 20.672 2.2789 22.9405 4.15048ZM26.3407 12.7855C26.8661 12.3913 26.7961 11.5891 26.4161 11.1358C25.8179 10.4207 24.5625 10.7841 23.7271 10.52C23.6248 10.487 23.552 10.5461 23.533 10.619C23.5032 10.6237 23.4763 10.6451 23.4738 10.6734C23.3902 11.3838 23.8133 12.1106 24.433 12.5566C24.9315 12.9128 25.7748 13.2102 26.3407 12.7855ZM25.5405 15.0016C25.7156 14.6052 25.3736 14.0221 25.0958 13.7106C24.7643 13.3353 24.2471 13.0074 23.7031 12.9414C23.6169 12.9319 23.5469 13.0335 23.6385 13.0759C23.9295 13.2174 24.1882 13.3613 24.4118 13.548C17.6385 15.9081 10.0782 15.1883 3.15957 13.6754C3.348 13.5053 3.56366 13.3519 3.78471 13.1938C3.83601 13.1561 3.79009 13.0853 3.73087 13.0829C2.91191 13.0615 2.31116 13.7744 2.13319 14.4021C2.1088 14.4917 2.14934 14.591 2.24371 14.6404C2.31116 14.6734 2.35423 14.6712 2.4296 14.6618C2.50782 14.6498 2.57781 14.5791 2.59649 14.5131C2.65571 14.2959 2.76086 14.1142 2.89291 13.9492C3.92753 18.6549 7.54315 22.6951 13.3091 22.9192C15.7634 23.0136 18.4685 22.4188 20.387 21.0288C22.8091 19.2729 23.8975 16.4787 24.7598 13.9278C24.7624 13.9303 24.7624 13.9325 24.7652 13.935C24.8837 14.1073 24.9834 14.2867 25.048 14.4801C25.1101 14.6712 25.1073 14.8623 25.2095 15.0393C25.2846 15.1738 25.4866 15.1173 25.5405 15.0016ZM23.5412 9.84261C23.843 7.97575 22.7115 5.49557 20.3082 5.29723C17.8266 5.09418 15.9867 7.05064 15.6389 9.03789C15.6253 9.11584 15.7387 9.14163 15.771 9.0709C16.5067 7.5014 17.5223 5.75743 19.7343 5.64897C22.3774 5.51915 23.0887 7.96881 23.1454 9.79767C23.1533 9.98408 23.5089 10.0479 23.5412 9.84261ZM23.102 5.32552C23.1479 5.37046 23.2366 5.32303 23.2179 5.26644C22.9674 4.51359 22.1779 3.99431 21.3536 3.77489C21.0571 3.69694 20.9279 4.10776 21.2269 4.18072C22.0082 4.37684 22.5687 4.80873 23.102 5.32552ZM11.6436 9.21709C11.6598 9.25731 11.7218 9.24067 11.7165 9.20044C11.4229 7.38573 10.1565 4.98322 7.6049 5.3491C5.27155 5.68198 4.49029 7.93802 4.59004 9.72693C4.59828 9.89448 4.88646 9.89698 4.889 9.72693C4.91877 8.11971 5.51128 6.06422 7.67204 5.77157C10.0618 5.44591 10.9862 7.6548 11.6436 9.21709ZM7.01206 3.97822C7.17104 3.92385 7.18181 3.73522 7.01206 3.68557C6.55128 3.5441 5.89669 3.83897 5.53567 4.07253C5.12619 4.33911 4.81362 4.73329 4.72463 5.17712C4.71671 5.21485 4.77309 5.23842 4.79747 5.2032C5.05621 4.84452 5.35262 4.53995 5.76748 4.31359C5.94799 4.21678 6.14181 4.13883 6.34417 4.08696C6.56491 4.03231 6.79925 4.04895 7.01206 3.97822ZM4.1641 10.4656C4.1641 10.4279 4.11564 10.4185 4.08873 10.4396C4.04027 10.3735 3.93514 10.338 3.849 10.4066C3.12157 10.9988 1.97642 10.3899 1.19801 10.9211C0.678008 11.2728 0.591869 12.2215 0.990578 12.677C1.47828 13.2362 2.47236 12.8021 2.95214 12.474C3.65772 11.9877 4.13465 11.2562 4.1641 10.4656Z" fill="#A6A6A4"/>
<path d="M24.3116 4.86811C27.6742 8.41765 28.5929 13.6873 26.3349 17.8857C24.0016 22.2186 18.8529 24.9159 13.4321 24.8854C13.4214 24.8876 13.4131 24.8901 13.3998 24.8901C6.66674 24.6777 0.992654 20.2033 0.11448 14.3364C-0.621184 9.42542 2.22679 3.67865 7.56138 1.59486C10.1506 0.582376 13.7016 0.0797364 16.5091 0.530502C19.4299 0.997633 22.4447 2.8975 24.3116 4.86811ZM26.5829 16.3187C28.0647 12.092 26.6206 7.18796 22.9403 4.15077C20.6719 2.27919 17.6488 0.740491 14.4696 0.785429C11.6299 0.825651 8.53963 1.29278 6.14959 2.70888C1.51551 5.45341 -0.602179 11.1364 0.793462 15.8019C2.30501 20.8546 7.36219 24.3048 13.2355 24.6635C13.2624 24.6352 13.3001 24.6164 13.3514 24.6164C19.155 24.6777 24.8639 21.2202 26.5829 16.3187Z" fill="#20235A"/>
<path d="M26.4159 11.136C26.7959 11.589 26.8659 12.3915 26.3405 12.7856C25.7746 13.2103 24.9315 12.913 24.4331 12.5568C23.8133 12.1107 23.3906 11.384 23.4738 10.6736C23.4767 10.6453 23.5036 10.6239 23.5331 10.6192C23.5521 10.5459 23.6246 10.4871 23.7272 10.5202C24.5623 10.7842 25.8176 10.4208 26.4159 11.136ZM26.0843 12.5401C26.4643 12.2688 26.4589 11.7731 26.2243 11.4073C25.9925 11.0461 25.5345 10.9801 25.1035 10.9706C24.581 10.9612 24.1363 10.9587 23.6379 10.8006C23.6353 10.7984 23.6353 10.7984 23.63 10.7959C23.7351 11.2394 23.8941 11.643 24.2307 12.0042C24.643 12.4458 25.4781 12.972 26.0843 12.5401Z" fill="#20235A"/>
<path d="M26.2247 11.407C26.459 11.7729 26.4644 12.2683 26.0847 12.5399C25.4786 12.9718 24.6431 12.4456 24.2311 12.0042C23.8945 11.6431 23.7355 11.2395 23.6304 10.7959C23.6358 10.7984 23.6358 10.7984 23.6383 10.8006C24.1368 10.9587 24.5814 10.9612 25.1039 10.9707C25.5349 10.9801 25.9929 11.0461 26.2247 11.407Z" fill="#0AB9DE"/>
<path d="M25.0953 13.7112C25.3727 14.0227 25.7151 14.6056 25.5399 15.0022C25.4861 15.1179 25.284 15.1745 25.2087 15.0399C25.1064 14.863 25.1089 14.6718 25.0472 14.4807C24.9826 14.2871 24.8828 14.1079 24.7644 13.9356C24.7615 13.9332 24.7615 13.9309 24.759 13.9284C23.897 16.4796 22.8082 19.2738 20.3862 21.0294C18.468 22.4195 15.7628 23.0142 13.3082 22.9199C7.5426 22.6958 3.92666 18.6555 2.89204 13.9498C2.75998 14.1148 2.65484 14.2968 2.59562 14.5137C2.57662 14.5798 2.50664 14.6505 2.42874 14.6624C2.35336 14.6718 2.31029 14.6743 2.24284 14.6411C2.14847 14.5914 2.10825 14.4924 2.13231 14.4028C2.31029 13.775 2.91104 13.0624 3.73 13.0835C3.78922 13.0857 3.83514 13.1567 3.78384 13.1945C3.56279 13.3526 3.34744 13.506 3.1587 13.676C10.0777 15.1886 17.6376 15.9085 24.4109 13.5487C24.1874 13.3623 23.9286 13.2183 23.6376 13.0766C23.5461 13.0341 23.6161 12.9326 23.7022 12.942C24.2466 13.008 24.764 13.3359 25.0953 13.7112ZM20.5933 20.3876C22.7271 18.7237 23.5974 16.2316 24.4892 13.9331C22.3417 14.7024 20.0894 15.1578 17.7991 15.3562C17.1471 17.2253 15.6032 17.407 13.5071 17.3384C11.3058 17.2677 9.81039 17.0291 9.2204 15.073C8.97244 15.0422 8.72194 15.0092 8.47397 14.9739C6.66886 14.7237 4.74783 14.4902 3.03962 13.8932C4.0527 16.0549 4.73421 18.2685 6.64447 20.0125C7.39882 20.6993 8.28523 21.2491 9.24986 21.6597C9.51936 19.8733 11.4458 18.2377 13.5042 18.1739C16.0745 18.096 17.3247 19.9251 18.0978 21.7801C19.001 21.4331 19.8468 20.9706 20.5933 20.3876ZM16.7591 16.5149C17.1122 16.2294 17.3168 15.7809 17.5081 15.382C16.4437 15.4646 15.3743 15.4904 14.302 15.4694C12.6637 15.4386 11.0284 15.2993 9.40377 15.0965C9.83225 16.0075 10.3146 16.6352 11.5376 16.8902C12.2464 17.0389 13.033 17.0458 13.7604 17.0555C14.7143 17.0647 15.9994 17.1215 16.7591 16.5149ZM17.7345 21.9096C17.0423 20.2483 16.0371 18.5468 13.712 18.483C11.4436 18.4192 10.1689 20.0924 9.39585 21.716C10.6135 22.2139 11.9528 22.4899 13.3079 22.5421C14.8169 22.6012 16.3389 22.3912 17.7345 21.9096Z" fill="#20235A"/>
<path d="M20.3078 5.29772C22.7112 5.49605 23.8427 7.97624 23.5409 9.8431C23.5086 10.0484 23.153 9.98457 23.1447 9.79816C23.088 7.9693 22.3768 5.51963 19.7337 5.64945C17.5216 5.75791 16.506 7.50189 15.7703 9.07139C15.738 9.14212 15.625 9.11633 15.6383 9.03838C15.9863 7.05113 17.8266 5.09494 20.3078 5.29772Z" fill="#20235A"/>
<path d="M24.4894 13.9325C23.5976 16.231 22.7274 18.7234 20.5935 20.3869C19.8471 20.9697 19.0012 21.4324 18.0987 21.7794C17.3253 19.9245 16.0754 18.0957 13.5051 18.1733C11.4467 18.2371 9.52026 19.8724 9.25076 21.6591C8.28613 21.2485 7.39973 20.6984 6.64538 20.0119C4.73512 18.2679 4.05361 16.0543 3.04053 13.8926C4.74874 14.4895 6.66976 14.7234 8.47488 14.9733C8.72285 15.0088 8.97334 15.0418 9.22131 15.0723C9.8113 17.0288 11.3067 17.2671 13.508 17.3378C15.6041 17.4063 17.148 17.2246 17.8 15.3556C20.0897 15.1572 22.342 14.7017 24.4894 13.9325Z" fill="#3B41A5"/>
<path d="M23.2176 5.26767C23.2366 5.32426 23.1476 5.37141 23.1017 5.32675C22.5684 4.80997 22.0078 4.37806 21.2266 4.18222C20.9276 4.10899 21.0568 3.69845 21.3532 3.7764C22.1776 3.99554 22.9671 4.51482 23.2176 5.26767Z" fill="#20235A"/>
<path d="M17.5086 15.3814C17.3174 15.7803 17.1125 16.2286 16.7597 16.5143C15.9999 17.1207 14.7148 17.0641 13.761 17.0547C13.0335 17.0452 12.2469 17.038 11.5381 16.8893C10.3151 16.6344 9.83277 16.0067 9.4043 15.0957C11.0289 15.2988 12.6643 15.438 14.3025 15.4685C15.3748 15.4902 16.4442 15.4641 17.5086 15.3814Z" fill="white"/>
<path d="M13.7121 18.4832C16.0372 18.547 17.0421 20.2485 17.7347 21.9098C16.339 22.3914 14.8167 22.6014 13.308 22.5423C11.9529 22.4904 10.6137 22.2141 9.396 21.7162C10.1693 20.0929 11.4437 18.4197 13.7121 18.4832Z" fill="#FE97C3"/>
<path d="M11.716 9.20114C11.7214 9.24136 11.6593 9.25773 11.6432 9.21778C10.9857 7.6555 10.0616 5.44661 7.67189 5.77227C5.51114 6.06492 4.9183 8.12041 4.88885 9.72764C4.88632 9.89768 4.59781 9.89518 4.5899 9.72764C4.49014 7.93872 5.2714 5.68267 7.60476 5.3498C10.156 4.98392 11.4224 7.38643 11.716 9.20114Z" fill="#20235A"/>
<path d="M7.01165 3.68545C7.18139 3.7351 7.17062 3.92373 7.01165 3.9781C6.79883 4.04883 6.56449 4.03247 6.34344 4.08656C6.1414 4.13844 5.94726 4.21638 5.76675 4.31319C5.35189 4.53982 5.05547 4.84412 4.79674 5.20279C4.77236 5.2383 4.71598 5.21472 4.7239 5.17672C4.81289 4.73289 5.12546 4.33899 5.53494 4.07214C5.89628 3.83857 6.55087 3.5437 7.01165 3.68545Z" fill="#20235A"/>
<path d="M4.08876 10.4401C4.11568 10.4187 4.16413 10.4284 4.16413 10.4662C4.13436 11.2567 3.65775 11.9882 2.95185 12.4745C2.47239 12.8027 1.47799 13.2368 0.990293 12.6775C0.591583 12.2221 0.677722 11.2734 1.19772 10.9216C1.97646 10.3907 3.12128 10.9996 3.84871 10.4071C3.93517 10.3388 4.04031 10.3741 4.08876 10.4401ZM3.05699 11.9954C3.49877 11.6154 3.78157 11.1552 3.99185 10.6573C3.68213 10.8861 3.31825 10.9571 2.90878 10.9666C2.26495 10.9807 1.30571 10.8298 1.1252 11.5755C0.993141 12.1111 1.30286 12.7766 2.05468 12.5713C2.43438 12.4673 2.77673 12.2384 3.05699 11.9954Z" fill="#20235A"/>
<path d="M3.99196 10.6572C3.78168 11.1551 3.49888 11.6153 3.0571 11.9954C2.77683 12.2384 2.43481 12.4675 2.05479 12.5712C1.30297 12.7765 0.99325 12.111 1.12531 11.5754C1.30582 10.8298 2.26506 10.9807 2.90889 10.9665C3.31836 10.9571 3.68193 10.8861 3.99196 10.6572Z" fill="#0AB9DE"/>
<g opacity="0.63">
<path d="M0.99023 12.6773C0.923726 12.6013 0.871792 12.5109 0.832206 12.4124C0.684629 12.426 0.534513 12.4274 0.382187 12.4121C0.381237 12.436 0.378391 12.4601 0.377441 12.484C0.51235 12.7394 0.652324 12.9919 0.794833 13.2423C1.02126 13.0828 1.29552 12.9802 1.57167 12.9444C1.34904 12.9311 1.14446 12.8537 0.99023 12.6773Z" fill="#A6A6A4"/>
<path d="M3.22679 10.3596C3.19892 10.4661 3.16631 10.5721 3.12324 10.6758C3.38767 10.6495 3.63659 10.5804 3.8494 10.4073C3.93554 10.3388 4.04069 10.3743 4.08914 10.4403C4.11606 10.4192 4.16451 10.4287 4.16451 10.4664C4.13474 11.257 3.65813 11.9884 2.95223 12.4747C2.68463 12.6578 2.25711 12.8733 1.84668 12.9316C2.17825 12.9444 2.48828 13.0631 2.69191 13.3094C2.72643 13.0864 2.84297 12.862 3.06592 12.657C3.77308 12.0079 4.61263 10.9113 4.31874 9.9668C4.0049 10.1507 3.63659 10.2841 3.22679 10.3596Z" fill="#A6A6A4"/>
<path d="M22.9402 4.15078C21.7682 3.18379 20.3938 2.30805 18.9015 1.69141C19.6372 2.61097 20.2497 3.60265 20.8175 4.62679C20.9822 4.9236 21.1364 5.22596 21.2852 5.53054C23.0105 6.22014 23.7985 8.25205 23.541 9.84318C23.5087 10.0485 23.1531 9.98466 23.1448 9.79825C23.1043 8.48812 22.7274 6.85981 21.5455 6.08893C22.0586 7.23984 22.4443 8.43625 22.6337 9.65844C22.8747 11.2149 22.7961 12.899 21.8768 14.2834C22.7315 14.082 23.5774 13.8385 24.4112 13.5481C24.1877 13.3617 23.9289 13.2177 23.6379 13.0759C23.5464 13.0335 23.6164 12.932 23.7025 12.9414C24.2469 13.0074 24.764 13.3356 25.0953 13.7106C25.3727 14.0221 25.715 14.6049 25.5399 15.0016C25.4861 15.1173 25.284 15.1739 25.2083 15.0393C25.1061 14.8624 25.1086 14.6712 25.0468 14.4801C24.9822 14.2865 24.8825 14.1073 24.764 13.935C24.7612 13.9325 24.7612 13.9303 24.7586 13.9278C23.8966 16.479 22.8079 19.2732 20.3858 21.0291C18.4677 22.4191 15.7625 23.0139 13.3079 22.9195C12.5386 22.8896 11.809 22.7906 11.1174 22.6322C11.244 22.9071 11.0768 23.2707 10.6493 23.2696C9.70208 23.2671 8.75296 23.1933 7.81905 23.048C7.67021 23.1087 7.50775 23.1412 7.33643 23.1373C9.11272 23.9994 11.1192 24.5345 13.235 24.6638C13.262 24.6355 13.2996 24.6166 13.3509 24.6166C19.1542 24.6779 24.8635 21.2208 26.5825 16.3189C28.0649 12.092 26.6205 7.18797 22.9402 4.15078ZM23.1021 5.32582C22.5684 4.80904 22.0082 4.37714 21.227 4.1813C20.928 4.10807 21.0572 3.69752 21.3536 3.77547C22.178 3.99489 22.9675 4.51417 23.218 5.26702C23.2367 5.32361 23.1477 5.37076 23.1021 5.32582ZM26.3405 12.7858C25.7746 13.2105 24.9316 12.9131 24.4331 12.5569C23.8133 12.1109 23.3906 11.3841 23.4739 10.6737C23.4767 10.6454 23.5036 10.6241 23.5331 10.6193C23.5521 10.5461 23.6246 10.487 23.7272 10.5203C24.5623 10.7847 25.818 10.4213 26.4162 11.1364C26.7956 11.5894 26.8659 12.3916 26.3405 12.7858Z" fill="#A6A6A4"/>
<path d="M24.3115 4.86818C22.8253 3.29951 20.6113 1.77857 18.2973 0.986328C18.5079 1.21573 18.7093 1.45096 18.9015 1.69118C20.3938 2.30811 21.7682 3.18384 22.9402 4.15056C26.6205 7.18775 28.0649 12.0918 26.5828 16.3185C24.8638 21.22 19.1546 24.6774 13.3513 24.6161C13.3 24.6161 13.2623 24.635 13.2354 24.6633C11.1196 24.534 9.11273 23.9992 7.33675 23.1368C7.11792 23.1318 6.88579 23.068 6.65081 22.926C6.56372 22.8733 6.48138 22.8175 6.39556 22.764C6.20301 22.7171 6.01015 22.6716 5.81982 22.6183C7.9847 23.9743 10.5999 24.8014 13.3994 24.8899C13.413 24.8899 13.4209 24.8877 13.4317 24.8852C18.8524 24.916 24.0015 22.2183 26.3345 17.8854C28.5928 13.6874 27.6741 8.41743 24.3115 4.86818Z" fill="#20235A"/>
<path d="M26.4159 11.136C26.7959 11.589 26.8659 12.3915 26.3405 12.7856C25.7746 13.2103 24.9315 12.913 24.4331 12.5568C23.8133 12.1107 23.3906 11.384 23.4738 10.6736C23.4767 10.6453 23.5036 10.6239 23.5331 10.6192C23.5521 10.5459 23.6246 10.4871 23.7272 10.5202C24.5623 10.7842 25.8176 10.4208 26.4159 11.136ZM26.0843 12.5401C26.4643 12.2688 26.4589 11.7731 26.2243 11.4073C25.9925 11.0461 25.5345 10.9801 25.1035 10.9706C24.581 10.9612 24.1363 10.9587 23.6379 10.8006C23.6353 10.7984 23.6353 10.7984 23.63 10.7959C23.7351 11.2394 23.8941 11.643 24.2307 12.0042C24.643 12.4458 25.4781 12.972 26.0843 12.5401Z" fill="#20235A"/>
<path d="M26.2247 11.408C26.459 11.7739 26.4644 12.2693 26.0847 12.5409C25.4786 12.9728 24.6431 12.4465 24.2311 12.0052C23.8945 11.644 23.7355 11.2404 23.6304 10.7969C23.6358 10.7994 23.6358 10.7994 23.6383 10.8016C24.1368 10.9597 24.5814 10.9622 25.1039 10.9716C25.5349 10.9811 25.9929 11.0471 26.2247 11.408Z" fill="#0AB9DE"/>
<path d="M25.0955 13.7112C24.7643 13.3359 24.2468 13.008 23.7027 12.942C23.6166 12.9326 23.5466 13.0341 23.6381 13.0766C23.9292 13.218 24.1879 13.362 24.4115 13.5487C23.5776 13.8391 22.7321 14.0824 21.877 14.284C21.8289 14.3564 21.7804 14.4286 21.7279 14.499C21.4957 14.8103 21.0536 14.7415 20.8459 14.5254C20.5688 14.7362 20.2702 14.9221 19.9541 15.0857C21.5005 14.8355 23.0199 14.4599 24.4894 13.9334C23.5976 16.2319 22.7273 18.7243 20.5935 20.3878C19.8471 20.9706 19.0012 21.4333 18.0986 21.7804C17.3253 19.9254 16.0753 18.0966 13.5048 18.1742C11.4463 18.238 9.51988 19.8735 9.25038 21.66C9.13258 21.6098 9.0173 21.5559 8.90234 21.501C9.38688 21.9443 10.1723 22.182 10.7892 22.364C10.9551 22.4128 11.0628 22.5149 11.1173 22.6328C11.8086 22.7912 12.5385 22.8905 13.3078 22.9202C15.7621 23.0145 18.4673 22.42 20.3857 21.0297C22.8078 19.2738 23.8962 16.4796 24.7586 13.9284C24.7611 13.9307 24.7611 13.9332 24.7639 13.9356C24.8824 14.1079 24.9821 14.2874 25.0467 14.4807C25.1088 14.6718 25.106 14.863 25.2083 15.0399C25.2836 15.1745 25.4857 15.1179 25.5398 15.0022C25.7153 14.6056 25.3729 14.0227 25.0955 13.7112ZM13.729 22.5493C13.6691 22.567 13.6083 22.5823 13.5456 22.5931C13.3407 22.6289 13.1232 22.6569 12.9122 22.6455C12.6681 22.6322 12.4211 22.6009 12.1829 22.5504C12.003 22.5124 11.8269 22.4616 11.654 22.4042C11.5913 22.3834 11.5299 22.3601 11.4678 22.3382C11.4184 22.3293 11.3703 22.3163 11.3231 22.3005C10.659 22.1623 10.012 21.9679 9.39638 21.716C10.1697 20.0924 11.4441 18.4192 13.7125 18.483C16.0376 18.5468 17.0428 20.2483 17.7351 21.9096C16.469 22.3465 15.0986 22.5573 13.729 22.5493Z" fill="#20235A"/>
<path d="M15.7043 17.1637C15.7043 17.1803 15.7005 17.1972 15.6977 17.2142C16.0492 17.1379 16.3678 17.0222 16.6506 16.8538C16.6243 16.8577 16.5977 16.8613 16.5704 16.8624C16.4675 16.8666 16.3697 16.835 16.2848 16.7861C16.0878 16.8677 15.8753 16.9271 15.6533 16.9676C15.6853 17.0244 15.7043 17.0891 15.7043 17.1637Z" fill="#20235A"/>
<path d="M21.2852 5.53027C21.3754 5.7153 21.4622 5.90115 21.5458 6.08867C22.7277 6.85955 23.1045 8.48785 23.1451 9.79798C23.1533 9.98439 23.5086 10.0482 23.5412 9.84293C23.7981 8.25179 23.0105 6.21988 21.2852 5.53027Z" fill="#20235A"/>
<path d="M19.9545 15.0849C19.3008 15.4231 18.575 15.6649 17.8184 15.833C17.7928 15.8658 17.7662 15.8977 17.738 15.9298C17.6819 15.9934 17.6255 16.0544 17.5571 16.1085C17.5267 16.1326 17.4941 16.1534 17.4621 16.1756C17.2984 16.3662 17.136 16.5579 16.9437 16.7274C16.863 16.7986 16.7607 16.838 16.6514 16.8541C16.3686 17.0225 16.05 17.1382 15.6985 17.2145C15.6665 17.4283 15.4401 17.6544 15.1782 17.6253C13.7259 17.4638 12.1462 17.7429 10.8332 18.2955C9.59119 18.8181 8.41913 19.6863 8.56449 20.9776C8.56703 20.9995 8.56512 21.0211 8.56291 21.0422C8.64113 21.2159 8.75831 21.3676 8.90335 21.5002C9.01831 21.5551 9.13358 21.6092 9.25139 21.6592C9.52089 19.8727 11.4473 18.2372 13.5058 18.1734C16.076 18.0955 17.3263 19.9246 18.0996 21.7795C19.0022 21.4325 19.8481 20.9701 20.5945 20.387C22.7283 18.7232 23.5986 16.2311 24.4904 13.9326C23.0203 14.4591 21.5008 14.8347 19.9545 15.0849Z" fill="#3B41A5"/>
<path d="M23.2176 5.26767C23.2366 5.32426 23.1476 5.37141 23.1017 5.32675C22.5684 4.80997 22.0078 4.37806 21.2266 4.18222C20.9276 4.10899 21.0568 3.69845 21.3532 3.7764C22.1776 3.99554 22.9671 4.51482 23.2176 5.26767Z" fill="#20235A"/>
<path d="M16.1982 16.7271C16.1716 16.7058 16.1494 16.6789 16.1294 16.6506C16.0528 16.6897 15.9657 16.7124 15.8742 16.7096C15.6151 16.7022 15.3631 16.6503 15.1097 16.6084C15.0955 16.6381 15.0774 16.6658 15.0571 16.6922C15.097 16.6961 15.1376 16.6977 15.1775 16.7022C15.3843 16.7252 15.5686 16.8142 15.6538 16.9676C15.8758 16.9271 16.088 16.8678 16.2852 16.7862C16.2542 16.7685 16.2251 16.7488 16.1982 16.7271Z" fill="white"/>
<path d="M13.7121 18.4822C11.4437 18.4184 10.169 20.0917 9.396 21.7153C10.0116 21.9671 10.6586 22.1616 11.3227 22.2997C11.2888 22.2886 11.2553 22.2767 11.2226 22.2615C11.1394 22.2376 11.0633 22.2026 10.9924 22.1602C10.9041 22.1253 10.8154 22.0914 10.7283 22.0548C10.4439 21.9352 10.2596 21.6675 10.1659 21.4143C10.0639 21.1386 10.1393 20.837 10.2894 20.5882C10.3663 20.4634 10.4715 20.363 10.6045 20.2875C10.6431 20.2564 10.6878 20.2337 10.7308 20.2093C10.7932 20.0612 10.8622 19.9136 10.955 19.7791C11.0573 19.6309 11.178 19.4822 11.3265 19.3666C11.5726 19.1743 11.7512 19.0825 12.0596 18.9865C12.2288 18.9338 12.4172 18.9133 12.5958 18.9186C12.7719 18.9236 12.9651 18.9405 13.1338 18.9954C13.2995 19.0492 13.4803 19.1083 13.6304 19.1971C13.7837 19.2878 13.9354 19.3877 14.0678 19.5019C14.202 19.6176 14.316 19.7577 14.4263 19.8883C14.4782 19.9502 14.5251 20.0154 14.5656 20.0834C14.6527 20.2293 14.7274 20.3827 14.7857 20.5391C14.8433 20.6939 14.8608 20.865 14.8794 21.0237C14.8978 21.1785 14.8611 21.3474 14.8291 21.4942C14.7974 21.6393 14.7268 21.7846 14.635 21.9078C14.4193 22.1968 14.1048 22.4365 13.7286 22.5483C15.0983 22.5563 16.4686 22.3455 17.7344 21.9086C17.0424 20.2476 16.0372 18.546 13.7121 18.4822Z" fill="#FE97C3"/>
<path d="M4.0887 10.4402C4.04025 10.3742 3.93511 10.3387 3.84897 10.4072C3.63616 10.5803 3.38756 10.6496 3.12281 10.6757C3.08227 10.7734 3.03603 10.8693 2.98315 10.9631C3.36222 10.9467 3.70108 10.8721 3.9918 10.6571C3.78152 11.1551 3.49871 11.6153 3.05694 11.9953C2.77667 12.2383 2.43464 12.4674 2.05462 12.5711C1.67111 12.676 1.4032 12.5534 1.24992 12.3376C1.11406 12.3745 0.974395 12.3992 0.83252 12.4122C0.872422 12.5107 0.92405 12.6011 0.990554 12.6771C1.14446 12.8538 1.34935 12.9309 1.5723 12.944C1.66414 12.932 1.75599 12.9273 1.84656 12.9309C2.25699 12.8727 2.68451 12.6571 2.95211 12.4741C3.65801 11.9878 4.13494 11.2563 4.16439 10.4657C4.16408 10.4286 4.11562 10.4191 4.0887 10.4402Z" fill="#20235A"/>
<path d="M2.98306 10.9632C2.62362 11.602 1.99024 12.1363 1.24951 12.3377C1.40311 12.5535 1.6707 12.6761 2.05421 12.5712C2.43423 12.4675 2.77626 12.2386 3.05653 11.9954C3.49831 11.6153 3.78111 11.1551 3.99139 10.6572C3.70098 10.8719 3.36213 10.9468 2.98306 10.9632Z" fill="#0AB9DE"/>
</g>
<path d="M12.3864 2.33144C8.28596 2.20744 4.49585 4.2818 3.02262 7.66684C2.97638 7.7728 3.1569 7.8255 3.22182 7.74034C5.2369 5.09927 8.75276 3.51702 12.3867 3.73339C13.409 3.79442 13.4207 2.36251 12.3864 2.33144Z" fill="white"/>
<path d="M12.3602 19.6756C11.9808 19.5314 11.5682 19.806 11.3297 20.0579C11.0618 20.3408 10.9649 20.6174 10.9794 20.978C10.987 21.1691 11.2812 21.198 11.3516 21.0221C11.4329 20.8188 11.6325 20.581 11.8158 20.4399C12.0131 20.2881 12.3352 20.2268 12.4653 20.0276C12.5375 19.9178 12.5075 19.7317 12.3602 19.6756Z" fill="white"/>
</g>
</svg>
