<svg width="43" height="40" viewBox="0 0 43 40" fill="none" xmlns="http://www.w3.org/2000/svg">
<g opacity="0.1">
<path d="M37.1867 7.95482C36.4867 9.42637 35.7967 10.8892 35.1067 12.3607C34.2567 14.1388 33.0567 16.0396 32.7367 17.9404C32.6867 18.2031 32.8267 18.4046 33.0167 18.501C32.6467 18.6411 32.3967 19.0002 32.6767 19.4119C34.8167 22.4689 37.1867 25.4208 39.5067 28.3814C34.8367 27.5405 29.6967 26.6821 25.0967 27.1376C25.0867 27.1463 25.0767 27.1463 25.0667 27.1463C24.7967 27.1288 24.5167 27.1989 24.3167 27.4441C21.6167 30.7726 18.9567 34.1187 16.2767 37.456C15.5967 33.5231 15.4967 29.5726 14.8367 25.6485C14.9167 25.377 14.8267 25.0791 14.4267 24.9302C10.5667 23.485 6.70668 22.0484 2.84668 20.6032C6.50668 18.9827 10.1567 17.1433 13.1367 14.6907C13.3567 14.5067 13.3267 14.2702 13.1667 14.1038C13.9567 10.2673 14.1967 6.31684 14.6267 2.42773C17.5767 5.16062 20.6067 7.84095 23.6367 10.5038C23.8267 10.6614 24.0367 10.7227 24.2367 10.7052C24.3067 10.714 24.3867 10.714 24.4767 10.6965C28.7267 9.72419 32.8667 8.6468 37.1867 7.95482Z" fill="#B5B5B5"/>
<path d="M42.0465 29.0741C42.4865 29.6434 41.7665 30.2566 41.1165 30.1427C36.0665 29.2493 30.7565 29.0828 25.7565 28.0493C25.7365 28.0843 25.7365 28.1193 25.7065 28.1544C22.6565 31.9559 19.5765 35.7311 16.5065 39.5239C16.1565 39.9531 15.2265 39.9881 15.0965 39.3574C14.1965 35.1705 13.2865 30.5632 13.8365 26.2624C13.7465 26.2536 13.6565 26.2449 13.5665 26.2186C9.18646 24.5806 4.79646 22.9339 0.416461 21.2959C-0.163539 21.0769 -0.113539 20.2448 0.416461 20.017C4.50646 18.2652 8.23646 16.0579 12.2065 14.1308C12.2565 9.78623 13.0265 5.42413 13.4265 1.09706C13.4765 0.589023 14.1365 0.299971 14.5865 0.676619C18.0365 3.54089 21.3865 6.51903 24.7165 9.48842C29.0065 7.83292 33.6965 6.94824 38.2965 6.32633C38.8365 6.2475 39.5865 6.64167 39.3165 7.21978C38.3865 9.19936 37.4465 11.1877 36.5065 13.1673C35.6965 14.8929 35.0665 16.8374 33.7965 18.3353C33.7465 18.3966 33.6865 18.4491 33.6165 18.4842C33.7665 18.528 33.9065 18.598 34.0165 18.7294C36.8465 22.0667 39.3965 25.6229 42.0465 29.0741ZM35.1065 12.3614C35.7965 10.8899 36.4865 9.4271 37.1865 7.95555C32.8665 8.64753 28.7265 9.72492 24.4765 10.6972C24.3865 10.7147 24.3065 10.7147 24.2365 10.706C24.0365 10.7235 23.8265 10.6622 23.6365 10.5045C20.6065 7.84168 17.5765 5.16135 14.6265 2.42847C14.1965 6.31757 13.9565 10.268 13.1665 14.1045C13.3265 14.271 13.3565 14.5075 13.1365 14.6914C10.1565 17.144 6.50646 18.9834 2.84646 20.6039C6.70646 22.0492 10.5665 23.4857 14.4265 24.931C14.8265 25.0799 14.9165 25.3777 14.8365 25.6492C15.4965 29.5734 15.5965 33.5238 16.2765 37.4567C18.9565 34.1194 21.6165 30.7734 24.3165 27.4449C24.5165 27.1996 24.7965 27.1295 25.0665 27.1471C25.0765 27.1471 25.0865 27.1471 25.0965 27.1383C29.6965 26.6828 34.8365 27.5412 39.5065 28.3821C37.1865 25.4215 34.8165 22.4696 32.6765 19.4126C32.3965 19.001 32.6465 18.6418 33.0165 18.5017C32.8265 18.4053 32.6865 18.2039 32.7365 17.9411C33.0565 16.0403 34.2565 14.1396 35.1065 12.3614Z" fill="#20235A"/>
<g opacity="0.63">
<path d="M15.9834 14.415C15.8104 14.7505 15.6374 15.086 15.4584 15.4188C15.3404 15.9873 15.1984 16.5505 15.0264 17.1085C15.3834 16.2151 15.7014 15.3137 15.9834 14.415Z" fill="#B5B5B5"/>
<path d="M32.6766 19.4122C32.3966 19.0005 32.6466 18.6414 33.0166 18.5012C32.8266 18.4049 32.6866 18.2034 32.7366 17.9406C33.0566 16.0399 34.2566 14.1391 35.1066 12.361C35.7966 10.8894 36.4866 9.42663 37.1866 7.95508C32.8666 8.64706 28.7266 9.72445 24.4766 10.6967C24.3866 10.7142 24.3066 10.7142 24.2366 10.7055C24.0366 10.723 23.8266 10.6617 23.6366 10.504C23.2536 10.1677 22.8736 9.8278 22.4916 9.49145C22.2346 10.6065 21.9556 11.7163 21.6456 12.8191C20.3416 17.4589 18.4066 22.5357 14.9316 26.3425C15.4946 30.0389 15.6356 33.7546 16.2756 37.4562C18.9556 34.1189 21.6156 30.7729 24.3156 27.4444C24.5156 27.1991 24.7956 27.1291 25.0656 27.1466C25.0756 27.1466 25.0856 27.1466 25.0956 27.1378C29.6956 26.6824 34.8356 27.5408 39.5056 28.3816C37.1866 25.421 34.8166 22.4691 32.6766 19.4122Z" fill="#B5B5B5"/>
<path d="M42.0465 29.0742C39.3965 25.623 36.8465 22.0668 34.0165 18.7295C33.9065 18.5981 33.7665 18.5281 33.6165 18.4843C33.6865 18.4492 33.7465 18.3967 33.7965 18.3354C35.0665 16.8375 35.6965 14.893 36.5065 13.1674C37.4465 11.1878 38.3865 9.19947 39.3165 7.21988C39.5865 6.64177 38.8365 6.2476 38.2965 6.32643C33.6965 6.94834 29.0065 7.83302 24.7165 9.48852C24.0955 8.93406 23.4665 8.38311 22.8435 7.82952C22.7285 8.38398 22.6195 8.94019 22.4925 9.49202C22.8745 9.82838 23.2545 10.1691 23.6375 10.5046C23.8275 10.6623 24.0375 10.7236 24.2375 10.7061C24.3075 10.7148 24.3875 10.7148 24.4775 10.6973C28.7275 9.72503 32.8675 8.64763 37.1875 7.95565C36.4875 9.42721 35.7975 10.89 35.1075 12.3616C34.2575 14.1397 33.0575 16.0404 32.7375 17.9412C32.6875 18.204 32.8275 18.4054 33.0175 18.5018C32.6475 18.6419 32.3975 19.0011 32.6775 19.4127C34.8175 22.4697 37.1875 25.4216 39.5075 28.3822C34.8375 27.5413 29.6975 26.6829 25.0975 27.1384C25.0875 27.1472 25.0775 27.1472 25.0675 27.1472C24.7975 27.1296 24.5175 27.1997 24.3175 27.445C21.6175 30.7735 18.9575 34.1195 16.2775 37.4568C15.6375 33.7551 15.4965 30.0386 14.9335 26.3431C14.5515 26.7618 14.1475 27.1621 13.7265 27.5475C13.4775 31.4716 14.2865 35.5841 15.0975 39.3575C15.2275 39.9882 16.1575 39.9532 16.5075 39.524C19.5775 35.7312 22.6575 31.956 25.7075 28.1545C25.7375 28.1194 25.7375 28.0844 25.7575 28.0494C30.7575 29.083 36.0675 29.2494 41.1175 30.1428C41.7665 30.2567 42.4865 29.6435 42.0465 29.0742Z" fill="#20235A"/>
</g>
</g>
</svg>
