<svg width="28" height="25" viewBox="0 0 28 25" fill="none" xmlns="http://www.w3.org/2000/svg">
<g opacity="0.12">
<path d="M22.9405 4.04794C26.6207 7.08513 28.0651 11.9892 26.583 16.2158C24.864 21.1174 19.1548 24.5748 13.3515 24.5135C13.3002 24.5135 13.2625 24.5324 13.2356 24.5607C7.362 24.202 2.30514 20.7518 0.793596 15.6991C-0.602045 11.0333 1.51564 5.35058 6.14972 2.60605C8.53945 1.18995 11.63 0.722823 14.4697 0.682601C17.649 0.637663 20.672 2.17636 22.9405 4.04794ZM26.3407 12.6829C26.8661 12.2888 26.7961 11.4865 26.4161 11.0333C25.8179 10.3182 24.5625 10.6815 23.7271 10.4175C23.6248 10.3845 23.552 10.4435 23.533 10.5165C23.5032 10.5212 23.4763 10.5426 23.4738 10.5709C23.3902 11.2813 23.8133 12.008 24.433 12.4541C24.9315 12.8103 25.7748 13.1076 26.3407 12.6829ZM25.5405 14.899C25.7156 14.5026 25.3736 13.9196 25.0958 13.608C24.7643 13.2327 24.2471 12.9049 23.7031 12.8388C23.6169 12.8294 23.5469 12.9309 23.6385 12.9734C23.9295 13.1148 24.1882 13.2588 24.4118 13.4455C17.6385 15.8056 10.0782 15.0857 3.15957 13.5728C3.348 13.4028 3.56366 13.2494 3.78471 13.0913C3.83601 13.0535 3.79009 12.9828 3.73087 12.9803C2.91191 12.959 2.31116 13.6719 2.13319 14.2996C2.1088 14.3892 2.14934 14.4885 2.24371 14.5379C2.31116 14.5709 2.35423 14.5687 2.4296 14.5592C2.50782 14.5473 2.57781 14.4766 2.59649 14.4106C2.65571 14.1934 2.76086 14.0117 2.89291 13.8466C3.92753 18.5523 7.54315 22.5926 13.3091 22.8167C15.7634 22.911 18.4685 22.3163 20.387 20.9263C22.8091 19.1704 23.8975 16.3762 24.7598 13.8253C24.7624 13.8277 24.7624 13.83 24.7652 13.8325C24.8837 14.0047 24.9834 14.1842 25.048 14.3775C25.1101 14.5687 25.1073 14.7598 25.2095 14.9368C25.2846 15.0713 25.4866 15.0147 25.5405 14.899ZM23.5412 9.74007C23.843 7.87321 22.7115 5.39303 20.3082 5.19469C17.8266 4.99164 15.9867 6.9481 15.6389 8.93535C15.6253 9.0133 15.7387 9.03909 15.771 8.96836C16.5067 7.39886 17.5223 5.65489 19.7343 5.54643C22.3774 5.41661 23.0887 7.86627 23.1454 9.69513C23.1533 9.88154 23.5089 9.94534 23.5412 9.74007ZM23.102 5.22298C23.1479 5.26792 23.2366 5.22049 23.2179 5.1639C22.9674 4.41105 22.1779 3.89177 21.3536 3.67235C21.0571 3.5944 20.9279 4.00523 21.2269 4.07818C22.0082 4.2743 22.5687 4.7062 23.102 5.22298ZM11.6436 9.11455C11.6598 9.15477 11.7218 9.13813 11.7165 9.09791C11.4229 7.28319 10.1565 4.88068 7.6049 5.24657C5.27155 5.57944 4.49029 7.83548 4.59004 9.62439C4.59828 9.79194 4.88646 9.79444 4.889 9.62439C4.91877 8.01717 5.51128 5.96168 7.67204 5.66903C10.0618 5.34337 10.9862 7.55227 11.6436 9.11455ZM7.01206 3.87568C7.17104 3.82131 7.18181 3.63268 7.01206 3.58303C6.55128 3.44156 5.89669 3.73643 5.53567 3.96999C5.12619 4.23657 4.81362 4.63075 4.72463 5.07458C4.71671 5.11231 4.77309 5.13589 4.79747 5.10066C5.05621 4.74199 5.35262 4.43741 5.76748 4.21105C5.94799 4.11424 6.14181 4.03629 6.34417 3.98442C6.56491 3.92977 6.79925 3.94642 7.01206 3.87568ZM4.1641 10.3631C4.1641 10.3254 4.11564 10.3159 4.08873 10.337C4.04027 10.271 3.93514 10.2355 3.849 10.304C3.12157 10.8962 1.97642 10.2874 1.19801 10.8186C0.678008 11.1703 0.591869 12.119 0.990578 12.5745C1.47828 13.1337 2.47236 12.6996 2.95214 12.3714C3.65772 11.8852 4.13465 11.1537 4.1641 10.3631Z" fill="#A6A6A4"/>
<path d="M24.3116 4.76557C27.6742 8.31511 28.5929 13.5848 26.3349 17.7831C24.0016 22.116 18.8529 24.8134 13.4321 24.7829C13.4214 24.7851 13.4131 24.7876 13.3998 24.7876C6.66674 24.5751 0.992654 20.1007 0.11448 14.2339C-0.621184 9.32288 2.22679 3.57611 7.56138 1.49233C10.1506 0.479837 13.7016 -0.0228027 16.5091 0.427963C19.4299 0.895094 22.4447 2.79496 24.3116 4.76557ZM26.5829 16.2161C28.0647 11.9895 26.6206 7.08542 22.9403 4.04823C20.6719 2.17665 17.6488 0.637952 14.4696 0.68289C11.6299 0.723112 8.53963 1.19024 6.14959 2.60634C1.51551 5.35087 -0.602179 11.0339 0.793462 15.6993C2.30501 20.7521 7.36219 24.2023 13.2355 24.561C13.2624 24.5327 13.3001 24.5138 13.3514 24.5138C19.155 24.5751 24.8639 21.1177 26.5829 16.2161Z" fill="#20235A"/>
<path d="M26.4159 11.0334C26.7959 11.4864 26.8659 12.2889 26.3405 12.6831C25.7746 13.1078 24.9315 12.8104 24.4331 12.4542C23.8133 12.0082 23.3906 11.2814 23.4738 10.571C23.4767 10.5427 23.5036 10.5214 23.5331 10.5166C23.5521 10.4434 23.6246 10.3846 23.7272 10.4176C24.5623 10.6817 25.8176 10.3183 26.4159 11.0334ZM26.0843 12.4376C26.4643 12.1663 26.4589 11.6706 26.2243 11.3047C25.9925 10.9436 25.5345 10.8775 25.1035 10.8681C24.581 10.8587 24.1363 10.8562 23.6379 10.6981C23.6353 10.6958 23.6353 10.6958 23.63 10.6933C23.7351 11.1369 23.8941 11.5405 24.2307 11.9017C24.643 12.3433 25.4781 12.8695 26.0843 12.4376Z" fill="#20235A"/>
<path d="M26.2247 11.3045C26.459 11.6703 26.4644 12.1658 26.0847 12.4373C25.4786 12.8692 24.6431 12.343 24.2311 11.9017C23.8945 11.5405 23.7355 11.1369 23.6304 10.6934C23.6358 10.6959 23.6358 10.6959 23.6383 10.6981C24.1368 10.8562 24.5814 10.8587 25.1039 10.8681C25.5349 10.8776 25.9929 10.9436 26.2247 11.3045Z" fill="#0AB9DE"/>
<path d="M25.0953 13.6087C25.3727 13.9202 25.7151 14.503 25.5399 14.8997C25.4861 15.0154 25.284 15.0719 25.2087 14.9374C25.1064 14.7604 25.1089 14.5693 25.0472 14.3782C24.9826 14.1846 24.8828 14.0054 24.7644 13.8331C24.7615 13.8306 24.7615 13.8284 24.759 13.8259C23.897 16.3771 22.8082 19.1713 20.3862 20.9269C18.468 22.3169 15.7628 22.9117 13.3082 22.8173C7.5426 22.5932 3.92666 18.553 2.89204 13.8473C2.75998 14.0123 2.65484 14.1943 2.59562 14.4112C2.57662 14.4772 2.50664 14.548 2.42874 14.5599C2.35336 14.5693 2.31029 14.5718 2.24284 14.5385C2.14847 14.4889 2.10825 14.3898 2.13231 14.3002C2.31029 13.6725 2.91104 12.9599 3.73 12.981C3.78922 12.9832 3.83514 13.0542 3.78384 13.0919C3.56279 13.25 3.34744 13.4034 3.1587 13.5735C10.0777 15.0861 17.6376 15.8059 24.4109 13.4461C24.1874 13.2597 23.9286 13.1158 23.6376 12.974C23.5461 12.9316 23.6161 12.8301 23.7022 12.8395C24.2466 12.9055 24.764 13.2334 25.0953 13.6087ZM20.5933 20.285C22.7271 18.6212 23.5974 16.1291 24.4892 13.8306C22.3417 14.5998 20.0894 15.0553 17.7991 15.2536C17.1471 17.1227 15.6032 17.3044 13.5071 17.2359C11.3058 17.1652 9.81039 16.9266 9.2204 14.9704C8.97244 14.9396 8.72194 14.9066 8.47397 14.8714C6.66886 14.6212 4.74783 14.3876 3.03962 13.7907C4.0527 15.9524 4.73421 18.166 6.64447 19.91C7.39882 20.5968 8.28523 21.1466 9.24986 21.5571C9.51936 19.7707 11.4458 18.1352 13.5042 18.0714C16.0745 17.9935 17.3247 19.8226 18.0978 21.6775C19.001 21.3305 19.8468 20.8681 20.5933 20.285ZM16.7591 16.4123C17.1122 16.1269 17.3168 15.6783 17.5081 15.2794C16.4437 15.3621 15.3743 15.3879 14.302 15.3668C12.6637 15.336 11.0284 15.1968 9.40377 14.994C9.83225 15.905 10.3146 16.5327 11.5376 16.7876C12.2464 16.9363 13.033 16.9433 13.7604 16.953C14.7143 16.9621 15.9994 17.019 16.7591 16.4123ZM17.7345 21.8071C17.0423 20.1458 16.0371 18.4442 13.712 18.3804C11.4436 18.3166 10.1689 19.9899 9.39585 21.6135C10.6135 22.1114 11.9528 22.3874 13.3079 22.4395C14.8169 22.4986 16.3389 22.2886 17.7345 21.8071Z" fill="#20235A"/>
<path d="M20.3078 5.19518C22.7112 5.39351 23.8427 7.8737 23.5409 9.74056C23.5086 9.94583 23.153 9.88203 23.1447 9.69562C23.088 7.86676 22.3768 5.41709 19.7337 5.54691C17.5216 5.65537 16.506 7.39935 15.7703 8.96885C15.738 9.03958 15.625 9.01379 15.6383 8.93584C15.9863 6.94859 17.8266 4.9924 20.3078 5.19518Z" fill="#20235A"/>
<path d="M24.4894 13.83C23.5976 16.1285 22.7274 18.6209 20.5935 20.2844C19.8471 20.8672 19.0012 21.3299 18.0987 21.6769C17.3253 19.822 16.0754 17.9931 13.5051 18.0708C11.4467 18.1346 9.52026 19.7698 9.25076 21.5565C8.28613 21.146 7.39973 20.5959 6.64538 19.9094C4.73512 18.1654 4.05361 15.9518 3.04053 13.79C4.74874 14.387 6.66976 14.6208 8.47488 14.8708C8.72285 14.9063 8.97334 14.9393 9.22131 14.9698C9.8113 16.9263 11.3067 17.1645 13.508 17.2353C15.6041 17.3038 17.148 17.1221 17.8 15.253C20.0897 15.0547 22.342 14.5992 24.4894 13.83Z" fill="#3B41A5"/>
<path d="M23.2176 5.16513C23.2366 5.22172 23.1476 5.26887 23.1017 5.22421C22.5684 4.70743 22.0078 4.27552 21.2266 4.07968C20.9276 4.00645 21.0568 3.59591 21.3532 3.67386C22.1776 3.893 22.9671 4.41228 23.2176 5.16513Z" fill="#20235A"/>
<path d="M17.5086 15.2789C17.3174 15.6778 17.1125 16.126 16.7597 16.4118C15.9999 17.0181 14.7148 16.9616 13.761 16.9521C13.0335 16.9427 12.2469 16.9355 11.5381 16.7868C10.3151 16.5319 9.83277 15.9041 9.4043 14.9932C11.0289 15.1962 12.6643 15.3355 14.3025 15.366C15.3748 15.3876 16.4442 15.3615 17.5086 15.2789Z" fill="white"/>
<path d="M13.7121 18.3807C16.0372 18.4445 17.0421 20.146 17.7347 21.8073C16.339 22.2889 14.8167 22.4989 13.308 22.4398C11.9529 22.3879 10.6137 22.1116 9.396 21.6137C10.1693 19.9904 11.4437 18.3171 13.7121 18.3807Z" fill="#FE97C3"/>
<path d="M11.716 9.0986C11.7214 9.13882 11.6593 9.15519 11.6432 9.11524C10.9857 7.55296 10.0616 5.34407 7.67189 5.66973C5.51114 5.96238 4.9183 8.01788 4.88885 9.6251C4.88632 9.79514 4.59781 9.79264 4.5899 9.6251C4.49014 7.83618 5.2714 5.58013 7.60476 5.24726C10.156 4.88138 11.4224 7.28389 11.716 9.0986Z" fill="#20235A"/>
<path d="M7.01165 3.58291C7.18139 3.63256 7.17062 3.82119 7.01165 3.87556C6.79883 3.94629 6.56449 3.92993 6.34344 3.98402C6.1414 4.0359 5.94726 4.11384 5.76675 4.21065C5.35189 4.43728 5.05547 4.74158 4.79674 5.10025C4.77236 5.13576 4.71598 5.11218 4.7239 5.07418C4.81289 4.63035 5.12546 4.23645 5.53494 3.9696C5.89628 3.73603 6.55087 3.44116 7.01165 3.58291Z" fill="#20235A"/>
<path d="M4.08876 10.3375C4.11568 10.3162 4.16413 10.3259 4.16413 10.3636C4.13436 11.1542 3.65775 11.8857 2.95185 12.372C2.47239 12.7001 1.47799 13.1342 0.990293 12.575C0.591583 12.1195 0.677722 11.1708 1.19772 10.8191C1.97646 10.2882 3.12128 10.8971 3.84871 10.3045C3.93517 10.2363 4.04031 10.2715 4.08876 10.3375ZM3.05699 11.8929C3.49877 11.5129 3.78157 11.0527 3.99185 10.5547C3.68213 10.7836 3.31825 10.8546 2.90878 10.864C2.26495 10.8782 1.30571 10.7273 1.1252 11.4729C0.993141 12.0086 1.30286 12.674 2.05468 12.4688C2.43438 12.3647 2.77673 12.1359 3.05699 11.8929Z" fill="#20235A"/>
<path d="M3.99196 10.5547C3.78168 11.0526 3.49888 11.5128 3.0571 11.8928C2.77683 12.1358 2.43481 12.365 2.05479 12.4687C1.30297 12.674 0.99325 12.0085 1.12531 11.4729C1.30582 10.7272 2.26506 10.8781 2.90889 10.864C3.31836 10.8545 3.68193 10.7835 3.99196 10.5547Z" fill="#0AB9DE"/>
<g opacity="0.63">
<path d="M0.99023 12.5748C0.923726 12.4988 0.871792 12.4083 0.832206 12.3098C0.684629 12.3234 0.534513 12.3248 0.382187 12.3096C0.381237 12.3334 0.378391 12.3576 0.377441 12.3814C0.51235 12.6369 0.652324 12.8893 0.794833 13.1398C1.02126 12.9803 1.29552 12.8777 1.57167 12.8419C1.34904 12.8286 1.14446 12.7512 0.99023 12.5748Z" fill="#A6A6A4"/>
<path d="M3.22679 10.2571C3.19892 10.3636 3.16631 10.4695 3.12324 10.5733C3.38767 10.5469 3.63659 10.4779 3.8494 10.3048C3.93554 10.2362 4.04069 10.2717 4.08914 10.3378C4.11606 10.3167 4.16451 10.3261 4.16451 10.3638C4.13474 11.1544 3.65813 11.8859 2.95223 12.3722C2.68463 12.5553 2.25711 12.7708 1.84668 12.8291C2.17825 12.8418 2.48828 12.9605 2.69191 13.2069C2.72643 12.9838 2.84297 12.7594 3.06592 12.5544C3.77308 11.9053 4.61263 10.8088 4.31874 9.86426C4.0049 10.0482 3.63659 10.1816 3.22679 10.2571Z" fill="#A6A6A4"/>
<path d="M22.9402 4.04824C21.7682 3.08125 20.3938 2.20551 18.9015 1.58887C19.6372 2.50843 20.2497 3.50011 20.8175 4.52425C20.9822 4.82106 21.1364 5.12342 21.2852 5.428C23.0105 6.1176 23.7985 8.14951 23.541 9.74065C23.5087 9.94592 23.1531 9.88212 23.1448 9.69571C23.1043 8.38558 22.7274 6.75727 21.5455 5.98639C22.0586 7.1373 22.4443 8.33371 22.6337 9.5559C22.8747 11.1124 22.7961 12.7964 21.8768 14.1809C22.7315 13.9795 23.5774 13.736 24.4112 13.4455C24.1877 13.2591 23.9289 13.1152 23.6379 12.9734C23.5464 12.931 23.6164 12.8294 23.7025 12.8389C24.2469 12.9049 24.764 13.233 25.0953 13.6081C25.3727 13.9196 25.715 14.5024 25.5399 14.8991C25.4861 15.0147 25.284 15.0713 25.2083 14.9368C25.1061 14.7598 25.1086 14.5687 25.0468 14.3776C24.9822 14.1839 24.8825 14.0047 24.764 13.8325C24.7612 13.83 24.7612 13.8278 24.7586 13.8253C23.8966 16.3765 22.8079 19.1707 20.3858 20.9266C18.4677 22.3166 15.7625 22.9113 13.3079 22.817C12.5386 22.787 11.809 22.688 11.1174 22.5296C11.244 22.8045 11.0768 23.1682 10.6493 23.1671C9.70208 23.1646 8.75296 23.0908 7.81905 22.9454C7.67021 23.0062 7.50775 23.0386 7.33643 23.0348C9.11272 23.8969 11.1192 24.432 13.235 24.5613C13.262 24.533 13.2996 24.5141 13.3509 24.5141C19.1542 24.5754 24.8635 21.1182 26.5825 16.2164C28.0649 11.9895 26.6205 7.08543 22.9402 4.04824ZM23.1021 5.22328C22.5684 4.7065 22.0082 4.2746 21.227 4.07876C20.928 4.00553 21.0572 3.59498 21.3536 3.67293C22.178 3.89235 22.9675 4.41163 23.218 5.16448C23.2367 5.22107 23.1477 5.26822 23.1021 5.22328ZM26.3405 12.6832C25.7746 13.1079 24.9316 12.8106 24.4331 12.4544C23.8133 12.0083 23.3906 11.2816 23.4739 10.5712C23.4767 10.5429 23.5036 10.5215 23.5331 10.5168C23.5521 10.4436 23.6246 10.3845 23.7272 10.4178C24.5623 10.6821 25.818 10.3187 26.4162 11.0339C26.7956 11.4868 26.8659 12.2891 26.3405 12.6832Z" fill="#A6A6A4"/>
<path d="M24.3115 4.76564C22.8253 3.19697 20.6113 1.67603 18.2973 0.883789C18.5079 1.11319 18.7093 1.34842 18.9015 1.58864C20.3938 2.20557 21.7682 3.0813 22.9402 4.04802C26.6205 7.08521 28.0649 11.9893 26.5828 16.2159C24.8638 21.1175 19.1546 24.5749 13.3513 24.5136C13.3 24.5136 13.2623 24.5325 13.2354 24.5608C11.1196 24.4315 9.11273 23.8967 7.33675 23.0343C7.11792 23.0293 6.88579 22.9655 6.65081 22.8234C6.56372 22.7707 6.48138 22.715 6.39556 22.6614C6.20301 22.6146 6.01015 22.5691 5.81982 22.5158C7.9847 23.8717 10.5999 24.6989 13.3994 24.7874C13.413 24.7874 13.4209 24.7852 13.4317 24.7827C18.8524 24.8135 24.0015 22.1158 26.3345 17.7829C28.5928 13.5848 27.6741 8.3149 24.3115 4.76564Z" fill="#20235A"/>
<path d="M26.4159 11.0334C26.7959 11.4864 26.8659 12.2889 26.3405 12.6831C25.7746 13.1078 24.9315 12.8104 24.4331 12.4542C23.8133 12.0082 23.3906 11.2814 23.4738 10.571C23.4767 10.5427 23.5036 10.5214 23.5331 10.5166C23.5521 10.4434 23.6246 10.3846 23.7272 10.4176C24.5623 10.6817 25.8176 10.3183 26.4159 11.0334ZM26.0843 12.4376C26.4643 12.1663 26.4589 11.6706 26.2243 11.3047C25.9925 10.9436 25.5345 10.8775 25.1035 10.8681C24.581 10.8587 24.1363 10.8562 23.6379 10.6981C23.6353 10.6958 23.6353 10.6958 23.63 10.6933C23.7351 11.1369 23.8941 11.5405 24.2307 11.9017C24.643 12.3433 25.4781 12.8695 26.0843 12.4376Z" fill="#20235A"/>
<path d="M26.2247 11.3054C26.459 11.6713 26.4644 12.1667 26.0847 12.4383C25.4786 12.8702 24.6431 12.344 24.2311 11.9027C23.8945 11.5415 23.7355 11.1379 23.6304 10.6943C23.6358 10.6968 23.6358 10.6968 23.6383 10.6991C24.1368 10.8572 24.5814 10.8597 25.1039 10.8691C25.5349 10.8785 25.9929 10.9445 26.2247 11.3054Z" fill="#0AB9DE"/>
<path d="M25.0955 13.6087C24.7643 13.2334 24.2468 12.9055 23.7027 12.8395C23.6166 12.8301 23.5466 12.9316 23.6381 12.974C23.9292 13.1155 24.1879 13.2595 24.4115 13.4461C23.5776 13.7366 22.7321 13.9798 21.877 14.1815C21.8289 14.2539 21.7804 14.326 21.7279 14.3965C21.4957 14.7077 21.0536 14.6389 20.8459 14.4228C20.5688 14.6337 20.2702 14.8195 19.9541 14.9832C21.5005 14.733 23.0199 14.3574 24.4894 13.8309C23.5976 16.1294 22.7273 18.6218 20.5935 20.2853C19.8471 20.8681 19.0012 21.3308 18.0986 21.6778C17.3253 19.8229 16.0753 17.994 13.5048 18.0717C11.4463 18.1355 9.51988 19.771 9.25038 21.5574C9.13258 21.5072 9.0173 21.4534 8.90234 21.3985C9.38688 21.8417 10.1723 22.0795 10.7892 22.2615C10.9551 22.3103 11.0628 22.4124 11.1173 22.5302C11.8086 22.6886 12.5385 22.7879 13.3078 22.8176C15.7621 22.9119 18.4673 22.3175 20.3857 20.9272C22.8078 19.1713 23.8962 16.3771 24.7586 13.8259C24.7611 13.8281 24.7611 13.8306 24.7639 13.8331C24.8824 14.0054 24.9821 14.1848 25.0467 14.3782C25.1088 14.5693 25.106 14.7604 25.2083 14.9374C25.2836 15.0719 25.4857 15.0154 25.5398 14.8997C25.7153 14.503 25.3729 13.9202 25.0955 13.6087ZM13.729 22.4467C13.6691 22.4645 13.6083 22.4798 13.5456 22.4906C13.3407 22.5264 13.1232 22.5544 12.9122 22.543C12.6681 22.5297 12.4211 22.4983 12.1829 22.4479C12.003 22.4099 11.8269 22.3591 11.654 22.3017C11.5913 22.2809 11.5299 22.2576 11.4678 22.2356C11.4184 22.2268 11.3703 22.2137 11.3231 22.1979C10.659 22.0598 10.012 21.8653 9.39638 21.6135C10.1697 19.9899 11.4441 18.3166 13.7125 18.3804C16.0376 18.4442 17.0428 20.1458 17.7351 21.8071C16.469 22.244 15.0986 22.4548 13.729 22.4467Z" fill="#20235A"/>
<path d="M15.7043 17.0611C15.7043 17.0778 15.7005 17.0947 15.6977 17.1116C16.0492 17.0353 16.3678 16.9197 16.6506 16.7513C16.6243 16.7552 16.5977 16.7588 16.5704 16.7599C16.4675 16.764 16.3697 16.7324 16.2848 16.6836C16.0878 16.7651 15.8753 16.8245 15.6533 16.865C15.6853 16.9219 15.7043 16.9865 15.7043 17.0611Z" fill="#20235A"/>
<path d="M21.2852 5.42773C21.3754 5.61276 21.4622 5.79861 21.5458 5.98613C22.7277 6.75701 23.1045 8.38531 23.1451 9.69544C23.1533 9.88185 23.5086 9.94566 23.5412 9.74039C23.7981 8.14926 23.0105 6.11734 21.2852 5.42773Z" fill="#20235A"/>
<path d="M19.9545 14.9824C19.3008 15.3205 18.575 15.5624 17.8184 15.7305C17.7928 15.7632 17.7662 15.7951 17.738 15.8273C17.6819 15.8908 17.6255 15.9519 17.5571 16.006C17.5267 16.0301 17.4941 16.0509 17.4621 16.0731C17.2984 16.2637 17.136 16.4553 16.9437 16.6248C16.863 16.6961 16.7607 16.7355 16.6514 16.7516C16.3686 16.92 16.05 17.0356 15.6985 17.1119C15.6665 17.3258 15.4401 17.5519 15.1782 17.5228C13.7259 17.3613 12.1462 17.6404 10.8332 18.1929C9.59119 18.7155 8.41913 19.5838 8.56449 20.8751C8.56703 20.897 8.56512 20.9186 8.56291 20.9397C8.64113 21.1133 8.75831 21.2651 8.90335 21.3977C9.01831 21.4526 9.13358 21.5067 9.25139 21.5566C9.52089 19.7702 11.4473 18.1347 13.5058 18.0709C16.076 17.9929 17.3263 19.8221 18.0996 21.677C19.0022 21.33 19.8481 20.8676 20.5945 20.2845C22.7283 18.6207 23.5986 16.1286 24.4904 13.8301C23.0203 14.3566 21.5008 14.7322 19.9545 14.9824Z" fill="#3B41A5"/>
<path d="M23.2176 5.16513C23.2366 5.22172 23.1476 5.26887 23.1017 5.22421C22.5684 4.70743 22.0078 4.27552 21.2266 4.07968C20.9276 4.00645 21.0568 3.59591 21.3532 3.67386C22.1776 3.893 22.9671 4.41228 23.2176 5.16513Z" fill="#20235A"/>
<path d="M16.1982 16.6246C16.1716 16.6032 16.1494 16.5763 16.1294 16.548C16.0528 16.5871 15.9657 16.6099 15.8742 16.6071C15.6151 16.5996 15.3631 16.5477 15.1097 16.5059C15.0955 16.5355 15.0774 16.5633 15.0571 16.5896C15.097 16.5935 15.1376 16.5952 15.1775 16.5996C15.3843 16.6226 15.5686 16.7117 15.6538 16.8651C15.8758 16.8246 16.088 16.7652 16.2852 16.6837C16.2542 16.6659 16.2251 16.6462 16.1982 16.6246Z" fill="white"/>
<path d="M13.7121 18.3797C11.4437 18.3159 10.169 19.9891 9.396 21.6127C10.0116 21.8646 10.6586 22.0591 11.3227 22.1972C11.2888 22.1861 11.2553 22.1742 11.2226 22.1589C11.1394 22.1351 11.0633 22.1001 10.9924 22.0577C10.9041 22.0227 10.8154 21.9889 10.7283 21.9523C10.4439 21.8327 10.2596 21.565 10.1659 21.3117C10.0639 21.036 10.1393 20.7345 10.2894 20.4857C10.3663 20.3608 10.4715 20.2604 10.6045 20.185C10.6431 20.1539 10.6878 20.1312 10.7308 20.1067C10.7932 19.9586 10.8622 19.811 10.955 19.6765C11.0573 19.5284 11.178 19.3797 11.3265 19.264C11.5726 19.0718 11.7512 18.98 12.0596 18.884C12.2288 18.8313 12.4172 18.8108 12.5958 18.816C12.7719 18.821 12.9651 18.8379 13.1338 18.8929C13.2995 18.9467 13.4803 19.0058 13.6304 19.0945C13.7837 19.1852 13.9354 19.2851 14.0678 19.3994C14.202 19.5151 14.316 19.6552 14.4263 19.7858C14.4782 19.8477 14.5251 19.9129 14.5656 19.9808C14.6527 20.1267 14.7274 20.2801 14.7857 20.4366C14.8433 20.5914 14.8608 20.7625 14.8794 20.9212C14.8978 21.076 14.8611 21.2449 14.8291 21.3916C14.7974 21.5367 14.7268 21.6821 14.635 21.8052C14.4193 22.0943 14.1048 22.3339 13.7286 22.4457C15.0983 22.4538 16.4686 22.243 17.7344 21.8061C17.0424 20.145 16.0372 18.4435 13.7121 18.3797Z" fill="#FE97C3"/>
<path d="M4.0887 10.3377C4.04025 10.2716 3.93511 10.2361 3.84897 10.3047C3.63616 10.4778 3.38756 10.5471 3.12281 10.5732C3.08227 10.6708 3.03603 10.7668 2.98315 10.8606C3.36222 10.8442 3.70108 10.7696 3.9918 10.5546C3.78152 11.0525 3.49871 11.5127 3.05694 11.8927C2.77667 12.1357 2.43464 12.3649 2.05462 12.4686C1.67111 12.5735 1.4032 12.4509 1.24992 12.235C1.11406 12.2719 0.974395 12.2966 0.83252 12.3097C0.872422 12.4081 0.92405 12.4986 0.990554 12.5746C1.14446 12.7513 1.34935 12.8284 1.5723 12.8414C1.66414 12.8295 1.75599 12.8248 1.84656 12.8284C2.25699 12.7701 2.68451 12.5546 2.95211 12.3715C3.65801 11.8852 4.13494 11.1538 4.16439 10.3632C4.16408 10.326 4.11562 10.3166 4.0887 10.3377Z" fill="#20235A"/>
<path d="M2.98306 10.8607C2.62362 11.4995 1.99024 12.0337 1.24951 12.2351C1.40311 12.4509 1.6707 12.5736 2.05421 12.4687C2.43423 12.365 2.77626 12.1361 3.05653 11.8928C3.49831 11.5128 3.78111 11.0526 3.99139 10.5547C3.70098 10.7694 3.36213 10.8443 2.98306 10.8607Z" fill="#0AB9DE"/>
</g>
<path d="M12.3864 2.2289C8.28596 2.1049 4.49585 4.17926 3.02262 7.5643C2.97638 7.67026 3.1569 7.72296 3.22182 7.6378C5.2369 4.99673 8.75276 3.41449 12.3867 3.63085C13.409 3.69188 13.4207 2.25997 12.3864 2.2289Z" fill="white"/>
<path d="M12.3602 19.5731C11.9808 19.4288 11.5682 19.7035 11.3297 19.9553C11.0618 20.2383 10.9649 20.5148 10.9794 20.8755C10.987 21.0666 11.2812 21.0954 11.3516 20.9196C11.4329 20.7162 11.6325 20.4785 11.8158 20.3373C12.0131 20.1856 12.3352 20.1243 12.4653 19.9251C12.5375 19.8153 12.5075 19.6291 12.3602 19.5731Z" fill="white"/>
</g>
</svg>
