<svg width="43" height="41" viewBox="0 0 43 41" fill="none" xmlns="http://www.w3.org/2000/svg">
<path d="M37.1867 8.33958C36.4867 9.81113 35.7967 11.2739 35.1067 12.7455C34.2567 14.5236 33.0567 16.4244 32.7367 18.3251C32.6867 18.5879 32.8267 18.7894 33.0167 18.8857C32.6467 19.0259 32.3967 19.385 32.6767 19.7967C34.8167 22.8537 37.1867 25.8055 39.5067 28.7661C34.8367 27.9253 29.6967 27.0669 25.0967 27.5223C25.0867 27.5311 25.0767 27.5311 25.0667 27.5311C24.7967 27.5136 24.5167 27.5836 24.3167 27.8289C21.6167 31.1574 18.9567 34.5035 16.2767 37.8407C15.5967 33.9078 15.4967 29.9574 14.8367 26.0333C14.9167 25.7617 14.8267 25.4639 14.4267 25.315C10.5667 23.8697 6.70668 22.4332 2.84668 20.9879C6.50668 19.3675 10.1567 17.528 13.1367 15.0754C13.3567 14.8915 13.3267 14.655 13.1667 14.4886C13.9567 10.652 14.1967 6.7016 14.6267 2.8125C17.5767 5.54538 20.6067 8.22571 23.6367 10.8885C23.8267 11.0462 24.0367 11.1075 24.2367 11.09C24.3067 11.0987 24.3867 11.0987 24.4767 11.0812C28.7267 10.109 32.8667 9.03156 37.1867 8.33958Z" fill="#FFC304"/>
<path d="M42.0465 29.4589C42.4865 30.0282 41.7665 30.6414 41.1165 30.5275C36.0665 29.634 30.7565 29.4676 25.7565 28.434C25.7365 28.4691 25.7365 28.5041 25.7065 28.5391C22.6565 32.3406 19.5765 36.1159 16.5065 39.9086C16.1565 40.3378 15.2265 40.3729 15.0965 39.7422C14.1965 35.5553 13.2865 30.9479 13.8365 26.6471C13.7465 26.6384 13.6565 26.6296 13.5665 26.6033C9.18646 24.9654 4.79646 23.3186 0.416461 21.6806C-0.163539 21.4617 -0.113539 20.6295 0.416461 20.4018C4.50646 18.6499 8.23646 16.4426 12.2065 14.5156C12.2565 10.171 13.0265 5.80889 13.4265 1.48182C13.4765 0.973788 14.1365 0.684737 14.5865 1.06138C18.0365 3.92566 21.3865 6.9038 24.7165 9.87318C29.0065 8.21769 33.6965 7.333 38.2965 6.71109C38.8365 6.63226 39.5865 7.02643 39.3165 7.60454C38.3865 9.58413 37.4465 11.5725 36.5065 13.5521C35.6965 15.2776 35.0665 17.2222 33.7965 18.72C33.7465 18.7813 33.6865 18.8339 33.6165 18.8689C33.7665 18.9127 33.9065 18.9828 34.0165 19.1142C36.8465 22.4515 39.3965 26.0077 42.0465 29.4589ZM35.1065 12.7462C35.7965 11.2747 36.4865 9.81187 37.1865 8.34031C32.8665 9.0323 28.7265 10.1097 24.4765 11.082C24.3865 11.0995 24.3065 11.0995 24.2365 11.0907C24.0365 11.1082 23.8265 11.0469 23.6365 10.8893C20.6065 8.22645 17.5765 5.54612 14.6265 2.81323C14.1965 6.70234 13.9565 10.6528 13.1665 14.4893C13.3265 14.6557 13.3565 14.8922 13.1365 15.0762C10.1565 17.5288 6.50646 19.3682 2.84646 20.9887C6.70646 22.4339 10.5665 23.8705 14.4265 25.3157C14.8265 25.4646 14.9165 25.7624 14.8365 26.034C15.4965 29.9581 15.5965 33.9086 16.2765 37.8415C18.9565 34.5042 21.6165 31.1581 24.3165 27.8296C24.5165 27.5844 24.7965 27.5143 25.0665 27.5318C25.0765 27.5318 25.0865 27.5318 25.0965 27.5231C29.6965 27.0676 34.8365 27.926 39.5065 28.7669C37.1865 25.8063 34.8165 22.8544 32.6765 19.7974C32.3965 19.3857 32.6465 19.0266 33.0165 18.8865C32.8265 18.7901 32.6865 18.5886 32.7365 18.3259C33.0565 16.4251 34.2565 14.5243 35.1065 12.7462Z" fill="#20235A"/>
<g opacity="0.63">
<path d="M15.9834 14.7998C15.8104 15.1353 15.6374 15.4708 15.4584 15.8036C15.3404 16.3721 15.1984 16.9353 15.0264 17.4933C15.3834 16.5998 15.7014 15.6985 15.9834 14.7998Z" fill="#FFC304"/>
<path d="M32.6766 19.7969C32.3966 19.3853 32.6466 19.0261 33.0166 18.886C32.8266 18.7896 32.6866 18.5882 32.7366 18.3254C33.0566 16.4246 34.2566 14.5239 35.1066 12.7457C35.7966 11.2742 36.4866 9.8114 37.1866 8.33984C32.8666 9.03182 28.7266 10.1092 24.4766 11.0815C24.3866 11.099 24.3066 11.099 24.2366 11.0902C24.0366 11.1078 23.8266 11.0465 23.6366 10.8888C23.2536 10.5524 22.8736 10.2126 22.4916 9.87621C22.2346 10.9913 21.9556 12.1011 21.6456 13.2039C20.3416 17.8436 18.4066 22.9205 14.9316 26.7273C15.4946 30.4237 15.6356 34.1393 16.2756 37.841C18.9556 34.5037 21.6156 31.1577 24.3156 27.8292C24.5156 27.5839 24.7956 27.5138 25.0656 27.5314C25.0756 27.5314 25.0856 27.5314 25.0956 27.5226C29.6956 27.0671 34.8356 27.9255 39.5056 28.7664C37.1866 25.8058 34.8166 22.8539 32.6766 19.7969Z" fill="#FFC304"/>
<path d="M42.0465 29.459C39.3965 26.0078 36.8465 22.4516 34.0165 19.1143C33.9065 18.9829 33.7665 18.9128 33.6165 18.869C33.6865 18.834 33.7465 18.7814 33.7965 18.7201C35.0665 17.2223 35.6965 15.2777 36.5065 13.5522C37.4465 11.5726 38.3865 9.58424 39.3165 7.60465C39.5865 7.02654 38.8365 6.63237 38.2965 6.7112C33.6965 7.33311 29.0065 8.21779 24.7165 9.87329C24.0955 9.31883 23.4665 8.76787 22.8435 8.21429C22.7285 8.76875 22.6195 9.32496 22.4925 9.87679C22.8745 10.2131 23.2545 10.5539 23.6375 10.8894C23.8275 11.047 24.0375 11.1083 24.2375 11.0908C24.3075 11.0996 24.3875 11.0996 24.4775 11.0821C28.7275 10.1098 32.8675 9.0324 37.1875 8.34042C36.4875 9.81197 35.7975 11.2748 35.1075 12.7463C34.2575 14.5244 33.0575 16.4252 32.7375 18.326C32.6875 18.5887 32.8275 18.7902 33.0175 18.8866C32.6475 19.0267 32.3975 19.3858 32.6775 19.7975C34.8175 22.8545 37.1875 25.8064 39.5075 28.767C34.8375 27.9261 29.6975 27.0677 25.0975 27.5232C25.0875 27.5319 25.0775 27.5319 25.0675 27.5319C24.7975 27.5144 24.5175 27.5845 24.3175 27.8297C21.6175 31.1583 18.9575 34.5043 16.2775 37.8416C15.6375 34.1399 15.4965 30.4234 14.9335 26.7278C14.5515 27.1465 14.1475 27.5468 13.7265 27.9322C13.4775 31.8564 14.2865 35.9688 15.0975 39.7423C15.2275 40.373 16.1575 40.3379 16.5075 39.9087C19.5775 36.116 22.6575 32.3407 25.7075 28.5392C25.7375 28.5042 25.7375 28.4692 25.7575 28.4341C30.7575 29.4677 36.0675 29.6341 41.1175 30.5276C41.7665 30.6415 42.4865 30.0283 42.0465 29.459Z" fill="#20235A"/>
</g>
</svg>
