<svg width="6" height="10" viewBox="0 0 6 10" fill="none" xmlns="http://www.w3.org/2000/svg">
<path d="M4.06082 1.92871C4.27482 3.50537 4.3898 5.08202 4.3728 6.67621C4.3568 7.8587 4.2988 8.26164 3.1398 8.4631C2.6298 8.55945 2.0308 8.49815 1.4628 8.45436C1.5118 6.44849 1.46282 4.29372 0.944824 2.34916C1.98082 2.07763 2.99982 1.93747 4.06082 1.92871Z" fill="#FF5694"/>
<path d="M5.09572 1.15743C5.41572 3.33848 5.9507 6.22902 5.4077 8.40132C4.9147 10.3809 2.3257 9.63638 0.903702 9.59259C0.615702 9.58383 0.344709 9.3298 0.361709 9.00571C0.451709 6.73706 0.188714 4.50346 0.172714 2.25234C-0.0902859 1.95452 -0.0823055 1.37641 0.402695 1.23626C1.76669 0.850854 3.13169 0.675673 4.54469 0.719469C4.77569 0.719469 5.05472 0.894654 5.09572 1.15743ZM4.3727 6.67574C4.3887 5.08156 4.27371 3.50491 4.06071 1.92825C3.00071 1.93701 1.98169 2.07717 0.945694 2.3487C1.46369 4.29325 1.5127 6.44803 1.4637 8.4539C2.0307 8.49769 2.6307 8.55899 3.1407 8.46264C4.2987 8.26118 4.3567 7.85824 4.3727 6.67574Z" fill="#20235A"/>
<g opacity="0.63">
<path d="M4.06073 1.92773C3.95373 1.92861 3.85072 1.94701 3.74472 1.95051C3.63672 4.13069 3.44073 6.30386 3.09473 8.46739C3.10973 8.46476 3.12572 8.46475 3.14072 8.46212C4.29972 8.26066 4.35672 7.85773 4.37372 6.67523C4.38972 5.08105 4.27373 3.5044 4.06073 1.92773Z" fill="#FF5694"/>
<path d="M5.09555 1.1571C5.05455 0.894318 4.77453 0.719133 4.54453 0.719133C4.29353 0.71125 4.04652 0.719123 3.79852 0.725255C3.78352 1.13431 3.76353 1.54251 3.74353 1.95069C3.84953 1.94718 3.95254 1.92879 4.05954 1.92791C4.27354 3.50458 4.38855 5.08123 4.37155 6.67541C4.35555 7.85791 4.29755 8.26084 3.13855 8.4623C3.12355 8.46493 3.10753 8.46494 3.09253 8.46757C3.02353 8.89765 2.95554 9.3286 2.87354 9.7578C4.00454 9.8051 5.10352 9.62027 5.40652 8.40098C5.95052 6.22869 5.41655 3.33815 5.09555 1.1571Z" fill="#20235A"/>
</g>
</svg>
