<svg width="10" height="8" viewBox="0 0 10 8" fill="none" xmlns="http://www.w3.org/2000/svg">
<path d="M7.85931 3.11597C8.45931 4.67512 7.12931 6.02406 5.44931 6.39195C1.61931 7.22408 0.559308 2.92329 2.94931 1.1364C3.00931 1.16268 3.06931 1.18894 3.13931 1.1977C4.05931 1.27653 4.78932 0.934934 5.73932 1.26779C6.66932 1.60064 7.51931 2.26633 7.85931 3.11597Z" fill="#FF5694"/>
<path d="M8.8092 2.45941C9.9392 4.53535 8.4092 6.69015 6.0592 7.35586C3.7192 8.02156 1.09919 7.023 0.549189 4.83319C0.0691895 2.94119 1.23919 0.979117 3.26919 0.313415C4.07919 -0.107029 5.27919 0.0418601 6.10919 0.322156C7.26919 0.698803 8.2792 1.47838 8.8092 2.45941ZM5.44918 6.39233C7.12918 6.02444 8.45919 4.6755 7.85919 3.11636C7.51919 2.26671 6.66919 1.60102 5.73919 1.26817C4.78919 0.935318 4.05919 1.27691 3.13919 1.19808C3.06919 1.18932 3.00918 1.16306 2.94918 1.13679C0.559183 2.92367 1.61918 7.22446 5.44918 6.39233Z" fill="#20235A"/>
<g opacity="0.63">
<path d="M7.85921 3.11703C7.51921 2.26738 6.66921 1.60169 5.73921 1.26884C5.56321 1.20752 5.39723 1.17424 5.23323 1.15234C5.16223 1.40198 5.10123 1.65336 5.02623 1.90212C4.94723 3.10302 5.07321 4.30916 5.55821 5.52582C5.67121 5.80787 5.71223 6.07065 5.70723 6.31591C7.25923 5.87182 8.42821 4.59383 7.85921 3.11703Z" fill="#FF5694"/>
<path d="M8.80899 2.45955C8.27899 1.47852 7.26898 0.698942 6.10898 0.322295C5.92398 0.260104 5.71999 0.205805 5.50699 0.161133C5.41899 0.492232 5.32798 0.821584 5.23398 1.15093C5.39698 1.17283 5.56399 1.20611 5.73999 1.26743C6.66999 1.60028 7.51999 2.26599 7.85999 3.11564C8.42799 4.59245 7.25998 5.8704 5.70798 6.3145C5.69698 6.80326 5.47498 7.21409 5.12598 7.52854C5.43898 7.49789 5.752 7.4427 6.06 7.35511C8.409 6.69028 9.93899 4.53549 8.80899 2.45955Z" fill="#20235A"/>
</g>
</svg>
