<svg width="43" height="40" viewBox="0 0 43 40" fill="none" xmlns="http://www.w3.org/2000/svg">
<g opacity="0.1">
<path d="M37.1867 7.96751C36.4867 9.43906 35.7967 10.9019 35.1067 12.3734C34.2567 14.1515 33.0567 16.0523 32.7367 17.9531C32.6867 18.2158 32.8267 18.4173 33.0167 18.5136C32.6467 18.6538 32.3967 19.0129 32.6767 19.4246C34.8167 22.4816 37.1867 25.4335 39.5067 28.3941C34.8367 27.5532 29.6967 26.6948 25.0967 27.1503C25.0867 27.159 25.0767 27.159 25.0667 27.159C24.7967 27.1415 24.5167 27.2116 24.3167 27.4568C21.6167 30.7853 18.9567 34.1314 16.2767 37.4687C15.5967 33.5358 15.4967 29.5853 14.8367 25.6612C14.9167 25.3896 14.8267 25.0918 14.4267 24.9429C10.5667 23.4977 6.70668 22.0611 2.84668 20.6159C6.50668 18.9954 10.1567 17.156 13.1367 14.7034C13.3567 14.5194 13.3267 14.2829 13.1667 14.1165C13.9567 10.28 14.1967 6.32953 14.6267 2.44043C17.5767 5.17331 20.6067 7.85364 23.6367 10.5165C23.8267 10.6741 24.0367 10.7354 24.2367 10.7179C24.3067 10.7267 24.3867 10.7267 24.4767 10.7092C28.7267 9.73688 32.8667 8.65949 37.1867 7.96751Z" fill="#B5B5B5"/>
<path d="M42.0465 29.0868C42.4865 29.6561 41.7665 30.2693 41.1165 30.1554C36.0665 29.262 30.7565 29.0955 25.7565 28.062C25.7365 28.097 25.7365 28.132 25.7065 28.1671C22.6565 31.9686 19.5765 35.7438 16.5065 39.5366C16.1565 39.9658 15.2265 40.0008 15.0965 39.3701C14.1965 35.1832 13.2865 30.5759 13.8365 26.2751C13.7465 26.2663 13.6565 26.2576 13.5665 26.2313C9.18646 24.5933 4.79646 22.9465 0.416461 21.3086C-0.163539 21.0896 -0.113539 20.2575 0.416461 20.0297C4.50646 18.2779 8.23646 16.0705 12.2065 14.1435C12.2565 9.79893 13.0265 5.43682 13.4265 1.10975C13.4765 0.601718 14.1365 0.312667 14.5865 0.689314C18.0365 3.55359 21.3865 6.53173 24.7165 9.50111C29.0065 7.84562 33.6965 6.96093 38.2965 6.33902C38.8365 6.26019 39.5865 6.65436 39.3165 7.23247C38.3865 9.21206 37.4465 11.2004 36.5065 13.18C35.6965 14.9056 35.0665 16.8501 33.7965 18.348C33.7465 18.4093 33.6865 18.4618 33.6165 18.4969C33.7665 18.5407 33.9065 18.6107 34.0165 18.7421C36.8465 22.0794 39.3965 25.6356 42.0465 29.0868ZM35.1065 12.3741C35.7965 10.9026 36.4865 9.4398 37.1865 7.96824C32.8665 8.66022 28.7265 9.73762 24.4765 10.7099C24.3865 10.7274 24.3065 10.7274 24.2365 10.7186C24.0365 10.7362 23.8265 10.6749 23.6365 10.5172C20.6065 7.85438 17.5765 5.17405 14.6265 2.44116C14.1965 6.33027 13.9565 10.2807 13.1665 14.1172C13.3265 14.2837 13.3565 14.5202 13.1365 14.7041C10.1565 17.1567 6.50646 18.9961 2.84646 20.6166C6.70646 22.0619 10.5665 23.4984 14.4265 24.9437C14.8265 25.0926 14.9165 25.3904 14.8365 25.6619C15.4965 29.5861 15.5965 33.5365 16.2765 37.4694C18.9565 34.1321 21.6165 30.7861 24.3165 27.4576C24.5165 27.2123 24.7965 27.1422 25.0665 27.1598C25.0765 27.1598 25.0865 27.1598 25.0965 27.151C29.6965 26.6955 34.8365 27.5539 39.5065 28.3948C37.1865 25.4342 34.8165 22.4823 32.6765 19.4253C32.3965 19.0137 32.6465 18.6545 33.0165 18.5144C32.8265 18.418 32.6865 18.2166 32.7365 17.9538C33.0565 16.053 34.2565 14.1523 35.1065 12.3741Z" fill="#20235A"/>
<g opacity="0.63">
<path d="M15.9834 14.4277C15.8104 14.7632 15.6374 15.0987 15.4584 15.4315C15.3404 16 15.1984 16.5632 15.0264 17.1212C15.3834 16.2278 15.7014 15.3264 15.9834 14.4277Z" fill="#B5B5B5"/>
<path d="M32.6766 19.4249C32.3966 19.0132 32.6466 18.6541 33.0166 18.5139C32.8266 18.4176 32.6866 18.2161 32.7366 17.9533C33.0566 16.0526 34.2566 14.1518 35.1066 12.3737C35.7966 10.9021 36.4866 9.43933 37.1866 7.96777C32.8666 8.65975 28.7266 9.73715 24.4766 10.7094C24.3866 10.7269 24.3066 10.7269 24.2366 10.7182C24.0366 10.7357 23.8266 10.6744 23.6366 10.5167C23.2536 10.1804 22.8736 9.8405 22.4916 9.50414C22.2346 10.6192 21.9556 11.729 21.6456 12.8318C20.3416 17.4716 18.4066 22.5484 14.9316 26.3552C15.4946 30.0516 15.6356 33.7673 16.2756 37.4689C18.9556 34.1316 21.6156 30.7856 24.3156 27.4571C24.5156 27.2118 24.7956 27.1418 25.0656 27.1593C25.0756 27.1593 25.0856 27.1593 25.0956 27.1505C29.6956 26.695 34.8356 27.5534 39.5056 28.3943C37.1866 25.4337 34.8166 22.4818 32.6766 19.4249Z" fill="#B5B5B5"/>
<path d="M42.0465 29.0869C39.3965 25.6357 36.8465 22.0795 34.0165 18.7422C33.9065 18.6108 33.7665 18.5408 33.6165 18.497C33.6865 18.4619 33.7465 18.4094 33.7965 18.3481C35.0665 16.8502 35.6965 14.9057 36.5065 13.1801C37.4465 11.2005 38.3865 9.21217 39.3165 7.23258C39.5865 6.65447 38.8365 6.2603 38.2965 6.33913C33.6965 6.96104 29.0065 7.84572 24.7165 9.50122C24.0955 8.94676 23.4665 8.3958 22.8435 7.84222C22.7285 8.39668 22.6195 8.95289 22.4925 9.50472C22.8745 9.84107 23.2545 10.1818 23.6375 10.5173C23.8275 10.675 24.0375 10.7363 24.2375 10.7188C24.3075 10.7275 24.3875 10.7275 24.4775 10.71C28.7275 9.73772 32.8675 8.66033 37.1875 7.96835C36.4875 9.4399 35.7975 10.9027 35.1075 12.3742C34.2575 14.1524 33.0575 16.0531 32.7375 17.9539C32.6875 18.2167 32.8275 18.4181 33.0175 18.5145C32.6475 18.6546 32.3975 19.0138 32.6775 19.4254C34.8175 22.4824 37.1875 25.4343 39.5075 28.3949C34.8375 27.554 29.6975 26.6956 25.0975 27.1511C25.0875 27.1599 25.0775 27.1599 25.0675 27.1599C24.7975 27.1423 24.5175 27.2124 24.3175 27.4577C21.6175 30.7862 18.9575 34.1322 16.2775 37.4695C15.6375 33.7678 15.4965 30.0513 14.9335 26.3558C14.5515 26.7745 14.1475 27.1747 13.7265 27.5602C13.4775 31.4843 14.2865 35.5968 15.0975 39.3702C15.2275 40.0009 16.1575 39.9659 16.5075 39.5367C19.5775 35.7439 22.6575 31.9687 25.7075 28.1672C25.7375 28.1321 25.7375 28.0971 25.7575 28.0621C30.7575 29.0956 36.0675 29.2621 41.1175 30.1555C41.7665 30.2694 42.4865 29.6562 42.0465 29.0869Z" fill="#20235A"/>
</g>
</g>
</svg>
