<svg width="43" height="40" viewBox="0 0 43 40" fill="none" xmlns="http://www.w3.org/2000/svg">
<path d="M39.9552 20.5718C37.9752 21.6404 35.9552 22.6653 33.8752 23.5937C31.6752 24.5748 29.1452 25.2667 27.2552 26.677C27.1752 26.7295 27.1552 26.8084 27.1652 26.8785C26.9552 26.9923 26.7852 27.1675 26.7552 27.4215C26.3752 30.6449 26.0452 33.8771 25.6952 37.1005C22.7452 34.5077 19.9352 31.6522 16.7152 29.3485C16.7152 28.9106 16.3052 28.4288 15.6552 28.5339C11.3052 29.2522 6.94521 29.9705 2.59521 30.6975C5.01521 27.2638 8.0252 23.5762 9.2252 19.836C9.2652 19.7046 9.21521 19.582 9.12521 19.4944C7.91521 15.8505 5.27521 12.3031 3.10521 8.922C7.63521 9.36872 12.1052 10.0432 16.5452 10.9804C16.8952 11.0593 17.1752 10.9366 17.3552 10.7351C17.4852 10.7702 17.6252 10.7527 17.7652 10.6739C21.3052 8.65923 24.3652 6.00517 27.1352 3.21973C27.4352 4.91026 27.7352 6.59203 28.0252 8.28257C28.3752 10.2622 28.5252 12.452 29.2652 14.3615C29.0352 14.6943 29.0552 15.1411 29.5552 15.3776C33.0652 17.0418 36.5352 18.7753 39.9552 20.5718Z" fill="#0AB9DE"/>
<path d="M42.0651 19.9148C42.6351 20.2126 42.6151 20.9133 42.0651 21.2112C39.5451 22.6126 36.955 23.909 34.275 25.0564C32.405 25.8535 30.385 26.8258 28.295 27.1149C28.3351 27.2025 28.3551 27.3076 28.3451 27.4215C27.9651 31.1617 27.5351 34.8931 27.1251 38.6245C27.0651 39.2202 26.2951 39.5705 25.7651 39.1238C22.3951 36.2946 18.535 33.404 15.825 30.023C10.915 30.8463 6.00505 31.6697 1.09505 32.4755C0.385053 32.5894 -0.284948 31.9763 0.125052 31.3719C2.57505 27.6842 4.83504 22.9805 8.19504 19.8184C5.14504 16.5512 3.17505 12.1191 0.925055 8.42265C0.665055 7.98469 0.985046 7.2927 1.63505 7.34525C6.81505 7.78322 11.915 8.52777 16.975 9.60515C17.085 9.63143 17.1751 9.66647 17.2551 9.71903C20.6351 6.86351 24.0651 4.15689 27.0951 0.994801C27.4751 0.591876 28.4151 0.784575 28.5051 1.31889C29.2251 5.37442 30.7951 10.0256 30.6251 14.1599C34.5051 15.981 38.3151 17.8993 42.0651 19.9148ZM33.8751 23.5928C35.9551 22.6643 37.9751 21.6395 39.9551 20.5708C36.5351 18.7752 33.065 17.0409 29.555 15.3766C29.055 15.1401 29.0351 14.6934 29.2651 14.3605C28.5251 12.451 28.375 10.2612 28.025 8.28162C27.735 6.59108 27.435 4.90931 27.135 3.21878C24.365 6.00422 21.305 8.65827 17.7651 10.6729C17.6251 10.7517 17.485 10.7693 17.355 10.7342C17.175 10.9357 16.8951 11.0583 16.545 10.9795C12.105 10.0422 7.63505 9.36777 3.10505 8.92105C5.27505 12.3021 7.91505 15.8496 9.12505 19.4935C9.21505 19.5811 9.26504 19.7037 9.22504 19.8351C8.02504 23.5753 5.01505 27.2629 2.59505 30.6965C6.94505 29.9695 11.305 29.2512 15.6551 28.533C16.305 28.4279 16.715 28.9097 16.715 29.3476C19.935 31.6513 22.745 34.5068 25.695 37.0996C26.045 33.8762 26.3751 30.644 26.7551 27.4206C26.7851 27.1666 26.955 26.9914 27.165 26.8775C27.155 26.8074 27.1751 26.7286 27.2551 26.676C29.1451 25.2658 31.6751 24.5747 33.8751 23.5928Z" fill="#20235A"/>
<g opacity="0.63">
<path d="M29.5551 15.378C29.0551 15.1415 29.0351 14.6947 29.2651 14.3619C28.6181 12.6924 28.4171 10.8161 28.1441 9.0459C26.9441 12.4392 25.4651 15.7336 23.3021 18.7713C21.0191 21.9763 18.0341 25.0736 14.2641 26.9796C11.8731 28.1875 9.05607 28.8471 6.64307 30.0278C9.64807 29.5285 12.6531 29.0301 15.6551 28.5352C16.3051 28.4301 16.7151 28.9119 16.7151 29.3498C19.9351 31.6535 22.7451 34.509 25.6951 37.1018C26.0451 33.8784 26.3751 30.6462 26.7551 27.4228C26.7851 27.1688 26.9551 26.9936 27.1651 26.8797C27.1551 26.8097 27.1751 26.7308 27.2551 26.6783C29.1451 25.268 31.6751 24.5761 33.8751 23.595C35.9551 22.6665 37.9751 21.6417 39.9551 20.5731C36.5351 18.7757 33.0651 17.0422 29.5551 15.378Z" fill="#0AB9DE"/>
<path d="M42.065 19.9153C38.315 17.9007 34.505 15.9824 30.625 14.1605C30.741 11.3339 30.045 8.26905 29.362 5.31543C28.982 6.56713 28.58 7.81269 28.144 9.04599C28.417 10.8162 28.618 12.6925 29.265 14.362C29.035 14.6948 29.0549 15.1416 29.5549 15.3781C33.0649 17.0423 36.535 18.7766 39.955 20.5723C37.975 21.6409 35.955 22.6658 33.875 23.5942C31.675 24.5753 29.145 25.2672 27.255 26.6775C27.175 26.73 27.1549 26.8089 27.1649 26.879C26.9549 26.9928 26.785 27.168 26.755 27.422C26.375 30.6454 26.0449 33.8776 25.6949 37.101C22.7449 34.5082 19.9349 31.6527 16.715 29.349C16.715 28.9111 16.305 28.4293 15.655 28.5344C12.653 29.0302 9.64694 29.5286 6.64294 30.027C6.26494 30.2118 5.89495 30.4072 5.54095 30.6226C5.02195 30.9371 4.50996 31.0448 4.03896 31.0089C3.47896 31.446 2.90395 31.8726 2.29395 32.2764C6.80395 31.5336 11.315 30.7803 15.825 30.0235C18.535 33.4046 22.395 36.2951 25.765 39.1244C26.295 39.5711 27.065 39.2207 27.125 38.6251C27.535 34.8937 27.965 31.1622 28.345 27.422C28.355 27.3081 28.335 27.203 28.295 27.1154C30.385 26.8264 32.4049 25.8541 34.2749 25.057C36.9549 23.9096 39.545 22.6132 42.065 21.2117C42.615 20.913 42.635 20.2132 42.065 19.9153Z" fill="#20235A"/>
</g>
</svg>
