<svg width="28" height="25" viewBox="0 0 28 25" fill="none" xmlns="http://www.w3.org/2000/svg">
<g opacity="0.12">
<path d="M22.9405 4.05966C26.6207 7.09685 28.0651 12.0009 26.583 16.2275C24.864 21.1291 19.1548 24.5865 13.3515 24.5252C13.3002 24.5252 13.2625 24.5441 13.2356 24.5724C7.362 24.2137 2.30514 20.7635 0.793596 15.7108C-0.602045 11.045 1.51564 5.3623 6.14972 2.61777C8.53945 1.20167 11.63 0.734541 14.4697 0.694319C17.649 0.649382 20.672 2.18808 22.9405 4.05966ZM26.3407 12.6947C26.8661 12.3005 26.7961 11.4983 26.4161 11.045C25.8179 10.3299 24.5625 10.6933 23.7271 10.4292C23.6248 10.3962 23.552 10.4553 23.533 10.5282C23.5032 10.5329 23.4763 10.5543 23.4738 10.5826C23.3902 11.293 23.8133 12.0198 24.433 12.4658C24.9315 12.822 25.7748 13.1193 26.3407 12.6947ZM25.5405 14.9108C25.7156 14.5144 25.3736 13.9313 25.0958 13.6198C24.7643 13.2445 24.2471 12.9166 23.7031 12.8506C23.6169 12.8411 23.5469 12.9426 23.6385 12.9851C23.9295 13.1266 24.1882 13.2705 24.4118 13.4572C17.6385 15.8173 10.0782 15.0974 3.15957 13.5845C3.348 13.4145 3.56366 13.2611 3.78471 13.103C3.83601 13.0653 3.79009 12.9945 3.73087 12.992C2.91191 12.9707 2.31116 13.6836 2.13319 14.3113C2.1088 14.4009 2.14934 14.5002 2.24371 14.5496C2.31116 14.5826 2.35423 14.5804 2.4296 14.571C2.50782 14.559 2.57781 14.4883 2.59649 14.4223C2.65571 14.2051 2.76086 14.0234 2.89291 13.8583C3.92753 18.564 7.54315 22.6043 13.3091 22.8284C15.7634 22.9227 18.4685 22.328 20.387 20.938C22.8091 19.1821 23.8975 16.3879 24.7598 13.837C24.7624 13.8395 24.7624 13.8417 24.7652 13.8442C24.8837 14.0164 24.9834 14.1959 25.048 14.3893C25.1101 14.5804 25.1073 14.7715 25.2095 14.9485C25.2846 15.083 25.4866 15.0264 25.5405 14.9108ZM23.5412 9.75179C23.843 7.88493 22.7115 5.40475 20.3082 5.20641C17.8266 5.00336 15.9867 6.95982 15.6389 8.94707C15.6253 9.02502 15.7387 9.05081 15.771 8.98008C16.5067 7.41058 17.5223 5.66661 19.7343 5.55815C22.3774 5.42833 23.0887 7.87799 23.1454 9.70685C23.1533 9.89326 23.5089 9.95706 23.5412 9.75179ZM23.102 5.2347C23.1479 5.27964 23.2366 5.23221 23.2179 5.17562C22.9674 4.42277 22.1779 3.90349 21.3536 3.68407C21.0571 3.60612 20.9279 4.01694 21.2269 4.0899C22.0082 4.28602 22.5687 4.71791 23.102 5.2347ZM11.6436 9.12627C11.6598 9.16649 11.7218 9.14985 11.7165 9.10962C11.4229 7.29491 10.1565 4.8924 7.6049 5.25828C5.27155 5.59116 4.49029 7.8472 4.59004 9.63611C4.59828 9.80366 4.88646 9.80616 4.889 9.63611C4.91877 8.02889 5.51128 5.9734 7.67204 5.68075C10.0618 5.35509 10.9862 7.56398 11.6436 9.12627ZM7.01206 3.8874C7.17104 3.83303 7.18181 3.6444 7.01206 3.59475C6.55128 3.45328 5.89669 3.74815 5.53567 3.98171C5.12619 4.24829 4.81362 4.64247 4.72463 5.0863C4.71671 5.12403 4.77309 5.1476 4.79747 5.11238C5.05621 4.7537 5.35262 4.44913 5.76748 4.22277C5.94799 4.12596 6.14181 4.04801 6.34417 3.99614C6.56491 3.94149 6.79925 3.95813 7.01206 3.8874ZM4.1641 10.3748C4.1641 10.3371 4.11564 10.3277 4.08873 10.3487C4.04027 10.2827 3.93514 10.2472 3.849 10.3157C3.12157 10.908 1.97642 10.2991 1.19801 10.8303C0.678008 11.182 0.591869 12.1307 0.990578 12.5862C1.47828 13.1454 2.47236 12.7113 2.95214 12.3832C3.65772 11.8969 4.13465 11.1654 4.1641 10.3748Z" fill="#A6A6A4"/>
<path d="M24.3116 4.77729C27.6742 8.32683 28.5929 13.5965 26.3349 17.7948C24.0016 22.1277 18.8529 24.8251 13.4321 24.7946C13.4214 24.7968 13.4131 24.7993 13.3998 24.7993C6.66674 24.5868 0.992654 20.1125 0.11448 14.2456C-0.621184 9.3346 2.22679 3.58783 7.56138 1.50404C10.1506 0.491556 13.7016 -0.0110839 16.5091 0.439682C19.4299 0.906813 22.4447 2.80668 24.3116 4.77729ZM26.5829 16.2278C28.0647 12.0012 26.6206 7.09714 22.9403 4.05995C20.6719 2.18837 17.6488 0.649671 14.4696 0.694608C11.6299 0.734831 8.53963 1.20196 6.14959 2.61806C1.51551 5.36259 -0.602179 11.0456 0.793462 15.7111C2.30501 20.7638 7.36219 24.214 13.2355 24.5727C13.2624 24.5444 13.3001 24.5255 13.3514 24.5255C19.155 24.5868 24.8639 21.1294 26.5829 16.2278Z" fill="#20235A"/>
<path d="M26.4159 11.0451C26.7959 11.4981 26.8659 12.3006 26.3405 12.6948C25.7746 13.1195 24.9315 12.8221 24.4331 12.466C23.8133 12.0199 23.3906 11.2931 23.4738 10.5827C23.4767 10.5544 23.5036 10.5331 23.5331 10.5284C23.5521 10.4551 23.6246 10.3963 23.7272 10.4293C24.5623 10.6934 25.8176 10.33 26.4159 11.0451ZM26.0843 12.4493C26.4643 12.178 26.4589 11.6823 26.2243 11.3164C25.9925 10.9553 25.5345 10.8893 25.1035 10.8798C24.581 10.8704 24.1363 10.8679 23.6379 10.7098C23.6353 10.7076 23.6353 10.7076 23.63 10.7051C23.7351 11.1486 23.8941 11.5522 24.2307 11.9134C24.643 12.355 25.4781 12.8812 26.0843 12.4493Z" fill="#20235A"/>
<path d="M26.2247 11.3162C26.459 11.6821 26.4644 12.1775 26.0847 12.4491C25.4786 12.881 24.6431 12.3547 24.2311 11.9134C23.8945 11.5522 23.7355 11.1486 23.6304 10.7051C23.6358 10.7076 23.6358 10.7076 23.6383 10.7098C24.1368 10.8679 24.5814 10.8704 25.1039 10.8798C25.5349 10.8893 25.9929 10.9553 26.2247 11.3162Z" fill="#0AB9DE"/>
<path d="M25.0953 13.6204C25.3727 13.9319 25.7151 14.5147 25.5399 14.9114C25.4861 15.0271 25.284 15.0837 25.2087 14.9491C25.1064 14.7722 25.1089 14.581 25.0472 14.3899C24.9826 14.1963 24.8828 14.0171 24.7644 13.8448C24.7615 13.8423 24.7615 13.8401 24.759 13.8376C23.897 16.3888 22.8082 19.183 20.3862 20.9386C18.468 22.3286 15.7628 22.9234 13.3082 22.8291C7.5426 22.6049 3.92666 18.5647 2.89204 13.859C2.75998 14.024 2.65484 14.206 2.59562 14.4229C2.57662 14.4889 2.50664 14.5597 2.42874 14.5716C2.35336 14.581 2.31029 14.5835 2.24284 14.5502C2.14847 14.5006 2.10825 14.4016 2.13231 14.312C2.31029 13.6842 2.91104 12.9716 3.73 12.9927C3.78922 12.9949 3.83514 13.0659 3.78384 13.1036C3.56279 13.2617 3.34744 13.4151 3.1587 13.5852C10.0777 15.0978 17.6376 15.8176 24.4109 13.4579C24.1874 13.2714 23.9286 13.1275 23.6376 12.9857C23.5461 12.9433 23.6161 12.8418 23.7022 12.8512C24.2466 12.9172 24.764 13.2451 25.0953 13.6204ZM20.5933 20.2967C22.7271 18.6329 23.5974 16.1408 24.4892 13.8423C22.3417 14.6115 20.0894 15.067 17.7991 15.2654C17.1471 17.1344 15.6032 17.3161 13.5071 17.2476C11.3058 17.1769 9.81039 16.9383 9.2204 14.9821C8.97244 14.9514 8.72194 14.9183 8.47397 14.8831C6.66886 14.6329 4.74783 14.3993 3.03962 13.8024C4.0527 15.9641 4.73421 18.1777 6.64447 19.9217C7.39882 20.6085 8.28523 21.1583 9.24986 21.5689C9.51936 19.7824 11.4458 18.1469 13.5042 18.0831C16.0745 18.0052 17.3247 19.8343 18.0978 21.6893C19.001 21.3422 19.8468 20.8798 20.5933 20.2967ZM16.7591 16.424C17.1122 16.1386 17.3168 15.69 17.5081 15.2912C16.4437 15.3738 15.3743 15.3996 14.302 15.3785C12.6637 15.3477 11.0284 15.2085 9.40377 15.0057C9.83225 15.9167 10.3146 16.5444 11.5376 16.7994C12.2464 16.948 13.033 16.955 13.7604 16.9647C14.7143 16.9738 15.9994 17.0307 16.7591 16.424ZM17.7345 21.8188C17.0423 20.1575 16.0371 18.4559 13.712 18.3921C11.4436 18.3283 10.1689 20.0016 9.39585 21.6252C10.6135 22.1231 11.9528 22.3991 13.3079 22.4513C14.8169 22.5103 16.3389 22.3004 17.7345 21.8188Z" fill="#20235A"/>
<path d="M20.3078 5.2069C22.7112 5.40523 23.8427 7.88542 23.5409 9.75228C23.5086 9.95755 23.153 9.89375 23.1447 9.70734C23.088 7.87848 22.3768 5.42881 19.7337 5.55863C17.5216 5.66709 16.506 7.41107 15.7703 8.98057C15.738 9.0513 15.625 9.02551 15.6383 8.94756C15.9863 6.96031 17.8266 5.00412 20.3078 5.2069Z" fill="#20235A"/>
<path d="M24.4894 13.8417C23.5976 16.1402 22.7274 18.6326 20.5935 20.2961C19.8471 20.8789 19.0012 21.3416 18.0987 21.6886C17.3253 19.8337 16.0754 18.0048 13.5051 18.0825C11.4467 18.1463 9.52026 19.7815 9.25076 21.5682C8.28613 21.1577 7.39973 20.6076 6.64538 19.9211C4.73512 18.1771 4.05361 15.9635 3.04053 13.8018C4.74874 14.3987 6.66976 14.6326 8.47488 14.8825C8.72285 14.918 8.97334 14.951 9.22131 14.9815C9.8113 16.938 11.3067 17.1763 13.508 17.247C15.6041 17.3155 17.148 17.1338 17.8 15.2647C20.0897 15.0664 22.342 14.6109 24.4894 13.8417Z" fill="#3B41A5"/>
<path d="M23.2176 5.17685C23.2366 5.23344 23.1476 5.28059 23.1017 5.23593C22.5684 4.71915 22.0078 4.28724 21.2266 4.0914C20.9276 4.01817 21.0568 3.60763 21.3532 3.68558C22.1776 3.90472 22.9671 4.424 23.2176 5.17685Z" fill="#20235A"/>
<path d="M17.5086 15.2906C17.3174 15.6895 17.1125 16.1378 16.7597 16.4235C15.9999 17.0299 14.7148 16.9733 13.761 16.9638C13.0335 16.9544 12.2469 16.9472 11.5381 16.7985C10.3151 16.5436 9.83277 15.9158 9.4043 15.0049C11.0289 15.2079 12.6643 15.3472 14.3025 15.3777C15.3748 15.3993 16.4442 15.3733 17.5086 15.2906Z" fill="white"/>
<path d="M13.7121 18.3924C16.0372 18.4562 17.0421 20.1577 17.7347 21.819C16.339 22.3006 14.8167 22.5106 13.308 22.4515C11.9529 22.3996 10.6137 22.1233 9.396 21.6254C10.1693 20.0021 11.4437 18.3289 13.7121 18.3924Z" fill="#FE97C3"/>
<path d="M11.716 9.11032C11.7214 9.15054 11.6593 9.16691 11.6432 9.12696C10.9857 7.56468 10.0616 5.35579 7.67189 5.68145C5.51114 5.9741 4.9183 8.02959 4.88885 9.63682C4.88632 9.80686 4.59781 9.80436 4.5899 9.63682C4.49014 7.8479 5.2714 5.59185 7.60476 5.25898C10.156 4.8931 11.4224 7.29561 11.716 9.11032Z" fill="#20235A"/>
<path d="M7.01165 3.59463C7.18139 3.64428 7.17062 3.83291 7.01165 3.88728C6.79883 3.95801 6.56449 3.94165 6.34344 3.99574C6.1414 4.04762 5.94726 4.12556 5.76675 4.22237C5.35189 4.449 5.05547 4.7533 4.79674 5.11197C4.77236 5.14748 4.71598 5.1239 4.7239 5.0859C4.81289 4.64207 5.12546 4.24817 5.53494 3.98132C5.89628 3.74775 6.55087 3.45288 7.01165 3.59463Z" fill="#20235A"/>
<path d="M4.08876 10.3493C4.11568 10.3279 4.16413 10.3376 4.16413 10.3753C4.13436 11.1659 3.65775 11.8974 2.95185 12.3837C2.47239 12.7118 1.47799 13.146 0.990293 12.5867C0.591583 12.1312 0.677722 11.1826 1.19772 10.8308C1.97646 10.2999 3.12128 10.9088 3.84871 10.3163C3.93517 10.248 4.04031 10.2832 4.08876 10.3493ZM3.05699 11.9046C3.49877 11.5246 3.78157 11.0644 3.99185 10.5665C3.68213 10.7953 3.31825 10.8663 2.90878 10.8758C2.26495 10.8899 1.30571 10.739 1.1252 11.4846C0.993141 12.0203 1.30286 12.6858 2.05468 12.4805C2.43438 12.3765 2.77673 12.1476 3.05699 11.9046Z" fill="#20235A"/>
<path d="M3.99196 10.5664C3.78168 11.0643 3.49888 11.5245 3.0571 11.9045C2.77683 12.1475 2.43481 12.3767 2.05479 12.4804C1.30297 12.6857 0.99325 12.0202 1.12531 11.4846C1.30582 10.7389 2.26506 10.8898 2.90889 10.8757C3.31836 10.8663 3.68193 10.7953 3.99196 10.5664Z" fill="#0AB9DE"/>
<g opacity="0.63">
<path d="M0.99023 12.5865C0.923726 12.5105 0.871792 12.42 0.832206 12.3216C0.684629 12.3352 0.534513 12.3365 0.382187 12.3213C0.381237 12.3451 0.378391 12.3693 0.377441 12.3931C0.51235 12.6486 0.652324 12.901 0.794833 13.1515C1.02126 12.992 1.29552 12.8894 1.57167 12.8536C1.34904 12.8403 1.14446 12.7629 0.99023 12.5865Z" fill="#A6A6A4"/>
<path d="M3.22679 10.2688C3.19892 10.3753 3.16631 10.4813 3.12324 10.585C3.38767 10.5586 3.63659 10.4896 3.8494 10.3165C3.93554 10.248 4.04069 10.2835 4.08914 10.3495C4.11606 10.3284 4.16451 10.3378 4.16451 10.3756C4.13474 11.1661 3.65813 11.8976 2.95223 12.3839C2.68463 12.567 2.25711 12.7825 1.84668 12.8408C2.17825 12.8535 2.48828 12.9723 2.69191 13.2186C2.72643 12.9956 2.84297 12.7711 3.06592 12.5661C3.77308 11.917 4.61263 10.8205 4.31874 9.87598C4.0049 10.0599 3.63659 10.1933 3.22679 10.2688Z" fill="#A6A6A4"/>
<path d="M22.9402 4.05996C21.7682 3.09297 20.3938 2.21723 18.9015 1.60059C19.6372 2.52015 20.2497 3.51183 20.8175 4.53597C20.9822 4.83278 21.1364 5.13514 21.2852 5.43972C23.0105 6.12932 23.7985 8.16123 23.541 9.75236C23.5087 9.95764 23.1531 9.89384 23.1448 9.70743C23.1043 8.3973 22.7274 6.76899 21.5455 5.99811C22.0586 7.14902 22.4443 8.34543 22.6337 9.56762C22.8747 11.1241 22.7961 12.8081 21.8768 14.1926C22.7315 13.9912 23.5774 13.7477 24.4112 13.4572C24.1877 13.2708 23.9289 13.1269 23.6379 12.9851C23.5464 12.9427 23.6164 12.8411 23.7025 12.8506C24.2469 12.9166 24.764 13.2448 25.0953 13.6198C25.3727 13.9313 25.715 14.5141 25.5399 14.9108C25.4861 15.0265 25.284 15.083 25.2083 14.9485C25.1061 14.7715 25.1086 14.5804 25.0468 14.3893C24.9822 14.1957 24.8825 14.0165 24.764 13.8442C24.7612 13.8417 24.7612 13.8395 24.7586 13.837C23.8966 16.3882 22.8079 19.1824 20.3858 20.9383C18.4677 22.3283 15.7625 22.923 13.3079 22.8287C12.5386 22.7988 11.809 22.6997 11.1174 22.5413C11.244 22.8162 11.0768 23.1799 10.6493 23.1788C9.70208 23.1763 8.75296 23.1025 7.81905 22.9572C7.67021 23.0179 7.50775 23.0504 7.33643 23.0465C9.11272 23.9086 11.1192 24.4437 13.235 24.573C13.262 24.5447 13.2996 24.5258 13.3509 24.5258C19.1542 24.5871 24.8635 21.13 26.5825 16.2281C28.0649 12.0012 26.6205 7.09715 22.9402 4.05996ZM23.1021 5.235C22.5684 4.71822 22.0082 4.28632 21.227 4.09048C20.928 4.01725 21.0572 3.6067 21.3536 3.68465C22.178 3.90407 22.9675 4.42335 23.218 5.1762C23.2367 5.23279 23.1477 5.27994 23.1021 5.235ZM26.3405 12.695C25.7746 13.1197 24.9316 12.8223 24.4331 12.4661C23.8133 12.0201 23.3906 11.2933 23.4739 10.5829C23.4767 10.5546 23.5036 10.5332 23.5331 10.5285C23.5521 10.4553 23.6246 10.3962 23.7272 10.4295C24.5623 10.6938 25.818 10.3305 26.4162 11.0456C26.7956 11.4986 26.8659 12.3008 26.3405 12.695Z" fill="#A6A6A4"/>
<path d="M24.3115 4.77736C22.8253 3.20869 20.6113 1.68775 18.2973 0.895508C18.5079 1.12491 18.7093 1.36014 18.9015 1.60036C20.3938 2.21729 21.7682 3.09302 22.9402 4.05974C26.6205 7.09692 28.0649 12.001 26.5828 16.2276C24.8638 21.1292 19.1546 24.5866 13.3513 24.5253C13.3 24.5253 13.2623 24.5442 13.2354 24.5725C11.1196 24.4432 9.11273 23.9084 7.33675 23.046C7.11792 23.041 6.88579 22.9772 6.65081 22.8352C6.56372 22.7824 6.48138 22.7267 6.39556 22.6732C6.20301 22.6263 6.01015 22.5808 5.81982 22.5275C7.9847 23.8834 10.5999 24.7106 13.3994 24.7991C13.413 24.7991 13.4209 24.7969 13.4317 24.7944C18.8524 24.8252 24.0015 22.1275 26.3345 17.7946C28.5928 13.5965 27.6741 8.32661 24.3115 4.77736Z" fill="#20235A"/>
<path d="M26.4159 11.0451C26.7959 11.4981 26.8659 12.3006 26.3405 12.6948C25.7746 13.1195 24.9315 12.8221 24.4331 12.466C23.8133 12.0199 23.3906 11.2931 23.4738 10.5827C23.4767 10.5544 23.5036 10.5331 23.5331 10.5284C23.5521 10.4551 23.6246 10.3963 23.7272 10.4293C24.5623 10.6934 25.8176 10.33 26.4159 11.0451ZM26.0843 12.4493C26.4643 12.178 26.4589 11.6823 26.2243 11.3164C25.9925 10.9553 25.5345 10.8893 25.1035 10.8798C24.581 10.8704 24.1363 10.8679 23.6379 10.7098C23.6353 10.7076 23.6353 10.7076 23.63 10.7051C23.7351 11.1486 23.8941 11.5522 24.2307 11.9134C24.643 12.355 25.4781 12.8812 26.0843 12.4493Z" fill="#20235A"/>
<path d="M26.2247 11.3172C26.459 11.683 26.4644 12.1785 26.0847 12.45C25.4786 12.8819 24.6431 12.3557 24.2311 11.9144C23.8945 11.5532 23.7355 11.1496 23.6304 10.7061C23.6358 10.7086 23.6358 10.7086 23.6383 10.7108C24.1368 10.8689 24.5814 10.8714 25.1039 10.8808C25.5349 10.8902 25.9929 10.9563 26.2247 11.3172Z" fill="#0AB9DE"/>
<path d="M25.0955 13.6204C24.7643 13.2451 24.2468 12.9172 23.7027 12.8512C23.6166 12.8418 23.5466 12.9433 23.6381 12.9857C23.9292 13.1272 24.1879 13.2712 24.4115 13.4579C23.5776 13.7483 22.7321 13.9916 21.877 14.1932C21.8289 14.2656 21.7804 14.3378 21.7279 14.4082C21.4957 14.7195 21.0536 14.6507 20.8459 14.4346C20.5688 14.6454 20.2702 14.8312 19.9541 14.9949C21.5005 14.7447 23.0199 14.3691 24.4894 13.8426C23.5976 16.1411 22.7273 18.6335 20.5935 20.297C19.8471 20.8798 19.0012 21.3425 18.0986 21.6895C17.3253 19.8346 16.0753 18.0057 13.5048 18.0834C11.4463 18.1472 9.51988 19.7827 9.25038 21.5691C9.13258 21.5189 9.0173 21.4651 8.90234 21.4102C9.38688 21.8535 10.1723 22.0912 10.7892 22.2732C10.9551 22.322 11.0628 22.4241 11.1173 22.542C11.8086 22.7004 12.5385 22.7997 13.3078 22.8293C15.7621 22.9237 18.4673 22.3292 20.3857 20.9389C22.8078 19.183 23.8962 16.3888 24.7586 13.8376C24.7611 13.8398 24.7611 13.8423 24.7639 13.8448C24.8824 14.0171 24.9821 14.1966 25.0467 14.3899C25.1088 14.581 25.106 14.7722 25.2083 14.9491C25.2836 15.0837 25.4857 15.0271 25.5398 14.9114C25.7153 14.5147 25.3729 13.9319 25.0955 13.6204ZM13.729 22.4585C13.6691 22.4762 13.6083 22.4915 13.5456 22.5023C13.3407 22.5381 13.1232 22.5661 12.9122 22.5547C12.6681 22.5414 12.4211 22.5101 12.1829 22.4596C12.003 22.4216 11.8269 22.3708 11.654 22.3134C11.5913 22.2926 11.5299 22.2693 11.4678 22.2474C11.4184 22.2385 11.3703 22.2255 11.3231 22.2096C10.659 22.0715 10.012 21.8771 9.39638 21.6252C10.1697 20.0016 11.4441 18.3283 13.7125 18.3921C16.0376 18.4559 17.0428 20.1575 17.7351 21.8188C16.469 22.2557 15.0986 22.4665 13.729 22.4585Z" fill="#20235A"/>
<path d="M15.7043 17.0729C15.7043 17.0895 15.7005 17.1064 15.6977 17.1233C16.0492 17.047 16.3678 16.9314 16.6506 16.763C16.6243 16.7669 16.5977 16.7705 16.5704 16.7716C16.4675 16.7758 16.3697 16.7441 16.2848 16.6953C16.0878 16.7769 15.8753 16.8362 15.6533 16.8767C15.6853 16.9336 15.7043 16.9982 15.7043 17.0729Z" fill="#20235A"/>
<path d="M21.2852 5.43945C21.3754 5.62447 21.4622 5.81033 21.5458 5.99785C22.7277 6.76873 23.1045 8.39703 23.1451 9.70716C23.1533 9.89357 23.5086 9.95738 23.5412 9.75211C23.7981 8.16097 23.0105 6.12905 21.2852 5.43945Z" fill="#20235A"/>
<path d="M19.9545 14.9941C19.3008 15.3322 18.575 15.5741 17.8184 15.7422C17.7928 15.775 17.7662 15.8069 17.738 15.839C17.6819 15.9026 17.6255 15.9636 17.5571 16.0177C17.5267 16.0418 17.4941 16.0626 17.4621 16.0848C17.2984 16.2754 17.136 16.467 16.9437 16.6365C16.863 16.7078 16.7607 16.7472 16.6514 16.7633C16.3686 16.9317 16.05 17.0474 15.6985 17.1236C15.6665 17.3375 15.4401 17.5636 15.1782 17.5345C13.7259 17.373 12.1462 17.6521 10.8332 18.2046C9.59119 18.7273 8.41913 19.5955 8.56449 20.8868C8.56703 20.9087 8.56512 20.9303 8.56291 20.9514C8.64113 21.1251 8.75831 21.2768 8.90335 21.4094C9.01831 21.4643 9.13358 21.5184 9.25139 21.5683C9.52089 19.7819 11.4473 18.1464 13.5058 18.0826C16.076 18.0046 17.3263 19.8338 18.0996 21.6887C19.0022 21.3417 19.8481 20.8793 20.5945 20.2962C22.7283 18.6324 23.5986 16.1403 24.4904 13.8418C23.0203 14.3683 21.5008 14.7439 19.9545 14.9941Z" fill="#3B41A5"/>
<path d="M23.2176 5.17685C23.2366 5.23344 23.1476 5.28059 23.1017 5.23593C22.5684 4.71915 22.0078 4.28724 21.2266 4.0914C20.9276 4.01817 21.0568 3.60763 21.3532 3.68558C22.1776 3.90472 22.9671 4.424 23.2176 5.17685Z" fill="#20235A"/>
<path d="M16.1982 16.6363C16.1716 16.6149 16.1494 16.588 16.1294 16.5597C16.0528 16.5989 15.9657 16.6216 15.8742 16.6188C15.6151 16.6113 15.3631 16.5595 15.1097 16.5176C15.0955 16.5473 15.0774 16.575 15.0571 16.6014C15.097 16.6052 15.1376 16.6069 15.1775 16.6113C15.3843 16.6344 15.5686 16.7234 15.6538 16.8768C15.8758 16.8363 16.088 16.7769 16.2852 16.6954C16.2542 16.6776 16.2251 16.6579 16.1982 16.6363Z" fill="white"/>
<path d="M13.7121 18.3914C11.4437 18.3276 10.169 20.0009 9.396 21.6244C10.0116 21.8763 10.6586 22.0708 11.3227 22.2089C11.2888 22.1978 11.2553 22.1859 11.2226 22.1706C11.1394 22.1468 11.0633 22.1118 10.9924 22.0694C10.9041 22.0344 10.8154 22.0006 10.7283 21.964C10.4439 21.8444 10.2596 21.5767 10.1659 21.3235C10.0639 21.0477 10.1393 20.7462 10.2894 20.4974C10.3663 20.3726 10.4715 20.2721 10.6045 20.1967C10.6431 20.1656 10.6878 20.1429 10.7308 20.1185C10.7932 19.9703 10.8622 19.8228 10.955 19.6882C11.0573 19.5401 11.178 19.3914 11.3265 19.2757C11.5726 19.0835 11.7512 18.9917 12.0596 18.8957C12.2288 18.843 12.4172 18.8225 12.5958 18.8278C12.7719 18.8328 12.9651 18.8497 13.1338 18.9046C13.2995 18.9584 13.4803 19.0175 13.6304 19.1063C13.7837 19.197 13.9354 19.2968 14.0678 19.4111C14.202 19.5268 14.316 19.6669 14.4263 19.7975C14.4782 19.8594 14.5251 19.9246 14.5656 19.9925C14.6527 20.1384 14.7274 20.2918 14.7857 20.4483C14.8433 20.6031 14.8608 20.7742 14.8794 20.9329C14.8978 21.0877 14.8611 21.2566 14.8291 21.4034C14.7974 21.5484 14.7268 21.6938 14.635 21.817C14.4193 22.106 14.1048 22.3457 13.7286 22.4575C15.0983 22.4655 16.4686 22.2547 17.7344 21.8178C17.0424 20.1568 16.0372 18.4552 13.7121 18.3914Z" fill="#FE97C3"/>
<path d="M4.0887 10.3494C4.04025 10.2834 3.93511 10.2479 3.84897 10.3164C3.63616 10.4895 3.38756 10.5588 3.12281 10.5849C3.08227 10.6825 3.03603 10.7785 2.98315 10.8723C3.36222 10.8559 3.70108 10.7813 3.9918 10.5663C3.78152 11.0642 3.49871 11.5244 3.05694 11.9045C2.77667 12.1475 2.43464 12.3766 2.05462 12.4803C1.67111 12.5852 1.4032 12.4626 1.24992 12.2468C1.11406 12.2837 0.974395 12.3083 0.83252 12.3214C0.872422 12.4199 0.92405 12.5103 0.990554 12.5863C1.14446 12.763 1.34935 12.8401 1.5723 12.8531C1.66414 12.8412 1.75599 12.8365 1.84656 12.8401C2.25699 12.7819 2.68451 12.5663 2.95211 12.3832C3.65801 11.897 4.13494 11.1655 4.16439 10.3749C4.16408 10.3377 4.11562 10.3283 4.0887 10.3494Z" fill="#20235A"/>
<path d="M2.98306 10.8724C2.62362 11.5112 1.99024 12.0455 1.24951 12.2469C1.40311 12.4627 1.6707 12.5853 2.05421 12.4804C2.43423 12.3767 2.77626 12.1478 3.05653 11.9045C3.49831 11.5245 3.78111 11.0643 3.99139 10.5664C3.70098 10.7811 3.36213 10.856 2.98306 10.8724Z" fill="#0AB9DE"/>
</g>
<path d="M12.3864 2.24062C8.28596 2.11662 4.49585 4.19098 3.02262 7.57602C2.97638 7.68198 3.1569 7.73468 3.22182 7.64952C5.2369 5.00845 8.75276 3.4262 12.3867 3.64257C13.409 3.7036 13.4207 2.27169 12.3864 2.24062Z" fill="white"/>
<path d="M12.3602 19.5848C11.9808 19.4406 11.5682 19.7152 11.3297 19.9671C11.0618 20.25 10.9649 20.5266 10.9794 20.8872C10.987 21.0783 11.2812 21.1071 11.3516 20.9313C11.4329 20.728 11.6325 20.4902 11.8158 20.349C12.0131 20.1973 12.3352 20.136 12.4653 19.9368C12.5375 19.827 12.5075 19.6408 12.3602 19.5848Z" fill="white"/>
</g>
</svg>
