<svg width="9" height="8" viewBox="0 0 9 8" fill="none" xmlns="http://www.w3.org/2000/svg">
<path d="M7.41742 3.07398C8.01742 4.63313 6.68741 5.98207 5.00741 6.34996C1.17741 7.18209 0.117414 2.8813 2.50741 1.09441C2.56741 1.12069 2.62742 1.14694 2.69742 1.1557C3.61742 1.23454 4.34742 0.892942 5.29742 1.22579C6.22742 1.55864 7.07742 2.22433 7.41742 3.07398Z" fill="#FF5694"/>
<path d="M8.36727 2.41742C9.49727 4.49336 7.96727 6.64813 5.61727 7.31384C3.27727 7.97954 0.657295 6.98098 0.107295 4.79117C-0.372705 2.89917 0.797296 0.937125 2.8273 0.271423C3.6373 -0.149021 4.83729 -0.000132137 5.66729 0.280164C6.82729 0.656811 7.83727 1.43639 8.36727 2.41742ZM5.00729 6.35034C6.68729 5.98245 8.01729 4.63351 7.41729 3.07437C7.07729 2.22472 6.2273 1.55903 5.2973 1.22618C4.3473 0.893326 3.61729 1.23492 2.69729 1.15609C2.62729 1.14733 2.56729 1.12107 2.50729 1.09479C0.117289 2.88168 1.17729 7.18247 5.00729 6.35034Z" fill="#20235A"/>
<g opacity="0.63">
<path d="M7.41731 3.07503C7.07731 2.22539 6.22732 1.5597 5.29732 1.22685C5.12132 1.16553 4.95531 1.13225 4.79231 1.11035C4.72031 1.35999 4.65931 1.61137 4.58531 1.86013C4.50631 3.06102 4.6323 4.26717 5.1173 5.48383C5.2293 5.76587 5.27131 6.02866 5.26631 6.27392C6.81731 5.82895 7.98531 4.55184 7.41731 3.07503Z" fill="#FF5694"/>
<path d="M8.3671 2.41756C7.8371 1.43652 6.82711 0.65695 5.66711 0.280302C5.48311 0.218112 5.27812 0.163813 5.06512 0.119141C4.97712 0.45024 4.88611 0.779592 4.79211 1.10894C4.95511 1.13084 5.12212 1.16412 5.29712 1.22543C6.22712 1.55828 7.07711 2.22397 7.41711 3.07362C7.98511 4.55043 6.81711 5.82841 5.26511 6.2725C5.25411 6.76127 5.03311 7.17209 4.68311 7.48655C4.99611 7.45589 5.3091 7.40071 5.6171 7.31312C7.9671 6.64829 9.4971 4.4935 8.3671 2.41756Z" fill="#20235A"/>
</g>
</svg>
