<svg width="43" height="41" viewBox="0 0 43 41" fill="none" xmlns="http://www.w3.org/2000/svg">
<g opacity="0.1">
<path d="M37.1867 8.28782C36.4867 9.75938 35.7967 11.2222 35.1067 12.6937C34.2567 14.4718 33.0567 16.3726 32.7367 18.2734C32.6867 18.5361 32.8267 18.7376 33.0167 18.834C32.6467 18.9741 32.3967 19.3332 32.6767 19.7449C34.8167 22.8019 37.1867 25.7538 39.5067 28.7144C34.8367 27.8735 29.6967 27.0151 25.0967 27.4706C25.0867 27.4793 25.0767 27.4793 25.0667 27.4793C24.7967 27.4618 24.5167 27.5319 24.3167 27.7771C21.6167 31.1057 18.9567 34.4517 16.2767 37.789C15.5967 33.8561 15.4967 29.9056 14.8367 25.9815C14.9167 25.71 14.8267 25.4122 14.4267 25.2632C10.5667 23.818 6.70668 22.3815 2.84668 20.9362C6.50668 19.3157 10.1567 17.4763 13.1367 15.0237C13.3567 14.8397 13.3267 14.6032 13.1667 14.4368C13.9567 10.6003 14.1967 6.64985 14.6267 2.76074C17.5767 5.49363 20.6067 8.17396 23.6367 10.8368C23.8267 10.9944 24.0367 11.0557 24.2367 11.0382C24.3067 11.047 24.3867 11.047 24.4767 11.0295C28.7267 10.0572 32.8667 8.9798 37.1867 8.28782Z" fill="#B5B5B5"/>
<path d="M42.0465 29.4071C42.4865 29.9764 41.7665 30.5896 41.1165 30.4757C36.0665 29.5823 30.7565 29.4159 25.7565 28.3823C25.7365 28.4173 25.7365 28.4523 25.7065 28.4874C22.6565 32.2889 19.5765 36.0641 16.5065 39.8569C16.1565 40.2861 15.2265 40.3211 15.0965 39.6905C14.1965 35.5035 13.2865 30.8962 13.8365 26.5954C13.7465 26.5866 13.6565 26.5779 13.5665 26.5516C9.18646 24.9136 4.79646 23.2669 0.416461 21.6289C-0.163539 21.4099 -0.113539 20.5778 0.416461 20.35C4.50646 18.5982 8.23646 16.3909 12.2065 14.4638C12.2565 10.1192 13.0265 5.75713 13.4265 1.43007C13.4765 0.92203 14.1365 0.632979 14.5865 1.00963C18.0365 3.8739 21.3865 6.85204 24.7165 9.82143C29.0065 8.16593 33.6965 7.28124 38.2965 6.65934C38.8365 6.5805 39.5865 6.97467 39.3165 7.55278C38.3865 9.53237 37.4465 11.5207 36.5065 13.5003C35.6965 15.2259 35.0665 17.1704 33.7965 18.6683C33.7465 18.7296 33.6865 18.7821 33.6165 18.8172C33.7665 18.861 33.9065 18.931 34.0165 19.0624C36.8465 22.3997 39.3965 25.956 42.0465 29.4071ZM35.1065 12.6945C35.7965 11.2229 36.4865 9.76011 37.1865 8.28856C32.8665 8.98054 28.7265 10.0579 24.4765 11.0302C24.3865 11.0477 24.3065 11.0477 24.2365 11.039C24.0365 11.0565 23.8265 10.9952 23.6365 10.8375C20.6065 8.17469 17.5765 5.49436 14.6265 2.76148C14.1965 6.65058 13.9565 10.601 13.1665 14.4376C13.3265 14.604 13.3565 14.8405 13.1365 15.0244C10.1565 17.477 6.50646 19.3164 2.84646 20.9369C6.70646 22.3822 10.5665 23.8187 14.4265 25.264C14.8265 25.4129 14.9165 25.7107 14.8365 25.9822C15.4965 29.9064 15.5965 33.8568 16.2765 37.7897C18.9565 34.4524 21.6165 31.1064 24.3165 27.7779C24.5165 27.5326 24.7965 27.4625 25.0665 27.4801C25.0765 27.4801 25.0865 27.4801 25.0965 27.4713C29.6965 27.0158 34.8365 27.8742 39.5065 28.7151C37.1865 25.7545 34.8165 22.8026 32.6765 19.7456C32.3965 19.334 32.6465 18.9748 33.0165 18.8347C32.8265 18.7383 32.6865 18.5369 32.7365 18.2741C33.0565 16.3733 34.2565 14.4726 35.1065 12.6945Z" fill="#20235A"/>
<g opacity="0.63">
<path d="M15.9834 14.748C15.8104 15.0835 15.6374 15.419 15.4584 15.7519C15.3404 16.3203 15.1984 16.8835 15.0264 17.4415C15.3834 16.5481 15.7014 15.6467 15.9834 14.748Z" fill="#B5B5B5"/>
<path d="M32.6766 19.7452C32.3966 19.3335 32.6466 18.9744 33.0166 18.8342C32.8266 18.7379 32.6866 18.5364 32.7366 18.2736C33.0566 16.3729 34.2566 14.4721 35.1066 12.694C35.7966 11.2224 36.4866 9.75964 37.1866 8.28809C32.8666 8.98007 28.7266 10.0575 24.4766 11.0297C24.3866 11.0473 24.3066 11.0472 24.2366 11.0385C24.0366 11.056 23.8266 10.9947 23.6366 10.837C23.2536 10.5007 22.8736 10.1608 22.4916 9.82446C22.2346 10.9395 21.9556 12.0493 21.6456 13.1521C20.3416 17.7919 18.4066 22.8687 14.9316 26.6755C15.4946 30.3719 15.6356 34.0876 16.2756 37.7892C18.9556 34.452 21.6156 31.1059 24.3156 27.7774C24.5156 27.5321 24.7956 27.4621 25.0656 27.4796C25.0756 27.4796 25.0856 27.4796 25.0956 27.4708C29.6956 27.0154 34.8356 27.8738 39.5056 28.7146C37.1866 25.754 34.8166 22.8022 32.6766 19.7452Z" fill="#B5B5B5"/>
<path d="M42.0465 29.4072C39.3965 25.9561 36.8465 22.3998 34.0165 19.0625C33.9065 18.9311 33.7665 18.8611 33.6165 18.8173C33.6865 18.7822 33.7465 18.7297 33.7965 18.6684C35.0665 17.1705 35.6965 15.226 36.5065 13.5004C37.4465 11.5208 38.3865 9.53248 39.3165 7.55289C39.5865 6.97478 38.8365 6.58061 38.2965 6.65944C33.6965 7.28135 29.0065 8.16603 24.7165 9.82153C24.0955 9.26707 23.4665 8.71612 22.8435 8.16253C22.7285 8.71699 22.6195 9.2732 22.4925 9.82503C22.8745 10.1614 23.2545 10.5021 23.6375 10.8376C23.8275 10.9953 24.0375 11.0566 24.2375 11.0391C24.3075 11.0478 24.3875 11.0478 24.4775 11.0303C28.7275 10.058 32.8675 8.98064 37.1875 8.28866C36.4875 9.76022 35.7975 11.223 35.1075 12.6946C34.2575 14.4727 33.0575 16.3735 32.7375 18.2742C32.6875 18.537 32.8275 18.7384 33.0175 18.8348C32.6475 18.9749 32.3975 19.3341 32.6775 19.7458C34.8175 22.8027 37.1875 25.7546 39.5075 28.7152C34.8375 27.8743 29.6975 27.0159 25.0975 27.4714C25.0875 27.4802 25.0775 27.4802 25.0675 27.4802C24.7975 27.4627 24.5175 27.5327 24.3175 27.778C21.6175 31.1065 18.9575 34.4525 16.2775 37.7898C15.6375 34.0881 15.4965 30.3716 14.9335 26.6761C14.5515 27.0948 14.1475 27.4951 13.7265 27.8805C13.4775 31.8046 14.2865 35.9171 15.0975 39.6906C15.2275 40.3212 16.1575 40.2862 16.5075 39.857C19.5775 36.0642 22.6575 32.289 25.7075 28.4875C25.7375 28.4524 25.7375 28.4174 25.7575 28.3824C30.7575 29.416 36.0675 29.5824 41.1175 30.4758C41.7665 30.5897 42.4865 29.9766 42.0465 29.4072Z" fill="#20235A"/>
</g>
</g>
</svg>
