<svg width="10" height="10" viewBox="0 0 10 10" fill="none" xmlns="http://www.w3.org/2000/svg">
<path d="M8.22998 6.91002C5.84998 6.87499 3.54997 7.21658 1.30997 7.93484C1.28997 6.49832 1.25998 5.07057 1.22998 3.64281C1.29998 3.70413 1.38998 3.75668 1.50998 3.72164C3.27998 3.18733 4.99998 2.5479 6.75998 1.9873C7.21998 3.63404 7.72998 5.27204 8.22998 6.91002Z" fill="#FF5694"/>
<path d="M9.6101 7.32139C9.7101 7.63672 9.42007 8.00462 9.02007 7.9871C6.20007 7.87323 3.50009 8.27616 0.880087 9.22216C0.500087 9.36231 0.110088 9.01194 0.100088 8.70537C0.0700879 7.00607 0.0300818 5.31555 8.17752e-05 3.62502C-0.00991822 3.02063 0.900085 2.95053 1.16009 3.37973C1.18009 3.32718 1.22008 3.27464 1.28008 3.23961C3.08008 2.28485 5.06008 1.58409 7.00008 0.892108C7.28008 0.786997 7.60009 0.997223 7.67009 1.22496C8.38009 3.23959 8.9701 5.28925 9.6101 7.32139ZM1.31008 7.93455C3.55008 7.21629 5.85009 6.87469 8.23009 6.90973C7.73009 5.27175 7.22009 3.63375 6.76009 1.98701C5.00009 2.54761 3.28009 3.18704 1.51009 3.72135C1.39009 3.75639 1.30009 3.70384 1.23009 3.64252C1.26009 5.07028 1.29008 6.49803 1.31008 7.93455Z" fill="#20235A"/>
<g opacity="0.63">
<path d="M3.21582 7.42593C4.85082 7.06155 6.51883 6.88462 8.22983 6.91002C7.72983 5.27204 7.21983 3.63404 6.75983 1.9873C6.33083 2.12395 5.90681 2.27199 5.48181 2.41476C4.95781 4.14822 4.19282 5.82124 3.21582 7.42593Z" fill="#FF5694"/>
<path d="M9.60992 7.32139C8.96992 5.28925 8.37992 3.23959 7.66992 1.22496C7.59992 0.997223 7.27991 0.786997 6.99991 0.892108C6.59391 1.03664 6.18592 1.1838 5.77792 1.33095C5.69092 1.69446 5.5899 2.05534 5.4809 2.41447C5.9069 2.27082 6.32991 2.12366 6.75891 1.98701C7.21891 3.63375 7.72891 5.27175 8.22891 6.90973C6.51791 6.88433 4.8499 7.06126 3.2149 7.42564C3.0509 7.69455 2.89192 7.96521 2.71692 8.22974C2.56392 8.46186 2.38492 8.64842 2.19092 8.80171C4.39892 8.16228 6.66692 7.8925 9.01892 7.9871C9.41992 8.00462 9.70992 7.63672 9.60992 7.32139Z" fill="#20235A"/>
</g>
</svg>
