<svg width="25" height="23" viewBox="0 0 25 23" fill="none" xmlns="http://www.w3.org/2000/svg">
<path d="M17.6044 11.0594C18.7444 12.6185 20.0344 14.0638 21.4644 15.4127C19.0844 15.0273 16.6844 14.6419 14.2944 14.5368C14.0644 14.528 13.9144 14.6419 13.8444 14.7908C13.6744 14.8434 13.5344 14.966 13.4744 15.1762C12.9344 17.0682 12.0744 18.8376 10.8744 20.4668C10.6144 18.3558 10.3544 16.2098 9.67444 14.2127C9.66444 13.9587 9.50443 13.7222 9.16443 13.6258C6.98443 13.0127 4.78443 12.5397 2.54443 12.1806C4.28443 11.1032 6.09444 10.1221 7.86444 9.06227C7.97444 9.00096 8.03443 8.91336 8.07443 8.81701C8.22443 8.77322 8.35444 8.67687 8.39444 8.5192C8.83444 6.50458 9.05444 4.44615 9.20444 2.39648C10.8444 3.62278 12.1544 5.11186 13.0944 6.81115C13.2044 7.02137 13.3944 7.10021 13.5844 7.10021C13.6944 7.16152 13.8244 7.1878 13.9644 7.17028C16.0944 6.8024 18.1844 6.14545 20.2544 5.52354C19.5744 7.19656 18.7244 8.77323 17.7044 10.3324C17.4944 10.5076 17.4044 10.7791 17.6044 11.0594Z" fill="#0AB9DE"/>
<path d="M24.1044 15.9384C24.6744 16.4114 24.0644 17.1034 23.3944 16.9983C20.5444 16.5691 17.5944 16.245 14.7844 15.5705C14.0844 18.1808 12.7744 20.4932 10.8944 22.6129C10.4644 23.1035 9.73442 22.6217 9.66442 22.1662C9.31441 19.7749 8.76441 17.2961 8.75441 14.8698C6.05441 14.1252 3.31442 13.5559 0.514422 13.1792C-0.185578 13.0829 -0.095571 12.2945 0.334429 12.0055C2.52443 10.5339 4.83443 9.14997 7.39443 8.21273C7.64443 5.92657 7.96441 3.64917 8.09441 1.34549C8.11441 0.986359 8.5944 0.653513 8.9944 0.898772C11.2144 2.27397 12.9444 3.98202 14.1844 6.11052C16.4344 5.21708 18.8544 4.61269 21.1944 3.92071C21.7144 3.76304 22.2144 4.24481 22.0744 4.69153C21.3844 6.8025 20.4144 8.84341 19.1044 10.7266C20.5544 12.6274 22.2144 14.3617 24.1044 15.9384ZM21.4644 15.4128C20.0344 14.0639 18.7444 12.6186 17.6044 11.0595C17.4044 10.7792 17.4944 10.5077 17.7044 10.3325C18.7244 8.77334 19.5744 7.19667 20.2544 5.52365C18.1844 6.14556 16.0944 6.80251 13.9644 7.17039C13.8244 7.18791 13.6944 7.16163 13.5844 7.10032C13.3944 7.10032 13.2044 7.02148 13.0944 6.81126C12.1544 5.11197 10.8444 3.62289 9.20442 2.3966C9.05442 4.44626 8.83443 6.50469 8.39443 8.51931C8.35443 8.67698 8.22442 8.77333 8.07442 8.81712C8.03442 8.91348 7.97443 9.00107 7.86443 9.06238C6.09443 10.1222 4.28442 11.1033 2.54442 12.1807C4.78442 12.5398 6.98442 13.0128 9.16442 13.626C9.50442 13.7223 9.66442 13.9588 9.67443 14.2128C10.3544 16.2099 10.6144 18.3559 10.8744 20.4669C12.0744 18.8377 12.9344 17.0683 13.4744 15.1763C13.5344 14.9661 13.6744 14.8435 13.8444 14.7909C13.9144 14.642 14.0644 14.5281 14.2944 14.5369C16.6844 14.642 19.0844 15.0274 21.4644 15.4128Z" fill="#20235A"/>
<g opacity="0.63">
<path d="M17.6045 11.0593C17.4045 10.779 17.4945 10.5075 17.7045 10.3323C18.7245 8.77312 19.5745 7.19645 20.2545 5.52344C18.1845 6.14534 16.0944 6.80229 13.9644 7.17018C13.8794 7.18069 13.8005 7.17018 13.7255 7.15091C12.8265 10.1203 11.5375 13.0503 10.1475 15.9075C10.4935 17.4001 10.6865 18.9417 10.8745 20.4667C12.0745 18.8375 12.9345 17.0681 13.4745 15.1761C13.5345 14.9659 13.6745 14.8433 13.8445 14.7907C13.9145 14.6418 14.0645 14.5279 14.2945 14.5367C16.6845 14.6418 19.0844 15.0272 21.4644 15.4126C20.0344 14.0637 18.7445 12.6184 17.6045 11.0593Z" fill="#0AB9DE"/>
<path d="M24.1042 15.9389C22.2142 14.3622 20.5542 12.6279 19.1042 10.7271C20.4142 8.84389 21.3842 6.80298 22.0742 4.69201C22.2142 4.24528 21.7142 3.76352 21.1942 3.92119C18.8542 4.61317 16.4342 5.21756 14.1842 6.111C14.1492 6.05056 14.1042 5.99888 14.0682 5.93844C13.9612 6.34311 13.8472 6.7478 13.7252 7.1516C13.8002 7.17087 13.8792 7.18139 13.9642 7.17087C16.0942 6.80299 18.1842 6.14604 20.2542 5.52413C19.5742 7.19715 18.7242 8.77382 17.7042 10.333C17.4942 10.5081 17.4042 10.7797 17.6042 11.06C18.7442 12.6191 20.0342 14.0644 21.4642 15.4133C19.0842 15.0279 16.6842 14.6425 14.2942 14.5374C14.0642 14.5286 13.9142 14.6425 13.8442 14.7914C13.6742 14.844 13.5342 14.9666 13.4742 15.1768C12.9342 17.0688 12.0742 18.8382 10.8742 20.4674C10.6862 18.9424 10.4932 17.4008 10.1472 15.9082C9.78122 16.6606 9.4082 17.4069 9.0332 18.1488C9.2242 19.4995 9.47022 20.8467 9.66422 22.1667C9.73422 22.6222 10.4642 23.1039 10.8942 22.6134C12.7742 20.4937 14.0842 18.1812 14.7842 15.571C17.5942 16.2454 20.5442 16.5695 23.3942 16.9987C24.0642 17.1039 24.6742 16.4119 24.1042 15.9389Z" fill="#20235A"/>
</g>
</svg>
