<svg width="11" height="16" viewBox="0 0 11 16" fill="none" xmlns="http://www.w3.org/2000/svg">
<g opacity="0.1">
<path d="M9.39334 1.27296C10.7533 3.04232 9.75333 6.37085 9.09333 8.23657C8.11333 10.9957 6.36333 13.4045 4.02333 15.4191C3.77333 15.6294 3.42333 15.5943 3.17333 15.4191C2.12333 14.6658 1.09333 13.9213 0.123332 13.0892C-0.136668 12.8789 0.0533383 12.5374 0.333338 12.476C1.34334 10.9257 2.26334 9.35774 2.78334 7.62341C3.06334 6.72996 3.24333 5.8015 3.32333 4.87302C3.33333 4.6628 3.38334 3.03356 3.47334 2.08756C3.43334 2.09632 3.41333 2.11384 3.38333 2.11384C3.33333 2.11384 3.28334 2.11384 3.22334 2.11384C3.01334 2.11384 2.84333 1.99121 2.77333 1.81602C2.64333 1.4569 2.71333 1.308 2.98333 1.03647C3.07333 0.940114 3.22333 0.896306 3.37333 0.887546C3.38333 0.808713 3.44334 0.738654 3.55334 0.738654C4.30334 0.729895 4.99334 0.642285 5.75334 0.721119C6.56334 0.808711 7.36333 0.940113 8.16333 1.06274C8.19333 1.06274 8.21333 1.08026 8.24333 1.08902C8.26333 1.08026 8.27333 1.0715 8.29333 1.06274C8.41333 1.05398 8.54333 1.03645 8.67334 1.01893C8.97334 0.975134 9.21334 1.04522 9.39334 1.27296ZM8.22334 6.74748C8.41334 6.00295 9.26333 2.74451 8.29333 1.95618C8.17333 2.03501 8.02333 2.07005 7.85333 2.04377C7.11333 1.93866 6.36333 1.84231 5.62333 1.71092C5.01333 1.59705 4.51334 1.40434 3.97334 1.21163C5.09334 2.35034 4.55333 4.78542 4.31333 6.09931C3.88333 8.53438 2.77333 10.8556 0.923335 12.7125C1.75333 13.2644 2.91334 14.2717 3.83334 14.0877C4.77334 13.895 6.01333 11.6176 6.48333 10.8556C7.27333 9.56796 7.88334 8.17524 8.22334 6.74748Z" fill="#20235A"/>
<path d="M8.29333 1.95548C9.26334 2.74381 8.41334 6.00225 8.22334 6.74679C7.88334 8.17454 7.27334 9.56727 6.48334 10.8549C6.01334 11.6169 4.77334 13.8943 3.83334 14.087C2.91334 14.271 1.75334 13.2637 0.92334 12.7118C2.77334 10.8549 3.88334 8.53368 4.31334 6.09861C4.55334 4.78472 5.09334 2.34964 3.97334 1.21094C4.51334 1.40364 5.01334 1.59635 5.62334 1.71022C6.36334 1.84161 7.11333 1.93797 7.85333 2.04308C8.02333 2.06935 8.17334 2.03431 8.29333 1.95548Z" fill="#FFC304"/>
<g opacity="0.63">
<path d="M9.39319 1.27347C9.21319 1.04573 8.97319 0.975652 8.67319 1.01945C8.54319 1.03697 8.41318 1.0545 8.29318 1.06326C8.27318 1.07202 8.26318 1.08078 8.24318 1.08954C8.21318 1.08078 8.19318 1.06326 8.16318 1.06326C7.90018 1.02297 7.63719 0.982675 7.37419 0.942383C7.30919 1.27436 7.24019 1.60982 7.16519 1.94793C7.39519 1.97946 7.62518 2.01188 7.85318 2.04429C8.02318 2.07057 8.17318 2.03553 8.29318 1.95669C9.26318 2.74503 8.41319 6.00347 8.22319 6.748C7.88319 8.17576 7.27318 9.56848 6.48318 10.8561C6.01319 11.6181 4.77319 13.8955 3.83319 14.0883C3.37019 14.1811 2.84719 13.9717 2.33519 13.6713C2.12819 13.9288 1.87919 14.1294 1.59619 14.2678C2.11319 14.6576 2.64018 15.0378 3.17218 15.4205C3.42218 15.5957 3.77219 15.6308 4.02219 15.4205C6.36219 13.4059 8.11218 10.9971 9.09218 8.23794C9.75318 6.37134 10.7532 3.04284 9.39319 1.27347Z" fill="#20235A"/>
<path d="M8.29295 1.95603C8.17295 2.03487 8.02295 2.06991 7.85295 2.04363C7.62495 2.01122 7.39496 1.9788 7.16496 1.94727C6.74396 3.84364 6.15195 5.81012 5.24295 7.52343C4.52995 9.56608 3.66095 11.5597 2.49995 13.4517C2.45095 13.5314 2.39196 13.5997 2.33496 13.6698C2.84696 13.9702 3.36996 14.1796 3.83296 14.0867C4.77296 13.894 6.01296 11.6166 6.48296 10.8545C7.27296 9.56694 7.88296 8.17422 8.22296 6.74646C8.41296 6.0028 9.26295 2.74437 8.29295 1.95603Z" fill="#FFC304"/>
</g>
</g>
</svg>
