<svg width="28" height="26" viewBox="0 0 28 26" fill="none" xmlns="http://www.w3.org/2000/svg">
<g opacity="0.12">
<path d="M22.9405 4.73154C26.6207 7.76872 28.0651 12.6728 26.583 16.8994C24.864 21.801 19.1548 25.2584 13.3515 25.1971C13.3002 25.1971 13.2625 25.216 13.2356 25.2443C7.362 24.8856 2.30514 21.4354 0.793596 16.3826C-0.602045 11.7169 1.51564 6.03418 6.14972 3.28964C8.53945 1.87355 11.63 1.40642 14.4697 1.36619C17.649 1.32126 20.672 2.85996 22.9405 4.73154ZM26.3407 13.3665C26.8661 12.9724 26.7961 12.1701 26.4161 11.7169C25.8179 11.0018 24.5625 11.3651 23.7271 11.1011C23.6248 11.068 23.552 11.1271 23.533 11.2001C23.5032 11.2048 23.4763 11.2262 23.4738 11.2545C23.3902 11.9649 23.8133 12.6916 24.433 13.1377C24.9315 13.4939 25.7748 13.7912 26.3407 13.3665ZM25.5405 15.5826C25.7156 15.1862 25.3736 14.6032 25.0958 14.2916C24.7643 13.9163 24.2471 13.5885 23.7031 13.5224C23.6169 13.513 23.5469 13.6145 23.6385 13.657C23.9295 13.7984 24.1882 13.9424 24.4118 14.1291C17.6385 16.4892 10.0782 15.7693 3.15957 14.2564C3.348 14.0864 3.56366 13.933 3.78471 13.7749C3.83601 13.7371 3.79009 13.6664 3.73087 13.6639C2.91191 13.6425 2.31116 14.3554 2.13319 14.9832C2.1088 15.0728 2.14934 15.1721 2.24371 15.2215C2.31116 15.2545 2.35423 15.2523 2.4296 15.2428C2.50782 15.2309 2.57781 15.1602 2.59649 15.0941C2.65571 14.8769 2.76086 14.6953 2.89291 14.5302C3.92753 19.2359 7.54315 23.2762 13.3091 23.5003C15.7634 23.5946 18.4685 22.9999 20.387 21.6099C22.8091 19.854 23.8975 17.0598 24.7598 14.5088C24.7624 14.5113 24.7624 14.5136 24.7652 14.5161C24.8837 14.6883 24.9834 14.8678 25.048 15.0611C25.1101 15.2523 25.1073 15.4434 25.2095 15.6204C25.2846 15.7549 25.4866 15.6983 25.5405 15.5826ZM23.5412 10.4237C23.843 8.55681 22.7115 6.07662 20.3082 5.87828C17.8266 5.67523 15.9867 7.6317 15.6389 9.61895C15.6253 9.69689 15.7387 9.72269 15.771 9.65195C16.5067 8.08246 17.5223 6.33848 19.7343 6.23002C22.3774 6.1002 23.0887 8.54987 23.1454 10.3787C23.1533 10.5651 23.5089 10.6289 23.5412 10.4237ZM23.102 5.90657C23.1479 5.95151 23.2366 5.90408 23.2179 5.84749C22.9674 5.09465 22.1779 4.57536 21.3536 4.35594C21.0571 4.278 20.9279 4.68882 21.2269 4.76177C22.0082 4.95789 22.5687 5.38979 23.102 5.90657ZM11.6436 9.79814C11.6598 9.83836 11.7218 9.82172 11.7165 9.7815C11.4229 7.96679 10.1565 5.56428 7.6049 5.93016C5.27155 6.26303 4.49029 8.51907 4.59004 10.308C4.59828 10.4755 4.88646 10.478 4.889 10.308C4.91877 8.70077 5.51128 6.64528 7.67204 6.35262C10.0618 6.02696 10.9862 8.23586 11.6436 9.79814ZM7.01206 4.55927C7.17104 4.5049 7.18181 4.31628 7.01206 4.26662C6.55128 4.12515 5.89669 4.42002 5.53567 4.65359C5.12619 4.92016 4.81362 5.31435 4.72463 5.75818C4.71671 5.7959 4.77309 5.81948 4.79747 5.78425C5.05621 5.42558 5.35262 5.121 5.76748 4.89465C5.94799 4.79784 6.14181 4.71988 6.34417 4.66801C6.56491 4.61336 6.79925 4.63001 7.01206 4.55927ZM4.1641 11.0467C4.1641 11.009 4.11564 10.9995 4.08873 11.0206C4.04027 10.9546 3.93514 10.9191 3.849 10.9876C3.12157 11.5798 1.97642 10.971 1.19801 11.5022C0.678008 11.8539 0.591869 12.8026 0.990578 13.2581C1.47828 13.8173 2.47236 13.3832 2.95214 13.055C3.65772 12.5688 4.13465 11.8373 4.1641 11.0467Z" fill="#A6A6A4"/>
<path d="M24.3116 5.44917C27.6742 8.9987 28.5929 14.2684 26.3349 18.4667C24.0016 22.7996 18.8529 25.497 13.4321 25.4665C13.4214 25.4687 13.4131 25.4712 13.3998 25.4712C6.66674 25.2587 0.992654 20.7843 0.11448 14.9175C-0.621184 10.0065 2.22679 4.2597 7.56138 2.17592C10.1506 1.16343 13.7016 0.660791 16.5091 1.11156C19.4299 1.57869 22.4447 3.47856 24.3116 5.44917ZM26.5829 16.8997C28.0647 12.6731 26.6206 7.76901 22.9403 4.73183C20.6719 2.86025 17.6488 1.32155 14.4696 1.36648C11.6299 1.40671 8.53963 1.87383 6.14959 3.28993C1.51551 6.03447 -0.602179 11.7174 0.793462 16.3829C2.30501 21.4357 7.36219 24.8859 13.2355 25.2446C13.2624 25.2163 13.3001 25.1974 13.3514 25.1974C19.155 25.2587 24.8639 21.8013 26.5829 16.8997Z" fill="#20235A"/>
<path d="M26.4159 11.717C26.7959 12.17 26.8659 12.9725 26.3405 13.3667C25.7746 13.7914 24.9315 13.494 24.4331 13.1378C23.8133 12.6918 23.3906 11.965 23.4738 11.2546C23.4767 11.2263 23.5036 11.205 23.5331 11.2002C23.5521 11.127 23.6246 11.0682 23.7272 11.1012C24.5623 11.3653 25.8176 11.0019 26.4159 11.717ZM26.0843 13.1212C26.4643 12.8499 26.4589 12.3542 26.2243 11.9883C25.9925 11.6271 25.5345 11.5611 25.1035 11.5517C24.581 11.5423 24.1363 11.5398 23.6379 11.3816C23.6353 11.3794 23.6353 11.3794 23.63 11.3769C23.7351 11.8205 23.8941 12.2241 24.2307 12.5853C24.643 13.0269 25.4781 13.5531 26.0843 13.1212Z" fill="#20235A"/>
<path d="M26.2247 11.9881C26.459 12.3539 26.4644 12.8494 26.0847 13.1209C25.4786 13.5528 24.6431 13.0266 24.2311 12.5853C23.8945 12.2241 23.7355 11.8205 23.6304 11.377C23.6358 11.3794 23.6358 11.3794 23.6383 11.3817C24.1368 11.5398 24.5814 11.5423 25.1039 11.5517C25.5349 11.5611 25.9929 11.6272 26.2247 11.9881Z" fill="#0AB9DE"/>
<path d="M25.0953 14.2923C25.3727 14.6038 25.7151 15.1866 25.5399 15.5833C25.4861 15.699 25.284 15.7555 25.2087 15.621C25.1064 15.444 25.1089 15.2529 25.0472 15.0618C24.9826 14.8682 24.8828 14.689 24.7644 14.5167C24.7615 14.5142 24.7615 14.512 24.759 14.5095C23.897 17.0607 22.8082 19.8549 20.3862 21.6105C18.468 23.0005 15.7628 23.5953 13.3082 23.5009C7.5426 23.2768 3.92666 19.2366 2.89204 14.5308C2.75998 14.6959 2.65484 14.8779 2.59562 15.0948C2.57662 15.1608 2.50664 15.2315 2.42874 15.2435C2.35336 15.2529 2.31029 15.2554 2.24284 15.2221C2.14847 15.1725 2.10825 15.0734 2.13231 14.9838C2.31029 14.3561 2.91104 13.6435 3.73 13.6645C3.78922 13.6668 3.83514 13.7378 3.78384 13.7755C3.56279 13.9336 3.34744 14.087 3.1587 14.2571C10.0777 15.7697 17.6376 16.4895 24.4109 14.1297C24.1874 13.9433 23.9286 13.7994 23.6376 13.6576C23.5461 13.6152 23.6161 13.5136 23.7022 13.5231C24.2466 13.5891 24.764 13.917 25.0953 14.2923ZM20.5933 20.9686C22.7271 19.3048 23.5974 16.8127 24.4892 14.5142C22.3417 15.2834 20.0894 15.7389 17.7991 15.9372C17.1471 17.8063 15.6032 17.988 13.5071 17.9195C11.3058 17.8488 9.81039 17.6102 9.2204 15.654C8.97244 15.6232 8.72194 15.5902 8.47397 15.555C6.66886 15.3048 4.74783 15.0712 3.03962 14.4743C4.0527 16.636 4.73421 18.8496 6.64447 20.5936C7.39882 21.2804 8.28523 21.8302 9.24986 22.2407C9.51936 20.4543 11.4458 18.8188 13.5042 18.755C16.0745 18.6771 17.3247 20.5062 18.0978 22.3611C19.001 22.0141 19.8468 21.5517 20.5933 20.9686ZM16.7591 17.0959C17.1122 16.8105 17.3168 16.3619 17.5081 15.963C16.4437 16.0457 15.3743 16.0715 14.302 16.0504C12.6637 16.0196 11.0284 15.8804 9.40377 15.6776C9.83225 16.5886 10.3146 17.2163 11.5376 17.4712C12.2464 17.6199 13.033 17.6268 13.7604 17.6366C14.7143 17.6457 15.9994 17.7026 16.7591 17.0959ZM17.7345 22.4907C17.0423 20.8294 16.0371 19.1278 13.712 19.064C11.4436 19.0002 10.1689 20.6735 9.39585 22.2971C10.6135 22.795 11.9528 23.071 13.3079 23.1231C14.8169 23.1822 16.3389 22.9722 17.7345 22.4907Z" fill="#20235A"/>
<path d="M20.3078 5.87877C22.7112 6.07711 23.8427 8.55729 23.5409 10.4242C23.5086 10.6294 23.153 10.5656 23.1447 10.3792C23.088 8.55035 22.3768 6.10069 19.7337 6.23051C17.5216 6.33897 16.506 8.08294 15.7703 9.65244C15.738 9.72318 15.625 9.69738 15.6383 9.61943C15.9863 7.63218 17.8266 5.67599 20.3078 5.87877Z" fill="#20235A"/>
<path d="M24.4894 14.5136C23.5976 16.8121 22.7274 19.3045 20.5935 20.968C19.8471 21.5508 19.0012 22.0135 18.0987 22.3605C17.3253 20.5056 16.0754 18.6767 13.5051 18.7544C11.4467 18.8182 9.52026 20.4534 9.25076 22.2401C8.28613 21.8296 7.39973 21.2795 6.64538 20.5929C4.73512 18.849 4.05361 16.6354 3.04053 14.4736C4.74874 15.0706 6.66976 15.3044 8.47488 15.5544C8.72285 15.5899 8.97334 15.6229 9.22131 15.6534C9.8113 17.6099 11.3067 17.8481 13.508 17.9189C15.6041 17.9874 17.148 17.8057 17.8 15.9366C20.0897 15.7383 22.342 15.2828 24.4894 14.5136Z" fill="#3B41A5"/>
<path d="M23.2176 5.84873C23.2366 5.90531 23.1476 5.95247 23.1017 5.90781C22.5684 5.39102 22.0078 4.95912 21.2266 4.76328C20.9276 4.69004 21.0568 4.27951 21.3532 4.35745C22.1776 4.57659 22.9671 5.09588 23.2176 5.84873Z" fill="#20235A"/>
<path d="M17.5086 15.9625C17.3174 16.3614 17.1125 16.8096 16.7597 17.0954C15.9999 17.7017 14.7148 17.6451 13.761 17.6357C13.0335 17.6263 12.2469 17.6191 11.5381 17.4704C10.3151 17.2155 9.83277 16.5877 9.4043 15.6768C11.0289 15.8798 12.6643 16.0191 14.3025 16.0496C15.3748 16.0712 16.4442 16.0451 17.5086 15.9625Z" fill="white"/>
<path d="M13.7121 19.0643C16.0372 19.1281 17.0421 20.8296 17.7347 22.4909C16.339 22.9725 14.8167 23.1824 13.308 23.1234C11.9529 23.0715 10.6137 22.7952 9.396 22.2973C10.1693 20.674 11.4437 19.0007 13.7121 19.0643Z" fill="#FE97C3"/>
<path d="M11.716 9.78219C11.7214 9.82242 11.6593 9.83878 11.6432 9.79884C10.9857 8.23655 10.0616 6.02767 7.67189 6.35333C5.51114 6.64598 4.9183 8.70147 4.88885 10.3087C4.88632 10.4787 4.59781 10.4762 4.5899 10.3087C4.49014 8.51978 5.2714 6.26373 7.60476 5.93085C10.156 5.56497 11.4224 7.96748 11.716 9.78219Z" fill="#20235A"/>
<path d="M7.01165 4.2665C7.18139 4.31616 7.17062 4.50478 7.01165 4.55915C6.79883 4.62989 6.56449 4.61353 6.34344 4.66762C6.1414 4.71949 5.94726 4.79743 5.76675 4.89424C5.35189 5.12088 5.05547 5.42518 4.79674 5.78385C4.77236 5.81935 4.71598 5.79578 4.7239 5.75777C4.81289 5.31394 5.12546 4.92005 5.53494 4.65319C5.89628 4.41963 6.55087 4.12475 7.01165 4.2665Z" fill="#20235A"/>
<path d="M4.08876 11.0211C4.11568 10.9998 4.16413 11.0095 4.16413 11.0472C4.13436 11.8378 3.65775 12.5693 2.95185 13.0555C2.47239 13.3837 1.47799 13.8178 0.990293 13.2586C0.591583 12.8031 0.677722 11.8544 1.19772 11.5027C1.97646 10.9718 3.12128 11.5806 3.84871 10.9881C3.93517 10.9199 4.04031 10.9551 4.08876 11.0211ZM3.05699 12.5765C3.49877 12.1965 3.78157 11.7363 3.99185 11.2383C3.68213 11.4672 3.31825 11.5382 2.90878 11.5476C2.26495 11.5618 1.30571 11.4109 1.1252 12.1565C0.993141 12.6922 1.30286 13.3576 2.05468 13.1524C2.43438 13.0483 2.77673 12.8195 3.05699 12.5765Z" fill="#20235A"/>
<path d="M3.99196 11.2383C3.78168 11.7362 3.49888 12.1964 3.0571 12.5764C2.77683 12.8194 2.43481 13.0486 2.05479 13.1523C1.30297 13.3576 0.99325 12.6921 1.12531 12.1565C1.30582 11.4108 2.26506 11.5617 2.90889 11.5476C3.31836 11.5381 3.68193 11.4671 3.99196 11.2383Z" fill="#0AB9DE"/>
<g opacity="0.63">
<path d="M0.99023 13.2584C0.923726 13.1823 0.871792 13.0919 0.832206 12.9934C0.684629 13.007 0.534513 13.0084 0.382187 12.9932C0.381237 13.017 0.378391 13.0412 0.377441 13.065C0.51235 13.3205 0.652324 13.5729 0.794833 13.8234C1.02126 13.6639 1.29552 13.5613 1.57167 13.5255C1.34904 13.5122 1.14446 13.4348 0.99023 13.2584Z" fill="#A6A6A4"/>
<path d="M3.22679 10.9406C3.19892 11.0472 3.16631 11.1531 3.12324 11.2569C3.38767 11.2305 3.63659 11.1615 3.8494 10.9884C3.93554 10.9198 4.04069 10.9553 4.08914 11.0214C4.11606 11.0003 4.16451 11.0097 4.16451 11.0474C4.13474 11.838 3.65813 12.5695 2.95223 13.0558C2.68463 13.2389 2.25711 13.4544 1.84668 13.5126C2.17825 13.5254 2.48828 13.6441 2.69191 13.8905C2.72643 13.6674 2.84297 13.443 3.06592 13.238C3.77308 12.5889 4.61263 11.4924 4.31874 10.5479C4.0049 10.7318 3.63659 10.8652 3.22679 10.9406Z" fill="#A6A6A4"/>
<path d="M22.9402 4.73184C21.7682 3.76484 20.3938 2.88911 18.9015 2.27246C19.6372 3.19202 20.2497 4.18371 20.8175 5.20785C20.9822 5.50466 21.1364 5.80702 21.2852 6.11159C23.0105 6.8012 23.7985 8.83311 23.541 10.4242C23.5087 10.6295 23.1531 10.5657 23.1448 10.3793C23.1043 9.06917 22.7274 7.44087 21.5455 6.66999C22.0586 7.8209 22.4443 9.0173 22.6337 10.2395C22.8747 11.796 22.7961 13.48 21.8768 14.8645C22.7315 14.6631 23.5774 14.4196 24.4112 14.1291C24.1877 13.9427 23.9289 13.7987 23.6379 13.657C23.5464 13.6146 23.6164 13.513 23.7025 13.5225C24.2469 13.5885 24.764 13.9166 25.0953 14.2917C25.3727 14.6032 25.715 15.186 25.5399 15.5827C25.4861 15.6983 25.284 15.7549 25.2083 15.6204C25.1061 15.4434 25.1086 15.2523 25.0468 15.0612C24.9822 14.8675 24.8825 14.6883 24.764 14.5161C24.7612 14.5136 24.7612 14.5114 24.7586 14.5089C23.8966 17.0601 22.8079 19.8543 20.3858 21.6102C18.4677 23.0002 15.7625 23.5949 13.3079 23.5006C12.5386 23.4706 11.809 23.3716 11.1174 23.2132C11.244 23.4881 11.0768 23.8518 10.6493 23.8507C9.70208 23.8482 8.75296 23.7744 7.81905 23.629C7.67021 23.6898 7.50775 23.7222 7.33643 23.7184C9.11272 24.5805 11.1192 25.1156 13.235 25.2449C13.262 25.2166 13.2996 25.1977 13.3509 25.1977C19.1542 25.259 24.8635 21.8018 26.5825 16.9C28.0649 12.6731 26.6205 7.76902 22.9402 4.73184ZM23.1021 5.90688C22.5684 5.39009 22.0082 4.95819 21.227 4.76235C20.928 4.68912 21.0572 4.27858 21.3536 4.35652C22.178 4.57594 22.9675 5.09523 23.218 5.84807C23.2367 5.90466 23.1477 5.95181 23.1021 5.90688ZM26.3405 13.3668C25.7746 13.7915 24.9316 13.4942 24.4331 13.138C23.8133 12.6919 23.3906 11.9652 23.4739 11.2548C23.4767 11.2265 23.5036 11.2051 23.5331 11.2004C23.5521 11.1272 23.6246 11.0681 23.7272 11.1014C24.5623 11.3657 25.818 11.0023 26.4162 11.7175C26.7956 12.1704 26.8659 12.9727 26.3405 13.3668Z" fill="#A6A6A4"/>
<path d="M24.3115 5.44923C22.8253 3.88057 20.6113 2.35962 18.2973 1.56738C18.5079 1.79679 18.7093 2.03201 18.9015 2.27224C20.3938 2.88916 21.7682 3.76489 22.9402 4.73161C26.6205 7.7688 28.0649 12.6729 26.5828 16.8995C24.8638 21.8011 19.1546 25.2585 13.3513 25.1972C13.3 25.1972 13.2623 25.2161 13.2354 25.2443C11.1196 25.1151 9.11273 24.5803 7.33675 23.7178C7.11792 23.7129 6.88579 23.6491 6.65081 23.507C6.56372 23.4543 6.48138 23.3986 6.39556 23.345C6.20301 23.2982 6.01015 23.2527 5.81982 23.1994C7.9847 24.5553 10.5999 25.3825 13.3994 25.471C13.413 25.471 13.4209 25.4688 13.4317 25.4663C18.8524 25.4971 24.0015 22.7994 26.3345 18.4665C28.5928 14.2684 27.6741 8.99849 24.3115 5.44923Z" fill="#20235A"/>
<path d="M26.4159 11.717C26.7959 12.17 26.8659 12.9725 26.3405 13.3667C25.7746 13.7914 24.9315 13.494 24.4331 13.1378C23.8133 12.6918 23.3906 11.965 23.4738 11.2546C23.4767 11.2263 23.5036 11.205 23.5331 11.2002C23.5521 11.127 23.6246 11.0682 23.7272 11.1012C24.5623 11.3653 25.8176 11.0019 26.4159 11.717ZM26.0843 13.1212C26.4643 12.8499 26.4589 12.3542 26.2243 11.9883C25.9925 11.6271 25.5345 11.5611 25.1035 11.5517C24.581 11.5423 24.1363 11.5398 23.6379 11.3816C23.6353 11.3794 23.6353 11.3794 23.63 11.3769C23.7351 11.8205 23.8941 12.2241 24.2307 12.5853C24.643 13.0269 25.4781 13.5531 26.0843 13.1212Z" fill="#20235A"/>
<path d="M26.2247 11.989C26.459 12.3549 26.4644 12.8503 26.0847 13.1219C25.4786 13.5538 24.6431 13.0276 24.2311 12.5863C23.8945 12.2251 23.7355 11.8215 23.6304 11.3779C23.6358 11.3804 23.6358 11.3804 23.6383 11.3826C24.1368 11.5408 24.5814 11.5433 25.1039 11.5527C25.5349 11.5621 25.9929 11.6281 26.2247 11.989Z" fill="#0AB9DE"/>
<path d="M25.0955 14.2923C24.7643 13.917 24.2468 13.5891 23.7027 13.5231C23.6166 13.5136 23.5466 13.6152 23.6381 13.6576C23.9292 13.7991 24.1879 13.943 24.4115 14.1297C23.5776 14.4202 22.7321 14.6634 21.877 14.8651C21.8289 14.9375 21.7804 15.0096 21.7279 15.0801C21.4957 15.3913 21.0536 15.3225 20.8459 15.1064C20.5688 15.3173 20.2702 15.5031 19.9541 15.6668C21.5005 15.4166 23.0199 15.041 24.4894 14.5145C23.5976 16.813 22.7273 19.3053 20.5935 20.9689C19.8471 21.5517 19.0012 22.0144 18.0986 22.3614C17.3253 20.5065 16.0753 18.6776 13.5048 18.7553C11.4463 18.8191 9.51988 20.4546 9.25038 22.241C9.13258 22.1908 9.0173 22.137 8.90234 22.0821C9.38688 22.5253 10.1723 22.7631 10.7892 22.945C10.9551 22.9939 11.0628 23.0959 11.1173 23.2138C11.8086 23.3722 12.5385 23.4715 13.3078 23.5012C15.7621 23.5955 18.4673 23.0011 20.3857 21.6108C22.8078 19.8549 23.8962 17.0607 24.7586 14.5095C24.7611 14.5117 24.7611 14.5142 24.7639 14.5167C24.8824 14.689 24.9821 14.8684 25.0467 15.0618C25.1088 15.2529 25.106 15.444 25.2083 15.621C25.2836 15.7555 25.4857 15.699 25.5398 15.5833C25.7153 15.1866 25.3729 14.6038 25.0955 14.2923ZM13.729 23.1303C13.6691 23.1481 13.6083 23.1634 13.5456 23.1742C13.3407 23.21 13.1232 23.238 12.9122 23.2266C12.6681 23.2133 12.4211 23.1819 12.1829 23.1315C12.003 23.0934 11.8269 23.0427 11.654 22.9853C11.5913 22.9645 11.5299 22.9412 11.4678 22.9192C11.4184 22.9104 11.3703 22.8973 11.3231 22.8815C10.659 22.7434 10.012 22.5489 9.39638 22.2971C10.1697 20.6735 11.4441 19.0002 13.7125 19.064C16.0376 19.1278 17.0428 20.8294 17.7351 22.4907C16.469 22.9276 15.0986 23.1384 13.729 23.1303Z" fill="#20235A"/>
<path d="M15.7043 17.7447C15.7043 17.7614 15.7005 17.7783 15.6977 17.7952C16.0492 17.7189 16.3678 17.6033 16.6506 17.4349C16.6243 17.4388 16.5977 17.4424 16.5704 17.4435C16.4675 17.4476 16.3697 17.416 16.2848 17.3672C16.0878 17.4487 15.8753 17.5081 15.6533 17.5486C15.6853 17.6055 15.7043 17.6701 15.7043 17.7447Z" fill="#20235A"/>
<path d="M21.2852 6.11133C21.3754 6.29635 21.4622 6.4822 21.5458 6.66972C22.7277 7.4406 23.1045 9.06891 23.1451 10.379C23.1533 10.5654 23.5086 10.6293 23.5412 10.424C23.7981 8.83285 23.0105 6.80093 21.2852 6.11133Z" fill="#20235A"/>
<path d="M19.9545 15.666C19.3008 16.0041 18.575 16.246 17.8184 16.4141C17.7928 16.4468 17.7662 16.4787 17.738 16.5109C17.6819 16.5744 17.6255 16.6355 17.5571 16.6895C17.5267 16.7137 17.4941 16.7345 17.4621 16.7567C17.2984 16.9472 17.136 17.1389 16.9437 17.3084C16.863 17.3797 16.7607 17.4191 16.6514 17.4352C16.3686 17.6036 16.05 17.7192 15.6985 17.7955C15.6665 18.0094 15.4401 18.2355 15.1782 18.2063C13.7259 18.0449 12.1462 18.324 10.8332 18.8765C9.59119 19.3991 8.41913 20.2674 8.56449 21.5586C8.56703 21.5806 8.56512 21.6022 8.56291 21.6233C8.64113 21.7969 8.75831 21.9487 8.90335 22.0813C9.01831 22.1362 9.13358 22.1903 9.25139 22.2402C9.52089 20.4538 11.4473 18.8183 13.5058 18.7545C16.076 18.6765 17.3263 20.5057 18.0996 22.3606C19.0022 22.0136 19.8481 21.5512 20.5945 20.9681C22.7283 19.3043 23.5986 16.8122 24.4904 14.5137C23.0203 15.0402 21.5008 15.4158 19.9545 15.666Z" fill="#3B41A5"/>
<path d="M23.2176 5.84873C23.2366 5.90531 23.1476 5.95247 23.1017 5.90781C22.5684 5.39102 22.0078 4.95912 21.2266 4.76328C20.9276 4.69004 21.0568 4.27951 21.3532 4.35745C22.1776 4.57659 22.9671 5.09588 23.2176 5.84873Z" fill="#20235A"/>
<path d="M16.1982 17.3082C16.1716 17.2868 16.1494 17.2599 16.1294 17.2316C16.0528 17.2707 15.9657 17.2935 15.8742 17.2907C15.6151 17.2832 15.3631 17.2313 15.1097 17.1895C15.0955 17.2191 15.0774 17.2469 15.0571 17.2732C15.097 17.2771 15.1376 17.2788 15.1775 17.2832C15.3843 17.3062 15.5686 17.3953 15.6538 17.5487C15.8758 17.5082 16.088 17.4488 16.2852 17.3673C16.2542 17.3495 16.2251 17.3298 16.1982 17.3082Z" fill="white"/>
<path d="M13.7121 19.0633C11.4437 18.9995 10.169 20.6727 9.396 22.2963C10.0116 22.5482 10.6586 22.7426 11.3227 22.8808C11.2888 22.8697 11.2553 22.8578 11.2226 22.8425C11.1394 22.8187 11.0633 22.7837 10.9924 22.7413C10.9041 22.7063 10.8154 22.6725 10.7283 22.6358C10.4439 22.5163 10.2596 22.2486 10.1659 21.9953C10.0639 21.7196 10.1393 21.4181 10.2894 21.1693C10.3663 21.0444 10.4715 20.944 10.6045 20.8686C10.6431 20.8375 10.6878 20.8148 10.7308 20.7903C10.7932 20.6422 10.8622 20.4946 10.955 20.3601C11.0573 20.212 11.178 20.0633 11.3265 19.9476C11.5726 19.7554 11.7512 19.6636 12.0596 19.5676C12.2288 19.5149 12.4172 19.4944 12.5958 19.4996C12.7719 19.5046 12.9651 19.5215 13.1338 19.5765C13.2995 19.6303 13.4803 19.6894 13.6304 19.7781C13.7837 19.8688 13.9354 19.9687 14.0678 20.083C14.202 20.1987 14.316 20.3388 14.4263 20.4694C14.4782 20.5313 14.5251 20.5964 14.5656 20.6644C14.6527 20.8103 14.7274 20.9637 14.7857 21.1202C14.8433 21.2749 14.8608 21.4461 14.8794 21.6048C14.8978 21.7596 14.8611 21.9285 14.8291 22.0752C14.7974 22.2203 14.7268 22.3657 14.635 22.4888C14.4193 22.7779 14.1048 23.0175 13.7286 23.1293C15.0983 23.1374 16.4686 22.9266 17.7344 22.4897C17.0424 20.8286 16.0372 19.1271 13.7121 19.0633Z" fill="#FE97C3"/>
<path d="M4.0887 11.0213C4.04025 10.9552 3.93511 10.9197 3.84897 10.9883C3.63616 11.1613 3.38756 11.2307 3.12281 11.2568C3.08227 11.3544 3.03603 11.4504 2.98315 11.5441C3.36222 11.5278 3.70108 11.4532 3.9918 11.2382C3.78152 11.7361 3.49871 12.1963 3.05694 12.5763C2.77667 12.8193 2.43464 13.0485 2.05462 13.1522C1.67111 13.2571 1.4032 13.1344 1.24992 12.9186C1.11406 12.9555 0.974395 12.9802 0.83252 12.9933C0.872422 13.0917 0.92405 13.1822 0.990554 13.2582C1.14446 13.4349 1.34935 13.512 1.5723 13.525C1.66414 13.5131 1.75599 13.5084 1.84656 13.512C2.25699 13.4537 2.68451 13.2382 2.95211 13.0551C3.65801 12.5688 4.13494 11.8374 4.16439 11.0468C4.16408 11.0096 4.11562 11.0002 4.0887 11.0213Z" fill="#20235A"/>
<path d="M2.98306 11.5442C2.62362 12.1831 1.99024 12.7173 1.24951 12.9187C1.40311 13.1345 1.6707 13.2572 2.05421 13.1523C2.43423 13.0486 2.77626 12.8197 3.05653 12.5764C3.49831 12.1964 3.78111 11.7362 3.99139 11.2383C3.70098 11.453 3.36213 11.5279 2.98306 11.5442Z" fill="#0AB9DE"/>
</g>
<path d="M12.3864 2.91249C8.28596 2.7885 4.49585 4.86285 3.02262 8.24789C2.97638 8.35386 3.1569 8.40656 3.22182 8.3214C5.2369 5.68033 8.75276 4.09808 12.3867 4.31445C13.409 4.37547 13.4207 2.94356 12.3864 2.91249Z" fill="white"/>
<path d="M12.3602 20.2567C11.9808 20.1124 11.5682 20.3871 11.3297 20.6389C11.0618 20.9219 10.9649 21.1984 10.9794 21.5591C10.987 21.7502 11.2812 21.779 11.3516 21.6032C11.4329 21.3998 11.6325 21.1621 11.8158 21.0209C12.0131 20.8692 12.3352 20.8079 12.4653 20.6087C12.5375 20.4989 12.5075 20.3127 12.3602 20.2567Z" fill="white"/>
</g>
</svg>
