<svg width="11" height="12" viewBox="0 0 11 12" fill="none" xmlns="http://www.w3.org/2000/svg">
<path d="M8.61686 7.55728C8.92507 7.55728 9.22636 7.64868 9.48263 7.81991C9.73889 7.99114 9.93863 8.23452 10.0566 8.51927C10.1745 8.80402 10.2054 9.11734 10.1453 9.41963C10.0851 9.72192 9.93671 9.99959 9.71877 10.2175C9.50083 10.4355 9.22317 10.5839 8.92088 10.644C8.61859 10.7041 8.30526 10.6733 8.02051 10.5553C7.73577 10.4374 7.49239 10.2376 7.32116 9.98138C7.14992 9.72511 7.05853 9.42382 7.05853 9.11562V2.88353C7.05853 2.57532 7.14992 2.27403 7.32116 2.01777C7.49239 1.7615 7.73577 1.56176 8.02051 1.44382C8.30526 1.32587 8.61859 1.29501 8.92088 1.35514C9.22317 1.41527 9.50083 1.56368 9.71877 1.78162C9.93671 1.99956 10.0851 2.27723 10.1453 2.57951C10.2054 2.8818 10.1745 3.19513 10.0566 3.47988C9.93863 3.76463 9.73889 4.008 9.48263 4.17924C9.22636 4.35047 8.92507 4.44186 8.61686 4.44186H2.38353C2.07532 4.44186 1.77403 4.35047 1.51777 4.17924C1.2615 4.008 1.06176 3.76463 0.943817 3.47988C0.825871 3.19513 0.79501 2.8818 0.855139 2.57951C0.915268 2.27723 1.06368 1.99956 1.28162 1.78162C1.49956 1.56368 1.77723 1.41527 2.07951 1.35514C2.3818 1.29501 2.69513 1.32587 2.97988 1.44382C3.26463 1.56176 3.508 1.7615 3.67924 2.01777C3.85047 2.27403 3.94186 2.57532 3.94186 2.88353V9.11686C3.94186 9.42507 3.85047 9.72636 3.67924 9.98263C3.508 10.2389 3.26463 10.4386 2.97988 10.5566C2.69513 10.6745 2.3818 10.7054 2.07951 10.6453C1.77723 10.5851 1.49956 10.4367 1.28162 10.2188C1.06368 10.0008 0.915268 9.72317 0.855139 9.42088C0.79501 9.11859 0.825871 8.80526 0.943817 8.52051C1.06176 8.23577 1.2615 7.99239 1.51777 7.82116C1.77403 7.64992 2.07532 7.55853 2.38353 7.55853L8.61686 7.55728Z" stroke="#19213D" stroke-width="1.2" stroke-linecap="round" stroke-linejoin="round"/>
</svg>
