<svg width="25" height="24" viewBox="0 0 25 24" fill="none" xmlns="http://www.w3.org/2000/svg">
<path d="M17.75 10.5C17.75 10.6989 17.671 10.8897 17.5303 11.0303C17.3897 11.171 17.1989 11.25 17 11.25H11C10.8011 11.25 10.6103 11.171 10.4697 11.0303C10.329 10.8897 10.25 10.6989 10.25 10.5C10.25 10.3011 10.329 10.1103 10.4697 9.96967C10.6103 9.82902 10.8011 9.75 11 9.75H17C17.1989 9.75 17.3897 9.82902 17.5303 9.96967C17.671 10.1103 17.75 10.3011 17.75 10.5ZM17 12.75H11C10.8011 12.75 10.6103 12.829 10.4697 12.9697C10.329 13.1103 10.25 13.3011 10.25 13.5C10.25 13.6989 10.329 13.8897 10.4697 14.0303C10.6103 14.171 10.8011 14.25 11 14.25H17C17.1989 14.25 17.3897 14.171 17.5303 14.0303C17.671 13.8897 17.75 13.6989 17.75 13.5C17.75 13.3011 17.671 13.1103 17.5303 12.9697C17.3897 12.829 17.1989 12.75 17 12.75ZM21.5 4.5V19.5C21.5 19.8978 21.342 20.2794 21.0607 20.5607C20.7794 20.842 20.3978 21 20 21H5C4.60218 21 4.22064 20.842 3.93934 20.5607C3.65804 20.2794 3.5 19.8978 3.5 19.5V4.5C3.5 4.10218 3.65804 3.72064 3.93934 3.43934C4.22064 3.15804 4.60218 3 5 3H20C20.3978 3 20.7794 3.15804 21.0607 3.43934C21.342 3.72064 21.5 4.10218 21.5 4.5ZM5 19.5H7.25V4.5H5V19.5ZM20 19.5V4.5H8.75V19.5H20Z" fill="#343330"/>
</svg>
