<svg width="13" height="12" viewBox="0 0 13 12" fill="none" xmlns="http://www.w3.org/2000/svg">
<path d="M11.3747 1.5C11.3747 1.40054 11.3352 1.30516 11.2648 1.23483C11.1945 1.16451 11.0991 1.125 10.9997 1.125C8.93342 1.125 6.81327 3.45516 5.63577 4.99828C5.21524 4.86949 4.77036 4.84112 4.33688 4.91544C3.9034 4.98977 3.49338 5.16472 3.13978 5.42624C2.78617 5.68777 2.49882 6.02857 2.30082 6.42129C2.10282 6.81401 1.99967 7.24769 1.99967 7.6875C1.99967 9.135 1.08374 9.78422 1.04014 9.81422C0.973622 9.85914 0.923269 9.92422 0.896488 9.99988C0.869708 10.0755 0.867912 10.1578 0.891366 10.2346C0.91482 10.3113 0.962286 10.3786 1.02678 10.4263C1.09128 10.4741 1.16941 10.4999 1.24967 10.5H4.81217C5.25198 10.5 5.68566 10.3969 6.07838 10.1989C6.4711 10.0009 6.81191 9.7135 7.07343 9.3599C7.33496 9.00629 7.50991 8.59628 7.58423 8.16279C7.65856 7.72931 7.63018 7.28444 7.50139 6.86391C9.04499 5.68641 11.3747 3.56625 11.3747 1.5ZM4.81217 9.75H2.12296C2.43936 9.30047 2.74967 8.62125 2.74967 7.6875C2.74967 7.27958 2.87064 6.88081 3.09727 6.54164C3.3239 6.20246 3.64602 5.9381 4.02289 5.782C4.39976 5.62589 4.81446 5.58505 5.21455 5.66463C5.61463 5.74421 5.98214 5.94065 6.27058 6.22909C6.55903 6.51754 6.75546 6.88504 6.83504 7.28513C6.91463 7.68521 6.87378 8.09991 6.71768 8.47679C6.56157 8.85366 6.29721 9.17578 5.95804 9.40241C5.61886 9.62904 5.2201 9.75 4.81217 9.75ZM6.33186 5.32266C6.49249 5.11453 6.65014 4.91844 6.80483 4.73438C7.18345 4.99018 7.5095 5.31622 7.7653 5.69484C7.58092 5.84922 7.38483 6.00688 7.17702 6.16781C6.95849 5.82929 6.67039 5.54118 6.33186 5.32266ZM8.33342 5.19703C8.05032 4.79756 7.70164 4.44889 7.30217 4.16578C8.79186 2.54719 9.91546 2.05641 10.5787 1.92C10.4451 2.58375 9.95202 3.70734 8.33342 5.19703Z" fill="#0066E2"/>
</svg>
