<svg width="60" height="74" viewBox="0 0 60 74" fill="none" xmlns="http://www.w3.org/2000/svg">
<path fill-rule="evenodd" clip-rule="evenodd" d="M53.0531 13.5239C50.7156 12.8708 48.2861 14.2265 47.6127 16.575C47.27 17.7701 46.0235 18.4611 44.8283 18.1184C43.6332 17.7756 42.9424 16.529 43.2851 15.3339C44.6348 10.6266 49.5124 7.87913 54.2316 9.17862C54.3196 9.20054 54.4966 9.24492 54.6564 9.29821C61.1334 11.4572 61.6488 20.2461 55.8398 23.458C55.8395 23.4583 55.84 23.458 55.8398 23.458L42.9273 30.6027C41.8395 31.2047 40.4698 30.8108 39.8678 29.723C39.2658 28.6352 39.6597 27.2652 40.7475 26.6635L53.66 19.5187C56.2113 18.1084 55.7982 14.438 53.2474 13.5743L53.2313 13.5699C53.2027 13.5623 53.1684 13.5536 53.1128 13.5397C53.0928 13.5347 53.0728 13.5295 53.0531 13.5239Z" fill="#FFD340"/>
<path fill-rule="evenodd" clip-rule="evenodd" d="M53.0531 13.5239C50.7156 12.8708 48.2861 14.2265 47.6127 16.575C47.27 17.7701 46.0235 18.4611 44.8283 18.1184C43.6332 17.7756 42.9424 16.529 43.2851 15.3339C44.6348 10.6266 49.5124 7.87913 54.2316 9.17862C54.3196 9.20054 54.4966 9.24492 54.6564 9.29821C61.1334 11.4572 61.6488 20.2461 55.8398 23.458C55.8395 23.4583 55.84 23.458 55.8398 23.458L42.9273 30.6027C41.8395 31.2047 40.4698 30.8108 39.8678 29.723C39.2658 28.6352 39.6597 27.2652 40.7475 26.6635L53.66 19.5187C56.2113 18.1084 55.7982 14.438 53.2474 13.5743L53.2313 13.5699C53.2027 13.5623 53.1684 13.5536 53.1128 13.5397C53.0928 13.5347 53.0728 13.5295 53.0531 13.5239Z" fill="url(#paint0_linear_230_1754)"/>
<path fill-rule="evenodd" clip-rule="evenodd" d="M53.0531 13.5239C50.7156 12.8708 48.2861 14.2265 47.6127 16.575C47.27 17.7701 46.0235 18.4611 44.8283 18.1184C43.6332 17.7756 42.9424 16.529 43.2851 15.3339C44.6348 10.6266 49.5124 7.87913 54.2316 9.17862C54.3196 9.20054 54.4966 9.24492 54.6564 9.29821C61.1334 11.4572 61.6488 20.2461 55.8398 23.458C55.8395 23.4583 55.84 23.458 55.8398 23.458L42.9273 30.6027C41.8395 31.2047 40.4698 30.8108 39.8678 29.723C39.2658 28.6352 39.6597 27.2652 40.7475 26.6635L53.66 19.5187C56.2113 18.1084 55.7982 14.438 53.2474 13.5743L53.2313 13.5699C53.2027 13.5623 53.1684 13.5536 53.1128 13.5397C53.0928 13.5347 53.0728 13.5295 53.0531 13.5239Z" fill="url(#paint1_radial_230_1754)"/>
<path fill-rule="evenodd" clip-rule="evenodd" d="M5.64537 9.17862C10.3646 7.87913 15.242 10.6266 16.592 15.3339C16.9347 16.529 16.2436 17.7756 15.0486 18.1184C13.8535 18.4611 12.6069 17.7701 12.2641 16.575C11.5907 14.2265 9.1612 12.8708 6.82389 13.5239C6.80401 13.5295 6.78408 13.5347 6.76408 13.5397C6.70856 13.5536 6.67418 13.5623 6.64558 13.5699L6.6296 13.5743C4.0786 14.438 3.6648 18.1079 6.21601 19.5183L19.1293 26.6635C20.2171 27.2652 20.6109 28.6352 20.0092 29.723C19.4072 30.8108 18.0373 31.2047 16.9495 30.6027L4.03786 23.4585C4.0376 23.4583 4.03812 23.4585 4.03786 23.4585C-1.77101 20.2466 -1.25654 11.4572 5.22048 9.29818C5.38029 9.24492 5.55719 9.20054 5.64537 9.17862Z" fill="#EAA73A"/>
<path fill-rule="evenodd" clip-rule="evenodd" d="M5.64537 9.17862C10.3646 7.87913 15.242 10.6266 16.592 15.3339C16.9347 16.529 16.2436 17.7756 15.0486 18.1184C13.8535 18.4611 12.6069 17.7701 12.2641 16.575C11.5907 14.2265 9.1612 12.8708 6.82389 13.5239C6.80401 13.5295 6.78408 13.5347 6.76408 13.5397C6.70856 13.5536 6.67418 13.5623 6.64558 13.5699L6.6296 13.5743C4.0786 14.438 3.6648 18.1079 6.21601 19.5183L19.1293 26.6635C20.2171 27.2652 20.6109 28.6352 20.0092 29.723C19.4072 30.8108 18.0373 31.2047 16.9495 30.6027L4.03786 23.4585C4.0376 23.4583 4.03812 23.4585 4.03786 23.4585C-1.77101 20.2466 -1.25654 11.4572 5.22048 9.29818C5.38029 9.24492 5.55719 9.20054 5.64537 9.17862Z" fill="url(#paint2_linear_230_1754)"/>
<path d="M34.2769 41.2842V30.3203H25.599V41.2842C25.599 43.2068 24.7417 45.0514 23.2608 46.2725L18.2725 50.4295H41.6032L36.6149 46.2725C35.134 45.0254 34.2769 43.2068 34.2769 41.2842Z" fill="url(#paint3_linear_230_1754)"/>
<path d="M34.2769 41.2842V30.3203H25.599V41.2842C25.599 43.2068 24.7417 45.0514 23.2608 46.2725L18.2725 50.4295H41.6032L36.6149 46.2725C35.134 45.0254 34.2769 43.2068 34.2769 41.2842Z" fill="url(#paint4_radial_230_1754)"/>
<path d="M34.2774 41.2832V30.3193H25.5995V41.2832C25.5995 43.2058 24.7422 45.0505 23.2613 46.2716L18.2729 50.4285H41.6037L36.6154 46.2716C35.1345 45.0245 34.2774 43.2058 34.2774 41.2832Z" fill="url(#paint5_radial_230_1754)"/>
<path d="M29.9383 38.7634C19.9357 38.7634 11.8296 30.6574 11.8296 20.6548V2.83192C11.8296 1.81866 12.6609 0.987305 13.6742 0.987305H46.2283C47.2415 0.987305 48.0729 1.81866 48.0729 2.83192V20.6548C48.0729 30.6574 39.9669 38.7634 29.9383 38.7634Z" fill="#EA873A"/>
<path d="M29.9383 38.7634C19.9357 38.7634 11.8296 30.6574 11.8296 20.6548V2.83192C11.8296 1.81866 12.6609 0.987305 13.6742 0.987305H46.2283C47.2415 0.987305 48.0729 1.81866 48.0729 2.83192V20.6548C48.0729 30.6574 39.9669 38.7634 29.9383 38.7634Z" fill="url(#paint6_radial_230_1754)"/>
<path d="M29.9383 38.7634C19.9357 38.7634 11.8296 30.6574 11.8296 20.6548V2.83192C11.8296 1.81866 12.6609 0.987305 13.6742 0.987305H46.2283C47.2415 0.987305 48.0729 1.81866 48.0729 2.83192V20.6548C48.0729 30.6574 39.9669 38.7634 29.9383 38.7634Z" fill="url(#paint7_radial_230_1754)"/>
<path d="M29.9383 38.7634C19.9357 38.7634 11.8296 30.6574 11.8296 20.6548V2.83192C11.8296 1.81866 12.6609 0.987305 13.6742 0.987305H46.2283C47.2415 0.987305 48.0729 1.81866 48.0729 2.83192V20.6548C48.0729 30.6574 39.9669 38.7634 29.9383 38.7634Z" fill="url(#paint8_radial_230_1754)"/>
<path d="M47.9184 50.4297H11.9608C10.0642 50.4297 8.45345 51.7547 8.08972 53.5993L4.11465 72.0197C3.93279 72.8771 4.58228 73.6825 5.46563 73.6825H54.4396C55.3229 73.6825 55.9725 72.8771 55.7906 72.0197L51.8155 53.5993C51.4258 51.7547 49.815 50.4297 47.9184 50.4297Z" fill="url(#paint9_linear_230_1754)"/>
<path d="M47.9184 50.4297H11.9608C10.0642 50.4297 8.45345 51.7547 8.08972 53.5993L4.11465 72.0197C3.93279 72.8771 4.58228 73.6825 5.46563 73.6825H54.4396C55.3229 73.6825 55.9725 72.8771 55.7906 72.0197L51.8155 53.5993C51.4258 51.7547 49.815 50.4297 47.9184 50.4297Z" fill="url(#paint10_linear_230_1754)"/>
<path d="M47.9184 50.4297H11.9608C10.0642 50.4297 8.45345 51.7547 8.08972 53.5993L4.11465 72.0197C3.93279 72.8771 4.58228 73.6825 5.46563 73.6825H54.4396C55.3229 73.6825 55.9725 72.8771 55.7906 72.0197L51.8155 53.5993C51.4258 51.7547 49.815 50.4297 47.9184 50.4297Z" fill="url(#paint11_linear_230_1754)"/>
<path d="M37.0684 57.8174H21.4279C20.5186 57.8174 19.7651 58.5448 19.7651 59.4802V64.1827C19.7651 65.092 20.4926 65.8455 21.4279 65.8455H37.0684C37.9777 65.8455 38.7311 65.118 38.7311 64.1827V59.4802C38.7311 58.5708 38.0037 57.8174 37.0684 57.8174Z" fill="#914556"/>
<path d="M37.7598 57.3418H22.1193C21.21 57.3418 20.4565 58.0693 20.4565 59.0046V63.7071C20.4565 64.6164 21.184 65.3699 22.1193 65.3699H37.7598C38.6691 65.3699 39.4225 64.6424 39.4225 63.7071V59.0046C39.4225 58.0952 38.6951 57.3418 37.7598 57.3418Z" fill="url(#paint12_linear_230_1754)"/>
<defs>
<linearGradient id="paint0_linear_230_1754" x1="47.0297" y1="26.7994" x2="56.4649" y2="18.2873" gradientUnits="userSpaceOnUse">
<stop stop-color="#FEC551"/>
<stop offset="1" stop-color="#FEC551" stop-opacity="0"/>
</linearGradient>
<radialGradient id="paint1_radial_230_1754" cx="0" cy="0" r="1" gradientUnits="userSpaceOnUse" gradientTransform="translate(47.1323 18.9026) rotate(-21.5519) scale(13.1215 12.087)">
<stop offset="0.72717" stop-color="#FFEC6A" stop-opacity="0"/>
<stop offset="1" stop-color="#FFEC6A"/>
</radialGradient>
<linearGradient id="paint2_linear_230_1754" x1="14.1097" y1="16.4413" x2="7.64865" y2="14.5952" gradientUnits="userSpaceOnUse">
<stop stop-color="#D27840"/>
<stop offset="1" stop-color="#D27840" stop-opacity="0"/>
</linearGradient>
<linearGradient id="paint3_linear_230_1754" x1="33.3039" y1="47.1039" x2="20.1511" y2="47.1039" gradientUnits="userSpaceOnUse">
<stop stop-color="#FBC33A"/>
<stop offset="1" stop-color="#DB7B3C"/>
</linearGradient>
<radialGradient id="paint4_radial_230_1754" cx="0" cy="0" r="1" gradientUnits="userSpaceOnUse" gradientTransform="translate(34.0348 40.3749) rotate(90) scale(5.42999 4.95259)">
<stop offset="0.192585" stop-color="#FFE469"/>
<stop offset="1" stop-color="#FFE469" stop-opacity="0"/>
</radialGradient>
<radialGradient id="paint5_radial_230_1754" cx="0" cy="0" r="1" gradientUnits="userSpaceOnUse" gradientTransform="translate(39.6385 48.642) rotate(149.162) scale(5.91045 8.9739)">
<stop stop-color="#FFD34D"/>
<stop offset="1" stop-color="#FFD34D" stop-opacity="0"/>
</radialGradient>
<radialGradient id="paint6_radial_230_1754" cx="0" cy="0" r="1" gradientUnits="userSpaceOnUse" gradientTransform="translate(36.552 3.91015) rotate(83.702) scale(32.2778 20.7264)">
<stop offset="0.120527" stop-color="#FFFA73"/>
<stop offset="1" stop-color="#FFFA73" stop-opacity="0"/>
</radialGradient>
<radialGradient id="paint7_radial_230_1754" cx="0" cy="0" r="1" gradientUnits="userSpaceOnUse" gradientTransform="translate(36.7601 0.987305) rotate(90) scale(1.82992 20.4508)">
<stop stop-color="#FFF45B"/>
<stop offset="1" stop-color="#FFF45B" stop-opacity="0"/>
</radialGradient>
<radialGradient id="paint8_radial_230_1754" cx="0" cy="0" r="1" gradientUnits="userSpaceOnUse" gradientTransform="translate(38.6629 8.13203) rotate(121.572) scale(34.1157 32.7314)">
<stop offset="0.787409" stop-color="#C55D73" stop-opacity="0"/>
<stop offset="1" stop-color="#C55D73"/>
</radialGradient>
<linearGradient id="paint9_linear_230_1754" x1="4.08322" y1="62.0488" x2="55.8111" y2="62.0488" gradientUnits="userSpaceOnUse">
<stop stop-color="#9D5B6C"/>
<stop offset="1" stop-color="#955569"/>
</linearGradient>
<linearGradient id="paint10_linear_230_1754" x1="29.9527" y1="74.6924" x2="29.9527" y2="70.4674" gradientUnits="userSpaceOnUse">
<stop stop-color="#8C3A79"/>
<stop offset="1" stop-color="#8C3A79" stop-opacity="0"/>
</linearGradient>
<linearGradient id="paint11_linear_230_1754" x1="53.8745" y1="64.6983" x2="51.437" y2="65.2673" gradientUnits="userSpaceOnUse">
<stop stop-color="#B0817C"/>
<stop offset="1" stop-color="#B0817C" stop-opacity="0"/>
</linearGradient>
<linearGradient id="paint12_linear_230_1754" x1="40.3953" y1="61.3558" x2="20.4565" y2="61.3556" gradientUnits="userSpaceOnUse">
<stop stop-color="#FFE767"/>
<stop offset="1" stop-color="#FEBB5B"/>
</linearGradient>
</defs>
</svg>
