<svg width="167" height="37" viewBox="0 0 167 37" fill="none" xmlns="http://www.w3.org/2000/svg">
<path d="M15.5 8.55119C15.5 4.37377 18.8865 0.987305 23.0639 0.987305H148.971C158.652 0.987305 166.5 8.83519 166.5 18.516C166.5 28.1969 158.652 36.0448 148.971 36.0448H78.0802H23.4612C19.0644 36.0448 15.5 32.4804 15.5 28.0836C15.5 24.2574 12.7782 20.9724 9.01871 20.2611L1.59061 18.8558C0.687902 18.685 0.704925 17.3865 1.6118 17.2394L9.14687 16.0175C12.8091 15.4237 15.5 12.2613 15.5 8.55119Z" fill="white"/>
<path d="M15.7878 8.55119C15.7878 4.53275 19.0454 1.27515 23.0639 1.27515H148.971C158.493 1.27515 166.212 8.99416 166.212 18.516C166.212 28.0379 158.493 35.7569 148.971 35.7569H78.0802H23.4612C19.2233 35.7569 15.7878 32.3214 15.7878 28.0836C15.7878 24.1191 12.9676 20.7153 9.07222 19.9783L1.64412 18.573C1.05806 18.4621 1.0691 17.6191 1.65788 17.5236L9.19295 16.3017C12.9945 15.6852 15.7878 12.4025 15.7878 8.55119Z" stroke="#D9D9D9" stroke-opacity="0.85098" stroke-width="0.575696"/>
</svg>
