<svg width="109" height="49" viewBox="0 0 109 49" fill="none" xmlns="http://www.w3.org/2000/svg">
<path d="M0.791992 18.0324C0.791992 8.33495 8.6533 0.473633 18.3507 0.473633H90.8884C100.586 0.473633 108.447 8.33495 108.447 18.0324C108.447 27.7298 100.586 35.5911 90.8884 35.5911H73.6496C66.3438 35.5911 59.6103 39.5457 56.0519 45.9263L55.0031 47.8069C54.3388 48.9981 52.6207 48.9854 51.9741 47.7845L51.1143 46.1876C47.6 39.6611 40.7859 35.5911 33.3733 35.5911H18.3507C8.65329 35.5911 0.791992 27.7298 0.791992 18.0324Z" fill="white"/>
<path d="M1.07984 18.0324C1.07984 8.49392 8.81227 0.761481 18.3507 0.761481H90.8884C100.427 0.761481 108.159 8.49392 108.159 18.0324C108.159 27.5708 100.427 35.3032 90.8884 35.3032H73.6496C66.2394 35.3032 59.4097 39.3143 55.8005 45.7861L54.7517 47.6667C54.1981 48.6593 52.7664 48.6487 52.2275 47.648L51.3677 46.0512C47.8032 39.4314 40.8918 35.3032 33.3733 35.3032H18.3507C8.81227 35.3032 1.07984 27.5708 1.07984 18.0324Z" stroke="#D9D9D9" stroke-opacity="0.85098" stroke-width="0.575696"/>
</svg>
