<svg width="42" height="94" viewBox="0 0 42 94" fill="none" xmlns="http://www.w3.org/2000/svg">
<path d="M5.69727 7.61816C5.69727 7.61816 5.69727 22.0106 5.69727 29.2068C5.69727 36.6908 10.8788 40.7207 10.8788 40.7207C10.8788 40.7207 14.9084 43.887 18.0748 45.3262C24.2149 48.1172 41.1026 47.0533 41.1026 47.0533" stroke="black" stroke-width="0.575696"/>
<path d="M5.69727 86.9756C5.69727 86.9756 5.69727 72.5832 5.69727 65.387C5.69727 57.9029 10.8788 53.8731 10.8788 53.8731C10.8788 53.8731 14.9084 50.7067 18.0748 49.2675C24.2149 46.4765 41.1026 47.5404 41.1026 47.5404" stroke="black" stroke-width="0.575696"/>
<rect x="1.09205" y="85.0496" width="9.78683" height="8.63544" rx="2.01494" fill="white" stroke="#D9D9D9" stroke-width="0.575696"/>
<rect x="1.09205" y="0.421637" width="9.78683" height="8.63544" rx="2.01494" fill="white" stroke="#D9D9D9" stroke-width="0.575696"/>
</svg>
