<svg width="303" height="163" viewBox="0 0 303 163" fill="none" xmlns="http://www.w3.org/2000/svg">
<g filter="url(#filter0_dddi_230_1782)">
<path d="M197.525 15.0325C199.498 7.82783 206.938 3.58673 214.142 5.55972L288.881 26.0268C296.085 27.9998 300.327 35.4398 298.354 42.6444L277.886 117.383C275.913 124.588 268.474 128.829 261.269 126.856L186.53 106.389C179.326 104.416 175.085 96.9756 177.058 89.771L197.525 15.0325Z" fill="white" shape-rendering="crispEdges"/>
<path d="M197.932 15.1441C199.844 8.16461 207.051 4.05605 214.031 5.96738L288.769 26.4345C295.749 28.3458 299.857 35.5533 297.946 42.5328L277.479 117.271C275.567 124.251 268.36 128.359 261.381 126.448L186.642 105.981C179.663 104.07 175.554 96.8621 177.465 89.8826L197.932 15.1441Z" stroke="#C6C6C6" stroke-width="0.845343" shape-rendering="crispEdges"/>
<path d="M234.355 60.8408L241.583 62.853L231.879 97.7073L224.652 95.6951L234.355 60.8408Z" fill="url(#paint0_linear_230_1782)"/>
<path d="M234.355 60.8408L241.583 62.853L231.879 97.7073L224.652 95.6951L234.355 60.8408Z" fill="url(#paint1_linear_230_1782)"/>
<path d="M234.355 60.8408L241.583 62.853L231.879 97.7073L224.652 95.6951L234.355 60.8408Z" fill="url(#paint2_linear_230_1782)"/>
<path d="M234.355 60.8408L241.583 62.853L231.879 97.7073L224.652 95.6951L234.355 60.8408Z" fill="url(#paint3_linear_230_1782)"/>
<path d="M234.355 60.8408L241.583 62.853L231.879 97.7073L224.652 95.6951L234.355 60.8408Z" fill="url(#paint4_linear_230_1782)"/>
<path d="M237.623 63.0918L239.029 63.4833L230.344 94.68L228.938 94.2885L237.623 63.0918Z" fill="url(#paint5_linear_230_1782)"/>
<path d="M233.196 74.3312C235.693 65.3635 245.831 60.9808 257.339 63.5569L273.849 68.1533C274.409 68.3094 274.737 68.8902 274.581 69.4507C270.885 78.8001 263.904 83.1369 251.021 80.3873L233.928 75.6286C233.368 75.4726 233.04 74.8917 233.196 74.3312Z" fill="url(#paint6_linear_230_1782)"/>
<path d="M233.196 74.3312C235.693 65.3635 245.831 60.9808 257.339 63.5569L273.849 68.1533C274.409 68.3094 274.737 68.8902 274.581 69.4507C270.885 78.8001 263.904 83.1369 251.021 80.3873L233.928 75.6286C233.368 75.4726 233.04 74.8917 233.196 74.3312Z" fill="url(#paint7_linear_230_1782)"/>
<path d="M233.196 74.3312C235.693 65.3635 245.831 60.9808 257.339 63.5569L273.849 68.1533C274.409 68.3094 274.737 68.8902 274.581 69.4507C270.885 78.8001 263.904 83.1369 251.021 80.3873L233.928 75.6286C233.368 75.4726 233.04 74.8917 233.196 74.3312Z" fill="url(#paint8_linear_230_1782)"/>
<path d="M233.196 74.3312C235.693 65.3635 245.831 60.9808 257.339 63.5569L273.849 68.1533C274.409 68.3094 274.737 68.8902 274.581 69.4507C270.885 78.8001 263.904 83.1369 251.021 80.3873L233.928 75.6286C233.368 75.4726 233.04 74.8917 233.196 74.3312Z" fill="url(#paint9_radial_230_1782)"/>
<path d="M236.024 73.27C237.958 66.3224 247.441 63.3807 256.583 65.4394L271.214 69.5127C271.659 69.6367 271.922 70.0892 271.801 70.5234C268.917 77.761 261.892 80.6703 251.658 78.4698L236.611 74.2807C236.166 74.1567 235.903 73.7042 236.024 73.27Z" fill="url(#paint10_linear_230_1782)"/>
<path d="M241.519 63.0825C244.016 54.1148 237.601 45.1237 226.417 41.3819L209.908 36.7855C209.347 36.6294 208.767 36.9573 208.611 37.5178C206.944 47.4322 210.679 54.7523 223.13 59.0561L240.222 63.8148C240.782 63.9709 241.363 63.643 241.519 63.0825Z" fill="url(#paint11_linear_230_1782)"/>
<path d="M239.97 60.1024C241.69 53.9219 235.99 47.3689 226.527 44.3016L212.596 40.423C212.123 40.2913 211.652 40.4977 211.545 40.884C210.553 47.7606 213.955 53.0362 224.495 56.5478L238.919 60.5633C239.392 60.695 239.862 60.4887 239.97 60.1024Z" fill="url(#paint12_linear_230_1782)"/>
<path d="M229.391 92.956C216.809 89.4532 203.908 96.0054 199.932 107.671C199.702 108.346 200.107 109.06 200.794 109.251L245.479 121.692C246.165 121.883 246.881 121.481 247.033 120.785C249.657 108.743 241.997 96.4658 229.391 92.956Z" fill="url(#paint13_radial_230_1782)"/>
<path d="M229.391 92.956C216.809 89.4532 203.908 96.0054 199.932 107.671C199.702 108.346 200.107 109.06 200.794 109.251L245.479 121.692C246.165 121.883 246.881 121.481 247.033 120.785C249.657 108.743 241.997 96.4658 229.391 92.956Z" fill="url(#paint14_linear_230_1782)"/>
<path d="M229.391 92.956C216.809 89.4532 203.908 96.0054 199.932 107.671C199.702 108.346 200.107 109.06 200.794 109.251L245.479 121.692C246.165 121.883 246.881 121.481 247.033 120.785C249.657 108.743 241.997 96.4658 229.391 92.956Z" fill="url(#paint15_radial_230_1782)"/>
<path d="M229.391 92.956C216.809 89.4532 203.908 96.0054 199.932 107.671C199.702 108.346 200.107 109.06 200.794 109.251L245.479 121.692C246.165 121.883 246.881 121.481 247.033 120.785C249.657 108.743 241.997 96.4658 229.391 92.956Z" fill="url(#paint16_radial_230_1782)"/>
<path d="M232.038 46.3789C234.762 47.7234 240.16 52.2744 239.962 59.7222" stroke="url(#paint17_linear_230_1782)" stroke-width="1.2907" stroke-linecap="round"/>
</g>
<g filter="url(#filter1_dddi_230_1782)">
<rect width="104.541" height="104.541" rx="25.3603" transform="matrix(-0.964489 0.264125 0.264125 0.964489 101.734 7.05957)" fill="#F1EEFE" shape-rendering="crispEdges"/>
<rect x="-0.296024" y="0.5193" width="103.696" height="103.696" rx="24.9376" transform="matrix(-0.964489 0.264125 0.264125 0.964489 101.015 7.1562)" stroke="#6D39E4" stroke-width="0.845343" shape-rendering="crispEdges"/>
<path d="M37.103 54.3399L37.103 49.2988L22.3845 49.2988C21.9936 49.2988 21.6768 49.6157 21.6768 50.0065L21.6768 50.0935C21.6768 52.4387 23.5779 54.3399 25.923 54.3399L37.103 54.3399Z" fill="#CBC8C7"/>
<path d="M37.1029 59.3258L37.1029 54.3418L26.2883 54.3418C25.8974 54.3418 25.5806 54.6552 25.5806 55.0416L25.5806 55.1276C25.5806 57.4461 27.4817 59.3258 29.8269 59.3258L37.1029 59.3258Z" fill="#BDBFBD"/>
<path d="M18.7077 44.3154C18.3169 44.3154 18 44.6323 18 45.0231L18 45.1101C18 47.4553 19.9011 49.3564 22.2463 49.3564L34.4164 49.3564C35.0418 49.3564 35.5488 49.8634 35.5488 50.4888L35.5488 57.9095C35.5488 58.6911 36.1826 59.3249 36.9642 59.3249L42.864 59.3249C47.0087 59.3249 50.3686 55.9649 50.3686 51.8201C50.3686 47.6754 47.0087 44.3155 42.864 44.3155L18.7077 44.3154Z" fill="#D6D2D1"/>
<path d="M18.7077 44.3154C18.3169 44.3154 18 44.6323 18 45.0231L18 45.1101C18 47.4553 19.9011 49.3564 22.2463 49.3564L34.4164 49.3564C35.0418 49.3564 35.5488 49.8634 35.5488 50.4888L35.5488 57.9095C35.5488 58.6911 36.1826 59.3249 36.9642 59.3249L42.864 59.3249C47.0087 59.3249 50.3686 55.9649 50.3686 51.8201C50.3686 47.6754 47.0087 44.3155 42.864 44.3155L18.7077 44.3154Z" fill="url(#paint18_radial_230_1782)"/>
<path d="M63.3685 37.9401L29.1987 72.1099C26.7666 74.542 26.7666 78.4853 29.1987 80.9175L48.6086 100.327C51.0407 102.759 54.984 102.759 57.4162 100.327L91.5859 66.1576C94.0181 63.7254 94.0181 59.7821 91.5859 57.35L72.1761 37.9401C69.7439 35.508 65.8006 35.508 63.3685 37.9401Z" fill="url(#paint19_linear_230_1782)"/>
<path d="M63.3685 37.9401L29.1987 72.1099C26.7666 74.542 26.7666 78.4853 29.1987 80.9175L48.6086 100.327C51.0407 102.759 54.984 102.759 57.4162 100.327L91.5859 66.1576C94.0181 63.7254 94.0181 59.7821 91.5859 57.35L72.1761 37.9401C69.7439 35.508 65.8006 35.508 63.3685 37.9401Z" fill="url(#paint20_linear_230_1782)"/>
<path d="M63.3685 37.9401L29.1987 72.1099C26.7666 74.542 26.7666 78.4853 29.1987 80.9175L48.6086 100.327C51.0407 102.759 54.984 102.759 57.4162 100.327L91.5859 66.1576C94.0181 63.7254 94.0181 59.7821 91.5859 57.35L72.1761 37.9401C69.7439 35.508 65.8006 35.508 63.3685 37.9401Z" fill="url(#paint21_linear_230_1782)"/>
<path d="M63.3685 37.9401L29.1987 72.1099C26.7666 74.542 26.7666 78.4853 29.1987 80.9175L48.6086 100.327C51.0407 102.759 54.984 102.759 57.4162 100.327L91.5859 66.1576C94.0181 63.7254 94.0181 59.7821 91.5859 57.35L72.1761 37.9401C69.7439 35.508 65.8006 35.508 63.3685 37.9401Z" fill="url(#paint22_radial_230_1782)"/>
<path d="M63.3685 37.9401L29.1987 72.1099C26.7666 74.542 26.7666 78.4853 29.1987 80.9175L48.6086 100.327C51.0407 102.759 54.984 102.759 57.4162 100.327L91.5859 66.1576C94.0181 63.7254 94.0181 59.7821 91.5859 57.35L72.1761 37.9401C69.7439 35.508 65.8006 35.508 63.3685 37.9401Z" fill="url(#paint23_radial_230_1782)"/>
<path d="M57.8216 32.3913L23.6518 66.5611C21.2197 68.9932 21.2197 72.9365 23.6518 75.3686L43.0617 94.7785C45.4939 97.2107 49.4372 97.2107 51.8693 94.7785L86.0391 60.6087C88.4712 58.1766 88.4712 54.2333 86.0391 51.8012L66.6292 32.3913C64.197 29.9591 60.2538 29.9591 57.8216 32.3913Z" fill="url(#paint24_radial_230_1782)"/>
<path fill-rule="evenodd" clip-rule="evenodd" d="M61.0926 35.6811L26.9423 69.8315C26.303 70.4707 26.303 71.5074 26.9423 72.1466L46.2846 91.489C46.9239 92.1282 47.9605 92.1282 48.5997 91.489L82.7501 57.3386C83.3896 56.6991 83.3896 55.6628 82.7501 55.0233L63.408 35.6811C62.7685 35.0418 61.7321 35.0418 61.0926 35.6811ZM25.7847 68.6737C24.506 69.9524 24.506 72.0257 25.7847 73.3044L45.1268 92.6466C46.4055 93.9253 48.4788 93.9253 49.7575 92.6466L83.9076 58.4962C85.1863 57.2175 85.1863 55.1444 83.9076 53.8657L64.5655 34.5235C63.2868 33.2448 61.2138 33.2448 59.9351 34.5235L25.7847 68.6737Z" fill="url(#paint25_linear_230_1782)"/>
<path d="M68.9055 62.6934C72.8482 58.7508 73.0965 52.6068 69.4602 48.9706C65.824 45.3343 59.68 45.5826 55.7374 49.5253C51.7948 53.4679 51.5464 59.6118 55.1827 63.2481C58.819 66.8844 64.9629 66.636 68.9055 62.6934Z" fill="#289D5B"/>
<path d="M68.9055 62.6934C72.8482 58.7508 73.0965 52.6068 69.4602 48.9706C65.824 45.3343 59.68 45.5826 55.7374 49.5253C51.7948 53.4679 51.5464 59.6118 55.1827 63.2481C58.819 66.8844 64.9629 66.636 68.9055 62.6934Z" fill="url(#paint26_linear_230_1782)"/>
<path d="M68.9055 62.6934C72.8482 58.7508 73.0965 52.6068 69.4602 48.9706C65.824 45.3343 59.68 45.5826 55.7374 49.5253C51.7948 53.4679 51.5464 59.6118 55.1827 63.2481C58.819 66.8844 64.9629 66.636 68.9055 62.6934Z" fill="url(#paint27_radial_230_1782)"/>
<path d="M39.8413 51.7648L46.2566 45.3496L73.7785 72.8717L67.122 79.5282L39.8413 51.7648Z" fill="#127531"/>
<path d="M72.6438 84.5178L79.0351 78.1266L73.7773 72.8691L67.1211 79.5253L72.6438 84.5178Z" fill="#0B3F2E"/>
<path d="M39.2896 50.9229L46.0424 44.17L79.8069 77.9344L73.054 84.6873L39.2896 50.9229Z" fill="url(#paint28_linear_230_1782)"/>
<path d="M39.2896 50.9229L46.0424 44.17L79.8069 77.9344L73.054 84.6873L39.2896 50.9229Z" fill="url(#paint29_linear_230_1782)"/>
<path d="M38.5 68.7266C37.9772 68.2038 37.9772 67.3562 38.5 66.8333C39.0228 66.3108 39.8703 66.3108 40.3932 66.8333L41.4355 67.8757C43.3588 66.7074 45.3192 67.1827 46.4467 68.0996C47.089 68.6219 47.1655 69.3353 46.7091 69.8966C46.2531 70.4577 45.4282 70.5429 44.8668 70.0866C44.4994 69.7879 43.3537 68.9981 41.9306 70.4209C39.8927 72.4588 42.5336 75.1963 44.8971 72.8325C45.91 71.8196 47.568 71.3353 48.7258 71.5244C49.9309 71.7208 50.8662 72.3261 51.5304 73.2087C52.5339 74.8042 52.3997 76.4795 51.4907 77.9309L52.4943 78.9344C53.0168 79.4573 53.0168 80.3048 52.4943 80.8277C51.9714 81.3503 51.1238 81.3503 50.601 80.8277L49.6198 79.8465C48.0161 80.8843 46.1294 80.877 44.5172 79.6036C43.9496 79.1552 43.8069 78.3765 44.2553 77.8089C44.7037 77.2413 45.5272 77.1448 46.0948 77.5932C46.3768 77.8157 46.8354 78.0713 47.3288 78.1248C47.7506 78.1709 48.2791 78.0608 48.9248 77.4148C49.7296 76.6103 49.8616 75.8898 49.7328 75.3528C49.4553 73.8213 47.6003 73.4335 46.507 74.5268C44.9823 75.9312 43.8924 76.2785 42.6729 76.2264C41.6821 76.1842 40.6811 75.7673 39.9652 75.0513C39.5064 74.5927 38.8971 73.7149 38.7878 72.599C38.6997 71.7004 38.8875 70.7071 39.5132 69.7398L38.5 68.7266Z" fill="url(#paint30_linear_230_1782)"/>
<path d="M71.2861 89.5781L76.327 89.5781L76.327 104.297C76.327 104.688 76.0103 105.004 75.6193 105.004L75.5324 105.004C73.1871 105.004 71.2861 103.103 71.2861 100.758L71.2861 89.5781Z" fill="#C8C2C3"/>
<path d="M66.2446 89.5781L71.2855 89.5781L71.2855 100.393C71.2855 100.784 70.9688 101.1 70.5778 101.1L70.4909 101.1C68.1458 101.1 66.2446 99.1991 66.2446 96.854L66.2446 89.5781Z" fill="#C8C2C3"/>
<path d="M73.7778 76.3145C69.6173 76.3145 66.2446 79.6744 66.2446 83.8191L66.2446 89.7189C66.2446 90.5007 66.8807 91.1343 67.6654 91.1343L75.1143 91.1343C75.7419 91.1343 76.2509 91.6413 76.2509 92.2666L76.2509 104.437C76.2509 106.782 78.1592 108.683 80.5133 108.683L80.6008 108.683C80.9931 108.683 81.311 108.366 81.311 107.975L81.311 83.8191C81.311 79.6744 77.9383 76.3145 73.7778 76.3145Z" fill="#DBD7D7"/>
</g>
<g filter="url(#filter2_dddi_230_1782)">
<rect x="96.4287" y="1.9873" width="115.812" height="115.812" rx="25.3603" fill="#FFFBF2" shape-rendering="crispEdges"/>
<rect x="96.8514" y="2.40998" width="114.967" height="114.967" rx="24.9376" stroke="url(#paint31_linear_230_1782)" stroke-width="0.845343" shape-rendering="crispEdges"/>
<path d="M154.383 95.3697C155.918 96.2265 157.766 96.1791 159.293 95.3066C169.565 89.435 187.413 75.9217 194.423 58.3685C204.712 35.5124 180.552 17.2671 163.855 30.3898C162.113 31.7582 159.924 33.3242 158.417 34.8079C157.735 35.4796 156.532 35.548 155.824 34.9037C153.843 33.1011 150.747 30.7893 148.759 29.4442C134.523 19.8131 108.622 32.5085 119.67 59.6036C123.717 71.7647 143.002 89.0173 154.383 95.3697Z" fill="url(#paint32_radial_230_1782)"/>
<path d="M154.383 95.3697C155.918 96.2265 157.766 96.1791 159.293 95.3066C169.565 89.435 187.413 75.9217 194.423 58.3685C204.712 35.5124 180.552 17.2671 163.855 30.3898C162.113 31.7582 159.924 33.3242 158.417 34.8079C157.735 35.4796 156.532 35.548 155.824 34.9037C153.843 33.1011 150.747 30.7893 148.759 29.4442C134.523 19.8131 108.622 32.5085 119.67 59.6036C123.717 71.7647 143.002 89.0173 154.383 95.3697Z" fill="url(#paint33_radial_230_1782)"/>
<path d="M154.383 95.3697C155.918 96.2265 157.766 96.1791 159.293 95.3066C169.565 89.435 187.413 75.9217 194.423 58.3685C204.712 35.5124 180.552 17.2671 163.855 30.3898C162.113 31.7582 159.924 33.3242 158.417 34.8079C157.735 35.4796 156.532 35.548 155.824 34.9037C153.843 33.1011 150.747 30.7893 148.759 29.4442C134.523 19.8131 108.622 32.5085 119.67 59.6036C123.717 71.7647 143.002 89.0173 154.383 95.3697Z" fill="url(#paint34_radial_230_1782)"/>
<path d="M154.383 95.3697C155.918 96.2265 157.766 96.1791 159.293 95.3066C169.565 89.435 187.413 75.9217 194.423 58.3685C204.712 35.5124 180.552 17.2671 163.855 30.3898C162.113 31.7582 159.924 33.3242 158.417 34.8079C157.735 35.4796 156.532 35.548 155.824 34.9037C153.843 33.1011 150.747 30.7893 148.759 29.4442C134.523 19.8131 108.622 32.5085 119.67 59.6036C123.717 71.7647 143.002 89.0173 154.383 95.3697Z" fill="url(#paint35_radial_230_1782)"/>
<path d="M154.383 95.3697C155.918 96.2265 157.766 96.1791 159.293 95.3066C169.565 89.435 187.413 75.9217 194.423 58.3685C204.712 35.5124 180.552 17.2671 163.855 30.3898C162.113 31.7582 159.924 33.3242 158.417 34.8079C157.735 35.4796 156.532 35.548 155.824 34.9037C153.843 33.1011 150.747 30.7893 148.759 29.4442C134.523 19.8131 108.622 32.5085 119.67 59.6036C123.717 71.7647 143.002 89.0173 154.383 95.3697Z" fill="url(#paint36_linear_230_1782)"/>
<path d="M154.383 95.3697C155.918 96.2265 157.766 96.1791 159.293 95.3066C169.565 89.435 187.413 75.9217 194.423 58.3685C204.712 35.5124 180.552 17.2671 163.855 30.3898C162.113 31.7582 159.924 33.3242 158.417 34.8079C157.735 35.4796 156.532 35.548 155.824 34.9037C153.843 33.1011 150.747 30.7893 148.759 29.4442C134.523 19.8131 108.622 32.5085 119.67 59.6036C123.717 71.7647 143.002 89.0173 154.383 95.3697Z" fill="url(#paint37_linear_230_1782)"/>
<path d="M157.051 36.083C159.611 38.4014 163.559 37.7287 165.72 35.0344C169.003 30.9428 173.659 26.7304 179.828 26.3379C174.59 25.3306 168.884 26.4376 163.855 30.3898C163.423 30.7295 162.963 31.0814 162.493 31.4412C161.102 32.5054 159.621 33.6387 158.497 34.7302C157.77 35.4361 156.495 35.5085 155.743 34.8294C155.63 34.7277 155.514 34.6244 155.395 34.5198C155.822 34.953 156.406 35.499 157.051 36.083Z" fill="url(#paint38_linear_230_1782)"/>
<path d="M158.638 45.334V63.1013C158.638 70.8928 166.878 73.4955 169.384 66.1179C171.529 59.8031 172.442 53.0007 170.598 47.0653C169.349 43.0459 166.335 40.8464 163.504 40.0769C160.526 39.2675 158.638 42.2479 158.638 45.334Z" fill="#FA1C56"/>
<path d="M187.728 49.6787C192.454 45.0848 193.722 38.7248 190.561 35.4732C187.4 32.2216 181.007 33.3098 176.281 37.9037C171.555 42.4976 170.287 48.8576 173.448 52.1092C176.609 55.3608 183.002 54.2726 187.728 49.6787Z" fill="url(#paint39_radial_230_1782)"/>
<path d="M153.259 37.4981C149.115 32.373 142.897 30.5296 139.371 33.3806C135.844 36.2317 136.345 42.6977 140.488 47.8227C144.632 52.9478 150.849 54.7913 154.376 51.9402C157.902 49.0892 157.402 42.6232 153.259 37.4981Z" fill="url(#paint40_radial_230_1782)" fill-opacity="0.5"/>
<path d="M136.787 68.6579L135.184 59.3615C134.756 58.0369 133.794 57.8816 133.256 58.7785L127.381 71.1113L136.787 68.6579Z" fill="#A71135"/>
<path d="M130.514 68.2707C130.192 69.2646 129.453 70.0689 128.491 70.4739L120.928 73.6535C119.756 74.1463 119.756 75.8067 120.928 76.2993L128.525 79.4938C129.49 79.8994 130.23 80.7065 130.55 81.7028L133.906 92.1415C134.333 93.4692 136.212 93.4692 136.639 92.1415L139.984 81.7358C140.304 80.7421 141.04 79.9367 142.002 79.5297L149.639 76.2981C150.807 75.8039 150.807 74.1489 149.639 73.6549L142.036 70.4377C141.077 70.0318 140.341 69.229 140.02 68.238L136.638 57.7823C136.209 56.458 134.335 56.458 133.907 57.7823L130.514 68.2707Z" fill="url(#paint41_linear_230_1782)"/>
<path d="M130.514 68.2707C130.192 69.2646 129.453 70.0689 128.491 70.4739L120.928 73.6535C119.756 74.1463 119.756 75.8067 120.928 76.2993L128.525 79.4938C129.49 79.8994 130.23 80.7065 130.55 81.7028L133.906 92.1415C134.333 93.4692 136.212 93.4692 136.639 92.1415L139.984 81.7358C140.304 80.7421 141.04 79.9367 142.002 79.5297L149.639 76.2981C150.807 75.8039 150.807 74.1489 149.639 73.6549L142.036 70.4377C141.077 70.0318 140.341 69.229 140.02 68.238L136.638 57.7823C136.209 56.458 134.335 56.458 133.907 57.7823L130.514 68.2707Z" fill="url(#paint42_linear_230_1782)"/>
<path d="M130.514 68.2707C130.192 69.2646 129.453 70.0689 128.491 70.4739L120.928 73.6535C119.756 74.1463 119.756 75.8067 120.928 76.2993L128.525 79.4938C129.49 79.8994 130.23 80.7065 130.55 81.7028L133.906 92.1415C134.333 93.4692 136.212 93.4692 136.639 92.1415L139.984 81.7358C140.304 80.7421 141.04 79.9367 142.002 79.5297L149.639 76.2981C150.807 75.8039 150.807 74.1489 149.639 73.6549L142.036 70.4377C141.077 70.0318 140.341 69.229 140.02 68.238L136.638 57.7823C136.209 56.458 134.335 56.458 133.907 57.7823L130.514 68.2707Z" fill="url(#paint43_linear_230_1782)"/>
<path d="M130.514 68.2707C130.192 69.2646 129.453 70.0689 128.491 70.4739L120.928 73.6535C119.756 74.1463 119.756 75.8067 120.928 76.2993L128.525 79.4938C129.49 79.8994 130.23 80.7065 130.55 81.7028L133.906 92.1415C134.333 93.4692 136.212 93.4692 136.639 92.1415L139.984 81.7358C140.304 80.7421 141.04 79.9367 142.002 79.5297L149.639 76.2981C150.807 75.8039 150.807 74.1489 149.639 73.6549L142.036 70.4377C141.077 70.0318 140.341 69.229 140.02 68.238L136.638 57.7823C136.209 56.458 134.335 56.458 133.907 57.7823L130.514 68.2707Z" fill="url(#paint44_radial_230_1782)"/>
<path d="M130.799 80.1563H129.559C129.258 79.8807 128.91 79.6554 128.525 79.4938L120.928 76.2993C119.756 75.8067 119.756 74.1463 120.928 73.6535L128.491 70.4739C129.453 70.0689 130.192 69.2646 130.514 68.2707L133.907 57.7823C134.335 56.458 136.209 56.458 136.638 57.7823L140.02 68.238C140.341 69.229 141.077 70.0319 142.036 70.4377L149.639 73.6549C150.807 74.1489 150.807 75.8039 149.639 76.2981L128.904 77.5329C128.538 77.6876 130.238 78.8558 130.799 80.1563Z" fill="url(#paint45_linear_230_1782)"/>
<path d="M130.799 80.1563H129.559C129.258 79.8807 128.91 79.6554 128.525 79.4938L120.928 76.2993C119.756 75.8067 119.756 74.1463 120.928 73.6535L128.491 70.4739C129.453 70.0689 130.192 69.2646 130.514 68.2707L133.907 57.7823C134.335 56.458 136.209 56.458 136.638 57.7823L140.02 68.238C140.341 69.229 141.077 70.0319 142.036 70.4377L149.639 73.6549C150.807 74.1489 150.807 75.8039 149.639 76.2981L128.904 77.5329C128.538 77.6876 130.238 78.8558 130.799 80.1563Z" fill="url(#paint46_linear_230_1782)"/>
<path d="M129.56 80.1572C130.014 80.5734 130.358 81.1041 130.551 81.7037L133.907 92.1424C134.334 93.4702 136.213 93.4702 136.64 92.1424L139.985 81.7367C140.183 81.1213 140.541 80.5783 141.013 80.1572H129.56Z" fill="url(#paint47_linear_230_1782)"/>
<path d="M136.261 58.7217L139.036 68.0201C139.548 69.7347 140.83 71.1124 142.504 71.7465L148.728 74.1041" stroke="url(#paint48_radial_230_1782)" stroke-width="0.287023" stroke-linecap="round"/>
<path d="M135.588 93.6119L138.727 83.2969" stroke="url(#paint49_linear_230_1782)" stroke-width="0.287023" stroke-linecap="round"/>
<path d="M130.655 71.2339L134.422 58.7217" stroke="url(#paint50_linear_230_1782)" stroke-width="0.287023" stroke-linecap="round"/>
<path d="M173.649 39.7005C173.275 40.5231 172.606 41.1744 171.773 41.5245L168.092 43.0722C167.45 43.3422 167.45 44.2524 168.092 44.5225L171.831 46.0945C172.641 46.4352 173.298 47.0618 173.678 47.8548L176.067 52.855C176.301 53.5829 177.33 53.5829 177.564 52.855L178.439 48.5029C178.672 47.3399 179.466 46.3675 180.558 45.9053L183.828 44.5216C184.468 44.251 184.468 43.3437 183.828 43.073L180.344 41.5986C179.384 41.1927 178.649 40.3911 178.328 39.4C177.749 37.6097 176.858 34.8563 176.702 34.3735C176.467 33.6476 176.302 33.6476 176.068 34.3735L173.649 39.7005Z" fill="#C01942"/>
<path d="M175.127 39.0368C174.805 40.0306 174.067 40.8349 173.104 41.2396L169.644 42.6942C169.002 42.9643 169.002 43.8744 169.644 44.1445L173.121 45.6063C174.086 46.0119 174.825 46.819 175.146 47.8155L176.757 52.8272C176.991 53.5548 178.021 53.5548 178.255 52.8272L179.861 47.8313C180.18 46.8376 180.917 46.0323 181.878 45.6253L185.38 44.1437C186.02 43.873 186.02 42.9657 185.38 42.6951L181.896 41.2206C180.936 40.8148 180.201 40.012 179.88 39.0208L178.254 33.9956C178.019 33.2697 176.992 33.2697 176.758 33.9956L175.127 39.0368Z" fill="url(#paint51_linear_230_1782)"/>
<path d="M175.127 39.0368C174.805 40.0306 174.067 40.8349 173.104 41.2396L169.644 42.6942C169.002 42.9643 169.002 43.8744 169.644 44.1445L173.121 45.6063C174.086 46.0119 174.825 46.819 175.146 47.8155L176.757 52.8272C176.991 53.5548 178.021 53.5548 178.255 52.8272L179.861 47.8313C180.18 46.8376 180.917 46.0323 181.878 45.6253L185.38 44.1437C186.02 43.873 186.02 42.9657 185.38 42.6951L181.896 41.2206C180.936 40.8148 180.201 40.012 179.88 39.0208L178.254 33.9956C178.019 33.2697 176.992 33.2697 176.758 33.9956L175.127 39.0368Z" fill="url(#paint52_linear_230_1782)"/>
<path d="M175.127 39.0368C174.805 40.0306 174.067 40.8349 173.104 41.2396L169.644 42.6942C169.002 42.9643 169.002 43.8744 169.644 44.1445L173.121 45.6063C174.086 46.0119 174.825 46.819 175.146 47.8155L176.757 52.8272C176.991 53.5548 178.021 53.5548 178.255 52.8272L179.861 47.8313C180.18 46.8376 180.917 46.0323 181.878 45.6253L185.38 44.1437C186.02 43.873 186.02 42.9657 185.38 42.6951L181.896 41.2206C180.936 40.8148 180.201 40.012 179.88 39.0208L178.254 33.9956C178.019 33.2697 176.992 33.2697 176.758 33.9956L175.127 39.0368Z" fill="url(#paint53_linear_230_1782)"/>
<path d="M175.127 39.0368C174.805 40.0306 174.067 40.8349 173.104 41.2396L169.644 42.6942C169.002 42.9643 169.002 43.8744 169.644 44.1445L173.121 45.6063C174.086 46.0119 174.825 46.819 175.146 47.8155L176.757 52.8272C176.991 53.5548 178.021 53.5548 178.255 52.8272L179.861 47.8313C180.18 46.8376 180.917 46.0323 181.878 45.6253L185.38 44.1437C186.02 43.873 186.02 42.9657 185.38 42.6951L181.896 41.2206C180.936 40.8148 180.201 40.012 179.88 39.0208L178.254 33.9956C178.019 33.2697 176.992 33.2697 176.758 33.9956L175.127 39.0368Z" fill="url(#paint54_radial_230_1782)"/>
<path d="M175.054 46.2584H174.374C174.21 46.1072 174.019 45.9838 173.808 45.8951L169.644 44.1445C169.002 43.8744 169.002 42.9643 169.644 42.6942L173.789 40.9514C174.317 40.7295 174.722 40.2887 174.898 39.7442L176.758 33.9956C176.992 33.2697 178.019 33.2697 178.254 33.9956L180.108 39.7261C180.284 40.2694 180.687 40.7091 181.213 40.9319L185.38 42.6951C186.02 42.9657 186.02 43.873 185.38 44.1437L174.016 44.8205C173.815 44.9054 174.747 45.5455 175.054 46.2584Z" fill="url(#paint55_linear_230_1782)"/>
<path d="M175.054 46.2584H174.374C174.21 46.1072 174.019 45.9838 173.808 45.8951L169.644 44.1445C169.002 43.8744 169.002 42.9643 169.644 42.6942L173.789 40.9514C174.317 40.7295 174.722 40.2887 174.898 39.7442L176.758 33.9956C176.992 33.2697 178.019 33.2697 178.254 33.9956L180.108 39.7261C180.284 40.2694 180.687 40.7091 181.213 40.9319L185.38 42.6951C186.02 42.9657 186.02 43.873 185.38 44.1437L174.016 44.8205C173.815 44.9054 174.747 45.5455 175.054 46.2584Z" fill="url(#paint56_linear_230_1782)"/>
<path d="M174.375 46.2607C174.624 46.4889 174.813 46.7797 174.919 47.1083L176.758 52.8295C176.992 53.5571 178.022 53.5571 178.256 52.8295L180.089 47.1264C180.198 46.7891 180.394 46.4915 180.653 46.2607H174.375Z" fill="url(#paint57_linear_230_1782)"/>
<path d="M178.047 34.5127L179.202 38.3795C179.714 40.0942 180.996 41.4719 182.669 42.1059L184.881 42.9435" stroke="url(#paint58_radial_230_1782)" stroke-width="0.287023" stroke-linecap="round"/>
<path d="M177.678 53.632L179.399 47.9785" stroke="url(#paint59_linear_230_1782)" stroke-width="0.287023" stroke-linecap="round"/>
<path d="M174.974 41.3706L177.039 34.5127" stroke="url(#paint60_linear_230_1782)" stroke-width="0.287023" stroke-linecap="round"/>
<path d="M120 128.744C120 108.528 136.389 92.1396 156.605 92.1396H158.395C178.612 92.1396 195 108.528 195 128.744V129.654C195 145.125 182.459 157.665 166.989 157.665H148.011C132.541 157.665 120 145.125 120 129.654V128.744Z" fill="url(#paint61_radial_230_1782)"/>
<path d="M120 128.744C120 108.528 136.389 92.1396 156.605 92.1396H158.395C178.612 92.1396 195 108.528 195 128.744V129.654C195 145.125 182.459 157.665 166.989 157.665H148.011C132.541 157.665 120 145.125 120 129.654V128.744Z" fill="url(#paint62_radial_230_1782)"/>
<path d="M120 128.743C120 108.527 136.389 92.1387 156.605 92.1387H158.395C178.612 92.1387 195 108.527 195 128.743V129.654C195 145.124 182.459 157.664 166.989 157.664H148.011C132.541 157.664 120 145.124 120 129.654V128.743Z" fill="url(#paint63_radial_230_1782)"/>
<path d="M120 128.743C120 108.527 136.389 92.1387 156.605 92.1387H158.395C178.612 92.1387 195 108.527 195 128.743V129.654C195 145.124 182.459 157.664 166.989 157.664H148.011C132.541 157.664 120 145.124 120 129.654V128.743Z" fill="url(#paint64_radial_230_1782)"/>
<path d="M144.57 77.2181C146.067 79.7682 148.246 83.0393 151.047 85.7231H163.953C166.755 83.0393 168.933 79.7682 170.431 77.2181C171.203 75.9031 170.669 74.2249 169.31 73.5333C168.289 73.0138 167.092 73.2604 166.102 73.837C163.869 75.1382 162.579 73.6043 160.609 70.5912C159.618 69.0763 158.106 68.9955 157.5 68.9873C156.894 68.9955 155.383 69.0763 154.392 70.5912C152.421 73.6043 151.131 75.1382 148.898 73.837C147.908 73.2604 146.712 73.0138 145.691 73.5333C144.332 74.2249 143.798 75.9031 144.57 77.2181Z" fill="url(#paint65_linear_230_1782)"/>
<path d="M159.335 107.657C159.335 106.25 158.195 105.11 156.788 105.11C155.382 105.11 154.242 106.25 154.242 107.657V110.06C154.242 110.629 153.861 111.122 153.329 111.326C152.447 111.663 151.566 112.131 150.757 112.737C148.728 114.255 147.075 116.712 147.075 120.14C147.075 123.514 148.596 125.96 150.661 127.526C152.629 129.019 155.004 129.666 156.901 129.838C157.67 129.908 158.818 130.112 159.769 130.712C160.591 131.23 161.411 132.119 161.584 134.023C161.749 135.845 161.009 136.926 160.043 137.662C158.929 138.512 157.634 138.781 157.306 138.781C156.539 138.781 155.224 138.679 154.113 138.076C153.177 137.568 152.168 136.606 151.959 134.262C151.834 132.862 150.598 131.827 149.197 131.952C147.796 132.077 146.762 133.314 146.887 134.715C147.25 138.787 149.275 141.244 151.683 142.552C152.215 142.84 152.753 143.067 153.279 143.244C153.836 143.431 154.242 143.935 154.242 144.524V146.699C154.242 148.105 155.382 149.245 156.788 149.245C158.195 149.245 159.335 148.105 159.335 146.699V144.546C159.335 143.971 159.723 143.474 160.263 143.275C161.22 142.923 162.219 142.408 163.131 141.712C165.247 140.099 167.006 137.413 166.656 133.562C166.331 129.995 164.542 127.849 162.454 126.531C160.494 125.295 158.348 124.887 157.281 124.79C154.39 124.64 152.168 123.044 152.168 120.14C152.168 118.545 152.801 117.374 153.74 116.671C155.677 115.03 158.973 115.253 160.529 117.316C161.218 118.229 161.526 119.235 161.596 120.14C161.703 121.542 162.916 122.66 164.319 122.552C165.721 122.444 166.767 121.347 166.659 119.945C166.546 118.479 166.061 116.334 164.58 114.371C163.612 113.089 161.784 111.859 160.281 111.24C159.738 111.016 159.335 110.51 159.335 109.924V107.657Z" fill="url(#paint66_linear_230_1782)"/>
<path d="M159.971 107.333C159.971 105.926 158.831 104.786 157.425 104.786C156.018 104.786 154.878 105.926 154.878 107.333V109.736C154.878 110.305 154.497 110.799 153.965 111.002C153.083 111.339 152.202 111.807 151.393 112.412C149.364 113.931 147.712 116.388 147.712 119.816C147.712 123.19 149.232 125.635 151.298 127.202C153.266 128.695 155.641 129.341 157.538 129.514C158.307 129.584 159.455 129.788 160.406 130.388C161.227 130.906 162.047 131.795 162.22 133.699C162.386 135.521 161.646 136.602 160.68 137.338C159.565 138.188 158.271 138.457 157.942 138.457C157.175 138.457 155.861 138.355 154.749 137.752C153.814 137.244 152.805 136.282 152.596 133.939C152.471 132.538 151.234 131.503 149.833 131.628C148.433 131.753 147.398 132.99 147.523 134.391C147.886 138.463 149.911 140.921 152.32 142.228C152.852 142.516 153.39 142.742 153.915 142.919C154.472 143.108 154.878 143.611 154.878 144.2V146.374C154.878 147.781 156.018 148.921 157.425 148.921C158.831 148.921 159.971 147.781 159.971 146.374V144.222C159.971 143.647 160.36 143.15 160.9 142.951C161.856 142.598 162.855 142.083 163.767 141.388C165.883 139.775 167.642 137.089 167.292 133.238C166.968 129.67 165.179 127.524 163.09 126.207C161.131 124.971 158.985 124.563 157.917 124.466C155.026 124.317 152.805 122.72 152.805 119.816C152.805 118.221 153.438 117.05 154.376 116.347C156.313 114.706 159.609 114.929 161.165 116.992C161.854 117.904 162.162 118.911 162.232 119.816C162.34 121.218 163.553 122.336 164.955 122.228C166.357 122.12 167.403 121.023 167.295 119.621C167.182 118.155 166.697 116.01 165.216 114.047C164.248 112.764 162.42 111.535 160.917 110.916C160.375 110.693 159.971 110.186 159.971 109.6V107.333Z" fill="url(#paint67_linear_230_1782)"/>
<path d="M163.207 85.7236H151.643C149.796 85.7236 148.299 87.2211 148.299 89.0683V89.0932C148.299 90.9404 149.796 92.4379 151.643 92.4379H163.207C165.054 92.4379 166.552 90.9404 166.552 89.0932V89.0683C166.552 87.2211 165.054 85.7236 163.207 85.7236Z" fill="url(#paint68_linear_230_1782)"/>
<path d="M163.207 85.7236H151.643C149.796 85.7236 148.299 87.2211 148.299 89.0683V89.0932C148.299 90.9404 149.796 92.4379 151.643 92.4379H163.207C165.054 92.4379 166.552 90.9404 166.552 89.0932V89.0683C166.552 87.2211 165.054 85.7236 163.207 85.7236Z" fill="url(#paint69_radial_230_1782)"/>
<path d="M163.208 85.7246H151.644C149.797 85.7246 148.3 87.2221 148.3 89.0693V89.0942C148.3 90.9414 149.797 92.4388 151.644 92.4388H163.208C165.055 92.4388 166.553 90.9414 166.553 89.0942V89.0693C166.553 87.2221 165.055 85.7246 163.208 85.7246Z" fill="url(#paint70_radial_230_1782)"/>
</g>
<defs>
<filter id="filter0_dddi_230_1782" x="170.104" y="0.296619" width="135.203" height="135.203" filterUnits="userSpaceOnUse" color-interpolation-filters="sRGB">
<feFlood flood-opacity="0" result="BackgroundImageFix"/>
<feColorMatrix in="SourceAlpha" type="matrix" values="0 0 0 0 0 0 0 0 0 0 0 0 0 0 0 0 0 0 127 0" result="hardAlpha"/>
<feOffset dy="1.69069"/>
<feGaussianBlur stdDeviation="1.69069"/>
<feComposite in2="hardAlpha" operator="out"/>
<feColorMatrix type="matrix" values="0 0 0 0 0.0666667 0 0 0 0 0.0941176 0 0 0 0 0.109804 0 0 0 0.04 0"/>
<feBlend mode="normal" in2="BackgroundImageFix" result="effect1_dropShadow_230_1782"/>
<feColorMatrix in="SourceAlpha" type="matrix" values="0 0 0 0 0 0 0 0 0 0 0 0 0 0 0 0 0 0 127 0" result="hardAlpha"/>
<feMorphology radius="0.845343" operator="erode" in="SourceAlpha" result="effect2_dropShadow_230_1782"/>
<feOffset dy="0.845343"/>
<feGaussianBlur stdDeviation="0.845343"/>
<feComposite in2="hardAlpha" operator="out"/>
<feColorMatrix type="matrix" values="0 0 0 0 0.0666667 0 0 0 0 0.0941176 0 0 0 0 0.109804 0 0 0 0.08 0"/>
<feBlend mode="normal" in2="effect1_dropShadow_230_1782" result="effect2_dropShadow_230_1782"/>
<feColorMatrix in="SourceAlpha" type="matrix" values="0 0 0 0 0 0 0 0 0 0 0 0 0 0 0 0 0 0 127 0" result="hardAlpha"/>
<feMorphology radius="0.845343" operator="dilate" in="SourceAlpha" result="effect3_dropShadow_230_1782"/>
<feOffset/>
<feComposite in2="hardAlpha" operator="out"/>
<feColorMatrix type="matrix" values="0 0 0 0 0.0666667 0 0 0 0 0.0941176 0 0 0 0 0.109804 0 0 0 0.08 0"/>
<feBlend mode="normal" in2="effect2_dropShadow_230_1782" result="effect3_dropShadow_230_1782"/>
<feBlend mode="normal" in="SourceGraphic" in2="effect3_dropShadow_230_1782" result="shape"/>
<feColorMatrix in="SourceAlpha" type="matrix" values="0 0 0 0 0 0 0 0 0 0 0 0 0 0 0 0 0 0 127 0" result="hardAlpha"/>
<feOffset dy="3.38137"/>
<feGaussianBlur stdDeviation="1.69069"/>
<feComposite in2="hardAlpha" operator="arithmetic" k2="-1" k3="1"/>
<feColorMatrix type="matrix" values="0 0 0 0 0 0 0 0 0 0 0 0 0 0 0 0 0 0 0.16 0"/>
<feBlend mode="normal" in2="shape" result="effect4_innerShadow_230_1782"/>
</filter>
<filter id="filter1_dddi_230_1782" x="-2.4761" y="5.36888" width="135.203" height="135.203" filterUnits="userSpaceOnUse" color-interpolation-filters="sRGB">
<feFlood flood-opacity="0" result="BackgroundImageFix"/>
<feColorMatrix in="SourceAlpha" type="matrix" values="0 0 0 0 0 0 0 0 0 0 0 0 0 0 0 0 0 0 127 0" result="hardAlpha"/>
<feOffset dy="1.69069"/>
<feGaussianBlur stdDeviation="1.69069"/>
<feComposite in2="hardAlpha" operator="out"/>
<feColorMatrix type="matrix" values="0 0 0 0 0.427451 0 0 0 0 0.223529 0 0 0 0 0.894118 0 0 0 0.04 0"/>
<feBlend mode="normal" in2="BackgroundImageFix" result="effect1_dropShadow_230_1782"/>
<feColorMatrix in="SourceAlpha" type="matrix" values="0 0 0 0 0 0 0 0 0 0 0 0 0 0 0 0 0 0 127 0" result="hardAlpha"/>
<feMorphology radius="0.845343" operator="erode" in="SourceAlpha" result="effect2_dropShadow_230_1782"/>
<feOffset dy="0.845343"/>
<feGaussianBlur stdDeviation="0.845343"/>
<feComposite in2="hardAlpha" operator="out"/>
<feColorMatrix type="matrix" values="0 0 0 0 0.427451 0 0 0 0 0.223529 0 0 0 0 0.894118 0 0 0 0.08 0"/>
<feBlend mode="normal" in2="effect1_dropShadow_230_1782" result="effect2_dropShadow_230_1782"/>
<feColorMatrix in="SourceAlpha" type="matrix" values="0 0 0 0 0 0 0 0 0 0 0 0 0 0 0 0 0 0 127 0" result="hardAlpha"/>
<feMorphology radius="0.845343" operator="dilate" in="SourceAlpha" result="effect3_dropShadow_230_1782"/>
<feOffset/>
<feComposite in2="hardAlpha" operator="out"/>
<feColorMatrix type="matrix" values="0 0 0 0 0.427451 0 0 0 0 0.223529 0 0 0 0 0.894118 0 0 0 0.08 0"/>
<feBlend mode="normal" in2="effect2_dropShadow_230_1782" result="effect3_dropShadow_230_1782"/>
<feBlend mode="normal" in="SourceGraphic" in2="effect3_dropShadow_230_1782" result="shape"/>
<feColorMatrix in="SourceAlpha" type="matrix" values="0 0 0 0 0 0 0 0 0 0 0 0 0 0 0 0 0 0 127 0" result="hardAlpha"/>
<feOffset dy="3.38137"/>
<feGaussianBlur stdDeviation="1.69069"/>
<feComposite in2="hardAlpha" operator="arithmetic" k2="-1" k3="1"/>
<feColorMatrix type="matrix" values="0 0 0 0 0.427451 0 0 0 0 0.223529 0 0 0 0 0.894118 0 0 0 0.16 0"/>
<feBlend mode="normal" in2="shape" result="effect4_innerShadow_230_1782"/>
</filter>
<filter id="filter2_dddi_230_1782" x="93.0473" y="0.296619" width="122.575" height="162.44" filterUnits="userSpaceOnUse" color-interpolation-filters="sRGB">
<feFlood flood-opacity="0" result="BackgroundImageFix"/>
<feColorMatrix in="SourceAlpha" type="matrix" values="0 0 0 0 0 0 0 0 0 0 0 0 0 0 0 0 0 0 127 0" result="hardAlpha"/>
<feOffset dy="1.69069"/>
<feGaussianBlur stdDeviation="1.69069"/>
<feComposite in2="hardAlpha" operator="out"/>
<feColorMatrix type="matrix" values="0 0 0 0 0.0666667 0 0 0 0 0.0941176 0 0 0 0 0.109804 0 0 0 0.04 0"/>
<feBlend mode="normal" in2="BackgroundImageFix" result="effect1_dropShadow_230_1782"/>
<feColorMatrix in="SourceAlpha" type="matrix" values="0 0 0 0 0 0 0 0 0 0 0 0 0 0 0 0 0 0 127 0" result="hardAlpha"/>
<feMorphology radius="0.845343" operator="erode" in="SourceAlpha" result="effect2_dropShadow_230_1782"/>
<feOffset dy="0.845343"/>
<feGaussianBlur stdDeviation="0.845343"/>
<feComposite in2="hardAlpha" operator="out"/>
<feColorMatrix type="matrix" values="0 0 0 0 0.0666667 0 0 0 0 0.0941176 0 0 0 0 0.109804 0 0 0 0.08 0"/>
<feBlend mode="normal" in2="effect1_dropShadow_230_1782" result="effect2_dropShadow_230_1782"/>
<feColorMatrix in="SourceAlpha" type="matrix" values="0 0 0 0 0 0 0 0 0 0 0 0 0 0 0 0 0 0 127 0" result="hardAlpha"/>
<feMorphology radius="0.845343" operator="dilate" in="SourceAlpha" result="effect3_dropShadow_230_1782"/>
<feOffset/>
<feComposite in2="hardAlpha" operator="out"/>
<feColorMatrix type="matrix" values="0 0 0 0 0.0666667 0 0 0 0 0.0941176 0 0 0 0 0.109804 0 0 0 0.08 0"/>
<feBlend mode="normal" in2="effect2_dropShadow_230_1782" result="effect3_dropShadow_230_1782"/>
<feBlend mode="normal" in="SourceGraphic" in2="effect3_dropShadow_230_1782" result="shape"/>
<feColorMatrix in="SourceAlpha" type="matrix" values="0 0 0 0 0 0 0 0 0 0 0 0 0 0 0 0 0 0 127 0" result="hardAlpha"/>
<feOffset dy="3.38137"/>
<feGaussianBlur stdDeviation="1.69069"/>
<feComposite in2="hardAlpha" operator="arithmetic" k2="-1" k3="1"/>
<feColorMatrix type="matrix" values="0 0 0 0 0 0 0 0 0 0 0 0 0 0 0 0 0 0 0.16 0"/>
<feBlend mode="normal" in2="shape" result="effect4_innerShadow_230_1782"/>
</filter>
<linearGradient id="paint0_linear_230_1782" x1="238.491" y1="59.9732" x2="230.491" y2="88.7061" gradientUnits="userSpaceOnUse">
<stop stop-color="#82BB30"/>
<stop offset="1" stop-color="#94D22F"/>
</linearGradient>
<linearGradient id="paint1_linear_230_1782" x1="238.491" y1="59.9732" x2="230.491" y2="88.7061" gradientUnits="userSpaceOnUse">
<stop stop-color="#82BB30"/>
<stop offset="1" stop-color="#97D630"/>
</linearGradient>
<linearGradient id="paint2_linear_230_1782" x1="226.679" y1="85.3407" x2="229.786" y2="86.2058" gradientUnits="userSpaceOnUse">
<stop stop-color="#86B95C"/>
<stop offset="1" stop-color="#86B95C" stop-opacity="0"/>
</linearGradient>
<linearGradient id="paint3_linear_230_1782" x1="235.967" y1="61.2895" x2="236.043" y2="64.5085" gradientUnits="userSpaceOnUse">
<stop stop-color="#86B95C"/>
<stop offset="1" stop-color="#86B95C" stop-opacity="0"/>
</linearGradient>
<linearGradient id="paint4_linear_230_1782" x1="238.835" y1="75.8175" x2="236.438" y2="75.3121" gradientUnits="userSpaceOnUse">
<stop stop-color="#86B95C"/>
<stop offset="1" stop-color="#86B95C" stop-opacity="0"/>
</linearGradient>
<linearGradient id="paint5_linear_230_1782" x1="238.326" y1="63.2875" x2="229.641" y2="94.4842" gradientUnits="userSpaceOnUse">
<stop stop-color="#9ED75B"/>
<stop offset="1" stop-color="#BCF461"/>
</linearGradient>
<linearGradient id="paint6_linear_230_1782" x1="245.148" y1="78.7523" x2="273.117" y2="65.9745" gradientUnits="userSpaceOnUse">
<stop stop-color="#8DB746"/>
<stop offset="1" stop-color="#ABEE48"/>
</linearGradient>
<linearGradient id="paint7_linear_230_1782" x1="250.232" y1="80.6661" x2="250.818" y2="78.561" gradientUnits="userSpaceOnUse">
<stop stop-color="#97B86E"/>
<stop offset="1" stop-color="#97B86E" stop-opacity="0"/>
</linearGradient>
<linearGradient id="paint8_linear_230_1782" x1="242.746" y1="61.7549" x2="245.468" y2="67.6205" gradientUnits="userSpaceOnUse">
<stop stop-color="#6CAF09"/>
<stop offset="1" stop-color="#6CAF09" stop-opacity="0"/>
</linearGradient>
<radialGradient id="paint9_radial_230_1782" cx="0" cy="0" r="1" gradientUnits="userSpaceOnUse" gradientTransform="translate(275.582 68.6357) rotate(160.692) scale(11.9947 1.40346)">
<stop stop-color="#CBFF78"/>
<stop offset="1" stop-color="#CBFF78" stop-opacity="0"/>
</radialGradient>
<linearGradient id="paint10_linear_230_1782" x1="246.991" y1="77.1705" x2="268.852" y2="66.8494" gradientUnits="userSpaceOnUse">
<stop stop-color="#A0CC4C"/>
<stop offset="1" stop-color="#C2FD65"/>
</linearGradient>
<linearGradient id="paint11_linear_230_1782" x1="244.088" y1="63.5514" x2="211.831" y2="35.6462" gradientUnits="userSpaceOnUse">
<stop stop-color="#97DA22"/>
<stop offset="1" stop-color="#90CD2F"/>
</linearGradient>
<linearGradient id="paint12_linear_230_1782" x1="242.128" y1="60.5334" x2="219.468" y2="38.781" gradientUnits="userSpaceOnUse">
<stop stop-color="#B6EB53"/>
<stop offset="1" stop-color="#A0D930"/>
</linearGradient>
<radialGradient id="paint13_radial_230_1782" cx="0" cy="0" r="1" gradientUnits="userSpaceOnUse" gradientTransform="translate(233.592 120.404) rotate(-120.049) scale(28.9618 27.6579)">
<stop stop-color="#BF8B88"/>
<stop offset="1" stop-color="#835146"/>
</radialGradient>
<linearGradient id="paint14_linear_230_1782" x1="223.05" y1="115.779" x2="223.448" y2="114.35" gradientUnits="userSpaceOnUse">
<stop stop-color="#964972"/>
<stop offset="1" stop-color="#964972" stop-opacity="0"/>
</linearGradient>
<radialGradient id="paint15_radial_230_1782" cx="0" cy="0" r="1" gradientUnits="userSpaceOnUse" gradientTransform="translate(213.019 116.382) rotate(-59.7014) scale(17.8606 12.9349)">
<stop stop-color="#A3646D"/>
<stop offset="1" stop-color="#A3646D" stop-opacity="0"/>
</radialGradient>
<radialGradient id="paint16_radial_230_1782" cx="0" cy="0" r="1" gradientUnits="userSpaceOnUse" gradientTransform="translate(253.924 99.7863) rotate(149.849) scale(16.3229 29.762)">
<stop stop-color="#BF8B88"/>
<stop offset="1" stop-color="#BF8B88" stop-opacity="0"/>
</radialGradient>
<linearGradient id="paint17_linear_230_1782" x1="238.953" y1="57.9339" x2="238.708" y2="45.3983" gradientUnits="userSpaceOnUse">
<stop stop-color="#D1FF77"/>
<stop offset="1" stop-color="#D1FF77" stop-opacity="0"/>
</linearGradient>
<radialGradient id="paint18_radial_230_1782" cx="0" cy="0" r="1" gradientUnits="userSpaceOnUse" gradientTransform="translate(22.6226 44.8921) scale(22.0591 3.90277)">
<stop stop-color="#E3E1E1"/>
<stop offset="1" stop-color="#E3E1E1" stop-opacity="0"/>
</radialGradient>
<linearGradient id="paint19_linear_230_1782" x1="91.3109" y1="62.6702" x2="52.6264" y2="101.355" gradientUnits="userSpaceOnUse">
<stop stop-color="#12724A"/>
<stop offset="1" stop-color="#116245"/>
</linearGradient>
<linearGradient id="paint20_linear_230_1782" x1="92.7579" y1="58.522" x2="88.658" y2="62.6219" gradientUnits="userSpaceOnUse">
<stop stop-color="#1C8F60"/>
<stop offset="1" stop-color="#1C8F60" stop-opacity="0"/>
</linearGradient>
<linearGradient id="paint21_linear_230_1782" x1="49.5876" y1="101.306" x2="53.8323" y2="97.0617" gradientUnits="userSpaceOnUse">
<stop offset="0.556818" stop-color="#195840"/>
<stop offset="1" stop-color="#195840" stop-opacity="0"/>
</linearGradient>
<radialGradient id="paint22_radial_230_1782" cx="0" cy="0" r="1" gradientUnits="userSpaceOnUse" gradientTransform="translate(69.3724 81.1557) rotate(114.806) scale(11.5973 11.0037)">
<stop offset="0.306788" stop-color="#0E593C"/>
<stop offset="1" stop-color="#0E593C" stop-opacity="0"/>
</radialGradient>
<radialGradient id="paint23_radial_230_1782" cx="0" cy="0" r="1" gradientUnits="userSpaceOnUse" gradientTransform="translate(69.1957 84.6941) rotate(138.249) scale(14.3479 3.04247)">
<stop offset="0.396008" stop-color="#0F4F35"/>
<stop offset="1" stop-color="#0F4F35" stop-opacity="0"/>
</radialGradient>
<radialGradient id="paint24_radial_230_1782" cx="0" cy="0" r="1" gradientUnits="userSpaceOnUse" gradientTransform="translate(21.298 71.1336) rotate(3.25931) scale(42.4188 55.6264)">
<stop stop-color="#31DE74"/>
<stop offset="1" stop-color="#20CF5E"/>
</radialGradient>
<linearGradient id="paint25_linear_230_1782" x1="58.2467" y1="37.2728" x2="53.5198" y2="87.3407" gradientUnits="userSpaceOnUse">
<stop stop-color="#24A35B"/>
<stop offset="1" stop-color="#27A05A"/>
</linearGradient>
<linearGradient id="paint26_linear_230_1782" x1="60.7537" y1="59.2689" x2="63.5033" y2="56.5193" gradientUnits="userSpaceOnUse">
<stop offset="0.22807" stop-color="#269553"/>
<stop offset="1" stop-color="#269553" stop-opacity="0"/>
</linearGradient>
<radialGradient id="paint27_radial_230_1782" cx="0" cy="0" r="1" gradientUnits="userSpaceOnUse" gradientTransform="translate(63.3586 57.1464) rotate(-85.8023) scale(10.5435 10.3633)">
<stop offset="0.587108" stop-color="#249755" stop-opacity="0"/>
<stop offset="0.986856" stop-color="#16793D"/>
</radialGradient>
<linearGradient id="paint28_linear_230_1782" x1="45.2226" y1="50.1028" x2="71.9448" y2="76.825" gradientUnits="userSpaceOnUse">
<stop stop-color="#FFD425"/>
<stop offset="1" stop-color="#FFAD24"/>
</linearGradient>
<linearGradient id="paint29_linear_230_1782" x1="78.0704" y1="79.671" x2="72.1375" y2="73.7381" gradientUnits="userSpaceOnUse">
<stop offset="0.893939" stop-color="#CC8139"/>
<stop offset="1" stop-color="#CC8139" stop-opacity="0"/>
</linearGradient>
<linearGradient id="paint30_linear_230_1782" x1="38.488" y1="66.8455" x2="52.4821" y2="80.8396" gradientUnits="userSpaceOnUse">
<stop stop-color="#EFEAEA"/>
<stop offset="1" stop-color="#EAE3E3"/>
</linearGradient>
<linearGradient id="paint31_linear_230_1782" x1="154.335" y1="1.9873" x2="154.335" y2="117.799" gradientUnits="userSpaceOnUse">
<stop stop-color="#FFD881"/>
<stop offset="1" stop-color="#99824D"/>
</linearGradient>
<radialGradient id="paint32_radial_230_1782" cx="0" cy="0" r="1" gradientUnits="userSpaceOnUse" gradientTransform="translate(165.051 94.7345) rotate(-90) scale(93.4023 158.784)">
<stop stop-color="#F12E52"/>
<stop offset="0.596003" stop-color="#FF3B79"/>
<stop offset="1" stop-color="#FF4EC6"/>
</radialGradient>
<radialGradient id="paint33_radial_230_1782" cx="0" cy="0" r="1" gradientUnits="userSpaceOnUse" gradientTransform="translate(176.77 44.2298) rotate(142.986) scale(75.1887 140.836)">
<stop offset="0.483055" stop-color="#B91D43" stop-opacity="0"/>
<stop offset="0.833898" stop-color="#B91D43"/>
</radialGradient>
<radialGradient id="paint34_radial_230_1782" cx="0" cy="0" r="1" gradientUnits="userSpaceOnUse" gradientTransform="translate(168.089 62.6512) rotate(-158.663) scale(65.2198 92.1974)">
<stop offset="0.40984" stop-color="#B91D43" stop-opacity="0"/>
<stop offset="0.833898" stop-color="#B91D43"/>
</radialGradient>
<radialGradient id="paint35_radial_230_1782" cx="0" cy="0" r="1" gradientUnits="userSpaceOnUse" gradientTransform="translate(155.37 51.2607) rotate(90) scale(56.7627 56.7627)">
<stop offset="0.671096" stop-color="#FF7AF2" stop-opacity="0"/>
<stop offset="0.933555" stop-color="#FFBCE6"/>
</radialGradient>
<linearGradient id="paint36_linear_230_1782" x1="161.634" y1="57.9052" x2="184.605" y2="85.2424" gradientUnits="userSpaceOnUse">
<stop offset="0.694491" stop-color="#FF7AF2" stop-opacity="0"/>
<stop offset="0.933555" stop-color="#FFBCE6"/>
</linearGradient>
<linearGradient id="paint37_linear_230_1782" x1="158.787" y1="59.0442" x2="131.829" y2="89.4189" gradientUnits="userSpaceOnUse">
<stop offset="0.694491" stop-color="#FF7AF2" stop-opacity="0"/>
<stop offset="0.933555" stop-color="#FFBCE6"/>
</linearGradient>
<linearGradient id="paint38_linear_230_1782" x1="167.598" y1="38.4463" x2="159.543" y2="29.5962" gradientUnits="userSpaceOnUse">
<stop offset="0.40984" stop-color="#C12372" stop-opacity="0"/>
<stop offset="0.833898" stop-color="#B5286E"/>
</linearGradient>
<radialGradient id="paint39_radial_230_1782" cx="0" cy="0" r="1" gradientUnits="userSpaceOnUse" gradientTransform="translate(192.376 37.2303) rotate(139.035) scale(17.6474 11.9163)">
<stop stop-color="#FF93BA"/>
<stop offset="1" stop-color="#FF73A6" stop-opacity="0"/>
</radialGradient>
<radialGradient id="paint40_radial_230_1782" cx="0" cy="0" r="1" gradientUnits="userSpaceOnUse" gradientTransform="translate(144.169 35.7882) rotate(52.745) scale(25.4014 17.1522)">
<stop stop-color="#FF93BA"/>
<stop offset="1" stop-color="#FF73A6" stop-opacity="0"/>
</radialGradient>
<linearGradient id="paint41_linear_230_1782" x1="138.053" y1="56.7889" x2="130.249" y2="84.9102" gradientUnits="userSpaceOnUse">
<stop stop-color="#FFD542"/>
<stop offset="1" stop-color="#FFA847"/>
</linearGradient>
<linearGradient id="paint42_linear_230_1782" x1="132.671" y1="83.2957" x2="130.462" y2="95.4597" gradientUnits="userSpaceOnUse">
<stop offset="0.458251" stop-color="#E88518" stop-opacity="0"/>
<stop offset="1" stop-color="#E88518"/>
</linearGradient>
<linearGradient id="paint43_linear_230_1782" x1="127.828" y1="80.5151" x2="115.674" y2="80.1907" gradientUnits="userSpaceOnUse">
<stop offset="0.361577" stop-color="#E88518" stop-opacity="0"/>
<stop offset="1" stop-color="#E88518"/>
</linearGradient>
<radialGradient id="paint44_radial_230_1782" cx="0" cy="0" r="1" gradientUnits="userSpaceOnUse" gradientTransform="translate(140.205 46.7899) rotate(103.828) scale(20.5989 56.9131)">
<stop stop-color="#FFFF6B"/>
<stop offset="1" stop-color="#FFFF6B" stop-opacity="0"/>
</radialGradient>
<linearGradient id="paint45_linear_230_1782" x1="132.447" y1="74.5504" x2="129.537" y2="80.7679" gradientUnits="userSpaceOnUse">
<stop offset="0.781564" stop-color="#E88518" stop-opacity="0"/>
<stop offset="1" stop-color="#E88518"/>
</linearGradient>
<linearGradient id="paint46_linear_230_1782" x1="132.447" y1="74.5504" x2="129.537" y2="80.7679" gradientUnits="userSpaceOnUse">
<stop offset="0.781564" stop-color="#E88518" stop-opacity="0"/>
<stop offset="1" stop-color="#E88518"/>
</linearGradient>
<linearGradient id="paint47_linear_230_1782" x1="138.688" y1="87.7335" x2="132.612" y2="89.7719" gradientUnits="userSpaceOnUse">
<stop offset="0.776042" stop-color="#E88518" stop-opacity="0"/>
<stop offset="1" stop-color="#E88518"/>
</linearGradient>
<radialGradient id="paint48_radial_230_1782" cx="0" cy="0" r="1" gradientUnits="userSpaceOnUse" gradientTransform="translate(134.422 58.7217) rotate(43.142) scale(22.4955 19.2353)">
<stop stop-color="#FFF270" stop-opacity="0"/>
<stop offset="0.548137" stop-color="#FFF270"/>
<stop offset="1" stop-color="#FFF270" stop-opacity="0"/>
</radialGradient>
<linearGradient id="paint49_linear_230_1782" x1="137.113" y1="89.4412" x2="134.64" y2="85.401" gradientUnits="userSpaceOnUse">
<stop stop-color="#FFF270" stop-opacity="0"/>
<stop offset="0.494792" stop-color="#FFF270" stop-opacity="0.6"/>
<stop offset="1" stop-color="#FFF270" stop-opacity="0"/>
</linearGradient>
<linearGradient id="paint50_linear_230_1782" x1="134.063" y1="57.7797" x2="138.884" y2="64.7893" gradientUnits="userSpaceOnUse">
<stop stop-color="#FF8A09" stop-opacity="0.6"/>
<stop offset="1" stop-color="#FF8A09" stop-opacity="0"/>
</linearGradient>
<linearGradient id="paint51_linear_230_1782" x1="179.03" y1="33.4512" x2="174.753" y2="48.8637" gradientUnits="userSpaceOnUse">
<stop stop-color="#FFD542"/>
<stop offset="1" stop-color="#FFA847"/>
</linearGradient>
<linearGradient id="paint52_linear_230_1782" x1="176.08" y1="47.9789" x2="174.87" y2="54.6458" gradientUnits="userSpaceOnUse">
<stop offset="0.458251" stop-color="#E88518" stop-opacity="0"/>
<stop offset="1" stop-color="#E88518"/>
</linearGradient>
<linearGradient id="paint53_linear_230_1782" x1="173.426" y1="46.455" x2="166.764" y2="46.2771" gradientUnits="userSpaceOnUse">
<stop offset="0.361577" stop-color="#E88518" stop-opacity="0"/>
<stop offset="1" stop-color="#E88518"/>
</linearGradient>
<radialGradient id="paint54_radial_230_1782" cx="0" cy="0" r="1" gradientUnits="userSpaceOnUse" gradientTransform="translate(180.21 27.9709) rotate(103.828) scale(11.2898 31.193)">
<stop stop-color="#FFFF6B"/>
<stop offset="1" stop-color="#FFFF6B" stop-opacity="0"/>
</radialGradient>
<linearGradient id="paint55_linear_230_1782" x1="175.957" y1="43.1859" x2="174.362" y2="46.5934" gradientUnits="userSpaceOnUse">
<stop offset="0.781564" stop-color="#E88518" stop-opacity="0"/>
<stop offset="1" stop-color="#E88518"/>
</linearGradient>
<linearGradient id="paint56_linear_230_1782" x1="175.957" y1="43.1859" x2="174.362" y2="46.5934" gradientUnits="userSpaceOnUse">
<stop offset="0.781564" stop-color="#E88518" stop-opacity="0"/>
<stop offset="1" stop-color="#E88518"/>
</linearGradient>
<linearGradient id="paint57_linear_230_1782" x1="179.379" y1="50.4131" x2="176.048" y2="51.5302" gradientUnits="userSpaceOnUse">
<stop offset="0.776042" stop-color="#E88518" stop-opacity="0"/>
<stop offset="1" stop-color="#E88518"/>
</linearGradient>
<radialGradient id="paint58_radial_230_1782" cx="0" cy="0" r="1" gradientUnits="userSpaceOnUse" gradientTransform="translate(177.04 34.5127) rotate(43.142) scale(12.3293 10.5425)">
<stop stop-color="#FFF270" stop-opacity="0"/>
<stop offset="0.548137" stop-color="#FFF270"/>
<stop offset="1" stop-color="#FFF270" stop-opacity="0"/>
</radialGradient>
<linearGradient id="paint59_linear_230_1782" x1="178.514" y1="51.3459" x2="177.158" y2="49.1318" gradientUnits="userSpaceOnUse">
<stop stop-color="#FFF270" stop-opacity="0"/>
<stop offset="0.494792" stop-color="#FFF270" stop-opacity="0.6"/>
<stop offset="1" stop-color="#FFF270" stop-opacity="0"/>
</linearGradient>
<linearGradient id="paint60_linear_230_1782" x1="176.842" y1="33.9965" x2="179.485" y2="37.8383" gradientUnits="userSpaceOnUse">
<stop stop-color="#FF8A09" stop-opacity="0.6"/>
<stop offset="1" stop-color="#FF8A09" stop-opacity="0"/>
</linearGradient>
<radialGradient id="paint61_radial_230_1782" cx="0" cy="0" r="1" gradientUnits="userSpaceOnUse" gradientTransform="translate(167.745 98.2819) rotate(100.07) scale(58.5951 61.3717)">
<stop stop-color="#F6C93B"/>
<stop offset="1" stop-color="#E88340"/>
</radialGradient>
<radialGradient id="paint62_radial_230_1782" cx="0" cy="0" r="1" gradientUnits="userSpaceOnUse" gradientTransform="translate(182.467 107.433) rotate(133.199) scale(22.3778 37.4916)">
<stop stop-color="#FFE065"/>
<stop offset="1" stop-color="#FFE065" stop-opacity="0"/>
</radialGradient>
<radialGradient id="paint63_radial_230_1782" cx="0" cy="0" r="1" gradientUnits="userSpaceOnUse" gradientTransform="translate(125.172 107.432) rotate(31.6513) scale(17.0601 42.2811)">
<stop offset="0.187216" stop-color="#FFA45D"/>
<stop offset="1" stop-color="#FFA45D" stop-opacity="0"/>
</radialGradient>
<radialGradient id="paint64_radial_230_1782" cx="0" cy="0" r="1" gradientUnits="userSpaceOnUse" gradientTransform="translate(157.5 142.644) rotate(-90) scale(51.9232 78.2299)">
<stop offset="0.928161" stop-color="#F3BD46" stop-opacity="0"/>
<stop offset="0.979885" stop-color="#917011"/>
</radialGradient>
<linearGradient id="paint65_linear_230_1782" x1="161.491" y1="74.6571" x2="157.5" y2="85.7231" gradientUnits="userSpaceOnUse">
<stop stop-color="#F3C048"/>
<stop offset="1" stop-color="#E67A41"/>
</linearGradient>
<linearGradient id="paint66_linear_230_1782" x1="156.788" y1="106.165" x2="156.788" y2="146.947" gradientUnits="userSpaceOnUse">
<stop stop-color="#A6782C"/>
<stop offset="1" stop-color="#B95940"/>
</linearGradient>
<linearGradient id="paint67_linear_230_1782" x1="168.441" y1="131.901" x2="147.513" y2="131.901" gradientUnits="userSpaceOnUse">
<stop stop-color="#9D6360"/>
<stop offset="1" stop-color="#724A4D"/>
</linearGradient>
<linearGradient id="paint68_linear_230_1782" x1="150.835" y1="89.0807" x2="166.551" y2="89.0807" gradientUnits="userSpaceOnUse">
<stop stop-color="#834B41"/>
<stop offset="1" stop-color="#735854"/>
</linearGradient>
<radialGradient id="paint69_radial_230_1782" cx="0" cy="0" r="1" gradientUnits="userSpaceOnUse" gradientTransform="translate(163.368 88.0363) rotate(180) scale(5.94332 4.47614)">
<stop stop-color="#7D5A54"/>
<stop offset="1" stop-color="#7D5A54" stop-opacity="0"/>
</radialGradient>
<radialGradient id="paint70_radial_230_1782" cx="0" cy="0" r="1" gradientUnits="userSpaceOnUse" gradientTransform="translate(164.165 89.0817) rotate(180) scale(17.6061 14.1041)">
<stop offset="0.694915" stop-color="#B3624D" stop-opacity="0"/>
<stop offset="0.960452" stop-color="#B3624D"/>
</radialGradient>
</defs>
</svg>
