<svg width="40" height="41" viewBox="0 0 40 41" fill="none" xmlns="http://www.w3.org/2000/svg">
<path d="M27.2602 1.47461C31.7127 1.47461 34.7337 2.41511 36.6539 4.37457C38.5766 6.33645 39.5 9.42568 39.5 13.9746V27.9746C39.5 32.5206 38.5533 35.6106 36.6182 37.5736C34.6849 39.5348 31.6621 40.4746 27.2602 40.4746H12.7398C8.33785 40.4746 5.31513 39.5348 3.38177 37.5736C1.44666 35.6106 0.5 32.5206 0.5 27.9746V13.9746C0.5 9.42568 1.42344 6.33645 3.34606 4.37457C5.26629 2.41511 8.28733 1.47461 12.7398 1.47461H27.2602Z" fill="#FACC15" fill-opacity="0.3" stroke="#0F0F0E" stroke-opacity="0.1"/>
<path d="M20.0001 15.3174L14.3433 20.9742M14.3433 20.9742L20.0001 26.6311M14.3433 20.9742H25.657" stroke="#0F0F0E" stroke-width="1.5" stroke-linecap="round" stroke-linejoin="round"/>
</svg>
