<svg width="12" height="12" viewBox="0 0 12 12" fill="none" xmlns="http://www.w3.org/2000/svg">
<path d="M11.1468 2.49521C10.8535 2.18116 10.4989 1.93076 10.1048 1.75955C9.71072 1.58835 9.28565 1.5 8.85599 1.5C8.42633 1.5 8.00126 1.58835 7.60718 1.75955C7.2131 1.93076 6.85843 2.18116 6.56521 2.49521C6.33939 2.73213 6.14913 3.00055 6.00037 3.29209C5.85232 3.0007 5.66286 2.73229 5.43787 2.49521C5.14464 2.18116 4.78998 1.93076 4.3959 1.75955C4.00182 1.58835 3.57675 1.5 3.14708 1.5C2.71742 1.5 2.29235 1.58835 1.89827 1.75955C1.50419 1.93076 1.14953 2.18116 0.856303 2.49521C0.814721 2.5389 0.784289 2.59197 0.76759 2.64993C0.750891 2.70788 0.748417 2.76901 0.760378 2.82813C0.772339 2.88724 0.798382 2.9426 0.836298 2.9895C0.874214 3.03641 0.922883 3.07347 0.978178 3.09756L3.60974 4.24459C2.75275 4.47372 2.02174 5.03361 1.57724 5.80131C1.35423 6.18186 1.2095 6.60312 1.15155 7.04038C1.09359 7.47763 1.12357 7.92205 1.23974 8.34756C1.2558 8.40685 1.28617 8.46129 1.3282 8.50609C1.37022 8.55089 1.4226 8.58468 1.48075 8.60449C1.53889 8.6243 1.60101 8.62953 1.66164 8.61971C1.72228 8.60989 1.77957 8.58533 1.82849 8.54818L5.62537 5.65693V10.5001C5.62537 10.5995 5.66487 10.6949 5.7352 10.7652C5.80553 10.8355 5.90091 10.8751 6.00037 10.8751C6.09982 10.8751 6.1952 10.8355 6.26553 10.7652C6.33586 10.6949 6.37537 10.5995 6.37537 10.5001V5.65693L10.1722 8.54818C10.2212 8.58544 10.2785 8.61009 10.3392 8.61996C10.3999 8.62984 10.4621 8.62464 10.5203 8.60482C10.5785 8.58499 10.6309 8.55116 10.673 8.5063C10.7151 8.46144 10.7454 8.40693 10.7615 8.34756C10.8776 7.92205 10.9076 7.47763 10.8497 7.04038C10.7917 6.60312 10.647 6.18186 10.424 5.80131C9.97935 5.03352 9.24815 4.47361 8.39099 4.24459L11.0263 3.09756C11.0816 3.07347 11.1303 3.03641 11.1682 2.9895C11.2061 2.9426 11.2321 2.88724 11.2441 2.82813C11.2561 2.76901 11.2536 2.70788 11.2369 2.64993C11.2202 2.59197 11.1898 2.5389 11.1482 2.49521H11.1468ZM3.14474 2.25006C3.47267 2.25079 3.79696 2.31882 4.09754 2.44992C4.39812 2.58102 4.6686 2.77241 4.89224 3.01225C5.2264 3.36391 5.45762 3.80056 5.56068 4.27459L1.82849 2.6499C2.21799 2.38926 2.67608 2.25011 3.14474 2.25006ZM1.87537 7.57037C1.85746 7.08247 1.97892 6.59956 2.22552 6.17818C2.3979 5.88069 2.62748 5.62029 2.90102 5.41199C3.17457 5.2037 3.48665 5.05164 3.81927 4.96459C4.04297 4.90491 4.27353 4.87481 4.50505 4.87506C4.76283 4.87503 5.01919 4.9131 5.26583 4.98803L1.87537 7.57037ZM9.7738 6.17818C10.0209 6.59941 10.1428 7.08233 10.1254 7.57037L6.7363 4.98756C7.30298 4.81645 7.91073 4.84082 8.46188 5.05676C9.01304 5.2727 9.47559 5.66766 9.77521 6.17818H9.7738ZM6.44005 4.27459C6.54312 3.80056 6.77433 3.36391 7.10849 3.01225C7.33213 2.77241 7.60261 2.58102 7.90319 2.44992C8.20377 2.31882 8.52806 2.25079 8.85599 2.25006C9.32465 2.25011 9.78274 2.38926 10.1722 2.6499L6.44005 4.27459Z" fill="#A0744B"/>
</svg>
