<svg width="40" height="41" viewBox="0 0 40 41" fill="none" xmlns="http://www.w3.org/2000/svg">
<path d="M26.25 15.9365V23.4365C26.25 23.768 26.1183 24.086 25.8839 24.3204C25.6495 24.5548 25.3315 24.6865 25 24.6865C24.6685 24.6865 24.3505 24.5548 24.1161 24.3204C23.8817 24.086 23.75 23.768 23.75 23.4365V18.9537L15.8844 26.8209C15.7682 26.937 15.6304 27.0292 15.4786 27.092C15.3269 27.1549 15.1642 27.1872 15 27.1872C14.8358 27.1872 14.6731 27.1549 14.5214 27.092C14.3696 27.0292 14.2318 26.937 14.1156 26.8209C13.9995 26.7048 13.9074 26.5669 13.8445 26.4151C13.7817 26.2634 13.7493 26.1008 13.7493 25.9365C13.7493 25.7723 13.7817 25.6096 13.8445 25.4579C13.9074 25.3062 13.9995 25.1683 14.1156 25.0521L21.9828 17.1865H17.5C17.1685 17.1865 16.8505 17.0548 16.6161 16.8204C16.3817 16.586 16.25 16.268 16.25 15.9365C16.25 15.605 16.3817 15.2871 16.6161 15.0526C16.8505 14.8182 17.1685 14.6865 17.5 14.6865H25C25.3315 14.6865 25.6495 14.8182 25.8839 15.0526C26.1183 15.2871 26.25 15.605 26.25 15.9365ZM36.25 20.9365C36.25 24.1505 35.297 27.2922 33.5114 29.9645C31.7258 32.6368 29.1879 34.7196 26.2186 35.9496C23.2493 37.1795 19.982 37.5013 16.8298 36.8743C13.6776 36.2473 10.7821 34.6996 8.50952 32.427C6.23692 30.1544 4.68926 27.2589 4.06225 24.1067C3.43524 20.9545 3.75704 17.6872 4.98696 14.7179C6.21689 11.7486 8.29969 9.21071 10.972 7.42514C13.6443 5.63957 16.7861 4.68652 20 4.68652C24.3084 4.69107 28.439 6.40458 31.4855 9.45106C34.5319 12.4975 36.2455 16.6282 36.25 20.9365ZM33.75 20.9365C33.75 18.217 32.9436 15.5586 31.4327 13.2974C29.9218 11.0363 27.7744 9.27388 25.2619 8.23318C22.7494 7.19247 19.9848 6.92018 17.3175 7.45073C14.6503 7.98127 12.2003 9.29083 10.2773 11.2138C8.35432 13.1368 7.04476 15.5868 6.51421 18.254C5.98366 20.9213 6.25596 23.6859 7.29666 26.1984C8.33737 28.7109 10.0997 30.8584 12.3609 32.3692C14.6221 33.8801 17.2805 34.6865 20 34.6865C23.6455 34.6824 27.1404 33.2324 29.7182 30.6547C32.2959 28.0769 33.7459 24.582 33.75 20.9365Z" fill="black"/>
</svg>
